<svg width="25" height="25" viewBox="0 0 25 25" fill="none" xmlns="http://www.w3.org/2000/svg">
<g clip-path="url(#clip0_2103_2901)">
<path d="M20.8496 0.5H4.15039C1.85819 0.5 0 2.32668 0 4.58V20.3816C0 22.6349 1.85819 24.4616 4.15039 24.4616H20.8496C23.1418 24.4616 25 22.6349 25 20.3816V4.58C25 2.32668 23.1418 0.5 20.8496 0.5Z" fill="#470137"/>
<path d="M13.1433 6.80153L10.0238 11.8629L13.3612 17.2375C13.3827 17.2751 13.3887 17.3193 13.378 17.3611C13.3728 17.379 13.3617 17.3834 13.3446 17.3841L13.3257 17.3838L13.3026 17.3832C13.2901 17.3832 13.2762 17.3838 13.2606 17.3863H10.8544L10.8071 17.3855C10.6774 17.3822 10.584 17.3639 10.527 17.2704C10.3044 16.844 10.0808 16.4182 9.85614 15.9928C9.65522 15.6134 9.44882 15.2368 9.237 14.8631L9.14345 14.6986C8.8901 14.256 8.64133 13.8108 8.39716 13.3632H8.38036C8.15488 13.8061 7.92286 14.2458 7.68437 14.6821C7.44381 15.1218 7.20621 15.5587 6.97157 15.9928C6.73676 16.4271 6.49638 16.8586 6.25048 17.2869C6.21093 17.3743 6.14521 17.3925 6.0537 17.3955L6.01562 17.3961H3.71806L3.7081 17.3964L3.67528 17.3993C3.65702 17.4003 3.64608 17.3965 3.64257 17.3694C3.63631 17.3292 3.64528 17.2881 3.66776 17.254L6.90448 12.0278L3.75155 6.78521C3.71809 6.74143 3.71249 6.70572 3.73476 6.67807C3.74713 6.66399 3.76267 6.65293 3.78015 6.64576C3.79762 6.6386 3.81655 6.63553 3.83544 6.63679H6.20009C6.25165 6.63405 6.3032 6.64251 6.35106 6.66156C6.3911 6.68393 6.42558 6.71494 6.45165 6.75228C6.65289 7.19196 6.87652 7.63158 7.12255 8.07113C7.36664 8.50785 7.61542 8.94201 7.86884 9.37356C8.11838 9.79843 8.35056 10.2329 8.56483 10.676H8.58163C8.80123 10.233 9.02765 9.79336 9.26083 9.35715C9.48987 8.92847 9.72463 8.49705 9.96513 8.06287C10.2025 7.63433 10.4345 7.20294 10.6611 6.7688C10.674 6.72809 10.6971 6.69123 10.7282 6.66156C10.7696 6.64093 10.8162 6.63234 10.8624 6.63679H13.0594C13.0796 6.63184 13.1009 6.63348 13.12 6.64144C13.1392 6.64941 13.1552 6.66328 13.1657 6.68097C13.1761 6.69866 13.1805 6.71922 13.178 6.73954C13.1756 6.75986 13.1665 6.77885 13.1521 6.79366L13.1433 6.80153ZM18.072 17.5989L17.9563 17.6002C17.1844 17.6118 16.4195 17.4541 15.7174 17.1386C15.0633 16.841 14.5165 16.3552 14.1493 15.7455C13.7791 15.141 13.5891 14.3879 13.5795 13.4861L13.5791 13.4127C13.5728 12.656 13.7695 11.9111 14.1494 11.253C14.5296 10.6016 15.0839 10.0649 15.7521 9.70102L15.8097 9.6703C16.5362 9.27459 17.4139 9.07673 18.4427 9.07673L18.4876 9.07721L18.539 9.07884L18.5966 9.08134L18.6606 9.08499L18.7683 9.09247L18.8901 9.10207L18.9793 9.10975V5.86188C18.9793 5.78502 19.0128 5.74655 19.0799 5.74649H21.1931C21.2067 5.74456 21.2207 5.74579 21.2338 5.75008C21.2469 5.75437 21.2588 5.7616 21.2685 5.77119C21.2783 5.78079 21.2856 5.79249 21.29 5.80536C21.2944 5.81824 21.2956 5.83194 21.2936 5.84537V15.5889C21.2936 15.7525 21.3001 15.9287 21.313 16.1173L21.3442 16.545L21.3608 16.7923C21.3629 16.8266 21.3544 16.8607 21.3364 16.8901C21.3185 16.9195 21.2919 16.9429 21.2601 16.9573C20.715 17.1807 20.1472 17.3465 19.5663 17.4518C19.0732 17.5413 18.5734 17.5905 18.072 17.5989ZM18.9793 15.5559V11.0551C18.8887 11.031 18.7961 11.0144 18.7026 11.0057C18.5884 10.9943 18.4736 10.9888 18.3588 10.9891C17.9518 10.9851 17.5496 11.0755 17.1849 11.253C16.8296 11.4267 16.5262 11.688 16.3044 12.0114C16.083 12.3297 15.9685 12.7454 15.9609 13.2584L15.9605 13.3138C15.9524 13.6731 16.0121 14.0309 16.1366 14.3688C16.238 14.6412 16.3983 14.8887 16.6063 15.0943C16.8055 15.2835 17.0466 15.4245 17.3106 15.5064C17.5896 15.5952 17.8811 15.6397 18.1743 15.6384C18.3308 15.6384 18.4761 15.6329 18.6103 15.6218C18.7174 15.6139 18.8236 15.5965 18.9275 15.57L18.9793 15.5559Z" fill="#FF61F6"/>
</g>
<defs>
<clipPath id="clip0_2103_2901">
<rect width="25" height="24" fill="white" transform="translate(0 0.5)"/>
</clipPath>
</defs>
</svg>
