<svg width="24" height="25" viewBox="0 0 24 25" fill="none" xmlns="http://www.w3.org/2000/svg">
<g clip-path="url(#clip0_2113_2666)">
<path d="M3.5277 21.898L1.64258 0.753418H22.3576L20.4706 21.8948L11.9875 24.2466L3.5277 21.898Z" fill="#1572B6"/>
<path d="M12 22.4488L18.8548 20.5483L20.4675 2.48193H12V22.4488Z" fill="#33A9DC"/>
<path d="M12 10.1424H15.4316L15.6686 7.48687H12V4.89355H18.5029L18.4406 5.58937L17.8031 12.7357H12V10.1424Z" fill="white"/>
<path d="M12.0152 16.878L12.0038 16.8813L9.11569 16.1015L8.931 14.0332H6.32812L6.69131 18.1051L12.0034 19.5795L12.0152 19.5761V16.878Z" fill="#EBEBEB"/>
<path d="M15.2106 12.627L14.8982 16.0998L12.0059 16.8806V19.5787L17.3222 18.1053L17.3612 17.6671L17.8124 12.627H15.2106Z" fill="white"/>
<path d="M12.0078 4.89355V7.48687H5.74384L5.69191 6.90412L5.57378 5.58937L5.51172 4.89355H12.0078ZM11.999 10.1428V12.7361H9.14734L9.09541 12.1534L8.97709 10.8386L8.91522 10.1428H11.999Z" fill="#EBEBEB"/>
</g>
<defs>
<clipPath id="clip0_2113_2666">
<rect width="24" height="24" fill="white" transform="translate(0 0.5)"/>
</clipPath>
</defs>
</svg>
