<svg width="16" height="25" viewBox="0 0 16 25" fill="none" xmlns="http://www.w3.org/2000/svg">
<g clip-path="url(#clip0_2103_2893)">
<path d="M4 0.5H8V8.5H4C2.93913 8.5 1.92172 8.07857 1.17157 7.32843C0.421427 6.57828 0 5.56087 0 4.5C0 3.43913 0.421427 2.42172 1.17157 1.67157C1.92172 0.921427 2.93913 0.5 4 0.5Z" fill="#F4511E"/>
<path d="M12 8.5H8V0.5H12C13.0609 0.5 14.0783 0.921427 14.8284 1.67157C15.5786 2.42172 16 3.43913 16 4.5C16 5.56087 15.5786 6.57828 14.8284 7.32843C14.0783 8.07857 13.0609 8.5 12 8.5Z" fill="#FF8A65"/>
<path d="M8 12.5C8 14.7091 9.79086 16.5 12 16.5C14.2091 16.5 16 14.7091 16 12.5C16 10.2909 14.2091 8.5 12 8.5C9.79086 8.5 8 10.2909 8 12.5Z" fill="#29B6F6"/>
<path d="M4 8.5H8V16.5H4C2.93913 16.5 1.92172 16.0786 1.17157 15.3284C0.421427 14.5783 0 13.5609 0 12.5C0 11.4391 0.421427 10.4217 1.17157 9.67157C1.92172 8.92143 2.93913 8.5 4 8.5Z" fill="#7C4DFF"/>
<path d="M4 16.5H8V20.5C8 21.5609 7.57857 22.5783 6.82843 23.3284C6.07828 24.0786 5.06087 24.5 4 24.5C2.93913 24.5 1.92172 24.0786 1.17157 23.3284C0.421427 22.5783 0 21.5609 0 20.5C0 19.4391 0.421427 18.4217 1.17157 17.6716C1.92172 16.9214 2.93913 16.5 4 16.5Z" fill="#00E676"/>
</g>
<defs>
<clipPath id="clip0_2103_2893">
<rect width="16" height="24" fill="white" transform="translate(0 0.5)"/>
</clipPath>
</defs>
</svg>
