<svg width="24" height="25" viewBox="0 0 24 25" fill="none" xmlns="http://www.w3.org/2000/svg">
<path d="M4.42548 20.9007L2.74023 2H21.2577L19.5702 20.8978L11.9877 23L4.42548 20.9007Z" fill="#E44F26"/>
<path d="M12 21.3932L18.1275 19.6944L19.569 3.54541H12V21.3932Z" fill="#F1662A"/>
<path d="M12 10.5553H8.9325L8.721 8.18153H12V5.86328H6.1875L6.243 6.48578L6.81225 12.8735H12V10.5553ZM12 16.5755L11.9895 16.5785L9.408 15.8818L9.243 14.033H6.91575L7.2405 17.672L11.9895 18.9905L12 18.9875V16.5755Z" fill="#EBEBEB"/>
<path d="M11.9912 10.5553V12.8735H14.8457L14.5772 15.8803L11.9912 16.5778V18.9898L16.744 17.672L16.7785 17.2805L17.323 11.1778L17.38 10.5553H11.9912ZM11.9912 5.86328V8.18153H17.5907L17.6372 7.66103L17.743 6.48578L17.7985 5.86328H11.9912Z" fill="white"/>
</svg>
