<svg width="24" height="25" viewBox="0 0 24 25" fill="none" xmlns="http://www.w3.org/2000/svg">
<g clip-path="url(#clip0_2113_2692)">
<path d="M18.375 0.5H5.625C2.5184 0.5 0 3.0184 0 6.125V18.875C0 21.9816 2.5184 24.5 5.625 24.5H18.375C21.4816 24.5 24 21.9816 24 18.875V6.125C24 3.0184 21.4816 0.5 18.375 0.5Z" fill="#F0DB4F"/>
<path d="M6.31064 20.5564L8.1472 19.4449C8.50158 20.0731 8.82389 20.6047 9.59705 20.6047C10.3381 20.6047 10.8054 20.3148 10.8054 19.1872V11.5186H13.0608V19.2191C13.0608 21.5551 11.6915 22.6184 9.6937 22.6184C7.88948 22.6184 6.8422 21.684 6.31055 20.5562M14.2859 20.3147L16.1222 19.2515C16.6057 20.041 17.234 20.6209 18.3455 20.6209C19.2801 20.6209 19.876 20.1537 19.876 19.5092C19.876 18.736 19.2638 18.4621 18.2327 18.0111L17.669 17.7693C16.0418 17.0767 14.9624 16.2067 14.9624 14.3701C14.9624 12.6785 16.2512 11.3896 18.2651 11.3896C19.6989 11.3896 20.73 11.8891 21.471 13.1941L19.7149 14.3218C19.3282 13.6291 18.9095 13.3552 18.2651 13.3552C17.6045 13.3552 17.1856 13.7741 17.1856 14.3218C17.1856 14.9984 17.6045 15.2723 18.5711 15.6913L19.1349 15.9329C21.052 16.7546 22.1314 17.5921 22.1314 19.477C22.1314 21.5071 20.5365 22.6186 18.3939 22.6186C16.2996 22.6186 14.9463 21.6197 14.2859 20.3147Z" fill="#323330"/>
</g>
<defs>
<clipPath id="clip0_2113_2692">
<rect width="24" height="24" fill="white" transform="translate(0 0.5)"/>
</clipPath>
</defs>
</svg>
