<svg width="22" height="25" viewBox="0 0 22 25" fill="none" xmlns="http://www.w3.org/2000/svg">
<g clip-path="url(#clip0_2113_2697)">
<path d="M18.3932 5.21281C18.3766 5.09281 18.2715 5.0264 18.1846 5.01909C17.544 4.97095 16.9034 4.9232 16.2628 4.87583C16.2628 4.87583 14.9882 3.61049 14.8483 3.47043C14.7083 3.33046 14.435 3.37303 14.3289 3.40427C14.3132 3.40887 14.0504 3.48999 13.6156 3.62454C13.1899 2.39939 12.4385 1.27353 11.1166 1.27353C11.0801 1.27353 11.0425 1.27501 11.0049 1.27714C10.629 0.779965 10.1633 0.563965 9.76106 0.563965C6.68174 0.563965 5.21059 4.41342 4.74933 6.36958C3.55278 6.74035 2.70276 7.00394 2.59418 7.03805C1.92629 7.24755 1.90517 7.2686 1.81747 7.89794C1.75147 8.3744 0.00390625 21.8891 0.00390625 21.8891L13.6213 24.4405L20.9996 22.8443C20.9996 22.8443 18.4094 5.33281 18.3932 5.21281ZM12.863 3.85731L11.7107 4.21394C11.7111 4.13273 11.7116 4.05284 11.7116 3.96547C11.7116 3.20405 11.6059 2.59098 11.4363 2.10498C12.1174 2.19046 12.571 2.96544 12.863 3.85731ZM10.5914 2.25596C10.7807 2.73046 10.9039 3.41142 10.9039 4.33032C10.9039 4.37733 10.9034 4.42032 10.903 4.4638C10.1537 4.69591 9.33941 4.94791 8.52333 5.20073C8.98155 3.43229 9.84046 2.57816 10.5914 2.25596ZM9.67648 1.38991C9.80939 1.38991 9.94328 1.43503 10.0714 1.52323C9.08454 1.98761 8.02673 3.1572 7.58002 5.49284L5.69897 6.07542C6.22221 4.29391 7.4647 1.38991 9.67648 1.38991Z" fill="#95BF46"/>
<path d="M18.1838 5.01936C17.5432 4.97122 16.9026 4.92347 16.2619 4.8761C16.2619 4.8761 14.9874 3.61075 14.8475 3.4707C14.7951 3.41859 14.7245 3.39188 14.6507 3.38037L13.6211 24.4406L20.9988 22.8446C20.9988 22.8446 18.4086 5.33308 18.3923 5.21308C18.3758 5.09308 18.2707 5.02667 18.1838 5.01936Z" fill="#5E8E3E"/>
<path d="M11.1167 9.09581L10.207 11.8021C10.207 11.8021 9.40987 11.3766 8.43277 11.3766C7.00034 11.3766 6.92825 12.2756 6.92825 12.5021C6.92825 13.7381 10.1502 14.2117 10.1502 17.1068C10.1502 19.3846 8.70549 20.8513 6.75754 20.8513C4.42001 20.8513 3.22461 19.3965 3.22461 19.3965L3.8505 17.3285C3.8505 17.3285 5.07927 18.3835 6.11612 18.3835C6.79362 18.3835 7.06921 17.8501 7.06921 17.4603C7.06921 15.848 4.42592 15.7761 4.42592 13.1268C4.42592 10.897 6.02636 8.73926 9.25699 8.73926C10.5018 8.73926 11.1167 9.09581 11.1167 9.09581Z" fill="white"/>
</g>
<defs>
<clipPath id="clip0_2113_2697">
<rect width="21.0411" height="24" fill="white" transform="translate(0 0.5)"/>
</clipPath>
</defs>
</svg>
