<svg width="32" height="32" viewBox="0 0 32 32" fill="none" xmlns="http://www.w3.org/2000/svg">
<path d="M11.2 28C9.17778 28 7.472 27.3058 6.08267 25.9173C4.69333 24.5289 3.99911 22.8231 4 20.8C4 19.9556 4.14445 19.1333 4.43333 18.3333C4.72222 17.5333 5.13333 16.8111 5.66667 16.1667L10.4 10.4667L8.13333 5.93333C7.91111 5.48889 7.928 5.05556 8.184 4.63333C8.44 4.21111 8.82311 4 9.33333 4H22.6667C23.1778 4 23.5613 4.21111 23.8173 4.63333C24.0733 5.05556 24.0898 5.48889 23.8667 5.93333L21.6 10.4667L26.3333 16.1667C26.8667 16.8111 27.2778 17.5333 27.5667 18.3333C27.8556 19.1333 28 19.9556 28 20.8C28 22.8222 27.3 24.528 25.9 25.9173C24.5 27.3067 22.8 28.0009 20.8 28H11.2ZM16 21.3333C15.2667 21.3333 14.6391 21.0724 14.1173 20.5507C13.5956 20.0289 13.3342 19.4009 13.3333 18.6667C13.3324 17.9324 13.5938 17.3049 14.1173 16.784C14.6409 16.2631 15.2684 16.0018 16 16C16.7316 15.9982 17.3596 16.2596 17.884 16.784C18.4084 17.3084 18.6693 17.936 18.6667 18.6667C18.664 19.3973 18.4031 20.0253 17.884 20.5507C17.3649 21.076 16.7369 21.3369 16 21.3333ZM12.8333 9.33333H19.1667L20.5 6.66667H11.5L12.8333 9.33333ZM11.2 25.3333H20.8C22.0667 25.3333 23.1391 24.8947 24.0173 24.0173C24.8956 23.14 25.3342 22.0676 25.3333 20.8C25.3333 20.2667 25.2387 19.7502 25.0493 19.2507C24.86 18.7511 24.5991 18.3009 24.2667 17.9L19.3667 12H12.6667L7.73333 17.8667C7.4 18.2667 7.13911 18.7222 6.95067 19.2333C6.76222 19.7444 6.66756 20.2667 6.66667 20.8C6.66667 22.0667 7.10578 23.1391 7.984 24.0173C8.86222 24.8956 9.93422 25.3342 11.2 25.3333Z" fill="#3B82F6"/>
</svg>
