<svg width="34" height="34" viewBox="0 0 34 34" fill="none" xmlns="http://www.w3.org/2000/svg">
<path d="M24.867 23.7294C22.8744 21.7371 20.1721 20.6179 17.3544 20.6179C14.5367 20.6179 11.8343 21.7371 9.8418 23.7294M25.5002 5.38925C23.5479 4.26213 21.2279 3.95669 19.0504 4.54011C16.873 5.12353 15.0164 6.54803 13.8892 8.50025L28.6112 17.0003C29.7383 15.048 30.0438 12.7279 29.4604 10.5505C28.8769 8.37299 27.4524 6.51646 25.5002 5.38925Z" stroke="#3B82F6" stroke-width="2.83333" stroke-linecap="round" stroke-linejoin="round"/>
<path d="M23.7037 14.1669C26.0525 10.101 26.8557 6.17118 25.5 5.38918C24.1442 4.60718 21.1437 7.26768 18.7963 11.3335M21.25 12.7502L17 20.1112M4.25 27.271C4.691 27.0518 5.17437 26.9309 5.66667 26.9169C6.21845 26.9053 6.76476 27.0282 7.2584 27.2751C7.75204 27.5219 8.17818 27.8852 8.5 28.3335C8.82182 28.7819 9.24796 29.1452 9.7416 29.392C10.2352 29.6388 10.7815 29.7617 11.3333 29.7502C11.8851 29.7617 12.4314 29.6388 12.9251 29.392C13.4187 29.1452 13.8448 28.7819 14.1667 28.3335C14.4885 27.8852 14.9146 27.5219 15.4083 27.2751C15.9019 27.0282 16.4482 26.9053 17 26.9169C17.5518 26.9053 18.0981 27.0282 18.5917 27.2751C19.0854 27.5219 19.5115 27.8852 19.8333 28.3335C20.1552 28.7819 20.5813 29.1452 21.0749 29.392C21.5686 29.6388 22.1149 29.7617 22.6667 29.7502C23.2185 29.7617 23.7648 29.6388 24.2584 29.392C24.752 29.1452 25.1782 28.7819 25.5 28.3335C25.8218 27.8852 26.248 27.5219 26.7416 27.2751C27.2352 27.0282 27.7815 26.9053 28.3333 26.9169C28.8256 26.9309 29.309 27.0518 29.75 27.271" stroke="#3B82F6" stroke-width="2.83333" stroke-linecap="round" stroke-linejoin="round"/>
</svg>
