<svg width="30" height="30" viewBox="0 0 30 30" fill="none" xmlns="http://www.w3.org/2000/svg">
<path d="M3.75 23.125V6.25C3.75 5.25544 4.14509 4.30161 4.84835 3.59835C5.55161 2.89509 6.50544 2.5 7.5 2.5H25C25.3315 2.5 25.6495 2.6317 25.8839 2.86612C26.1183 3.10054 26.25 3.41848 26.25 3.75V26.25C26.25 26.5815 26.1183 26.8995 25.8839 27.1339C25.6495 27.3683 25.3315 27.5 25 27.5H8.125C6.96468 27.5 5.85188 27.0391 5.03141 26.2186C4.21094 25.3981 3.75 24.2853 3.75 23.125ZM23.75 25V21.25H8.125C7.62772 21.25 7.15081 21.4475 6.79917 21.7992C6.44754 22.1508 6.25 22.6277 6.25 23.125C6.25 23.6223 6.44754 24.0992 6.79917 24.4508C7.15081 24.8025 7.62772 25 8.125 25H23.75ZM6.25 19.1712C6.83606 18.8936 7.4765 18.7497 8.125 18.75H23.75V5H7.5C7.16848 5 6.85054 5.1317 6.61612 5.36612C6.3817 5.60054 6.25 5.91848 6.25 6.25V19.1712Z" fill="#3B82F6"/>
</svg>
