<svg width="24" height="25" viewBox="0 0 24 25" fill="none" xmlns="http://www.w3.org/2000/svg">
<path d="M21.1375 12.0189L18.4115 11.2399C17.1839 10.8939 16.0657 10.2385 15.1638 9.33664C14.2619 8.43477 13.6066 7.31653 13.2605 6.08894L12.4815 3.36294C12.4423 3.26757 12.3757 3.186 12.29 3.12859C12.2044 3.07118 12.1036 3.04053 12.0005 3.04053C11.8974 3.04053 11.7966 3.07118 11.7109 3.12859C11.6253 3.186 11.5587 3.26757 11.5195 3.36294L10.7405 6.08894C10.3944 7.31653 9.73905 8.43477 8.83717 9.33664C7.9353 10.2385 6.81707 10.8939 5.58948 11.2399L2.86348 12.0189C2.75881 12.0487 2.66668 12.1117 2.60109 12.1985C2.53549 12.2853 2.5 12.3911 2.5 12.4999C2.5 12.6087 2.53549 12.7146 2.60109 12.8014C2.66668 12.8882 2.75881 12.9512 2.86348 12.9809L5.58948 13.7599C6.81707 14.106 7.9353 14.7614 8.83717 15.6632C9.73905 16.5651 10.3944 17.6834 10.7405 18.9109L11.5195 21.6369C11.5492 21.7416 11.6122 21.8337 11.699 21.8993C11.7858 21.9649 11.8917 22.0004 12.0005 22.0004C12.1093 22.0004 12.2151 21.9649 12.3019 21.8993C12.3887 21.8337 12.4518 21.7416 12.4815 21.6369L13.2605 18.9109C13.6066 17.6834 14.2619 16.5651 15.1638 15.6632C16.0657 14.7614 17.1839 14.106 18.4115 13.7599L21.1375 12.9809C21.2421 12.9512 21.3343 12.8882 21.3999 12.8014C21.4655 12.7146 21.5009 12.6087 21.5009 12.4999C21.5009 12.3911 21.4655 12.2853 21.3999 12.1985C21.3343 12.1117 21.2421 12.0487 21.1375 12.0189Z" fill="#3B82F6"/>
</svg>
