<svg width="32" height="32" viewBox="0 0 32 32" fill="none" xmlns="http://www.w3.org/2000/svg">
<path d="M16.6655 24.5L25.3322 12.5L16.6655 4.00004L8.03216 12.5334L16.6655 24.5ZM12.9988 30.6667C11.8655 30.6667 10.8602 30.3276 9.98283 29.6494C9.10549 28.9711 8.51083 28.0996 8.19883 27.0347C8.06549 26.5227 7.78772 26.1112 7.36549 25.8C6.94327 25.4889 6.46549 25.3334 5.93216 25.3334C5.57661 25.3334 5.24327 25.4 4.93216 25.5334C4.62105 25.6667 4.35438 25.8667 4.13216 26.1334C4.02105 26.2889 3.88238 26.4111 3.71616 26.5C3.54994 26.5889 3.35527 26.6334 3.13216 26.6334C2.75438 26.6334 2.43794 26.5054 2.18283 26.2494C1.92772 25.9934 1.79972 25.6769 1.79883 25.3C1.79883 25.1223 1.82105 24.9667 1.86549 24.8334C1.90994 24.7 1.98772 24.5778 2.09883 24.4667C2.56549 23.8889 3.13794 23.4445 3.81616 23.1334C4.49438 22.8223 5.19972 22.6667 5.93216 22.6667C7.06549 22.6667 8.07661 23 8.96549 23.6667C9.85438 24.3334 10.4544 25.2112 10.7655 26.3C10.8988 26.8112 11.1766 27.2223 11.5988 27.5334C12.021 27.8445 12.4877 28 12.9988 28C13.421 28 13.7988 27.8889 14.1322 27.6667C14.4655 27.4445 14.7544 27.1667 14.9988 26.8334L15.0322 26.7667L5.83216 14.0667C5.65438 13.8223 5.52638 13.5667 5.44816 13.3C5.36994 13.0334 5.33127 12.7667 5.33216 12.5C5.33216 12.1445 5.39883 11.8058 5.53216 11.484C5.66549 11.1623 5.86549 10.8676 6.13216 10.6L14.7988 2.10004C15.0433 1.8556 15.3322 1.66671 15.6655 1.53337C15.9988 1.40004 16.3322 1.33337 16.6655 1.33337C16.9988 1.33337 17.3322 1.40004 17.6655 1.53337C17.9988 1.66671 18.2877 1.8556 18.5322 2.10004L27.1988 10.6C27.4655 10.8667 27.6655 11.1614 27.7988 11.484C27.9322 11.8067 27.9988 12.1454 27.9988 12.5C27.9988 12.7667 27.9597 13.0334 27.8815 13.3C27.8033 13.5667 27.6757 13.8223 27.4988 14.0667L16.6655 29.0667C16.2655 29.6223 15.7322 30.028 15.0655 30.284C14.3988 30.54 13.7099 30.6676 12.9988 30.6667Z" fill="#3B82F6"/>
</svg>
