<svg width="30" height="30" viewBox="0 0 30 30" fill="none" xmlns="http://www.w3.org/2000/svg">
<path d="M13.425 3.05485C13.8704 2.69353 14.4265 2.49634 15 2.49634C15.5735 2.49634 16.1296 2.69353 16.575 3.05485L26.11 10.7798C26.5436 11.131 26.8933 11.5744 27.1338 12.0778C27.3743 12.5812 27.4994 13.1319 27.5 13.6898V24.9998C27.5 25.6629 27.2366 26.2988 26.7678 26.7676C26.2989 27.2365 25.663 27.4998 25 27.4998H20C19.337 27.4998 18.7011 27.2365 18.2322 26.7676C17.7634 26.2988 17.5 25.6629 17.5 24.9998V17.4998H12.5V24.9998C12.5 25.6629 12.2366 26.2988 11.7678 26.7676C11.2989 27.2365 10.663 27.4998 10 27.4998H5C4.33696 27.4998 3.70107 27.2365 3.23223 26.7676C2.76339 26.2988 2.5 25.6629 2.5 24.9998V13.6924C2.49989 13.1336 2.62464 12.5819 2.86513 12.0776C3.10562 11.5732 3.45578 11.129 3.89 10.7773L13.425 3.05485ZM24.5375 12.7198L15 4.99985L5.4625 12.7198C5.3178 12.8372 5.20118 12.9855 5.12115 13.1537C5.04113 13.322 4.99974 13.506 5 13.6924V24.9998H10V17.4998C10 16.8368 10.2634 16.2009 10.7322 15.7321C11.2011 15.2632 11.837 14.9998 12.5 14.9998H17.5C18.163 14.9998 18.7989 15.2632 19.2678 15.7321C19.7366 16.2009 20 16.8368 20 17.4998V24.9998H25V13.6924C25.0003 13.506 24.9589 13.322 24.8788 13.1537C24.7988 12.9855 24.6822 12.8372 24.5375 12.7198Z" fill="#3B82F6"/>
</svg>
