<svg width="32" height="32" viewBox="0 0 32 32" fill="none" xmlns="http://www.w3.org/2000/svg">
<path d="M3.66602 18.6666H28.3327M12.146 23.708V25.6666C12.146 26.3739 11.8651 27.0521 11.365 27.5522C10.8649 28.0523 10.1866 28.3333 9.47935 28.3333H8.67935M19.8527 23.708V25.6666C19.8527 26.3739 20.1336 27.0521 20.6337 27.5522C21.1338 28.0523 21.8121 28.3333 22.5193 28.3333H23.3193M8.67668 28.3333H23.322M3.66602 8.33329C3.66602 7.09562 4.15768 5.90863 5.03285 5.03346C5.90802 4.15829 7.09501 3.66663 8.33268 3.66663H23.666C24.9037 3.66663 26.0907 4.15829 26.9658 5.03346C27.841 5.90863 28.3327 7.09562 28.3327 8.33329V19.0413C28.3327 20.279 27.841 21.466 26.9658 22.3411C26.0907 23.2163 24.9037 23.708 23.666 23.708H8.33268C7.09501 23.708 5.90802 23.2163 5.03285 22.3411C4.15768 21.466 3.66602 20.279 3.66602 19.0413V8.33329Z" stroke="#3B82F6" stroke-width="2" stroke-linecap="round" stroke-linejoin="round"/>
</svg>
