<svg width="24" height="24" viewBox="0 0 24 24" fill="none" xmlns="http://www.w3.org/2000/svg">
<path d="M12 22.6668C9.89038 22.6668 7.82809 22.0412 6.07396 20.8692C4.31984 19.6971 2.95267 18.0312 2.14533 16.0821C1.338 14.133 1.12676 11.9883 1.53834 9.9192C1.94991 7.85007 2.96581 5.94946 4.45757 4.4577C5.94933 2.96594 7.84995 1.95003 9.91908 1.53846C11.9882 1.12688 14.1329 1.33812 16.082 2.14545C18.0311 2.95279 19.697 4.31996 20.8691 6.07409C22.0411 7.82821 22.6667 9.8905 22.6667 12.0002C22.6667 14.8291 21.5429 17.5423 19.5425 19.5426C17.5421 21.543 14.829 22.6668 12 22.6668ZM12 2.7535C10.1712 2.7535 8.38348 3.29581 6.86287 4.31185C5.34227 5.32788 4.1571 6.77201 3.45724 8.46162C2.75738 10.1512 2.57427 12.0104 2.93105 13.8041C3.28784 15.5978 4.16849 17.2454 5.46166 18.5385C6.75483 19.8317 8.40243 20.7124 10.1961 21.0692C11.9898 21.4259 13.849 21.2428 15.5386 20.543C17.2282 19.8431 18.6723 18.6579 19.6884 17.1373C20.7044 15.6167 21.2467 13.829 21.2467 12.0002C21.2449 9.54834 20.2702 7.19744 18.5365 5.46374C16.8028 3.73003 14.4519 2.75527 12 2.7535Z" fill="#3B82F6"/>
<path d="M9.22027 16.2067C8.9887 16.2082 8.76027 16.1531 8.55489 16.0461C8.34951 15.9391 8.1734 15.7835 8.04193 15.5929C7.91046 15.4022 7.8276 15.1823 7.80059 14.9524C7.77357 14.7224 7.80322 14.4892 7.88694 14.2733L9.33361 10.5467C9.44119 10.2717 9.60452 10.0219 9.81334 9.81307C10.0222 9.60425 10.2719 9.44092 10.5469 9.33334L14.2736 7.9C14.5307 7.79932 14.8116 7.77579 15.0819 7.8323C15.3522 7.8888 15.6002 8.02289 15.7955 8.21816C15.9907 8.41342 16.1248 8.66137 16.1813 8.93167C16.2378 9.20196 16.2143 9.48287 16.1136 9.74L14.6669 13.4533C14.5594 13.7284 14.396 13.9781 14.1872 14.1869C13.9784 14.3958 13.7286 14.5591 13.4536 14.6667L9.72694 16.1C9.56606 16.1665 9.39429 16.2026 9.22027 16.2067ZM14.7869 9.21334L11.0603 10.6667C10.9678 10.7022 10.8838 10.7567 10.8137 10.8268C10.7436 10.8968 10.6891 10.9808 10.6536 11.0733L9.22027 14.8L12.9403 13.3333C13.0328 13.2978 13.1168 13.2433 13.1868 13.1732C13.2569 13.1032 13.3115 13.0192 13.3469 12.9267L14.7869 9.21334Z" fill="#3B82F6"/>
</svg>
