<svg width="25" height="24" viewBox="0 0 25 24" fill="none" xmlns="http://www.w3.org/2000/svg">
<path d="M16.5 1H8.5C3.9 1 1.5 3.4 1.5 8V21C1.5 21.5304 1.71071 22.0391 2.08579 22.4142C2.46086 22.7893 2.96957 23 3.5 23H16.5C21.1 23 23.5 20.6 23.5 16V8C23.5 3.4 21.1 1 16.5 1ZM21.5 16C21.5 19.5 20 21 16.5 21H3.5V8C3.5 4.5 5 3 8.5 3H16.5C20 3 21.5 4.5 21.5 8V16Z" fill="white"/>
<path d="M12.6995 7.10001L7.49953 12.3C7.18793 12.7233 6.95117 13.1968 6.79953 13.7L6.49953 15.7C6.44125 16.0111 6.46603 16.3321 6.57137 16.6305C6.67671 16.929 6.85889 17.1944 7.09953 17.4C7.25473 17.5941 7.45302 17.7494 7.67867 17.8535C7.90432 17.9577 8.15113 18.0078 8.39953 18H8.79953L10.7995 17.7C11.3028 17.5484 11.7763 17.3116 12.1995 17L17.3995 11.8C19.3995 9.80001 18.1995 8.00001 17.3995 7.10001C16.5995 6.20001 14.6995 5.10001 12.6995 7.10001ZM14.9995 8.00001C15.3755 8.06261 15.7239 8.23682 15.9995 8.50001C16.6995 9.30001 16.5995 9.70001 15.9995 10.4L15.6995 10.7C14.8836 10.2803 14.2193 9.61596 13.7995 8.80001L14.0995 8.50001C14.4995 8.20001 14.6995 8.00001 14.9995 8.00001ZM10.7995 15.6H10.4995L8.49953 16L8.79953 14C8.84856 13.9059 8.88232 13.8047 8.89953 13.7L12.3995 10.3C12.8411 11.0399 13.4597 11.6584 14.1995 12.1L10.7995 15.6Z" fill="white"/>
</svg>
