<svg width="20" height="24" viewBox="0 0 20 24" fill="none" xmlns="http://www.w3.org/2000/svg">
<g clip-path="url(#clip0_2019_1420)">
<path d="M18.3896 0.00170898H0.979328C0.452194 0.00170898 0.0234375 0.430466 0.0234375 0.9576V23.0425C0.0234375 23.5698 0.452194 23.9986 0.979328 23.9986H18.3896C18.9167 23.9986 19.3455 23.5698 19.3455 23.0425V14.5309C19.3455 14.3367 19.1882 14.1794 18.994 14.1794C18.9008 14.1794 18.8114 14.2164 18.7454 14.2823C18.6795 14.3482 18.6425 14.4376 18.6425 14.5309V23.0425C18.6424 23.1096 18.6157 23.1739 18.5683 23.2213C18.5209 23.2687 18.4567 23.2954 18.3896 23.2955H0.979328C0.912265 23.2955 0.847972 23.2688 0.800564 23.2214C0.753156 23.1739 0.726508 23.1096 0.726471 23.0425V4.45425H18.6425V13.2187C18.6425 13.312 18.6795 13.4014 18.7454 13.4673C18.8114 13.5332 18.9008 13.5703 18.994 13.5703C19.0872 13.5703 19.1766 13.5332 19.2426 13.4673C19.3085 13.4014 19.3455 13.312 19.3455 13.2187V0.9576C19.3455 0.430466 18.9167 0.00170898 18.3896 0.00170898ZM0.726471 3.75122V0.9576C0.72657 0.890568 0.753242 0.826311 0.800641 0.778912C0.848039 0.731514 0.912297 0.704841 0.979328 0.704742H18.3896C18.4567 0.704804 18.5209 0.731465 18.5683 0.778871C18.6158 0.826278 18.6424 0.890557 18.6425 0.9576V3.75122H0.726471Z" fill="#3B82F6"/>
<path d="M17.471 6.3553C17.471 5.95303 17.1439 5.62588 16.7416 5.62588H10.3407C10.1467 5.62588 9.98918 5.78313 9.98918 5.9774C9.98918 6.17167 10.1467 6.32891 10.3407 6.32891H15.5393L9.68472 9.06929L3.83014 6.32891H9.02837C9.2224 6.32891 9.37988 6.17167 9.37988 5.9774C9.37988 5.78313 9.2224 5.62588 9.02837 5.62588H2.62781C2.22558 5.62588 1.89844 5.95303 1.89844 6.3553V12.5596C1.89844 12.9618 2.22558 13.2889 2.62781 13.2889H16.7416C17.1438 13.2889 17.471 12.9618 17.471 12.5595V6.3553ZM16.768 6.53012V12.3849L10.5139 9.45741L16.768 6.53012ZM15.5393 12.5859H3.83014L9.68472 9.84553L15.5393 12.5859ZM2.60147 12.3847V6.53012L8.85556 9.45741L2.60147 12.3847ZM16.7416 14.4607H11C10.5977 14.4607 10.2706 14.7878 10.2706 15.1901V21.3944C10.2706 21.7966 10.5977 22.1237 11 22.1237H16.7416C17.1438 22.1237 17.471 21.7966 17.471 21.3943V15.1901C17.471 14.7879 17.1439 14.4607 16.7416 14.4607V14.4607ZM16.768 15.1901V20.8806L11.4311 15.1637H16.7415C16.7562 15.1637 16.7679 15.1756 16.7679 15.1901H16.768ZM10.9736 21.3944V15.7037L16.3105 21.4207H11C10.993 21.4207 10.9863 21.4179 10.9814 21.4129C10.9764 21.408 10.9736 21.4013 10.9736 21.3943L10.9736 21.3944ZM2.62786 14.4607C2.22558 14.4607 1.89844 14.7878 1.89844 15.1901V21.3944C1.89844 21.7966 2.22558 22.1237 2.62786 22.1237H8.36944C8.77167 22.1237 9.09886 21.7966 9.09886 21.3943V15.1901C9.09886 14.7879 8.77171 14.4607 8.36944 14.4607L2.62786 14.4607ZM2.60147 21.3944V15.7037L7.93829 21.4207H2.62786C2.62086 21.4207 2.61415 21.4179 2.6092 21.413C2.60425 21.408 2.60147 21.4014 2.60147 21.3944ZM8.39582 15.1901V20.8806L3.059 15.1637H8.36944C8.38392 15.1637 8.39582 15.1756 8.39582 15.1901ZM13.8709 1.1499C13.2764 1.1499 12.7929 1.6334 12.7929 2.22789C12.7929 2.82237 13.2764 3.30587 13.8709 3.30587C14.4652 3.30587 14.9488 2.82237 14.9488 2.22789C14.9488 1.6334 14.4652 1.1499 13.8709 1.1499ZM13.8709 2.60284C13.6642 2.60284 13.4959 2.43458 13.4959 2.22789C13.4959 2.02119 13.6642 1.85294 13.8709 1.85294C14.0776 1.85294 14.2458 2.02119 14.2458 2.22789C14.2458 2.43458 14.0776 2.60284 13.8709 2.60284ZM16.393 1.1499C15.7987 1.1499 15.315 1.6334 15.315 2.22789C15.315 2.82237 15.7987 3.30587 16.393 3.30587C16.9875 3.30587 17.471 2.82237 17.471 2.22789C17.471 1.6334 16.9875 1.1499 16.393 1.1499ZM16.393 2.60284C16.1863 2.60284 16.0181 2.43458 16.0181 2.22789C16.0181 2.02119 16.1863 1.85294 16.393 1.85294C16.5999 1.85294 16.768 2.02119 16.768 2.22789C16.768 2.43458 16.5999 2.60284 16.393 2.60284Z" fill="#3B82F6"/>
</g>
<defs>
<clipPath id="clip0_2019_1420">
<rect width="20" height="24" fill="white"/>
</clipPath>
</defs>
</svg>
