<svg width="19" height="24" viewBox="0 0 19 24" fill="none" xmlns="http://www.w3.org/2000/svg">
<g clip-path="url(#clip0_2077_2787)">
<path d="M9.13579 20.8728H6.16205C5.84409 20.8728 5.58984 21.1311 5.58984 21.4453C5.58984 21.7633 5.84774 22.0175 6.16205 22.0175H9.13579C9.21096 22.0175 9.2854 22.0028 9.35485 21.974C9.42431 21.9453 9.48742 21.9031 9.54059 21.85C9.59375 21.7969 9.63593 21.7338 9.6647 21.6643C9.69348 21.5949 9.70829 21.5205 9.70829 21.4453C9.71194 21.1311 9.45404 20.8728 9.13579 20.8728Z" fill="white"/>
<path d="M14.2206 17.3716C13.9028 17.3716 13.6485 17.6296 13.6485 17.9438V18.8565H1.64842V3.80421H13.6485V4.58595C13.6484 4.66111 13.6632 4.73554 13.692 4.80499C13.7207 4.87444 13.7628 4.93754 13.816 4.9907C13.8691 5.04386 13.9322 5.08602 14.0016 5.11479C14.0711 5.14356 14.1455 5.15837 14.2207 5.15837C14.5385 5.15837 14.7932 4.90011 14.7932 4.58595V2.38642C14.7932 1.06988 13.7194 0 12.399 0H2.88642C1.56988 0 0.5 1.06996 0.5 2.38642V21.6134C0.5 22.9301 1.56996 24.0001 2.88642 24.0001H12.4027C13.7232 24.0001 14.7969 22.9301 14.7969 21.6134V17.9475C14.7969 17.6296 14.5385 17.3716 14.2206 17.3716ZM2.88649 1.1485H12.4028C13.0912 1.1485 13.6485 1.70214 13.6485 2.38649V2.65593H1.64842V2.38649C1.64842 1.70587 2.20214 1.1485 2.88649 1.1485ZM12.4027 22.8516H2.88642C2.20207 22.8516 1.64842 22.2979 1.64842 21.6133V20.0048H13.6485V21.6133C13.6485 22.2979 13.091 22.8516 12.4027 22.8516V22.8516Z" fill="white"/>
<path d="M17.8567 11.8952L17.8456 10.5186V10.5149C17.842 9.98744 17.4678 9.54221 16.9553 9.45257H16.9404C16.9367 9.45257 16.933 9.45257 16.9255 9.44892L16.0576 9.34049C16.0351 9.28059 16.0088 9.22433 15.9829 9.16464L16.5141 8.47262L16.5177 8.46889C16.5214 8.46524 16.5252 8.4575 16.5289 8.45004C16.8282 8.01994 16.7758 7.43634 16.3979 7.0622L15.4179 6.08985C15.2385 5.91193 15.002 5.80307 14.7502 5.7825C14.4983 5.76193 14.2473 5.83096 14.0414 5.97742C14.0377 5.98114 14.034 5.98114 14.034 5.98516C14.0303 5.98881 14.0266 5.98881 14.0266 5.99254L13.3308 6.52734C13.2709 6.50111 13.211 6.4789 13.151 6.45632L13.0351 5.58472C13.0351 5.58107 13.0351 5.57734 13.0314 5.57362V5.56222C12.9869 5.31313 12.856 5.08771 12.6617 4.92559C12.4674 4.76346 12.2222 4.67501 11.9692 4.67579H11.9615L10.5814 4.68689C10.0539 4.69062 9.60875 5.06476 9.51882 5.57734V5.59217C9.51882 5.59583 9.51882 5.59962 9.51516 5.6073L9.40667 6.47115C9.34311 6.49745 9.28342 6.51996 9.22344 6.54991L8.53514 6.02257C8.53142 6.01855 8.52769 6.01855 8.52396 6.01482C8.52024 6.0111 8.51658 6.00744 8.51286 6.00744C8.08254 5.70834 7.49887 5.7605 7.12502 6.13471L6.15238 7.11473C5.97443 7.29413 5.86558 7.53063 5.84506 7.78249C5.82455 8.03434 5.89367 8.28534 6.04023 8.49118C6.04388 8.49483 6.04768 8.49885 6.05134 8.5063L6.05506 8.50995L6.58986 9.20577C6.56392 9.26568 6.54142 9.32537 6.51884 9.38528L5.64724 9.50115C5.64359 9.50115 5.63986 9.50115 5.63614 9.50481H5.62503C5.10872 9.59847 4.73458 10.0437 4.73831 10.571L4.74196 11.9475C4.74196 12.4674 5.1313 12.9275 5.64352 13.0174C5.64724 13.0174 5.65499 13.0174 5.65864 13.0211C5.66237 13.0211 5.66609 13.0211 5.66982 13.0248L6.53397 13.1333C6.55625 13.1932 6.58248 13.2495 6.60871 13.3091L6.08136 14.0086C6.07764 14.0126 6.07764 14.0163 6.07391 14.0163C6.07026 14.02 6.07026 14.0237 6.06624 14.0237C5.76713 14.4538 5.8193 15.0337 6.19351 15.4079L7.16608 16.3764C7.37554 16.586 7.65244 16.6907 7.92926 16.6907C8.13499 16.6907 8.34073 16.631 8.52396 16.5111C8.53142 16.5075 8.53514 16.5038 8.54252 16.5C8.54617 16.4963 8.55027 16.4963 8.55392 16.4926C8.55764 16.4926 8.55764 16.4889 8.56137 16.4849C8.56502 16.4812 8.56882 16.4812 8.57248 16.4775L9.26829 15.9427C9.3282 15.969 9.38811 15.9912 9.4478 16.0137L9.56397 16.8853C9.56397 16.889 9.56397 16.8927 9.56762 16.9001V16.9116C9.61212 17.1607 9.74303 17.3861 9.93733 17.5482C10.1316 17.7104 10.3769 17.7988 10.6299 17.7979H10.6373L12.0177 17.7868H12.0214C12.5414 17.7832 12.9829 17.409 13.0725 16.8927V16.8816C13.0725 16.8779 13.0725 16.8742 13.0762 16.8702L13.1923 16.0063C13.2535 15.9831 13.3134 15.9568 13.3719 15.9275L14.0639 16.4589C14.0677 16.4626 14.0714 16.4664 14.0788 16.4664L14.0862 16.4737C14.0899 16.4775 14.0937 16.4775 14.0976 16.4812C14.1051 16.4848 14.1088 16.4889 14.1162 16.4926C14.2957 16.6085 14.4978 16.6684 14.7036 16.6684C14.9841 16.6684 15.2646 16.5599 15.474 16.3465L16.4467 15.3664C16.6246 15.187 16.7334 14.9505 16.7539 14.6987C16.7744 14.4469 16.7053 14.1959 16.5588 13.99C16.5551 13.9864 16.5551 13.9826 16.5514 13.9826C16.5477 13.9789 16.5477 13.9749 16.544 13.9712L16.0088 13.2754C16.0351 13.2158 16.0576 13.1558 16.0799 13.0959L16.9441 12.9763C16.9478 12.9763 16.9515 12.9763 16.9553 12.9727H16.9667C17.4789 12.8679 17.8567 12.4189 17.8567 11.8952ZM15.564 11.9963C15.56 11.9963 15.5562 11.9963 15.5525 12C15.5414 12.0037 15.5266 12.0037 15.5152 12.0075C15.5077 12.0075 15.5003 12.0111 15.4929 12.0148C15.4815 12.0185 15.474 12.0226 15.4629 12.0226C15.4547 12.0267 15.4458 12.0292 15.4366 12.03C15.4293 12.0336 15.4218 12.0374 15.4104 12.0411C15.3993 12.0448 15.3919 12.0485 15.3841 12.0522C15.3768 12.0563 15.3694 12.0599 15.3619 12.0636C15.3544 12.0673 15.3431 12.0747 15.3356 12.0785C15.3282 12.0822 15.3208 12.0859 15.3131 12.0936C15.3056 12.0973 15.2983 12.1048 15.2908 12.1122C15.2834 12.1196 15.2757 12.1233 15.2683 12.131C15.2609 12.1347 15.2571 12.1421 15.2498 12.1496C15.242 12.1569 15.2346 12.1647 15.2272 12.1721L15.2123 12.187C15.2038 12.1948 15.1963 12.2036 15.1898 12.2132C15.1861 12.2206 15.1824 12.2243 15.1746 12.232C15.1673 12.2394 15.1635 12.2506 15.1562 12.258C15.1524 12.2657 15.1487 12.2731 15.145 12.2806C15.141 12.2879 15.1336 12.2991 15.1299 12.3069C15.1262 12.3142 15.1225 12.3253 15.1188 12.3328C15.1151 12.3405 15.1113 12.3479 15.1076 12.3553C15.1036 12.3665 15.0999 12.3779 15.0962 12.389C15.0962 12.3927 15.0925 12.3964 15.0925 12.4002C15.014 12.651 14.9279 12.8716 14.8194 13.0736C14.8157 13.0773 14.8157 13.0811 14.812 13.0848C14.8083 13.0959 14.8008 13.1073 14.7972 13.1148C14.7934 13.1221 14.7894 13.1296 14.7894 13.137C14.7858 13.1447 14.782 13.1558 14.7783 13.1633C14.7746 13.1747 14.7708 13.1821 14.7708 13.1932C14.7672 13.2007 14.7672 13.2083 14.7672 13.2158C14.7635 13.2269 14.7635 13.238 14.7597 13.2494C14.7597 13.2569 14.7557 13.2643 14.7557 13.2717C14.7557 13.2831 14.7521 13.2943 14.7521 13.3054V13.3842C14.7521 13.3915 14.7521 13.4027 14.7557 13.4101C14.7557 13.4215 14.7597 13.429 14.7597 13.4401C14.7597 13.4475 14.7634 13.4552 14.7634 13.4627C14.7671 13.4738 14.7671 13.4849 14.7708 13.4926C14.7745 13.5 14.7745 13.5074 14.7783 13.5148C14.782 13.5263 14.7857 13.5337 14.7894 13.5448C14.7934 13.5522 14.7972 13.56 14.8008 13.5674C14.8045 13.5749 14.8083 13.5859 14.812 13.5936C14.8156 13.601 14.8194 13.6121 14.8268 13.6196L14.8382 13.6422C14.8457 13.6533 14.8493 13.6607 14.8568 13.6721C14.8604 13.6758 14.8604 13.6795 14.8644 13.6832L15.56 14.5922L14.6698 15.4863L13.7609 14.7869C13.7572 14.7831 13.7534 14.7831 13.7498 14.7794C13.7383 14.7717 13.7309 14.7643 13.7198 14.7568L13.6972 14.7457C13.6899 14.7417 13.6787 14.7343 13.6709 14.7306C13.6636 14.727 13.6525 14.7232 13.645 14.7195C13.6374 14.7158 13.6299 14.7121 13.6224 14.7083C13.6113 14.7044 13.6037 14.7007 13.5925 14.6969C13.5851 14.6933 13.5776 14.6933 13.57 14.6896C13.5588 14.6858 13.5477 14.6858 13.5402 14.6821C13.5326 14.6821 13.5251 14.6784 13.5177 14.6784C13.5066 14.6784 13.4989 14.6746 13.4878 14.6746C13.4803 14.6746 13.4692 14.6707 13.4615 14.6707H13.383C13.3719 14.6707 13.3604 14.6707 13.3494 14.6746C13.342 14.6746 13.3345 14.6784 13.3268 14.6784C13.3156 14.6784 13.3045 14.682 13.2934 14.6858C13.2857 14.6858 13.2782 14.6895 13.2709 14.6932C13.2598 14.6969 13.252 14.6969 13.2409 14.7007C13.2297 14.7043 13.2221 14.7083 13.2146 14.7121C13.2072 14.7157 13.1998 14.7195 13.1924 14.7195C13.1809 14.7232 13.1698 14.7306 13.1587 14.7343C13.155 14.738 13.151 14.738 13.1472 14.7417C12.9078 14.8691 12.6873 14.9626 12.4741 15.03C12.4704 15.03 12.4666 15.0337 12.4592 15.0337C12.4478 15.0374 12.4366 15.0411 12.4293 15.0448C12.4218 15.0485 12.4141 15.0522 12.403 15.0559C12.3946 15.0606 12.3858 15.0644 12.3767 15.0673C12.3693 15.0711 12.3582 15.0785 12.3508 15.0822C12.3431 15.0859 12.3394 15.0896 12.3319 15.0936C12.3208 15.101 12.3131 15.1047 12.3019 15.1122C12.2964 15.115 12.2913 15.1187 12.2871 15.1233C12.2794 15.131 12.2683 15.1384 12.2608 15.1459L12.2461 15.1607L12.2234 15.1832C12.2161 15.1907 12.2124 15.1944 12.2046 15.2021C12.1973 15.2095 12.1935 15.2169 12.1861 15.2243C12.1787 15.232 12.1747 15.2395 12.1672 15.2468C12.1636 15.2543 12.1598 15.2618 12.1524 15.2654C12.145 15.2732 12.1413 15.2843 12.1373 15.2917C12.1336 15.2991 12.1299 15.3068 12.1262 15.3105C12.1227 15.3211 12.1177 15.3312 12.1113 15.3404C12.1076 15.3479 12.1036 15.3553 12.1036 15.3627C12.0999 15.3702 12.0962 15.3816 12.0925 15.389C12.0888 15.4001 12.085 15.4079 12.085 15.419C12.0814 15.4264 12.0814 15.4338 12.0777 15.4415C12.074 15.4527 12.074 15.4638 12.0699 15.4749C12.0699 15.4789 12.0699 15.4826 12.0663 15.4863L11.9167 16.6196L10.6599 16.631L10.5066 15.4901C10.5066 15.4863 10.5066 15.4826 10.5029 15.4749C10.5029 15.4638 10.4988 15.4527 10.4952 15.4415C10.4915 15.4338 10.4915 15.4264 10.4877 15.419C10.4841 15.4079 10.4841 15.4001 10.4804 15.389C10.4773 15.38 10.4736 15.3712 10.4692 15.3627C10.4652 15.3553 10.4615 15.3479 10.4615 15.3405C10.4581 15.3298 10.4531 15.3197 10.4467 15.3106C10.4429 15.3031 10.4392 15.2954 10.4355 15.2917C10.4318 15.2805 10.4241 15.2732 10.4204 15.2618C10.4167 15.2543 10.413 15.2469 10.4093 15.2432C10.4018 15.2357 10.3982 15.2281 10.3904 15.2169C10.3868 15.2095 10.3793 15.2021 10.3756 15.1944C10.3681 15.1869 10.3645 15.1796 10.3567 15.1758L10.3345 15.1533C10.3271 15.1496 10.3231 15.1422 10.3157 15.1384C10.3082 15.131 10.3008 15.1233 10.2894 15.1159C10.282 15.1122 10.2783 15.1085 10.2708 15.101C10.2634 15.0936 10.252 15.0896 10.2446 15.0822C10.2371 15.0785 10.2298 15.0748 10.226 15.0711C10.2184 15.0674 10.2072 15.06 10.1997 15.0559C10.1924 15.0523 10.181 15.0486 10.1735 15.0448C10.1661 15.0411 10.1587 15.0374 10.151 15.0337L10.1176 15.0226C10.1136 15.0226 10.1099 15.0185 10.1025 15.0185C9.85189 14.9401 9.63125 14.8542 9.42924 14.7457C9.42559 14.7417 9.42179 14.7417 9.41785 14.7417C9.40667 14.7381 9.39556 14.7306 9.38417 14.7269C9.37672 14.7232 9.36934 14.7195 9.36188 14.7195C9.35078 14.7158 9.34303 14.7121 9.33193 14.7083C9.32075 14.7044 9.31308 14.7044 9.30198 14.7007C9.29452 14.697 9.28714 14.697 9.2794 14.6932C9.26829 14.6896 9.25712 14.6896 9.24974 14.6858C9.24199 14.6858 9.23461 14.6821 9.22716 14.6821C9.21606 14.6821 9.20466 14.6784 9.19355 14.6784H9.11502C9.10756 14.6784 9.09617 14.6784 9.08871 14.6821C9.07761 14.6821 9.06994 14.6858 9.05876 14.6858C9.05138 14.6858 9.04393 14.6896 9.03655 14.6896C9.02515 14.6932 9.01397 14.6932 9.0066 14.6969C8.99885 14.7006 8.99147 14.7006 8.98402 14.7044C8.97292 14.7083 8.96517 14.7121 8.95407 14.7158L8.93178 14.7269C8.92411 14.7306 8.91293 14.7343 8.90548 14.7381C8.89817 14.7417 8.8867 14.7457 8.87925 14.7532L8.85675 14.7643C8.84564 14.7717 8.83819 14.7794 8.82709 14.7831C8.82307 14.7868 8.81934 14.7868 8.81562 14.7905L7.90296 15.4901L7.03136 14.6185L7.72345 13.7021C7.72718 13.6984 7.72718 13.6943 7.7309 13.6907C7.73828 13.6795 7.74603 13.6721 7.74975 13.6607L7.76086 13.6384C7.76451 13.631 7.77196 13.6196 7.77569 13.6121C7.77971 13.6048 7.78343 13.5936 7.78708 13.5859L7.79826 13.5636C7.80192 13.5522 7.80564 13.5449 7.80937 13.5337C7.81302 13.5263 7.81302 13.5186 7.81704 13.5112C7.82077 13.5 7.82449 13.4889 7.82449 13.4812C7.82449 13.4738 7.82814 13.4663 7.82814 13.4589C7.82814 13.4475 7.83194 13.4401 7.83194 13.429C7.83194 13.4215 7.8356 13.4101 7.8356 13.4027V13.3242C7.8356 13.3131 7.8356 13.3016 7.83194 13.2906C7.83194 13.2832 7.83194 13.2754 7.82822 13.268C7.82822 13.2569 7.82449 13.2457 7.82077 13.2344C7.82077 13.2269 7.81711 13.2194 7.81711 13.2121C7.81309 13.2007 7.81309 13.1932 7.80937 13.1821C7.80572 13.1747 7.80192 13.1633 7.79826 13.1558C7.79454 13.1484 7.79081 13.141 7.78708 13.1333C7.78343 13.1221 7.77569 13.111 7.77196 13.1036C7.76831 13.0996 7.76831 13.0959 7.76831 13.0922C7.65506 12.8778 7.56117 12.6537 7.48776 12.4227C7.48776 12.419 7.48403 12.4153 7.48403 12.4078C7.48038 12.3964 7.47658 12.3853 7.47286 12.3742C7.46923 12.3666 7.46543 12.359 7.46146 12.3516C7.45781 12.3442 7.45408 12.3328 7.45035 12.3253C7.4467 12.318 7.43925 12.3068 7.43552 12.299C7.43257 12.2924 7.42874 12.2862 7.42412 12.2806C7.41667 12.2694 7.41295 12.2617 7.40557 12.2543C7.40184 12.2469 7.39812 12.2432 7.3941 12.2358C7.38672 12.228 7.37927 12.2169 7.37189 12.2095L7.35676 12.1943L7.33448 12.1721C7.32703 12.1647 7.32308 12.161 7.31563 12.1533C7.30825 12.1458 7.3008 12.1421 7.29335 12.1347C7.28568 12.1273 7.27822 12.1233 7.27085 12.1159C7.26339 12.1122 7.25602 12.1084 7.252 12.1048C7.24454 12.0973 7.23344 12.0936 7.22606 12.0897C7.21928 12.0868 7.21294 12.0831 7.20721 12.0785C7.19657 12.075 7.18648 12.07 7.17726 12.0636C7.1698 12.06 7.16235 12.0563 7.15497 12.0563C7.14723 12.0522 7.13612 12.0485 7.12867 12.0448C7.11757 12.0411 7.1099 12.0411 7.09872 12.0374C7.09134 12.0337 7.08389 12.0337 7.07622 12.03C7.06504 12.0263 7.05393 12.0263 7.04253 12.0226C7.03888 12.0226 7.03508 12.0186 7.0277 12.0186L5.89039 11.8765L5.88673 10.6122L7.0277 10.4589H7.03136C7.06504 10.4552 7.10244 10.4438 7.13612 10.4326C7.14358 10.4289 7.14723 10.4289 7.15497 10.4253C7.16608 10.4216 7.17353 10.4178 7.18464 10.4138C7.19238 10.4102 7.19976 10.4064 7.20721 10.4027C7.21459 10.399 7.22233 10.3953 7.23351 10.3915C7.24022 10.3887 7.24645 10.3848 7.252 10.3801C7.26339 10.3728 7.27457 10.3653 7.28568 10.3578L7.29707 10.3467C7.30825 10.3391 7.31936 10.3279 7.33075 10.3204C7.33448 10.3168 7.33821 10.3131 7.34193 10.309C7.35304 10.3017 7.36071 10.2906 7.36816 10.2831L7.37927 10.2717C7.38672 10.2605 7.39812 10.2532 7.40557 10.242C7.40922 10.238 7.40922 10.2343 7.41295 10.2343C7.42412 10.2232 7.4318 10.2084 7.43925 10.1969L7.4429 10.1932C7.45035 10.1783 7.46146 10.1633 7.4692 10.1484C7.4692 10.1447 7.47286 10.1447 7.47286 10.141C7.48031 10.1295 7.48403 10.1147 7.49141 10.1036C7.49514 10.0959 7.49514 10.0885 7.49886 10.081C7.50288 10.0736 7.50288 10.0699 7.50654 10.0623C7.58508 9.808 7.67092 9.59102 7.77971 9.38901C7.78336 9.38528 7.78336 9.38155 7.78336 9.37783C7.78708 9.36643 7.79454 9.35533 7.79826 9.34422C7.80192 9.33677 7.80564 9.32902 7.80564 9.32157C7.80937 9.31427 7.81309 9.30309 7.81704 9.29162C7.82077 9.28051 7.82077 9.27313 7.82449 9.26166C7.82814 9.25428 7.82814 9.24683 7.83194 9.23945C7.8356 9.22806 7.8356 9.21688 7.83932 9.2095C7.83932 9.20205 7.84298 9.19438 7.84298 9.18692C7.84298 9.17582 7.84677 9.16464 7.84677 9.15332V9.0747C7.84677 9.0674 7.84677 9.05622 7.84305 9.04855C7.84305 9.03737 7.8394 9.02999 7.8394 9.01859C7.8394 9.01114 7.8356 9.00369 7.8356 8.99631C7.83194 8.98484 7.83194 8.97374 7.82822 8.96636C7.82449 8.9589 7.82449 8.95145 7.82077 8.94378C7.81711 8.93268 7.81309 8.92522 7.80937 8.91383L7.79826 8.89154C7.79461 8.88409 7.79081 8.87269 7.78708 8.86524C7.78336 8.85779 7.77971 8.84676 7.77196 8.83901L7.76086 8.8168C7.7534 8.80533 7.74975 8.79795 7.74201 8.78685C7.73835 8.78312 7.73835 8.7794 7.73463 8.77538L7.03881 7.86644L7.92926 6.97263L8.82307 7.66093L8.82709 7.66465H8.83074C8.84192 7.67211 8.85302 7.67948 8.86442 7.68694C8.86815 7.69059 8.87187 7.69059 8.8756 7.69461C8.88298 7.69833 8.89416 7.70579 8.9019 7.70944C8.90555 7.71317 8.90921 7.71317 8.91666 7.71689C8.92411 7.72054 8.93178 7.72434 8.94296 7.728C8.95034 7.73201 8.95407 7.73201 8.96152 7.73574C8.97292 7.73939 8.98402 7.74312 8.99513 7.74685C9.00287 7.7505 9.01025 7.7505 9.0177 7.7543C9.02515 7.75795 9.02881 7.75795 9.03655 7.75795C9.04393 7.76168 9.05138 7.76168 9.05883 7.76168C9.06621 7.76168 9.07396 7.7657 9.08134 7.7657C9.08871 7.7657 9.09244 7.76935 9.09989 7.76935C9.10764 7.76935 9.11874 7.77315 9.12619 7.77315H9.1861C9.22716 7.77315 9.26829 7.76942 9.30935 7.75802H9.31308C9.33193 7.7543 9.35078 7.74685 9.36934 7.74312C9.37299 7.74312 9.37672 7.73947 9.37672 7.73947C9.39556 7.73201 9.4104 7.728 9.42552 7.71689C9.42917 7.71324 9.43297 7.71324 9.43662 7.70944C9.44035 7.70579 9.44408 7.70579 9.4478 7.70206C9.66099 7.58991 9.89668 7.48887 10.1287 7.41786C10.1324 7.41786 10.1362 7.41384 10.1398 7.41384C10.151 7.41011 10.1661 7.40639 10.1772 7.39894C10.1847 7.39528 10.1886 7.39528 10.1961 7.39156C10.2068 7.38808 10.2169 7.38298 10.226 7.37643C10.2335 7.37278 10.2409 7.36898 10.2483 7.36526C10.2557 7.3616 10.2634 7.35415 10.2708 7.35042C10.2782 7.3467 10.2856 7.33903 10.2934 7.3353C10.3008 7.33165 10.3045 7.3242 10.312 7.32047C10.3193 7.31309 10.3271 7.30907 10.3345 7.30162C10.3419 7.29797 10.3456 7.29052 10.353 7.28306C10.3604 7.27561 10.3681 7.27167 10.3719 7.26429C10.3982 7.23799 10.4204 7.21205 10.4392 7.1821C10.4392 7.1821 10.4392 7.17837 10.4429 7.17837C10.4503 7.16325 10.4615 7.15207 10.4692 7.13724C10.4692 7.13329 10.4729 7.12957 10.4729 7.12584C10.4804 7.11473 10.484 7.09954 10.4915 7.08843C10.4951 7.08478 10.4951 7.07733 10.4988 7.0736C10.5029 7.0622 10.5066 7.0511 10.5103 7.03999C10.514 7.03254 10.514 7.0248 10.5177 7.01369C10.5214 7.00624 10.5214 6.99484 10.5251 6.98739C10.5288 6.97629 10.5288 6.96518 10.5288 6.95744C10.5288 6.95378 10.5325 6.94633 10.5325 6.94261L10.6747 5.81676L11.9392 5.80536L12.0925 6.94633C12.0925 6.94999 12.0961 6.95744 12.0961 6.96116C12.0961 6.97256 12.0999 6.98001 12.0999 6.99112C12.1036 7.00259 12.1036 7.00997 12.1076 7.01742C12.1113 7.0248 12.1113 7.03254 12.1151 7.03992L12.1262 7.0736C12.1298 7.07733 12.1298 7.08478 12.1335 7.08843C12.1373 7.10356 12.145 7.11473 12.1524 7.12584C12.1524 7.12949 12.1561 7.13329 12.1561 7.13329C12.1636 7.14841 12.171 7.16325 12.1824 7.17464C12.1824 7.17464 12.1824 7.1783 12.1861 7.1783C12.2046 7.20832 12.2272 7.23433 12.2534 7.26056C12.2609 7.26794 12.2645 7.27167 12.272 7.27941C12.2794 7.28679 12.2834 7.29052 12.2908 7.29797C12.2982 7.30535 12.3057 7.30907 12.3131 7.31674C12.3208 7.32047 12.3245 7.32792 12.3319 7.33165C12.3394 7.3353 12.3467 7.34275 12.3545 7.34677C12.3619 7.35042 12.3693 7.35788 12.3768 7.3616C12.3841 7.36526 12.3919 7.36898 12.3993 7.37271C12.4104 7.37636 12.4178 7.38411 12.4292 7.38783C12.4367 7.39148 12.4404 7.39148 12.4478 7.39528C12.4592 7.39894 12.4741 7.40639 12.4852 7.41011C12.4888 7.41011 12.4929 7.41377 12.4966 7.41377C12.7472 7.4926 12.9678 7.57844 13.1698 7.68694C13.1735 7.68694 13.1773 7.69059 13.1809 7.69059C13.1847 7.69461 13.1887 7.69461 13.1924 7.69833C13.2072 7.70579 13.226 7.71317 13.2446 7.72062C13.2483 7.72062 13.2483 7.72062 13.252 7.72427C13.2709 7.73201 13.2894 7.73574 13.3083 7.73947C13.3493 7.75057 13.3905 7.7543 13.4355 7.7543H13.4952C13.5029 7.7543 13.514 7.7543 13.5215 7.75057C13.5288 7.75057 13.5363 7.74692 13.5402 7.74692C13.5477 7.74692 13.5551 7.74312 13.5588 7.74312C13.5662 7.74312 13.5739 7.73947 13.5814 7.73947C13.5888 7.73947 13.5925 7.73574 13.5999 7.73574C13.6076 7.73201 13.615 7.73201 13.6224 7.728C13.6299 7.72434 13.6373 7.72434 13.645 7.72062C13.6561 7.71689 13.6636 7.71317 13.6747 7.70944C13.6824 7.70579 13.6935 7.70206 13.701 7.69833C13.7046 7.69468 13.7083 7.69468 13.7161 7.69066C13.7235 7.68694 13.7346 7.67948 13.742 7.67576C13.7457 7.67211 13.7498 7.67211 13.7534 7.66838C13.7646 7.66093 13.7757 7.65326 13.7834 7.6458C13.7834 7.6458 13.7871 7.6458 13.7871 7.64215L13.7946 7.63843C13.7946 7.63843 13.7982 7.63843 13.7982 7.6347L14.6998 6.94633L15.5936 7.83678L14.8942 8.74572C14.8904 8.74937 14.8904 8.75317 14.8867 8.75682C14.8793 8.768 14.8719 8.77538 14.8644 8.78678C14.8605 8.79423 14.8568 8.80168 14.853 8.80906C14.8494 8.8168 14.8419 8.82791 14.8382 8.83536C14.8346 8.84274 14.8308 8.85414 14.8268 8.86159C14.8231 8.86904 14.8194 8.87642 14.8156 8.88416C14.812 8.89527 14.8083 8.90265 14.8045 8.91383C14.8009 8.9215 14.8009 8.92895 14.7972 8.93633C14.7934 8.94751 14.7934 8.9589 14.7894 8.96628C14.7894 8.97374 14.7858 8.98119 14.7858 8.98893C14.7858 8.99996 14.782 9.00742 14.782 9.01852C14.782 9.02627 14.7783 9.03737 14.7783 9.04482V9.12329C14.7783 9.13469 14.7783 9.14586 14.782 9.1569C14.782 9.16464 14.7857 9.17209 14.7857 9.17954C14.7857 9.19065 14.7894 9.20205 14.7934 9.21315C14.7934 9.2206 14.7971 9.22806 14.8008 9.2358C14.8045 9.24683 14.8045 9.25428 14.8083 9.26575C14.8119 9.27686 14.8156 9.28424 14.8194 9.29169C14.8231 9.29907 14.8268 9.30681 14.8268 9.31419C14.8308 9.32537 14.8382 9.33677 14.8419 9.34787C14.8456 9.3516 14.8456 9.35533 14.8493 9.35905C14.9767 9.59847 15.07 9.81904 15.1373 10.0325C15.141 10.04 15.141 10.0437 15.145 10.0511C15.1487 10.0585 15.1487 10.0659 15.1524 10.0736C15.1635 10.1073 15.1824 10.1372 15.201 10.1669C15.201 10.1706 15.2046 10.1706 15.2046 10.1747C15.2123 10.1858 15.2198 10.1969 15.2309 10.2083C15.2346 10.212 15.2346 10.2157 15.2384 10.2195C15.2457 10.2306 15.2571 10.238 15.2646 10.2494C15.2682 10.2531 15.272 10.2569 15.272 10.2605C15.2794 10.2717 15.2908 10.2794 15.3019 10.2868C15.3056 10.2905 15.3094 10.2942 15.3131 10.2942C15.3245 10.3054 15.3394 10.3168 15.3505 10.3242C15.3544 10.3279 15.3582 10.3316 15.3656 10.3316C15.373 10.3391 15.3842 10.3427 15.3919 10.3505C15.3992 10.3541 15.4067 10.3578 15.4104 10.3616C15.4179 10.3653 15.4255 10.369 15.4367 10.3728C15.4441 10.3764 15.4515 10.3801 15.4592 10.3842C15.4703 10.3878 15.4778 10.3915 15.4889 10.3953C15.4966 10.3989 15.5003 10.3989 15.5077 10.4027C15.5226 10.4064 15.5414 10.4138 15.5562 10.4178H15.564C15.5788 10.4215 15.5936 10.4252 15.6088 10.4252H15.6161L16.742 10.5674L16.7535 11.828L15.564 11.9963Z" fill="white"/>
<path d="M12.3554 8.26325C12.0091 8.13646 11.6432 8.07181 11.2744 8.07227C9.94644 8.07227 8.74556 8.91391 8.29288 10.1633C7.69818 11.8055 8.55122 13.6274 10.1933 14.2221C10.5397 14.3487 10.9056 14.4133 11.2744 14.4128C12.6023 14.4128 13.803 13.5712 14.2556 12.3217C14.5435 11.5249 14.5062 10.6647 14.1471 9.89795C13.7881 9.13477 13.152 8.55117 12.3554 8.26325ZM13.1782 11.9327C12.8902 12.7295 12.1234 13.268 11.2781 13.268C11.0423 13.268 10.8103 13.227 10.5897 13.1448C9.54235 12.7632 8.99608 11.6037 9.37767 10.5563C9.66589 9.75951 10.4328 9.22069 11.2781 9.22069C11.5135 9.22069 11.7455 9.26182 11.9662 9.34424C12.475 9.52747 12.8791 9.89795 13.1071 10.388C13.3355 10.8742 13.3614 11.4239 13.1782 11.9327Z" fill="white"/>
</g>
<defs>
<clipPath id="clip0_2077_2787">
<rect width="18" height="24" fill="white" transform="translate(0.5)"/>
</clipPath>
</defs>
</svg>
