<svg width="24" height="24" viewBox="0 0 24 24" fill="none" xmlns="http://www.w3.org/2000/svg">
<path d="M5.6 17.6C5.44225 17.6005 5.28598 17.5697 5.14027 17.5092C4.99455 17.4488 4.8623 17.36 4.7512 17.248L0.3516 12.8484C0.1252 12.6228 0 12.3212 0 12C0 11.6789 0.1252 11.3772 0.352 11.1512L4.7516 6.75165C4.86267 6.63977 4.99487 6.55107 5.14052 6.49071C5.28616 6.43035 5.44235 6.39953 5.6 6.40005C6.2616 6.40005 6.8 6.93845 6.8 7.60005C6.8 7.92125 6.6748 8.22285 6.448 8.44885L2.8968 12L6.4484 15.5517C6.6752 15.7773 6.8 16.0788 6.8 16.4C6.8 17.0616 6.2616 17.6 5.6 17.6ZM18.4 18C17.7384 18 17.2 17.4616 17.2 16.8C17.2 16.4788 17.3252 16.1772 17.552 15.9512L21.1032 12.4001L17.5516 8.84845C17.4398 8.73728 17.3512 8.60507 17.2909 8.45944C17.2305 8.31382 17.1996 8.15768 17.2 8.00005C17.2 7.33845 17.7384 6.80005 18.4 6.80005C18.7212 6.80005 19.0228 6.92525 19.2488 7.15205L23.6484 11.5517C23.8752 11.778 24 12.0796 24 12.4001C24 12.7212 23.8748 13.0229 23.648 13.2489L19.2484 17.6484C19.1374 17.7604 19.0052 17.8491 18.8595 17.9095C18.7139 17.9699 18.5577 18.0007 18.4 18ZM8.4 21.2C8.2025 21.1997 8.00813 21.1507 7.83408 21.0574C7.66002 20.9641 7.51166 20.8293 7.40211 20.665C7.29256 20.5007 7.2252 20.3119 7.20599 20.1153C7.18679 19.9187 7.21633 19.7205 7.292 19.538L14.4924 3.53725C14.5836 3.31872 14.7374 3.13209 14.9345 3.00089C15.1317 2.86969 15.3632 2.79981 15.6 2.80005C15.7975 2.80036 15.9919 2.84935 16.1659 2.94268C16.34 3.036 16.4883 3.17079 16.5979 3.33512C16.7074 3.49945 16.7748 3.68824 16.794 3.8848C16.8132 4.08136 16.7837 4.27963 16.708 4.46205L9.5076 20.4629C9.41642 20.6814 9.26258 20.868 9.06546 20.9992C8.86834 21.1304 8.63679 21.2003 8.4 21.2Z" fill="#3B82F6"/>
</svg>
