<svg width="25" height="24" viewBox="0 0 25 24" fill="none" xmlns="http://www.w3.org/2000/svg">
<g clip-path="url(#clip0_2077_2736)">
<path d="M5.5 6.00012C6.05228 6.00012 6.5 5.55241 6.5 5.00012C6.5 4.44784 6.05228 4.00012 5.5 4.00012C4.94772 4.00012 4.5 4.44784 4.5 5.00012C4.5 5.55241 4.94772 6.00012 5.5 6.00012Z" fill="white"/>
<path d="M8.5 6.00012C9.05228 6.00012 9.5 5.55241 9.5 5.00012C9.5 4.44784 9.05228 4.00012 8.5 4.00012C7.94772 4.00012 7.5 4.44784 7.5 5.00012C7.5 5.55241 7.94772 6.00012 8.5 6.00012Z" fill="white"/>
<path d="M11.5 6.00012C12.0523 6.00012 12.5 5.55241 12.5 5.00012C12.5 4.44784 12.0523 4.00012 11.5 4.00012C10.9477 4.00012 10.5 4.44784 10.5 5.00012C10.5 5.55241 10.9477 6.00012 11.5 6.00012Z" fill="white"/>
<path fill-rule="evenodd" clip-rule="evenodd" d="M24.25 5.00012V19.0001C24.25 19.9947 23.8549 20.9485 23.1517 21.6518C22.4484 22.355 21.4946 22.7501 20.5 22.7501H4.5C3.50544 22.7501 2.55161 22.355 1.84835 21.6518C1.14509 20.9485 0.75 19.9947 0.75 19.0001V5.00012C0.75 4.00556 1.14509 3.05173 1.84835 2.34847C2.55161 1.64521 3.50544 1.25012 4.5 1.25012H20.5C21.4946 1.25012 22.4484 1.64521 23.1517 2.34847C23.8549 3.05173 24.25 4.00556 24.25 5.00012ZM22.75 5.00012C22.75 4.40338 22.5129 3.83109 22.091 3.40913C21.669 2.98717 21.0967 2.75012 20.5 2.75012H4.5C3.90326 2.75012 3.33097 2.98717 2.90901 3.40913C2.48705 3.83109 2.25 4.40338 2.25 5.00012V19.0001C2.25 19.5969 2.48705 20.1692 2.90901 20.5911C3.33097 21.0131 3.90326 21.2501 4.5 21.2501H20.5C21.0967 21.2501 21.669 21.0131 22.091 20.5911C22.5129 20.1692 22.75 19.5969 22.75 19.0001V5.00012Z" fill="white"/>
<path fill-rule="evenodd" clip-rule="evenodd" d="M23.5 7.25012C23.6989 7.25012 23.8897 7.32914 24.0303 7.46979C24.171 7.61044 24.25 7.80121 24.25 8.00012C24.25 8.19903 24.171 8.3898 24.0303 8.53045C23.8897 8.6711 23.6989 8.75012 23.5 8.75012H1.5C1.30109 8.75012 1.11032 8.6711 0.96967 8.53045C0.829018 8.3898 0.75 8.19903 0.75 8.00012C0.75 7.80121 0.829018 7.61044 0.96967 7.46979C1.11032 7.32914 1.30109 7.25012 1.5 7.25012H23.5ZM9.25 16.2501C9.38143 16.2505 9.51165 16.2249 9.63315 16.1748C9.75466 16.1247 9.86505 16.051 9.95799 15.9581C10.0509 15.8652 10.1246 15.7548 10.1747 15.6333C10.2248 15.5118 10.2504 15.3816 10.25 15.2501V13.0001C10.25 12.8012 10.329 12.6104 10.4697 12.4698C10.6103 12.3291 10.8011 12.2501 11 12.2501C11.1989 12.2501 11.3897 12.3291 11.5303 12.4698C11.671 12.6104 11.75 12.8012 11.75 13.0001V15.2501C11.75 15.9132 11.4866 16.549 11.0178 17.0179C10.5489 17.4867 9.91304 17.7501 9.25 17.7501C8.58696 17.7501 7.95107 17.4867 7.48223 17.0179C7.01339 16.549 6.75 15.9132 6.75 15.2501V13.0001C6.75 12.8012 6.82902 12.6104 6.96967 12.4698C7.11032 12.3291 7.30109 12.2501 7.5 12.2501C7.69891 12.2501 7.88968 12.3291 8.03033 12.4698C8.17098 12.6104 8.25 12.8012 8.25 13.0001V15.2501C8.2496 15.3816 8.2752 15.5118 8.32531 15.6333C8.37543 15.7548 8.44907 15.8652 8.54201 15.9581C8.63495 16.051 8.74534 16.1247 8.86685 16.1748C8.98835 16.2249 9.11857 16.2505 9.25 16.2501ZM12.97 13.5301C12.9004 13.4605 12.8452 13.3779 12.8075 13.287C12.7699 13.196 12.7505 13.0986 12.7505 13.0001C12.7505 12.9017 12.7699 12.8042 12.8075 12.7133C12.8452 12.6224 12.9004 12.5397 12.97 12.4701C13.0396 12.4005 13.1222 12.3453 13.2132 12.3076C13.3041 12.27 13.4016 12.2506 13.5 12.2506C13.5984 12.2506 13.6959 12.27 13.7868 12.3076C13.8778 12.3453 13.9604 12.4005 14.03 12.4701L18.03 16.4701C18.0996 16.5397 18.1548 16.6223 18.1925 16.7133C18.2301 16.8042 18.2495 16.9017 18.2495 17.0001C18.2495 17.0986 18.2301 17.196 18.1925 17.287C18.1548 17.3779 18.0996 17.4605 18.03 17.5301C17.9604 17.5997 17.8778 17.6549 17.7868 17.6926C17.6959 17.7303 17.5984 17.7497 17.5 17.7497C17.4016 17.7497 17.3041 17.7303 17.2132 17.6926C17.1222 17.6549 17.0396 17.5997 16.97 17.5301L12.97 13.5301Z" fill="white"/>
<path fill-rule="evenodd" clip-rule="evenodd" d="M16.9695 12.4701C17.0391 12.4005 17.1218 12.3453 17.2127 12.3077C17.3036 12.27 17.4011 12.2506 17.4995 12.2506C17.598 12.2506 17.6954 12.27 17.7864 12.3077C17.8773 12.3453 17.9599 12.4005 18.0295 12.4701C18.0991 12.5397 18.1543 12.6224 18.192 12.7133C18.2297 12.8042 18.2491 12.9017 18.2491 13.0001C18.2491 13.0986 18.2297 13.196 18.192 13.287C18.1543 13.3779 18.0991 13.4605 18.0295 13.5301L14.0295 17.5301C13.9599 17.5997 13.8773 17.655 13.7864 17.6926C13.6954 17.7303 13.598 17.7497 13.4995 17.7497C13.4011 17.7497 13.3036 17.7303 13.2127 17.6926C13.1218 17.655 13.0391 17.5997 12.9695 17.5301C12.8999 17.4605 12.8447 17.3779 12.8071 17.287C12.7694 17.196 12.75 17.0986 12.75 17.0001C12.75 16.9017 12.7694 16.8042 12.8071 16.7133C12.8447 16.6224 12.8999 16.5397 12.9695 16.4701L16.9695 12.4701Z" fill="white"/>
</g>
<defs>
<clipPath id="clip0_2077_2736">
<rect width="24" height="24" fill="white" transform="translate(0.5)"/>
</clipPath>
</defs>
</svg>
