<svg width="25" height="24" viewBox="0 0 25 24" fill="none" xmlns="http://www.w3.org/2000/svg">
<path d="M5.9375 17.9531C20.7104 17.9531 19.8832 17.9822 20.0817 17.8995C20.2458 17.8313 20.378 17.7034 20.4517 17.5416C20.4811 17.4777 20.2565 18.1694 23.4822 8.08927C23.6271 7.63655 23.2891 7.17188 22.8125 7.17188H20.127C20.3705 3.27473 17.2602 0 13.4375 0C9.60763 0 6.50502 3.28214 6.74806 7.17188H4.94431L4.35458 5.40267C4.30789 5.26267 4.21835 5.14091 4.09863 5.05462C3.97891 4.96833 3.83508 4.92189 3.6875 4.92188H2.1875C1.79919 4.92188 1.48438 5.23669 1.48438 5.625C1.48438 6.01331 1.79919 6.32812 2.1875 6.32812H3.18069C3.9658 8.68341 3.33125 6.72506 6.47427 16.5469H5.9375C4.72269 16.5469 3.73438 17.5352 3.73438 18.75C3.73438 19.9648 4.72269 20.9531 5.9375 20.9531H6.88414C6.32309 22.3939 7.39273 24 8.9375 24C10.484 24 11.5514 22.3926 10.9909 20.9531H18.1341C17.5731 22.3939 18.6427 24 20.1875 24C21.4023 24 22.3906 22.9648 22.3906 21.75C22.3906 20.5352 21.4023 19.5469 20.1875 19.5469H5.9375C5.49809 19.5469 5.14062 19.1894 5.14062 18.75C5.14062 18.3106 5.49809 17.9531 5.9375 17.9531ZM13.4375 1.40625C16.3582 1.40625 18.7344 3.82927 18.7344 6.75C18.7344 9.67073 16.3582 12.0469 13.4375 12.0469C10.5168 12.0469 8.14062 9.67073 8.14062 6.75C8.14062 3.82927 10.5168 1.40625 13.4375 1.40625ZM5.40073 8.57812H6.98778C7.7855 11.3886 10.3749 13.4531 13.4375 13.4531C16.5001 13.4531 19.0895 11.3886 19.8872 8.57812H21.8493L19.2993 16.5469H7.95073L5.40073 8.57812ZM9.73438 21.75C9.73438 22.1894 9.37691 22.5938 8.9375 22.5938C8.49809 22.5938 8.14062 22.1894 8.14062 21.75C8.14062 21.3106 8.49809 20.9531 8.9375 20.9531C9.37691 20.9531 9.73438 21.3106 9.73438 21.75ZM20.1875 22.5938C19.7481 22.5938 19.3906 22.1894 19.3906 21.75C19.3906 21.3106 19.7481 20.9531 20.1875 20.9531C20.6269 20.9531 20.9844 21.3106 20.9844 21.75C20.9844 22.1894 20.6269 22.5938 20.1875 22.5938Z" fill="white"/>
<path d="M14.2184 6.06197C13.7702 5.90353 13.2763 5.7135 13.0111 5.50547C12.9937 5.49178 12.9611 5.40994 12.984 5.28853C12.9949 5.23036 13.0452 5.03625 13.2324 4.97986C13.7014 4.83862 13.918 5.01923 13.9572 5.05753C14.2295 5.33391 14.6743 5.33752 14.9511 5.06536C15.228 4.79306 15.2317 4.34789 14.9594 4.07105C14.7677 3.87614 14.4886 3.69933 14.1422 3.6015V3.5625C14.1422 3.17419 13.8274 2.85938 13.4391 2.85938C13.0508 2.85938 12.736 3.17419 12.736 3.5625V3.66431C11.4691 4.12467 11.1775 5.85459 12.1432 6.612C12.5673 6.94462 13.1659 7.18144 13.7497 7.38783C14.0982 7.51097 14.1337 7.76086 14.1021 7.94873C14.0669 8.15803 13.8866 8.51311 13.4343 8.51611C12.9657 8.51934 12.8547 8.50186 12.5119 8.27766C12.1869 8.06508 11.7512 8.15616 11.5386 8.48114C11.326 8.80613 11.4172 9.24188 11.7421 9.45445C12.116 9.69905 12.412 9.82027 12.7359 9.87713V9.94458C12.7359 10.3329 13.0508 10.6477 13.4391 10.6477C13.8274 10.6477 14.1422 10.3329 14.1422 9.94458V9.79763C15.8459 9.18169 16.0716 6.717 14.2184 6.06197Z" fill="white"/>
</svg>
