<svg width="24" height="24" viewBox="0 0 24 24" fill="none" xmlns="http://www.w3.org/2000/svg">
<path d="M19.8116 1.5C19.1249 1.5006 18.4665 1.77361 17.9808 2.25913C17.4951 2.74465 17.2219 3.40302 17.2211 4.08975C17.2211 4.58325 17.3674 5.04 17.6081 5.433L13.8124 9.06825C13.2715 8.75109 12.6566 8.58216 12.0296 8.5785C11.3921 8.5785 10.8011 8.7585 10.2806 9.05025L8.95013 7.614C9.18563 7.224 9.32963 6.77175 9.32963 6.2835C9.32963 4.8555 8.16788 3.69375 6.73988 3.69375C5.31188 3.69375 4.15013 4.8555 4.15013 6.2835C4.15013 7.7115 5.31188 8.87325 6.73988 8.87325C7.13363 8.87325 7.50263 8.778 7.83713 8.6205L9.14963 10.0357C8.67952 10.6545 8.42386 11.4097 8.42138 12.1868C8.42138 12.357 8.44838 12.5198 8.47163 12.684L6.14288 13.827C5.90217 13.5432 5.60279 13.315 5.26537 13.1581C4.92795 13.0011 4.56051 12.9192 4.18838 12.918C2.76038 12.918 1.59863 14.079 1.59863 15.5077C1.59863 16.9365 2.76038 18.0975 4.18913 18.0975C5.61788 18.0975 6.77963 16.9358 6.77963 15.5077C6.77963 15.4028 6.76013 15.303 6.74813 15.2003L8.98388 14.103C9.30686 14.6198 9.75572 15.0461 10.2884 15.342C10.8211 15.6379 11.4202 15.7938 12.0296 15.795C12.3011 15.795 12.5629 15.759 12.8171 15.702L13.9339 17.997C13.6644 18.2376 13.4487 18.5323 13.3006 18.8618C13.1525 19.1913 13.0754 19.5483 13.0744 19.9095C13.0744 21.3382 14.2361 22.5 15.6641 22.5C17.0921 22.5 18.2539 21.3383 18.2539 19.9103C18.2539 18.4823 17.0929 17.3205 15.6641 17.3205C15.5366 17.3205 15.4144 17.34 15.2914 17.358L14.1776 15.069C15.0589 14.4105 15.6379 13.3688 15.6379 12.1868C15.6379 11.3933 15.3724 10.665 14.9366 10.0688L18.7309 6.43575C19.0609 6.58875 19.4246 6.6795 19.8116 6.6795C21.2396 6.6795 22.4014 5.51775 22.4014 4.08975C22.4014 2.66175 21.2404 1.5 19.8116 1.5ZM4.18913 16.5975C3.58838 16.5975 3.09938 16.1085 3.09938 15.5077C3.09938 14.907 3.58838 14.418 4.18913 14.418C4.79063 14.418 5.27963 14.907 5.27963 15.5077C5.27963 16.1085 4.79063 16.5975 4.18913 16.5975ZM16.7539 19.9103C16.7539 20.5103 16.2656 21 15.6641 21C15.0626 21 14.5744 20.511 14.5744 19.9103C14.5744 19.3095 15.0634 18.8205 15.6641 18.8205C16.2649 18.8205 16.7539 19.3095 16.7539 19.9103ZM5.65013 6.28275C5.65013 5.68275 6.13913 5.19375 6.73988 5.19375C7.34063 5.19375 7.82963 5.68275 7.82963 6.2835C7.82963 6.88425 7.34063 7.3725 6.73988 7.3725C6.13913 7.3725 5.65013 6.885 5.65013 6.2835V6.28275ZM9.92138 12.1868C9.92218 11.6279 10.1446 11.0921 10.5398 10.6969C10.935 10.3017 11.4707 10.0793 12.0296 10.0785C13.1921 10.0785 14.1379 11.0243 14.1379 12.1868C14.1379 13.3493 13.1921 14.2943 12.0304 14.2943C11.4714 14.2939 10.9354 14.0717 10.5401 13.6766C10.1447 13.2815 9.92218 12.7457 9.92138 12.1868ZM19.8116 5.1795C19.2101 5.1795 18.7211 4.6905 18.7211 4.08975C18.7211 3.489 19.2101 3 19.8116 3C20.4124 3 20.9014 3.489 20.9014 4.08975C20.9014 4.6905 20.4124 5.1795 19.8116 5.1795Z" fill="#3B82F6"/>
</svg>
