<svg width="24" height="24" viewBox="0 0 24 24" fill="none" xmlns="http://www.w3.org/2000/svg">
<path d="M16.0751 4.29825L14.787 3.87091L14.3597 2.58273C14.3502 2.55387 14.3318 2.52875 14.3071 2.51094C14.2825 2.49313 14.2529 2.48355 14.2225 2.48355C14.1921 2.48355 14.1625 2.49313 14.1378 2.51094C14.1132 2.52875 14.0948 2.55387 14.0853 2.58273L13.6582 3.87091L12.3698 4.29825C12.341 4.30785 12.316 4.32626 12.2983 4.35088C12.2805 4.37549 12.271 4.40507 12.271 4.43541C12.271 4.46576 12.2805 4.49534 12.2983 4.51995C12.316 4.54457 12.341 4.56298 12.3698 4.57257L13.6582 4.99987L14.0853 6.28809C14.0949 6.31693 14.1133 6.34201 14.1379 6.35978C14.1626 6.37756 14.1922 6.38712 14.2226 6.38712C14.2529 6.38712 14.2825 6.37755 14.3072 6.35977C14.3318 6.342 14.3502 6.31692 14.3597 6.28809L14.787 4.99987L16.0751 4.57257C16.104 4.56299 16.1291 4.54458 16.1469 4.51994C16.1647 4.4953 16.1743 4.46569 16.1743 4.43529C16.1743 4.40492 16.1647 4.37532 16.1469 4.35072C16.1291 4.32611 16.104 4.30775 16.0751 4.29825ZM20.116 2.62349L19.3486 2.36894L19.0941 1.60161C19.0884 1.58447 19.0774 1.56955 19.0628 1.55898C19.0481 1.54841 19.0305 1.54272 19.0124 1.54272C18.9943 1.54272 18.9767 1.54841 18.9621 1.55898C18.9474 1.56955 18.9364 1.58447 18.9307 1.60161L18.6762 2.36894L17.9087 2.62349C17.8916 2.62916 17.8766 2.64011 17.866 2.65477C17.8554 2.66942 17.8497 2.68705 17.8498 2.70513C17.8498 2.74224 17.8735 2.77521 17.9087 2.78697L18.6762 3.04152L18.9307 3.80875C18.9364 3.82595 18.9473 3.84091 18.962 3.85153C18.9767 3.86214 18.9943 3.86785 19.0124 3.86785C19.0305 3.86785 19.0482 3.86214 19.0628 3.85153C19.0775 3.84091 19.0884 3.82595 19.0941 3.80875L19.3486 3.04152L20.116 2.78697C20.1332 2.78125 20.1481 2.77026 20.1587 2.75558C20.1693 2.74089 20.175 2.72324 20.175 2.70513C20.175 2.66808 20.1512 2.6351 20.116 2.62349ZM9.93671 13.588L6.40391 10.0552L8.10796 8.35104L11.6976 11.9406L12.399 11.2845L8.58172 7.46707C8.55761 7.40635 8.52134 7.35121 8.47514 7.30501C8.42894 7.25882 8.37379 7.22256 8.31306 7.19846L7.20047 6.08587C6.81374 5.69913 6.29961 5.48621 5.75269 5.48621C5.20583 5.48621 4.6917 5.69918 4.30506 6.08582L4.13869 6.25214C3.34045 7.05053 3.3405 8.34941 4.13874 9.14765L9.23519 14.2441L9.93671 13.588ZM4.81756 8.46888C4.39362 8.04494 4.39362 7.35504 4.81756 6.93105L4.98388 6.76473C5.18927 6.55934 5.4623 6.44625 5.75274 6.44625C6.04319 6.44625 6.31626 6.55929 6.5217 6.76478L7.42914 7.67222L5.7251 9.37637L4.81756 8.46888ZM19.9958 21.1698C19.8052 20.597 18.8208 17.7063 18.1618 17.0473L18.1576 17.043C18.1335 16.9822 18.0972 16.9271 18.051 16.8809C18.0048 16.8347 17.9496 16.7985 17.8889 16.7744L15.5542 14.4396L14.9278 15.1709L17.005 17.248L15.3009 18.9522L13.3554 17.0067L12.7291 17.738L15.1001 20.109C15.7591 20.768 18.6496 21.7522 19.2225 21.9428C19.307 21.9709 19.3976 21.975 19.4843 21.9545C19.571 21.9341 19.6503 21.8899 19.7133 21.8269L19.8795 21.6608C19.9426 21.5979 19.987 21.5186 20.0075 21.4318C20.028 21.3451 20.024 21.2543 19.9958 21.1698ZM16.0118 19.5991L17.6518 17.959C17.9824 18.5075 18.474 19.7374 18.8526 20.7997C17.7903 20.4212 16.5604 19.9296 16.0118 19.5991Z" fill="#3B82F6"/>
<path d="M19.8775 5.97574L19.7835 5.88185C19.5284 5.62682 19.1868 5.48633 18.8218 5.48633C18.4542 5.48633 18.1091 5.62745 17.8488 5.88396L7.33436 15.5857C7.32961 15.5901 7.32505 15.5946 7.32044 15.5991C7.10286 15.8166 6.98622 16.0922 6.98189 16.3967C6.84989 16.3689 6.71538 16.3547 6.58047 16.3543C6.03097 16.3543 5.53561 16.59 5.10821 17.055C4.56673 17.644 4.34319 18.2943 4.14605 18.868C3.85345 19.7195 3.62228 20.3922 2.48103 20.8793C2.40883 20.9101 2.34529 20.9581 2.29598 21.0192C2.24667 21.0803 2.21309 21.1525 2.19818 21.2296C2.18328 21.3067 2.18751 21.3862 2.21049 21.4613C2.23348 21.5363 2.27452 21.6046 2.33002 21.6601C2.70596 22.0361 3.71026 22.1695 4.45599 22.1695C5.43164 22.1695 7.27863 21.9592 8.68652 20.5513C9.08813 20.1497 9.29122 19.6805 9.29007 19.1567C9.28935 19.0268 9.27635 18.8973 9.25124 18.7698C9.28332 18.7725 9.31549 18.7739 9.34767 18.774C9.66034 18.774 9.94301 18.6566 10.1652 18.4345C10.1697 18.4299 10.1742 18.4253 10.1786 18.4206L19.8757 7.91066C20.4063 7.3721 20.4081 6.50642 19.8775 5.97574ZM8.0077 19.8725C6.84438 21.0359 5.28313 21.2096 4.45604 21.2096C4.22713 21.2096 4.02274 21.197 3.84438 21.1773C4.57393 20.5767 4.82521 19.8457 5.05393 19.1801C5.23671 18.6483 5.40932 18.1459 5.81497 17.7047C6.05641 17.442 6.30678 17.3143 6.58042 17.3143C7.03378 17.3143 7.48978 17.6693 7.66887 17.8445C7.68706 17.8638 7.70084 17.8777 7.70833 17.8852L7.72321 17.9001C7.77313 17.9518 8.32873 18.5436 8.33012 19.1589C8.3307 19.4216 8.22519 19.6551 8.0077 19.8725ZM19.1894 7.23948C19.1848 7.24401 19.1804 7.24865 19.1761 7.2534L9.48101 17.761C9.4406 17.7997 9.40374 17.8141 9.34772 17.8141C9.10935 17.8141 8.73869 17.5549 8.55332 17.3724L8.40596 17.2251L8.4037 17.2228C8.38729 17.2054 8.3706 17.1883 8.35364 17.1714C8.2045 17.0109 7.9418 16.6566 7.94146 16.4145C7.94142 16.3596 7.95577 16.3234 7.99393 16.2834L18.5062 6.5837C18.511 6.57929 18.5156 6.57478 18.5202 6.57026C18.6001 6.49034 18.7071 6.44638 18.8218 6.44638C18.9305 6.44638 19.031 6.48703 19.105 6.56095L19.1988 6.65474C19.3548 6.81065 19.3504 7.07849 19.1894 7.23948Z" fill="#3B82F6"/>
</svg>
