<svg width="24" height="24" viewBox="0 0 24 24" fill="none" xmlns="http://www.w3.org/2000/svg">
<g clip-path="url(#clip0_2019_1436)">
<path d="M13.6627 24H10.3367C9.94447 24.0013 9.56368 23.8681 9.25779 23.6226C8.95189 23.3771 8.73938 23.0342 8.65568 22.651L8.23368 20.778C7.53817 20.4818 6.88187 20.101 6.27968 19.644L4.45768 20.219C3.67568 20.46 2.82568 20.129 2.43368 19.431L0.775682 16.563C0.582514 16.2225 0.509253 15.827 0.567638 15.4399C0.626024 15.0527 0.812675 14.6964 1.09768 14.428L2.50968 13.13C2.4246 12.3791 2.42426 11.621 2.50868 10.87L1.10368 9.57801C0.817532 9.31142 0.62917 8.95648 0.568789 8.57008C0.508408 8.18367 0.579504 7.78819 0.770682 7.44701L2.43868 4.56201C2.82668 3.87201 3.67568 3.53801 4.45568 3.78101L6.27968 4.35601C6.88201 3.89925 7.53828 3.51839 8.23368 3.22201L8.65568 1.34801C8.73958 0.965017 8.95218 0.622335 9.25805 0.377053C9.56393 0.131772 9.94461 -0.00129948 10.3367 9.56648e-06H13.6627C14.4747 9.56648e-06 15.1657 0.555009 15.3437 1.34901L15.7657 3.22201C16.4612 3.51817 17.1175 3.89905 17.7197 4.35601L19.5417 3.78101C20.3217 3.53701 21.1727 3.87101 21.5657 4.56901L23.2237 7.43701C23.6207 8.14701 23.4867 9.02201 22.9017 9.57201L21.4897 10.87C21.5745 11.621 21.5745 12.3791 21.4897 13.13L22.8957 14.422L22.9017 14.428C23.4867 14.978 23.6217 15.852 23.2287 16.553L21.5607 19.438C21.1717 20.128 20.3227 20.462 19.5437 20.219L17.7187 19.643C17.1164 20.0998 16.4601 20.4806 15.7647 20.777L15.3427 22.651C15.2594 23.0342 15.0471 23.3772 14.7413 23.6227C14.4356 23.8682 14.0548 24.0014 13.6627 24ZM6.43368 18.059C6.60568 18.059 6.77468 18.118 6.91168 18.23C7.59668 18.795 8.34668 19.23 9.13968 19.523C9.25698 19.5665 9.36158 19.6386 9.444 19.7327C9.52642 19.8268 9.58405 19.94 9.61168 20.062L10.1207 22.322C10.1317 22.3719 10.1592 22.4166 10.1988 22.4489C10.2383 22.4812 10.2876 22.4992 10.3387 22.5H13.6647C13.7156 22.4991 13.7647 22.4811 13.8042 22.4491C13.8437 22.417 13.8713 22.3726 13.8827 22.323L14.3917 20.063C14.4191 19.9409 14.4767 19.8276 14.5592 19.7335C14.6416 19.6394 14.7463 19.5673 14.8637 19.524C15.6735 19.2209 16.4267 18.7838 17.0917 18.231C17.188 18.1511 17.3029 18.0967 17.4257 18.0728C17.5485 18.0488 17.6754 18.0561 17.7947 18.094L19.9957 18.789C20.0997 18.821 20.2117 18.785 20.2607 18.696L21.9287 15.812C21.9531 15.7651 21.9615 15.7114 21.9527 15.6593C21.9438 15.6071 21.9182 15.5593 21.8797 15.523L20.1917 13.971C20.1012 13.888 20.0326 13.784 19.992 13.6682C19.9513 13.5524 19.9399 13.4283 19.9587 13.307C20.0247 12.867 20.0587 12.427 20.0587 12C20.0587 11.573 20.0257 11.134 19.9587 10.693C19.9402 10.5717 19.9519 10.4478 19.9925 10.332C20.0331 10.2162 20.1015 10.1122 20.1917 10.029L21.8837 8.47301C21.9219 8.4353 21.9465 8.38601 21.9538 8.33282C21.961 8.27964 21.9504 8.22555 21.9237 8.17901L20.2657 5.31201C20.2117 5.21701 20.1037 5.18001 19.9937 5.21201L17.7957 5.90601C17.6764 5.94389 17.5495 5.95119 17.4267 5.92726C17.3039 5.90332 17.189 5.8489 17.0927 5.76901C16.4279 5.21588 15.6747 4.77876 14.8647 4.47601C14.7474 4.43252 14.6428 4.36045 14.5604 4.26633C14.4779 4.17222 14.4203 4.05902 14.3927 3.93701L13.8837 1.67701C13.8712 1.62741 13.8429 1.58326 13.803 1.55129C13.7631 1.51933 13.7138 1.50131 13.6627 1.50001H10.3367C10.2858 1.50095 10.2367 1.51889 10.1972 1.55097C10.1577 1.58304 10.1301 1.62741 10.1187 1.67701L9.60968 3.93801C9.58231 4.05999 9.52489 4.17319 9.44263 4.26732C9.36037 4.36146 9.25589 4.43354 9.13868 4.47701C8.32864 4.77976 7.57542 5.21688 6.91068 5.77001C6.81422 5.84966 6.69938 5.90392 6.57659 5.92785C6.45381 5.95178 6.32699 5.94461 6.20768 5.90701L4.00668 5.21201C3.90268 5.18001 3.79068 5.21701 3.74168 5.30501L2.07368 8.18801C2.04903 8.23538 2.04066 8.28955 2.04988 8.34215C2.0591 8.39475 2.08539 8.44285 2.12468 8.47901L3.81168 10.029C3.90215 10.112 3.97075 10.216 4.01139 10.3318C4.05204 10.4476 4.06347 10.5717 4.04468 10.693C3.97868 11.133 3.94468 11.573 3.94468 12C3.94468 12.427 3.97768 12.866 4.04468 13.307C4.06312 13.4283 4.05151 13.5523 4.01089 13.668C3.97027 13.7838 3.90187 13.8878 3.81168 13.971L2.11968 15.527C2.08148 15.5647 2.05684 15.614 2.0496 15.6672C2.04236 15.7204 2.05294 15.7745 2.07968 15.821L3.73768 18.688C3.76397 18.7341 3.80567 18.7693 3.85544 18.7876C3.9052 18.8059 3.95983 18.8061 4.00968 18.788L6.20768 18.094C6.28071 18.0705 6.35698 18.0587 6.43368 18.059Z" fill="#3B82F6"/>
<path d="M11.2504 15.9999C11.1375 16.0001 11.0261 15.9747 10.9244 15.9258C10.8227 15.8769 10.7333 15.8057 10.6629 15.7175C10.5926 15.6292 10.543 15.5263 10.518 15.4162C10.493 15.3062 10.4931 15.1919 10.5184 15.0819L12.0184 8.5819C12.0684 8.39392 12.1894 8.23272 12.356 8.13231C12.5226 8.0319 12.7217 8.00014 12.9113 8.04374C13.1009 8.08734 13.2661 8.20287 13.3721 8.36597C13.4781 8.52907 13.5165 8.72696 13.4794 8.9179L11.9794 15.4179C11.9416 15.5831 11.849 15.7305 11.7165 15.8362C11.5841 15.9419 11.4198 15.9996 11.2504 15.9999ZM15.2494 14.9999C15.0973 15.0006 14.9486 14.955 14.8231 14.8691C14.6975 14.7833 14.6011 14.6613 14.5466 14.5193C14.4921 14.3773 14.4822 14.2221 14.518 14.0743C14.5539 13.9265 14.6339 13.7931 14.7474 13.6919L16.6284 11.9999L14.7474 10.3079C14.6741 10.242 14.6145 10.1623 14.5721 10.0733C14.5296 9.98437 14.5051 9.88792 14.4999 9.78949C14.4894 9.5907 14.5582 9.39589 14.6914 9.2479C14.7573 9.17462 14.837 9.11504 14.926 9.07257C15.0149 9.0301 15.1114 9.00556 15.2098 9.00036C15.4086 8.98986 15.6034 9.05876 15.7514 9.1919L18.2514 11.4419C18.3293 11.5125 18.3915 11.5986 18.4342 11.6947C18.4768 11.7908 18.4988 11.8948 18.4988 11.9999C18.4988 12.105 18.4768 12.209 18.4342 12.3051C18.3915 12.4012 18.3293 12.4873 18.2514 12.5579L15.7514 14.8079C15.6136 14.9318 15.4347 15.0002 15.2494 14.9999ZM8.74939 14.9999C8.56406 15.0002 8.3852 14.9318 8.24739 14.8079L5.74739 12.5579C5.66948 12.4873 5.60723 12.4012 5.56462 12.3051C5.52201 12.209 5.5 12.105 5.5 11.9999C5.5 11.8948 5.52201 11.7908 5.56462 11.6947C5.60723 11.5986 5.66948 11.5125 5.74739 11.4419L8.24739 9.1919C8.39651 9.06652 8.58851 9.004 8.78286 9.01754C8.97721 9.03107 9.1587 9.11961 9.289 9.26444C9.4193 9.40928 9.48821 9.59908 9.48119 9.79377C9.47418 9.98847 9.39177 10.1728 9.25139 10.3079L7.37039 11.9999L9.25139 13.6919C9.36435 13.7934 9.44387 13.9267 9.47941 14.0743C9.51496 14.2219 9.50486 14.3769 9.45045 14.5186C9.39605 14.6604 9.2999 14.7823 9.17472 14.8682C9.04954 14.9542 8.90122 15.0001 8.74939 14.9999Z" fill="#3B82F6"/>
</g>
<defs>
<clipPath id="clip0_2019_1436">
<rect width="24" height="24" fill="white"/>
</clipPath>
</defs>
</svg>
