<svg width="25" height="24" viewBox="0 0 25 24" fill="none" xmlns="http://www.w3.org/2000/svg">
<g clip-path="url(#clip0_2077_2759)">
<path d="M14.1637 24H10.8377C10.4454 24.0013 10.0647 23.8681 9.75876 23.6226C9.45287 23.3771 9.24036 23.0342 9.15666 22.651L8.73466 20.778C8.03915 20.4818 7.38285 20.101 6.78066 19.644L4.95866 20.219C4.17666 20.46 3.32666 20.129 2.93466 19.431L1.27666 16.563C1.08349 16.2225 1.01023 15.827 1.06861 15.4398C1.127 15.0527 1.31365 14.6964 1.59866 14.428L3.01066 13.13C2.92557 12.3791 2.92524 11.621 3.00966 10.87L1.60466 9.57801C1.31851 9.31142 1.13015 8.95648 1.06977 8.57008C1.00938 8.18367 1.08048 7.78819 1.27166 7.44701L2.93966 4.56201C3.32766 3.87201 4.17666 3.53801 4.95666 3.78101L6.78066 4.35601C7.38299 3.89925 8.03926 3.51839 8.73466 3.22201L9.15666 1.34801C9.24056 0.965017 9.45315 0.622335 9.75903 0.377053C10.0649 0.131772 10.4456 -0.00129948 10.8377 9.56648e-06H14.1637C14.9757 9.56648e-06 15.6667 0.555009 15.8447 1.34901L16.2667 3.22201C16.9622 3.51817 17.6185 3.89905 18.2207 4.35601L20.0427 3.78101C20.8227 3.53701 21.6737 3.87101 22.0667 4.56901L23.7247 7.43701C24.1217 8.14701 23.9877 9.02201 23.4027 9.57201L21.9907 10.87C22.0754 11.621 22.0754 12.3791 21.9907 13.13L23.3967 14.422L23.4027 14.428C23.9877 14.978 24.1227 15.852 23.7297 16.553L22.0617 19.438C21.6727 20.128 20.8237 20.462 20.0447 20.219L18.2197 19.643C17.6173 20.0998 16.9611 20.4806 16.2657 20.777L15.8437 22.651C15.7603 23.0342 15.5481 23.3772 15.2423 23.6227C14.9365 23.8682 14.5558 24.0014 14.1637 24ZM6.93466 18.059C7.10666 18.059 7.27566 18.118 7.41266 18.23C8.09766 18.795 8.84766 19.23 9.64066 19.523C9.75796 19.5665 9.86256 19.6386 9.94497 19.7327C10.0274 19.8268 10.085 19.94 10.1127 20.062L10.6217 22.322C10.6327 22.3719 10.6602 22.4166 10.6997 22.4489C10.7393 22.4812 10.7886 22.4992 10.8397 22.5H14.1657C14.2165 22.4991 14.2656 22.4811 14.3051 22.4491C14.3446 22.417 14.3723 22.3726 14.3837 22.323L14.8927 20.063C14.9201 19.9409 14.9777 19.8276 15.0601 19.7335C15.1426 19.6394 15.2473 19.5673 15.3647 19.524C16.1745 19.2209 16.9277 18.7838 17.5927 18.231C17.689 18.1511 17.8038 18.0967 17.9267 18.0728C18.0495 18.0488 18.1764 18.0561 18.2957 18.094L20.4967 18.789C20.6007 18.821 20.7127 18.785 20.7617 18.696L22.4297 15.812C22.4541 15.7651 22.4625 15.7114 22.4536 15.6593C22.4448 15.6071 22.4192 15.5593 22.3807 15.523L20.6927 13.971C20.6022 13.888 20.5336 13.784 20.4929 13.6682C20.4523 13.5524 20.4409 13.4283 20.4597 13.307C20.5257 12.867 20.5597 12.427 20.5597 12C20.5597 11.573 20.5267 11.134 20.4597 10.693C20.4412 10.5717 20.4528 10.4478 20.4935 10.332C20.5341 10.2162 20.6025 10.1122 20.6927 10.029L22.3847 8.47301C22.4229 8.4353 22.4475 8.38601 22.4547 8.33282C22.462 8.27964 22.4514 8.22555 22.4247 8.17901L20.7667 5.31201C20.7127 5.21701 20.6047 5.18001 20.4947 5.21201L18.2967 5.90601C18.1774 5.94389 18.0505 5.95119 17.9277 5.92726C17.8048 5.90332 17.69 5.8489 17.5937 5.76901C16.9289 5.21588 16.1757 4.77876 15.3657 4.47601C15.2484 4.43252 15.1438 4.36045 15.0613 4.26633C14.9789 4.17221 14.9213 4.05902 14.8937 3.93701L14.3847 1.67701C14.3722 1.62741 14.3439 1.58326 14.304 1.55129C14.2641 1.51933 14.2148 1.50131 14.1637 1.50001H10.8377C10.7868 1.50095 10.7377 1.51889 10.6982 1.55097C10.6587 1.58304 10.631 1.62741 10.6197 1.67701L10.1107 3.93801C10.0833 4.05999 10.0259 4.17319 9.94361 4.26732C9.86135 4.36146 9.75687 4.43354 9.63966 4.47701C8.82961 4.77976 8.0764 5.21688 7.41166 5.77001C7.3152 5.84966 7.20035 5.90392 7.07757 5.92785C6.95478 5.95178 6.82797 5.94461 6.70866 5.90701L4.50766 5.21201C4.40366 5.18001 4.29166 5.21701 4.24266 5.30501L2.57466 8.18801C2.55 8.23538 2.54164 8.28955 2.55086 8.34215C2.56008 8.39475 2.58636 8.44285 2.62566 8.47901L4.31266 10.029C4.40313 10.112 4.47173 10.216 4.51237 10.3318C4.55301 10.4476 4.56445 10.5717 4.54566 10.693C4.47966 11.133 4.44566 11.573 4.44566 12C4.44566 12.427 4.47866 12.866 4.54566 13.307C4.56409 13.4283 4.55249 13.5523 4.51187 13.668C4.47124 13.7838 4.40284 13.8878 4.31266 13.971L2.62066 15.527C2.58246 15.5647 2.55781 15.614 2.55058 15.6672C2.54334 15.7204 2.55392 15.7745 2.58066 15.821L4.23866 18.688C4.26495 18.7341 4.30665 18.7693 4.35642 18.7876C4.40618 18.8059 4.46081 18.8061 4.51066 18.788L6.70866 18.094C6.78169 18.0705 6.85795 18.0587 6.93466 18.059Z" fill="white"/>
<path d="M11.7523 16C11.6395 16.0002 11.528 15.9749 11.4263 15.926C11.3246 15.8771 11.2352 15.8058 11.1649 15.7176C11.0945 15.6294 11.045 15.5264 11.02 15.4163C10.9949 15.3063 10.9951 15.192 11.0203 15.082L12.5203 8.58202C12.5703 8.39404 12.6914 8.23284 12.858 8.13243C13.0246 8.03202 13.2237 8.00027 13.4132 8.04386C13.6028 8.08746 13.768 8.203 13.874 8.36609C13.98 8.52919 14.0185 8.72709 13.9813 8.91802L12.4813 15.418C12.4436 15.5832 12.3509 15.7307 12.2185 15.8364C12.0861 15.9421 11.9218 15.9998 11.7523 16ZM15.7513 15C15.5993 15.0007 15.4506 14.9551 15.325 14.8693C15.1995 14.7834 15.1031 14.6614 15.0486 14.5194C14.9941 14.3774 14.9841 14.2222 15.02 14.0744C15.0558 13.9266 15.1358 13.7932 15.2493 13.692L17.1303 12L15.2493 10.308C15.1761 10.2421 15.1165 10.1624 15.074 10.0734C15.0315 9.98449 15.007 9.88805 15.0018 9.78962C14.9913 9.59083 15.0602 9.39601 15.1933 9.24802C15.2593 9.17474 15.339 9.11516 15.4279 9.07269C15.5169 9.03022 15.6133 9.00568 15.7117 9.00048C15.9105 8.98998 16.1053 9.05888 16.2533 9.19202L18.7533 11.442C18.8312 11.5126 18.8935 11.5987 18.9361 11.6948C18.9787 11.7909 19.0007 11.8949 19.0007 12C19.0007 12.1051 18.9787 12.2091 18.9361 12.3052C18.8935 12.4013 18.8312 12.4874 18.7533 12.558L16.2533 14.808C16.1155 14.9319 15.9367 15.0003 15.7513 15ZM9.25134 15C9.06602 15.0003 8.88716 14.9319 8.74934 14.808L6.24934 12.558C6.17144 12.4874 6.10918 12.4013 6.06657 12.3052C6.02396 12.2091 6.00195 12.1051 6.00195 12C6.00195 11.8949 6.02396 11.7909 6.06657 11.6948C6.10918 11.5987 6.17144 11.5126 6.24934 11.442L8.74934 9.19202C8.89846 9.06664 9.09046 9.00412 9.28481 9.01766C9.47916 9.0312 9.66065 9.11973 9.79095 9.26456C9.92125 9.4094 9.99017 9.5992 9.98315 9.7939C9.97613 9.98859 9.89373 10.1729 9.75334 10.308L7.87234 12L9.75334 13.692C9.86631 13.7935 9.94582 13.9268 9.98136 14.0744C10.0169 14.2221 10.0068 14.377 9.95241 14.5187C9.898 14.6605 9.80185 14.7824 9.67667 14.8683C9.55149 14.9543 9.40318 15.0002 9.25134 15Z" fill="white"/>
</g>
<defs>
<clipPath id="clip0_2077_2759">
<rect width="24" height="24" fill="white" transform="translate(0.5)"/>
</clipPath>
</defs>
</svg>
