<svg width="125" height="40" viewBox="0 0 125 40" fill="none" xmlns="http://www.w3.org/2000/svg">
<g clip-path="url(#clip0_2346_7741)">
<circle cx="3.57136" cy="35.7143" r="16.7857" fill="url(#paint0_linear_2346_7741)"/>
<circle cx="20.1785" cy="1.60711" r="18.3929" fill="url(#paint1_linear_2346_7741)"/>
</g>
<path d="M32.8569 39.7264V35.0979H34.2359C34.2894 35.0979 34.3762 35.0989 34.4962 35.1011C34.6184 35.1032 34.7341 35.1129 34.8434 35.13C35.1905 35.1771 35.4787 35.3079 35.708 35.5221C35.9373 35.7343 36.1087 36.0043 36.2223 36.3321C36.3359 36.6579 36.3926 37.0179 36.3926 37.4121C36.3926 37.8086 36.3359 38.1707 36.2223 38.4986C36.1087 38.8243 35.9373 39.0932 35.708 39.3054C35.4787 39.5175 35.1905 39.6471 34.8434 39.6943C34.7341 39.7093 34.6173 39.7189 34.493 39.7232C34.3709 39.7254 34.2851 39.7264 34.2359 39.7264H32.8569ZM33.2459 39.3632H34.2359C34.3323 39.3632 34.4319 39.3611 34.5348 39.3568C34.6376 39.3504 34.7255 39.3407 34.7984 39.3279C35.0855 39.2764 35.3169 39.1629 35.4926 38.9871C35.6684 38.8093 35.7959 38.5854 35.8751 38.3154C35.9566 38.0432 35.9973 37.7421 35.9973 37.4121C35.9973 37.08 35.9566 36.7789 35.8751 36.5089C35.7937 36.2368 35.6651 36.0129 35.4894 35.8371C35.3137 35.6593 35.0834 35.5457 34.7984 35.4964C34.7255 35.4836 34.6355 35.475 34.5284 35.4707C34.4234 35.4643 34.3259 35.4611 34.2359 35.4611H33.2459V39.3632Z" fill="#020014"/>
<path d="M39.6142 39.7264V35.0979H39.9839V39.7264H39.6142Z" fill="#020014"/>
<path d="M45.2313 39.8229C44.8949 39.8229 44.596 39.765 44.3345 39.6493C44.0753 39.5336 43.8567 39.3696 43.6788 39.1575C43.501 38.9454 43.366 38.6914 43.2738 38.3957C43.1817 38.1 43.1356 37.7721 43.1356 37.4121C43.1356 36.9343 43.216 36.5154 43.3767 36.1554C43.5395 35.7932 43.7763 35.5114 44.087 35.31C44.3978 35.1086 44.7792 35.0079 45.2313 35.0079C45.6985 35.0079 46.082 35.1171 46.382 35.3357C46.6842 35.5543 46.8963 35.8414 47.0185 36.1971L46.652 36.3096C46.5449 36.0246 46.3703 35.7975 46.1281 35.6282C45.8881 35.4568 45.5924 35.37 45.241 35.3679C44.8617 35.3679 44.5456 35.4546 44.2928 35.6282C44.042 35.7996 43.8535 36.0396 43.727 36.3482C43.6006 36.6568 43.5353 37.0114 43.531 37.4121C43.5267 37.8129 43.5878 38.1675 43.7142 38.4761C43.8428 38.7825 44.0345 39.0236 44.2895 39.1993C44.5445 39.3729 44.8617 39.4596 45.241 39.4596C45.6031 39.4618 45.8988 39.3911 46.1281 39.2475C46.3595 39.1039 46.531 38.9025 46.6424 38.6432C46.756 38.3818 46.817 38.0764 46.8256 37.7271H45.6749V37.3896H47.2113C47.2178 37.4432 47.221 37.4957 47.221 37.5471C47.2231 37.5986 47.2242 37.6382 47.2242 37.6661C47.2242 38.0754 47.1524 38.4429 47.0088 38.7686C46.8674 39.0943 46.6488 39.3514 46.3531 39.54C46.0595 39.7286 45.6856 39.8229 45.2313 39.8229Z" fill="#020014"/>
<path d="M50.376 39.7264V35.0979H50.7457V39.7264H50.376Z" fill="#020014"/>
<path d="M55.4274 39.7264V35.4579H53.7689V35.0979H57.4557V35.4579H55.7971V39.7264H55.4274Z" fill="#020014"/>
<path d="M59.9674 39.7264L61.6067 35.0979H62.0663L63.7056 39.7264H63.3135L61.7385 35.2907H61.9249L60.3596 39.7264H59.9674ZM60.6456 38.5629V38.2125H63.0242V38.5629H60.6456Z" fill="#020014"/>
<path d="M66.7887 39.7264V35.0979H67.1584V39.3664H69.4084V39.7264H66.7887Z" fill="#020014"/>
<path d="M75.4887 39.7264L77.1279 35.0979H77.5876L79.2269 39.7264H78.8347L77.2597 35.2907H77.4462L75.8808 39.7264H75.4887ZM76.1669 38.5629V38.2125H78.5454V38.5629H76.1669Z" fill="#020014"/>
<path d="M83.9587 39.8229C83.6223 39.8229 83.3233 39.765 83.0619 39.6493C82.8026 39.5336 82.5841 39.3696 82.4062 39.1575C82.2283 38.9454 82.0933 38.6914 82.0012 38.3957C81.9091 38.1 81.863 37.7721 81.863 37.4121C81.863 36.9343 81.9433 36.5154 82.1041 36.1554C82.2669 35.7932 82.5037 35.5114 82.8144 35.31C83.1251 35.1086 83.5066 35.0079 83.9587 35.0079C84.4258 35.0079 84.8094 35.1171 85.1094 35.3357C85.4116 35.5543 85.6237 35.8414 85.7458 36.1971L85.3794 36.3096C85.2723 36.0246 85.0976 35.7975 84.8555 35.6282C84.6155 35.4568 84.3198 35.37 83.9683 35.3679C83.5891 35.3679 83.273 35.4546 83.0201 35.6282C82.7694 35.7996 82.5808 36.0396 82.4544 36.3482C82.328 36.6568 82.2626 37.0114 82.2583 37.4121C82.2541 37.8129 82.3151 38.1675 82.4416 38.4761C82.5701 38.7825 82.7619 39.0236 83.0169 39.1993C83.2719 39.3729 83.5891 39.4596 83.9683 39.4596C84.3305 39.4618 84.6262 39.3911 84.8555 39.2475C85.0869 39.1039 85.2583 38.9025 85.3698 38.6432C85.4833 38.3818 85.5444 38.0764 85.553 37.7271H84.4023V37.3896H85.9387C85.9451 37.4432 85.9483 37.4957 85.9483 37.5471C85.9505 37.5986 85.9516 37.6382 85.9516 37.6661C85.9516 38.0754 85.8798 38.4429 85.7362 38.7686C85.5948 39.0943 85.3762 39.3514 85.0805 39.54C84.7869 39.7286 84.413 39.8229 83.9587 39.8229Z" fill="#020014"/>
<path d="M89.0391 39.7264V35.0979H91.8998V35.4579H89.4088V37.2161H91.5141V37.5761H89.4088V39.3664H91.8998V39.7264H89.0391Z" fill="#020014"/>
<path d="M95.1169 39.7264V35.0979H95.4898L98.1705 39.0675V35.0979H98.5433V39.7264H98.1705L95.4898 35.7504V39.7264H95.1169Z" fill="#020014"/>
<path d="M103.733 39.8229C103.273 39.8229 102.886 39.7211 102.573 39.5175C102.26 39.3118 102.025 39.0279 101.866 38.6657C101.707 38.3036 101.628 37.8857 101.628 37.4121C101.628 36.9386 101.707 36.5207 101.866 36.1586C102.025 35.7964 102.26 35.5136 102.573 35.31C102.886 35.1043 103.273 35.0014 103.733 35.0014C104.271 35.0014 104.707 35.1407 105.042 35.4193C105.378 35.6979 105.606 36.0707 105.726 36.5379L105.344 36.6311C105.245 36.2432 105.061 35.9357 104.791 35.7086C104.523 35.4793 104.171 35.3646 103.733 35.3646C103.354 35.3646 103.038 35.4514 102.785 35.625C102.535 35.7986 102.345 36.0396 102.216 36.3482C102.09 36.6568 102.026 37.0114 102.023 37.4121C102.019 37.8129 102.08 38.1675 102.207 38.4761C102.335 38.7825 102.527 39.0236 102.782 39.1993C103.037 39.3729 103.354 39.4596 103.733 39.4596C104.171 39.4596 104.523 39.345 104.791 39.1157C105.061 38.8864 105.245 38.5789 105.344 38.1932L105.726 38.2864C105.606 38.7536 105.378 39.1264 105.042 39.405C104.707 39.6836 104.271 39.8229 103.733 39.8229Z" fill="#020014"/>
<path d="M109.772 39.7264V37.7721L108.229 35.0979H108.656L109.958 37.3479L111.257 35.0979H111.684L110.144 37.7721V39.7264H109.772Z" fill="#020014"/>
<path d="M33.5713 22.0372H36.9684C36.988 22.6619 37.2222 23.1598 37.6713 23.5307C38.1203 23.9017 38.7451 24.0872 39.5456 24.0872C40.4046 24.0872 41.0489 23.931 41.4784 23.6186C41.9275 23.3062 42.152 22.8864 42.152 22.3593C42.152 22.0079 42.0349 21.6955 41.8006 21.4222C41.5663 21.1488 41.127 20.9438 40.4827 20.8072L37.8763 20.1922C36.5682 19.8993 35.592 19.4307 34.9477 18.7864C34.323 18.1226 34.0106 17.2148 34.0106 16.0629C34.0106 15.1257 34.2546 14.3155 34.7427 13.6322C35.2503 12.9488 35.9337 12.4315 36.7927 12.08C37.6518 11.7091 38.6377 11.5236 39.7506 11.5236C40.8244 11.5236 41.7713 11.7188 42.5913 12.1093C43.4113 12.4998 44.0458 13.0464 44.4949 13.7493C44.9634 14.4522 45.2075 15.2722 45.227 16.2093H41.8299C41.8299 15.5845 41.6346 15.0965 41.2441 14.745C40.8537 14.3741 40.307 14.1886 39.6041 14.1886C38.9013 14.1886 38.3546 14.3448 37.9641 14.6572C37.5737 14.9695 37.3784 15.3893 37.3784 15.9164C37.3784 16.7169 38.0032 17.2636 39.2527 17.5565L41.8591 18.1715C43.0696 18.4448 43.9775 18.8841 44.5827 19.4893C45.2075 20.0945 45.5199 20.9536 45.5199 22.0665C45.5199 23.0426 45.2661 23.8919 44.7584 24.6143C44.2508 25.3172 43.5382 25.8638 42.6206 26.2543C41.703 26.6253 40.6487 26.8107 39.4577 26.8107C37.6615 26.8107 36.2265 26.3715 35.1527 25.4929C34.0984 24.6143 33.5713 23.4624 33.5713 22.0372Z" fill="#020014"/>
<path d="M47.3909 19.1672C47.3909 17.6638 47.7228 16.346 48.3867 15.2136C49.0505 14.0617 49.9681 13.1636 51.1395 12.5193C52.3109 11.875 53.6386 11.5529 55.1224 11.5529C56.6257 11.5529 57.9533 11.875 59.1052 12.5193C60.2767 13.1636 61.1943 14.0617 61.8581 15.2136C62.5219 16.346 62.8538 17.6638 62.8538 19.1672C62.8538 20.6705 62.5219 21.9981 61.8581 23.15C61.1943 24.2824 60.2767 25.1707 59.1052 25.815C57.9533 26.4593 56.6257 26.7815 55.1224 26.7815C53.6386 26.7815 52.3109 26.4593 51.1395 25.815C49.9681 25.1707 49.0505 24.2824 48.3867 23.15C47.7228 21.9981 47.3909 20.6705 47.3909 19.1672ZM50.9638 19.1672C50.9638 20.0457 51.1395 20.8169 51.4909 21.4807C51.8619 22.1445 52.35 22.6619 52.9552 23.0329C53.58 23.4038 54.3024 23.5893 55.1224 23.5893C55.9424 23.5893 56.6648 23.4038 57.2895 23.0329C57.9143 22.6619 58.4024 22.1445 58.7538 21.4807C59.1052 20.8169 59.2809 20.0457 59.2809 19.1672C59.2809 18.2691 59.1052 17.4979 58.7538 16.8536C58.4024 16.1898 57.9143 15.6724 57.2895 15.3014C56.6648 14.9305 55.9424 14.745 55.1224 14.745C54.3024 14.745 53.58 14.9305 52.9552 15.3014C52.35 15.6724 51.8619 16.1898 51.4909 16.8536C51.1395 17.4979 50.9638 18.2691 50.9638 19.1672Z" fill="#020014"/>
<path d="M69.288 26.43H65.7444V-0.00140762H69.288V26.43Z" fill="#020014"/>
<path d="M77.1358 26.43L71.3959 11.9629H75.203L77.7216 18.6107C78.0339 19.4698 78.2975 20.2605 78.5123 20.9829C78.7466 21.6857 78.9125 22.2324 79.0101 22.6229C79.1078 22.1738 79.2737 21.5979 79.508 20.895C79.7618 20.1726 80.0449 19.4112 80.3573 18.6107L82.993 11.9629H86.683L80.6501 26.43H77.1358Z" fill="#020014"/>
<path d="M94.5226 26.8107C93.0974 26.8107 91.8284 26.4886 90.7155 25.8443C89.6222 25.1805 88.7631 24.2824 88.1384 23.15C87.5136 21.9981 87.2012 20.6803 87.2012 19.1965C87.2012 17.6931 87.5038 16.3655 88.1091 15.2136C88.7143 14.0617 89.5636 13.1636 90.6569 12.5193C91.7503 11.8555 92.9998 11.5236 94.4055 11.5236C95.8698 11.5236 97.1291 11.836 98.1834 12.4607C99.2376 13.066 100.048 13.9153 100.614 15.0086C101.2 16.1019 101.493 17.41 101.493 18.9329V20.0164L89.0755 20.0457L89.1341 17.7614H97.9491C97.9491 16.7657 97.6269 15.9653 96.9826 15.36C96.3579 14.7548 95.5086 14.4522 94.4348 14.4522C93.5953 14.4522 92.8826 14.6279 92.2969 14.9793C91.7307 15.3307 91.3012 15.8579 91.0084 16.5607C90.7155 17.2636 90.5691 18.1226 90.5691 19.1379C90.5691 20.6998 90.901 21.881 91.5648 22.6814C92.2481 23.4819 93.2536 23.8822 94.5812 23.8822C95.5574 23.8822 96.3579 23.6967 96.9826 23.3257C97.6269 22.9548 98.0467 22.4276 98.2419 21.7443H101.551C101.239 23.3257 100.458 24.5655 99.2084 25.4636C97.9784 26.3617 96.4165 26.8107 94.5226 26.8107Z" fill="#020014"/>
<path d="M106.213 26.43H102.142L107.121 19.3429L102.142 11.9629H106.301L109.493 16.8829L112.568 11.9629H116.58L111.66 19.3136L124.464 40.0014H122.414H120.364L109.229 21.6565L106.213 26.43Z" fill="#020014"/>
<rect x="33.5713" y="0.00144196" width="29.2857" height="2.85714" fill="#020014"/>
<rect x="72.1426" y="0.00144196" width="44.6429" height="2.85714" fill="#020014"/>
<defs>
<linearGradient id="paint0_linear_2346_7741" x1="-13.2144" y1="52.5" x2="22.8978" y2="49.4987" gradientUnits="userSpaceOnUse">
<stop stop-color="#2154FF"/>
<stop offset="1" stop-color="#5079FF"/>
</linearGradient>
<linearGradient id="paint1_linear_2346_7741" x1="1.78564" y1="20" x2="41.3553" y2="16.7113" gradientUnits="userSpaceOnUse">
<stop stop-color="#2154FF"/>
<stop offset="1" stop-color="#5079FF"/>
</linearGradient>
<clipPath id="clip0_2346_7741">
<rect width="25.7143" height="40" fill="white"/>
</clipPath>
</defs>
</svg>
