<svg width="32" height="32" viewBox="0 0 32 32" fill="none" xmlns="http://www.w3.org/2000/svg">
<g clip-path="url(#clip0_133_345)">
<path d="M11.2788 6.36072H12.7288C13.3938 6.36072 13.9325 6.89947 13.9325 7.56384V28.0676C13.9325 28.732 13.3938 29.2707 12.7288 29.2707H1.67188C1.0075 29.2707 0.46875 28.732 0.46875 28.0676V7.56384C0.46875 6.89947 1.0075 6.36072 1.67188 6.36072H3.12188M5.62931 14.2671H8.77175M2.9315 16.3819H11.4696M2.9315 18.4967H11.4696" stroke="white" stroke-width="0.9375" stroke-miterlimit="10" stroke-linecap="round" stroke-linejoin="round"/>
<path d="M5.31958 8.55837L7.10883 3.86044C7.14539 3.77106 7.27195 3.77094 7.30864 3.86025L9.08164 8.55837M5.87764 7.38837H8.5327M10.7719 22.6056H3.62939C3.24402 22.6056 2.93164 22.9179 2.93164 23.3033V26.1374C2.93164 26.5228 3.24402 26.8352 3.62939 26.8352H10.7719C11.1573 26.8352 11.4696 26.5228 11.4696 26.1374V23.3033C11.4697 22.918 11.1573 22.6056 10.7719 22.6056Z" stroke="white" stroke-width="0.9375" stroke-miterlimit="10" stroke-linecap="round" stroke-linejoin="round"/>
<path d="M3.12207 4.16922V3.27722C3.12207 2.62566 3.65026 2.09741 4.30188 2.09741H10.0992C10.7508 2.09741 11.279 2.6256 11.279 3.27722V9.07454C11.279 9.7261 10.7508 10.2543 10.0992 10.2543H4.30188C3.65032 10.2543 3.12207 9.72616 3.12207 9.07454V6.36066M26.3843 29.2707H19.2713C18.6063 29.2707 18.0675 28.7319 18.0675 28.0675V7.56379C18.0675 6.89941 18.6063 6.36066 19.2713 6.36066H20.7213M28.8781 6.36066H30.3281C30.9925 6.36066 31.5313 6.89941 31.5313 7.56379V28.0675C31.5313 28.7319 30.9925 29.2707 30.3281 29.2707H28.5786M20.5304 22.6055H29.0685M20.5304 24.7204H29.0685M23.3726 26.8352H26.2981" stroke="white" stroke-width="0.9375" stroke-miterlimit="10" stroke-linecap="round" stroke-linejoin="round"/>
<path d="M23.0185 13.5861H21.228C20.8426 13.5861 20.5303 13.8985 20.5303 14.2838V19.4113C20.5303 19.7967 20.8426 20.1091 21.228 20.1091H23.0185C23.4038 20.1091 23.7162 19.7967 23.7162 19.4113V14.2838C23.7163 13.8985 23.4038 13.5861 23.0185 13.5861ZM28.3706 13.5861H26.6665C26.2811 13.5861 25.9688 13.8985 25.9688 14.2838V19.4113C25.9688 19.7967 26.2811 20.1091 26.6665 20.1091H28.3706C28.756 20.1091 29.0683 19.7967 29.0683 19.4113V14.2838C29.0683 13.8985 28.756 13.5861 28.3706 13.5861ZM25.8256 4.88977C25.8256 5.49533 25.3348 5.98621 24.7292 5.98621C24.4289 5.98621 23.3451 5.99109 23.3451 5.99109V3.79333H24.7292C25.3348 3.79333 25.8256 4.28421 25.8256 4.88977Z" stroke="white" stroke-width="0.9375" stroke-miterlimit="10" stroke-linecap="round" stroke-linejoin="round"/>
<path d="M26.2537 7.27011C26.2537 7.97849 25.6795 8.55274 24.9711 8.55274C24.6198 8.55274 23.3452 8.55842 23.3452 8.55842V5.98755H24.9711C25.6795 5.98755 26.2537 6.56174 26.2537 7.27011Z" stroke="white" stroke-width="0.9375" stroke-miterlimit="10" stroke-linecap="round" stroke-linejoin="round"/>
<path d="M27.6983 10.2543H21.901C21.2494 10.2543 20.7212 9.7261 20.7212 9.07447V3.27722C20.7212 2.62566 21.2494 2.09741 21.901 2.09741H27.6983C28.3499 2.09741 28.8781 2.6256 28.8781 3.27722V9.07454C28.8781 9.7261 28.3499 10.2543 27.6983 10.2543Z" stroke="white" stroke-width="0.9375" stroke-miterlimit="10" stroke-linecap="round" stroke-linejoin="round"/>
<path d="M16 0.555664V1.55566" stroke="white" stroke-width="0.9375" stroke-linecap="round" stroke-linejoin="round"/>
<path d="M16 3.92566V29.2594" stroke="white" stroke-width="0.9375" stroke-linecap="round" stroke-linejoin="round" stroke-dasharray="2.05 2.37"/>
<path d="M16 30.4445V31.4445" stroke="white" stroke-width="0.9375" stroke-linecap="round" stroke-linejoin="round"/>
</g>
<defs>
<clipPath id="clip0_133_345">
<rect width="32" height="32" fill="white"/>
</clipPath>
</defs>
</svg>
