<svg width="32" height="32" viewBox="0 0 32 32" fill="none" xmlns="http://www.w3.org/2000/svg">
<g clip-path="url(#clip0_133_336)">
<path d="M31.6122 28.9411V3.059C31.6122 1.58487 30.4147 0.38562 28.9428 0.38562H3.06088C1.58676 0.38562 0.387695 1.58487 0.387695 3.059V28.9411C0.387695 30.4152 1.58676 31.6144 3.06088 31.6144H28.9428C30.4147 31.6144 31.6122 30.4152 31.6122 28.9411ZM1.0382 3.05893C1.0382 1.94356 1.9457 1.03612 3.06088 1.03612H28.9428C30.0561 1.03612 30.9617 1.94362 30.9617 3.05893V4.55025H1.0382V3.05893ZM28.9428 30.9639H3.06088C1.9457 30.9639 1.0382 30.0564 1.0382 28.9411V5.20075H30.9617V28.9411C30.9617 30.0564 30.0561 30.9639 28.9428 30.9639Z" fill="white"/>
<path d="M28.2045 2.46802H17.3262C17.1465 2.46802 17.001 2.61364 17.001 2.79327C17.001 2.97289 17.1465 3.11852 17.3262 3.11852H28.2045C28.3842 3.11852 28.5297 2.97289 28.5297 2.79327C28.5297 2.61364 28.3842 2.46802 28.2045 2.46802ZM4.11653 2.46802H3.81128C3.63153 2.46802 3.48603 2.61364 3.48603 2.79327C3.48603 2.97289 3.63153 3.11852 3.81128 3.11852H4.11653C4.29628 3.11852 4.44178 2.97289 4.44178 2.79327C4.44178 2.61364 4.29628 2.46802 4.11653 2.46802ZM5.83715 2.46802H5.5319C5.35215 2.46802 5.20665 2.61364 5.20665 2.79327C5.20665 2.97289 5.35215 3.11852 5.5319 3.11852H5.83715C6.0169 3.11852 6.1624 2.97289 6.1624 2.79327C6.1624 2.61364 6.0169 2.46802 5.83715 2.46802ZM7.55778 2.46802H7.25221C7.07246 2.46802 6.92696 2.61364 6.92696 2.79327C6.92696 2.97289 7.07246 3.11852 7.25221 3.11852H7.55778C7.73753 3.11852 7.88303 2.97289 7.88303 2.79327C7.88303 2.61364 7.73753 2.46802 7.55778 2.46802ZM28.3922 7.79583H3.60803C3.43696 7.79583 3.28646 7.95827 3.2839 8.11546C3.28196 8.23277 3.28471 19.7163 3.2839 19.6655C3.2869 19.8468 3.44296 19.9845 3.60728 19.985L3.60803 19.9851H28.3922L28.393 19.985C28.5577 19.9845 28.7133 19.847 28.7163 19.6655C28.7192 19.4914 28.7158 8.08071 28.7163 8.11546C28.7135 7.94508 28.5498 7.79583 28.3922 7.79583ZM3.93328 8.63133L15.2295 13.8905L3.93328 19.1496V8.63133ZM5.07728 8.44633H26.9228L16.0001 13.5316L5.07728 8.44633ZM16.0001 14.2493L26.9229 19.3346H5.07728L16.0001 14.2493ZM16.7708 13.8905L28.067 8.63133V19.1496L16.7708 13.8905ZM19.2028 21.8935C19.2008 21.8934 19.1993 21.8923 19.1973 21.8923H12.8028C12.8008 21.8923 12.7993 21.8934 12.7974 21.8935C12.7126 21.8945 12.6316 21.9289 12.5718 21.9891C12.5121 22.0493 12.4784 22.1306 12.478 22.2155C12.478 22.2162 12.4775 22.2168 12.4775 22.2176V28.608C12.4775 28.6088 12.478 28.6094 12.478 28.6101C12.4793 28.7918 12.6281 28.9333 12.8028 28.9333H19.1973C19.2831 28.933 19.3653 28.899 19.4261 28.8385C19.487 28.778 19.5215 28.696 19.5222 28.6102C19.5222 28.6095 19.5226 28.6088 19.5226 28.608V22.2176C19.5226 22.2168 19.5222 22.2161 19.5222 22.2154C19.521 22.0434 19.3845 21.8963 19.2028 21.8935ZM15.5398 25.4128L13.128 27.8231V23.0026L15.5398 25.4128ZM13.5885 22.5428H18.4117L16.0001 24.9529L13.5885 22.5428ZM16.0001 25.8727L18.4117 28.2828H13.5885L16.0001 25.8727ZM16.4603 25.4128L18.8722 23.0026V27.823L16.4603 25.4128ZM28.3976 21.8935C28.3957 21.8934 28.3941 21.8923 28.3922 21.8923H21.9976C21.9957 21.8923 21.9941 21.8934 21.9922 21.8935C21.8096 21.8963 21.674 22.0441 21.6728 22.2155C21.6728 22.2162 21.6723 22.2168 21.6723 22.2176V28.608C21.6723 28.6088 21.6728 28.6094 21.6728 28.6101C21.6735 28.6959 21.7079 28.778 21.7688 28.8385C21.8296 28.899 21.9118 28.933 21.9976 28.9333H28.3922C28.5662 28.9333 28.7157 28.7926 28.717 28.6102C28.717 28.6095 28.7174 28.6088 28.7174 28.608V22.2176C28.7174 22.2168 28.717 22.2161 28.717 22.2154C28.7158 22.0434 28.5793 21.8963 28.3976 21.8935ZM24.7347 25.4128L22.3228 27.8231V23.0026L24.7347 25.4128ZM22.7833 22.5428H27.6065L25.195 24.9529L22.7833 22.5428ZM25.1949 25.8727L27.6065 28.2828H22.7833L25.1949 25.8727ZM25.6552 25.4128L28.067 23.0026V27.823L25.6552 25.4128ZM10.008 21.8935C10.006 21.8934 10.0045 21.8923 10.0025 21.8923C9.9694 21.8923 3.56984 21.894 3.60259 21.8935C3.51776 21.8945 3.43675 21.9289 3.37701 21.9891C3.31726 22.0493 3.28356 22.1306 3.28315 22.2155C3.28315 22.2162 3.28271 22.2168 3.28271 22.2176V28.608C3.28271 28.6088 3.28315 28.6094 3.28315 28.6101C3.28383 28.6959 3.31832 28.778 3.37913 28.8385C3.43995 28.899 3.52218 28.933 3.60796 28.9333H10.0026C10.1767 28.9333 10.3261 28.7926 10.3274 28.6102C10.3274 28.6095 10.3278 28.6088 10.3278 28.608V22.2176C10.3278 22.2168 10.3274 22.2161 10.3274 22.2154C10.327 22.1306 10.2933 22.0493 10.2335 21.9891C10.1738 21.9289 10.0928 21.8945 10.008 21.8935ZM6.34503 25.4128L3.93321 27.8231V23.0026L6.34503 25.4128ZM4.39371 22.5428H9.2169L6.80534 24.9529L4.39371 22.5428ZM6.80528 25.8727L9.21684 28.2828H4.39371L6.80528 25.8727ZM7.26553 25.4128L9.67734 23.0026V27.823L7.26553 25.4128Z" fill="white"/>
</g>
<defs>
<clipPath id="clip0_133_336">
<rect width="32" height="32" fill="white"/>
</clipPath>
</defs>
</svg>
