<svg width="33" height="32" viewBox="0 0 33 32" fill="none" xmlns="http://www.w3.org/2000/svg">
<path d="M9.47844 23.375C9.45572 23.2902 9.41109 23.2129 9.34904 23.1509C9.28699 23.0888 9.2097 23.0442 9.12494 23.0215L6.33644 22.2745C6.25165 22.2518 6.16237 22.2518 6.07758 22.2745C5.9928 22.2972 5.91549 22.3419 5.85344 22.404L3.81244 24.4455C3.75044 24.5075 3.70584 24.5847 3.68311 24.6694C3.66038 24.7541 3.66032 24.8433 3.68294 24.928L4.42994 27.7165C4.45266 27.8012 4.49728 27.8785 4.55933 27.9406C4.62139 28.0026 4.69867 28.0473 4.78344 28.07L7.57194 28.817C7.614 28.8283 7.65737 28.834 7.70094 28.834C7.83353 28.8339 7.96069 28.7812 8.05444 28.6875L10.0959 26.6465C10.158 26.5844 10.2027 26.5071 10.2254 26.4223C10.2481 26.3375 10.2481 26.2483 10.2254 26.1635L9.47844 23.375ZM7.55194 27.775L5.32094 27.175L4.72344 24.95L6.35644 23.317L8.58694 23.917L9.18694 26.1475L7.55194 27.775Z" fill="white"/>
<path d="M31.3498 23.78L28.5198 20.95C28.4732 20.9034 28.4178 20.8666 28.3569 20.8417C28.2959 20.8168 28.2306 20.8043 28.1648 20.805C28.0997 20.8043 28.0351 20.8169 27.975 20.8418C27.9148 20.8667 27.8603 20.9035 27.8148 20.95L27.4748 21.29C26.8757 20.5996 26.5008 19.7434 26.3998 18.835L26.0398 15.625C25.9275 14.6089 25.4746 13.6608 24.7548 12.935L24.6348 12.815L25.2798 12.165C25.3253 12.1171 25.3805 12.0794 25.4417 12.0544C25.5029 12.0294 25.5687 12.0177 25.6348 12.02C26.5564 12.0771 27.4776 11.901 28.3131 11.5077C29.1486 11.1145 29.8714 10.5169 30.4147 9.77022C30.958 9.02356 31.3042 8.15194 31.4213 7.23598C31.5385 6.32003 31.4227 5.38934 31.0848 4.52998C31.0549 4.4522 31.0062 4.3831 30.9429 4.32896C30.8796 4.27482 30.8037 4.23736 30.7223 4.21997C30.6408 4.20259 30.5563 4.20583 30.4764 4.22941C30.3965 4.25299 30.3237 4.29615 30.2648 4.35498L27.2048 7.41998L25.3448 7.15498L25.0798 5.29498L28.1448 2.23498C28.2035 2.1765 28.2467 2.10419 28.2703 2.0247C28.2939 1.94521 28.2971 1.86106 28.2798 1.77998C28.2621 1.69833 28.2246 1.62229 28.1705 1.55862C28.1164 1.49495 28.0475 1.44561 27.9698 1.41498C27.1104 1.07705 26.1797 0.961284 25.2638 1.07841C24.3478 1.19553 23.4762 1.54176 22.7295 2.08506C21.9829 2.62836 21.3853 3.35119 20.992 4.18668C20.5988 5.02217 20.4226 5.94335 20.4798 6.86498C20.4809 6.93089 20.4686 6.99634 20.4437 7.05736C20.4188 7.11838 20.3817 7.1737 20.3348 7.21998L18.2698 9.28498L16.8548 7.86998C16.5862 7.59851 16.2453 7.41001 15.8726 7.32695C15.4999 7.24389 15.1112 7.26979 14.7528 7.40155C14.3944 7.53331 14.0814 7.76538 13.8513 8.07007C13.6212 8.37476 13.4835 8.73922 13.4548 9.11998C13.0856 9.02318 12.6963 9.03496 12.3336 9.1539C11.9709 9.27284 11.6503 9.49389 11.4101 9.79054C11.1699 10.0872 11.0205 10.4468 10.9796 10.8263C10.9387 11.2058 11.0082 11.589 11.1798 11.93C10.7847 11.9967 10.4199 12.1835 10.1348 12.465C9.88884 12.7122 9.71226 13.0197 9.62275 13.3567C9.53323 13.6937 9.53393 14.0483 9.62477 14.385C9.24433 14.4109 8.87946 14.5461 8.57402 14.7743C8.26858 15.0026 8.03558 15.3143 7.90302 15.6718C7.77046 16.0293 7.74399 16.4175 7.8268 16.7898C7.9096 17.162 8.09814 17.5024 8.36977 17.77L9.07477 18.475L7.63977 19.91C7.59335 19.9581 7.53729 19.9959 7.47525 20.0209C7.41321 20.0459 7.3466 20.0575 7.27977 20.055C7.16977 20.05 7.06477 20.05 6.94977 20.045C6.2275 20.0447 5.51223 20.1866 4.84482 20.4627C4.1774 20.7388 3.5709 21.1436 3.05995 21.6541C2.02803 22.6851 1.44793 24.0838 1.44727 25.5425C1.4466 27.0012 2.02543 28.4004 3.05641 29.4323C4.08739 30.4642 5.48608 31.0443 6.94477 31.045H6.95977C7.68173 31.0447 8.39656 30.9022 9.06346 30.6257C9.73035 30.3491 10.3362 29.9439 10.8465 29.4332C11.3568 28.9224 11.7614 28.3162 12.0374 27.6491C12.3133 26.9819 12.4552 26.2669 12.4548 25.545C12.4548 25.435 12.4498 25.325 12.4448 25.22C12.4415 25.1531 12.4528 25.0863 12.4779 25.0241C12.5029 24.962 12.5411 24.906 12.5898 24.86L14.0248 23.425L19.6848 29.08L19.3298 29.435C19.2825 29.4813 19.2449 29.5365 19.2192 29.5975C19.1934 29.6584 19.18 29.7238 19.1798 29.79C19.18 29.8554 19.1935 29.9201 19.2192 29.9802C19.245 30.0403 19.2826 30.0947 19.3298 30.14L20.0348 30.85C20.1298 30.9425 20.2571 30.9945 20.3898 30.995C20.5222 30.9935 20.6492 30.9417 20.7448 30.85C20.8384 30.7556 20.891 30.628 20.891 30.495C20.891 30.362 20.8384 30.2344 20.7448 30.14L20.3898 29.79L28.1648 22.01L30.6398 24.485C30.7342 24.5787 30.8618 24.6312 30.9948 24.6312C31.1278 24.6312 31.2554 24.5787 31.3498 24.485C31.4429 24.3913 31.4952 24.2646 31.4952 24.1325C31.4952 24.0004 31.4429 23.8737 31.3498 23.78ZM21.0398 7.92498C21.1877 7.77996 21.3031 7.60505 21.3781 7.41191C21.4531 7.21878 21.4861 7.01187 21.4748 6.80498C21.4336 6.11865 21.5504 5.43202 21.8161 4.79788C22.0818 4.16374 22.4894 3.59897 23.0076 3.14699C23.5257 2.69502 24.1406 2.36787 24.8049 2.19069C25.4692 2.01352 26.1654 1.99104 26.8398 2.12498L24.1998 4.76498C24.1444 4.8198 24.1025 4.8867 24.0773 4.96044C24.0522 5.03419 24.0444 5.11276 24.0548 5.18998L24.4098 7.66498C24.425 7.77232 24.4746 7.87182 24.5513 7.94847C24.6279 8.02513 24.7274 8.07479 24.8348 8.08998L27.3098 8.44498C27.387 8.45531 27.4656 8.44759 27.5393 8.42243C27.613 8.39727 27.68 8.35536 27.7348 8.29998L30.3748 5.65998C30.5087 6.33438 30.4862 7.0305 30.3091 7.69485C30.1319 8.35919 29.8047 8.97406 29.3528 9.4922C28.9008 10.0103 28.336 10.4179 27.7019 10.6836C27.0677 10.9494 26.3811 11.0661 25.6948 11.025C25.4879 11.0141 25.2811 11.0473 25.0881 11.1222C24.895 11.1972 24.72 11.3124 24.5748 11.46L23.9248 12.11L22.5098 10.695C22.1285 10.3312 21.6217 10.1283 21.0948 10.1283C20.5678 10.1283 20.0611 10.3312 19.6798 10.695L18.9748 9.98998L21.0398 7.92498ZM14.7298 8.57498C14.9211 8.39436 15.1742 8.29373 15.4373 8.29373C15.7004 8.29373 15.9535 8.39436 16.1448 8.57498L18.9748 11.405L17.5598 12.82L14.7298 9.98998C14.5436 9.80158 14.4391 9.54737 14.4391 9.28249C14.4391 9.0176 14.5436 8.76339 14.7298 8.57498ZM12.2548 10.345C12.4449 10.1621 12.6985 10.0599 12.9623 10.0599C13.2261 10.0599 13.4796 10.1621 13.6698 10.345L16.8548 13.525L16.9148 13.6C16.8209 13.7976 16.7723 14.0137 16.7723 14.2325C16.7723 14.4513 16.8209 14.6673 16.9148 14.865L16.8548 14.94C16.6635 15.1206 16.4104 15.2212 16.1473 15.2212C15.8842 15.2212 15.6311 15.1206 15.4398 14.94L14.1998 13.7L12.2548 11.755C12.1621 11.6625 12.0885 11.5526 12.0383 11.4316C11.9882 11.3106 11.9623 11.181 11.9623 11.05C11.9623 10.919 11.9882 10.7893 12.0383 10.6684C12.0885 10.5474 12.1621 10.4375 12.2548 10.345ZM10.8448 13.17C11.0321 12.9837 11.2856 12.8792 11.5498 12.8792C11.814 12.8792 12.0674 12.9837 12.2548 13.17L13.4948 14.41L14.7298 15.645H14.7348L15.4398 16.355C15.5327 16.4479 15.6064 16.5582 15.6567 16.6796C15.7069 16.801 15.7328 16.9311 15.7328 17.0625C15.7328 17.1939 15.7069 17.324 15.6567 17.4454C15.6064 17.5668 15.5327 17.6771 15.4398 17.77C15.3469 17.8629 15.2366 17.9366 15.1152 17.9869C14.9938 18.0372 14.8637 18.063 14.7323 18.063C14.6009 18.063 14.4708 18.0372 14.3494 17.9869C14.228 17.9366 14.1177 17.8629 14.0248 17.77L11.1948 14.94L10.8448 14.585C10.7518 14.4921 10.678 14.3818 10.6277 14.2604C10.5774 14.139 10.5515 14.0089 10.5515 13.8775C10.5515 13.7461 10.5774 13.6159 10.6277 13.4945C10.678 13.3731 10.7518 13.2629 10.8448 13.17ZM8.77977 16.355C8.77936 16.223 8.80523 16.0922 8.85588 15.9703C8.90653 15.8484 8.98094 15.7378 9.07477 15.645C9.26274 15.4598 9.51586 15.3556 9.77977 15.355C9.91145 15.3537 10.0421 15.3786 10.164 15.4284C10.2859 15.4782 10.3967 15.5519 10.4898 15.645L13.3198 18.475L13.6698 18.83C13.8574 19.0176 13.9628 19.2721 13.9628 19.5375C13.9628 19.8028 13.8574 20.0573 13.6698 20.245C13.4821 20.4326 13.2276 20.538 12.9623 20.538C12.6969 20.538 12.4424 20.4326 12.2548 20.245L9.07477 17.06C8.9814 16.9678 8.90725 16.8581 8.85661 16.737C8.80597 16.616 8.77985 16.4862 8.77977 16.355ZM20.3898 28.375L14.7298 22.72L20.0348 17.415C20.1284 17.3206 20.181 17.193 20.181 17.06C20.181 16.927 20.1284 16.7994 20.0348 16.705C19.9411 16.6119 19.8144 16.5596 19.6823 16.5596C19.5502 16.5596 19.4234 16.6119 19.3298 16.705L11.8798 24.155C11.7324 24.3004 11.6174 24.4754 11.5424 24.6684C11.4675 24.8615 11.4342 25.0682 11.4448 25.275C11.4498 25.365 11.4548 25.455 11.4548 25.545C11.4548 26.7376 10.9813 27.8814 10.1385 28.7252C9.29568 29.569 8.15237 30.0437 6.95977 30.045H6.94477C5.75129 30.0443 4.60696 29.5696 3.76352 28.7252C2.92007 27.8808 2.4466 26.736 2.44727 25.5425C2.44793 24.349 2.92267 23.2047 3.76705 22.3612C4.61144 21.5178 5.75629 21.0443 6.94977 21.045C7.02477 21.045 7.13477 21.05 7.22477 21.055C7.43145 21.0644 7.63782 21.0306 7.83067 20.9557C8.02353 20.8808 8.19863 20.7664 8.34477 20.62L9.77977 19.18L11.5498 20.95C11.8585 21.2608 12.261 21.4612 12.695 21.5204C13.1291 21.5796 13.5705 21.4942 13.9512 21.2774C14.3318 21.0606 14.6305 20.7245 14.8011 20.321C14.9716 19.9175 15.0045 19.4691 14.8948 19.045C15.2181 19.0212 15.5307 18.9184 15.805 18.7455C16.0793 18.5726 16.3069 18.335 16.4679 18.0536C16.6288 17.7721 16.7182 17.4555 16.7281 17.1314C16.7381 16.8073 16.6682 16.4857 16.5248 16.195C16.9178 16.1215 17.279 15.9296 17.5598 15.645C17.5748 15.635 17.5798 15.62 17.5948 15.61C18.0761 15.9273 18.652 16.0692 19.2257 16.0118C19.7994 15.9545 20.3358 15.7013 20.7448 15.295C20.8393 15.2035 20.9657 15.1524 21.0973 15.1524C21.2288 15.1524 21.3552 15.2035 21.4498 15.295C21.4963 15.3406 21.5331 15.395 21.558 15.4552C21.5829 15.5153 21.5954 15.5799 21.5948 15.645C21.5954 15.7108 21.5829 15.7761 21.558 15.8371C21.5331 15.8981 21.4963 15.9534 21.4498 16L21.0948 16.355C20.4392 17.0118 20.071 17.9019 20.071 18.83C20.071 19.758 20.4392 20.6481 21.0948 21.305L21.4498 21.655C21.4954 21.7024 21.5501 21.7402 21.6107 21.766C21.6713 21.7918 21.7364 21.8051 21.8023 21.8051C21.8681 21.8051 21.9333 21.7918 21.9938 21.766C22.0544 21.7402 22.1091 21.7024 22.1548 21.655C22.2479 21.5613 22.3002 21.4346 22.3002 21.3025C22.3002 21.1704 22.2479 21.0437 22.1548 20.95L21.8048 20.595C21.3361 20.1262 21.0728 19.4904 21.0728 18.8275C21.0728 18.1646 21.3361 17.5288 21.8048 17.06L22.1548 16.705C22.2942 16.5659 22.4049 16.4007 22.4803 16.2188C22.5558 16.0369 22.5947 15.8419 22.5947 15.645C22.5947 15.448 22.5558 15.253 22.4803 15.0712C22.4049 14.8893 22.2942 14.724 22.1548 14.585C21.8689 14.3129 21.4894 14.1612 21.0948 14.1612C20.7001 14.1612 20.3206 14.3129 20.0348 14.585C19.7535 14.8659 19.3723 15.0237 18.9748 15.0237C18.5773 15.0237 18.196 14.8659 17.9148 14.585C17.8216 14.4913 17.7694 14.3646 17.7694 14.2325C17.7694 14.1004 17.8216 13.9737 17.9148 13.88L20.3898 11.405C20.5799 11.2221 20.8335 11.1199 21.0973 11.1199C21.3611 11.1199 21.6146 11.2221 21.8048 11.405L24.0448 13.64C24.6043 14.2065 24.9581 14.944 25.0498 15.735L25.4098 18.945C25.5358 20.0771 26.0091 21.1425 26.7648 21.995L20.3898 28.375Z" fill="white"/>
</svg>
