<svg width="32" height="32" viewBox="0 0 32 32" fill="none" xmlns="http://www.w3.org/2000/svg">
<g clip-path="url(#clip0_133_332)">
<path d="M28.1871 4.33753C25.8896 2.03997 22.8349 0.774658 19.5857 0.774658C16.7337 0.774658 14.0318 1.74978 11.86 3.54185C11.8203 3.36447 11.731 3.20207 11.6023 3.07366L10.7544 2.22585C10.6115 2.08242 10.4268 1.98807 10.2268 1.95639C10.0268 1.9247 9.82194 1.95732 9.64169 2.04953L9.10731 2.32172L9.09819 2.32641C8.85719 2.20471 8.60746 2.10115 8.35106 2.0166L8.16269 1.43697C8.10045 1.24429 7.97866 1.07634 7.81485 0.957326C7.65104 0.838309 7.45367 0.77437 7.25119 0.774721H6.05213C5.84963 0.774345 5.65225 0.838282 5.48843 0.957315C5.32461 1.07635 5.20282 1.24433 5.14063 1.43703L4.95231 2.01647C4.69586 2.10103 4.44608 2.20463 4.20506 2.32641L3.66169 2.04953C3.48142 1.95732 3.27653 1.9247 3.07654 1.95637C2.87655 1.98805 2.69177 2.08238 2.54881 2.22578L1.70106 3.0736C1.55762 3.21652 1.46325 3.40131 1.43158 3.60131C1.3999 3.80132 1.43255 4.00621 1.52481 4.18647L1.80169 4.72972C1.6799 4.97073 1.57632 5.22051 1.49181 5.47697L0.912314 5.66528C0.719607 5.7275 0.551632 5.8493 0.432601 6.01313C0.31357 6.17695 0.249632 6.37434 0.250002 6.57685V7.77591C0.249635 7.97839 0.313569 8.17575 0.432589 8.33955C0.551608 8.50336 0.719566 8.62514 0.912252 8.68735L1.49181 8.87572C1.57634 9.13218 1.67992 9.38196 1.80169 9.62297L1.52488 10.1663C1.4326 10.3465 1.39994 10.5514 1.43161 10.7514C1.46327 10.9514 1.55762 11.1362 1.70106 11.2791L2.54894 12.1269C2.69184 12.2704 2.8766 12.3647 3.07659 12.3964C3.27657 12.4281 3.48145 12.3954 3.66169 12.3032L4.205 12.0263C4.44604 12.1481 4.69584 12.2516 4.95231 12.3362L5.14063 12.9157C5.20286 13.1084 5.32466 13.2763 5.48847 13.3954C5.65228 13.5144 5.84965 13.5783 6.05213 13.578H7.25119C7.31475 13.578 7.37694 13.571 7.4375 13.5592C7.53875 15.6003 8.14106 17.5471 9.1875 19.2602L7.67144 20.7763C7.26819 21.1795 7.16563 21.7708 7.36269 22.2702L1.82375 27.1201C1.36438 27.5223 1.19913 28.1027 1.35844 28.7543C1.61963 29.823 2.70156 30.905 3.77025 31.1662C3.93213 31.2057 4.08944 31.2252 4.24088 31.2252C4.69913 31.2252 5.10219 31.0461 5.4045 30.7008L10.2543 25.1618C10.4172 25.2262 10.5907 25.2593 10.7658 25.2594C11.1216 25.2594 11.4774 25.124 11.7483 24.8531L13.2673 23.3341C15.2007 24.5092 17.393 25.0975 19.5857 25.0975C22.7007 25.0975 25.8158 23.9118 28.1871 21.5403C30.4847 19.2428 31.75 16.1881 31.75 12.9389C31.75 9.68972 30.4847 6.63503 28.1871 4.33753ZM7.69788 11.9195L7.44944 12.684C7.42013 12.7742 7.346 12.828 7.25119 12.828H6.05213C5.95731 12.828 5.88319 12.7742 5.85388 12.684L5.60544 11.9195C5.5865 11.8612 5.55355 11.8084 5.50947 11.7658C5.4654 11.7232 5.41154 11.692 5.35263 11.675C5.01769 11.5784 4.69466 11.4445 4.38963 11.2757C4.33597 11.246 4.27584 11.2299 4.21452 11.2289C4.1532 11.2279 4.09257 11.2419 4.03794 11.2698L3.32113 11.635C3.23663 11.6779 3.14619 11.6636 3.07919 11.5966L2.23138 10.7488C2.16431 10.6818 2.15 10.5913 2.19306 10.5068L2.55831 9.79003C2.58615 9.73538 2.60015 9.67473 2.59909 9.6134C2.59803 9.55208 2.58195 9.49195 2.55225 9.43828C2.38354 9.13323 2.24957 8.81021 2.15288 8.47528C2.1359 8.41637 2.10474 8.36252 2.06213 8.31845C2.01951 8.27437 1.96674 8.24142 1.90844 8.22247L1.14394 7.97403C1.05381 7.94478 0.999939 7.87072 0.999939 7.77591V6.57685C0.999939 6.48197 1.05375 6.40791 1.144 6.3786L1.90844 6.13022C1.96676 6.11126 2.01954 6.0783 2.06216 6.03421C2.10478 5.99013 2.13595 5.93627 2.15294 5.87735C2.24953 5.54241 2.38348 5.21941 2.55225 4.91441C2.58195 4.86074 2.59803 4.80061 2.59908 4.73928C2.60012 4.67795 2.5861 4.61731 2.55825 4.56266L2.193 3.84591C2.15 3.76135 2.16431 3.67091 2.23131 3.60391L3.07913 2.75603C3.14619 2.68897 3.23669 2.67478 3.32119 2.71772L4.03781 3.08297C4.09249 3.1108 4.15316 3.1248 4.2145 3.12375C4.27584 3.12271 4.33599 3.10664 4.38969 3.07697C4.69475 2.90826 5.01777 2.77428 5.35269 2.67753C5.41157 2.66056 5.4654 2.62942 5.50946 2.58683C5.55353 2.54424 5.58648 2.4915 5.60544 2.43322L5.85388 1.66866C5.88319 1.57853 5.95725 1.52466 6.05213 1.52466H7.25119C7.346 1.52466 7.42013 1.57847 7.44944 1.66866L7.69788 2.43328C7.71681 2.49158 7.74976 2.54434 7.79382 2.58694C7.83789 2.62955 7.89173 2.6607 7.95063 2.67766C8.28555 2.77435 8.60857 2.90831 8.91363 3.07703C8.96731 3.10671 9.02746 3.12277 9.08879 3.12381C9.15013 3.12485 9.21078 3.11082 9.26544 3.08297L9.98219 2.71772C10.0667 2.67472 10.1571 2.6891 10.2241 2.7561L11.0719 3.60391C11.1389 3.67091 11.1533 3.76141 11.1102 3.84585L10.7451 4.56253C10.7172 4.61719 10.7032 4.67785 10.7042 4.73919C10.7053 4.80052 10.7214 4.86067 10.7511 4.91435C10.9198 5.21937 11.0537 5.54237 11.1503 5.87728C11.1673 5.93619 11.1984 5.99004 11.2411 6.03412C11.2837 6.07819 11.3364 6.11115 11.3948 6.1301L12.1593 6.37853C12.2494 6.40785 12.3033 6.48191 12.3033 6.57685V7.77585C12.3033 7.87072 12.2496 7.94478 12.1594 7.9741L11.3948 8.22253C11.3365 8.24147 11.2837 8.27442 11.2411 8.3185C11.1985 8.36258 11.1673 8.41643 11.1504 8.47535C11.0538 8.81028 10.9198 9.13329 10.7511 9.43828C10.7214 9.49195 10.7053 9.55208 10.7042 9.61341C10.7032 9.67474 10.7172 9.73539 10.7451 9.79003L11.1103 10.5068C11.1533 10.5913 11.139 10.6818 11.072 10.7488L10.2242 11.5966C10.1571 11.6636 10.0666 11.6779 9.98219 11.635L9.26538 11.2697C9.21073 11.2419 9.15008 11.2279 9.08875 11.2289C9.02743 11.23 8.9673 11.246 8.91363 11.2757C8.60853 11.4444 8.28549 11.5784 7.95056 11.6752C7.89169 11.6921 7.83787 11.7233 7.79382 11.7659C7.74977 11.8085 7.71683 11.8612 7.69788 11.9195ZM13.0534 6.57685C13.0534 6.43753 13.023 6.3041 12.9686 6.18303C14.7467 4.44053 17.0923 3.4816 19.5858 3.4816C22.1119 3.4816 24.4869 4.46535 26.2732 6.2516C28.0594 8.03791 29.0432 10.4128 29.0432 12.939C29.0432 15.4652 28.0594 17.8402 26.2732 19.6265C24.4869 21.4127 22.1119 22.3965 19.5858 22.3965C17.0596 22.3965 14.6846 21.4127 12.8983 19.6265C10.9825 17.7105 9.99175 15.0984 10.1441 12.4056C10.3746 12.3895 10.5915 12.2905 10.7546 12.127L11.6024 11.2792C11.7458 11.1362 11.8402 10.9515 11.8719 10.7514C11.9036 10.5514 11.8709 10.3465 11.7786 10.1663L11.5018 9.62303C11.6236 9.38202 11.7271 9.13221 11.8116 8.87572L12.3911 8.68741C12.5838 8.62519 12.7518 8.5034 12.8708 8.33959C12.9899 8.17578 13.0538 7.9784 13.0534 7.77591L13.0534 6.57685ZM4.84031 30.2069C4.62544 30.4522 4.32538 30.5298 3.94838 30.4377C3.15156 30.243 2.28175 29.3732 2.087 28.5763C1.99481 28.1993 2.07256 27.8992 2.31781 27.6844L7.80769 22.8775L9.64719 24.717L4.84031 30.2069ZM11.2181 24.3229C11.0981 24.4428 10.9375 24.509 10.7659 24.509C10.5944 24.509 10.4338 24.4428 10.3138 24.3229L8.20181 22.211C8.08188 22.091 8.01575 21.9304 8.01575 21.7588C8.01575 21.5872 8.08188 21.4267 8.20181 21.3067L9.60681 19.9017C10.0176 20.4868 10.4785 21.0352 10.9843 21.5405C11.1499 21.7062 11.3197 21.8655 11.4924 22.0197L11.4944 22.0217L11.4946 22.0215C11.8533 22.3418 12.2307 22.6405 12.6249 22.9161L11.2181 24.3229ZM27.6569 21.0102C25.501 23.166 22.6346 24.3533 19.5857 24.3533C16.7644 24.3533 14.0999 23.336 12.0095 21.476L11.0488 20.5155C9.17463 18.41 8.15881 15.7283 8.17206 12.8869L8.351 12.3362C8.60748 12.2517 8.85728 12.1481 9.09831 12.0263L9.40644 12.1833C9.18638 15.1528 10.2574 18.0462 12.368 20.1567C14.2959 22.0847 16.8592 23.1464 19.5857 23.1465C22.312 23.1465 24.8756 22.0846 26.8033 20.1567C28.7313 18.2288 29.7931 15.6655 29.7931 12.939C29.7931 10.2125 28.7313 7.64922 26.8033 5.72135C24.8754 3.79335 22.3121 2.7316 19.5856 2.7316C16.8815 2.7316 14.3383 3.77653 12.4159 5.67453C12.4076 5.6716 12.3995 5.6681 12.3911 5.66535L11.8115 5.47703C11.7386 5.25671 11.6516 5.0413 11.5511 4.83216C13.7028 2.69916 16.5539 1.52466 19.5857 1.52466C22.6346 1.52466 25.501 2.71197 27.6569 4.86778C29.8127 7.02366 31 9.89003 31 12.939C31 15.9879 29.8127 18.8543 27.6569 21.0102ZM8.95438 4.87372C7.68475 3.60391 5.61875 3.60403 4.34906 4.87372C3.07938 6.14335 3.07938 8.20928 4.34906 9.47897C4.98388 10.1138 5.81781 10.4312 6.65175 10.4312C7.48569 10.4312 8.31956 10.1138 8.95438 9.47897C10.2241 8.20935 10.2241 6.14341 8.95438 4.87372ZM4.87938 8.94866C3.90213 7.97135 3.90213 6.38128 4.87938 5.40397C5.368 4.91541 6.00988 4.67103 6.65175 4.67103C7.29363 4.67103 7.93544 4.91535 8.42406 5.40397C9.40131 6.38128 9.40131 7.97135 8.42406 8.94866C7.44675 9.92591 5.85669 9.92585 4.87938 8.94866ZM19.5858 7.22578C17.0928 7.22578 15.0646 9.25397 15.0646 11.747C15.0646 12.6023 15.3048 13.4352 15.759 14.1555C15.8661 14.3252 15.9688 14.4852 16.0673 14.6386C16.6441 15.5371 17.0628 16.1906 17.3403 17.2383V18.7474C17.3403 19.0672 17.5746 19.3325 17.8804 19.3827V20.1238C17.8804 20.4793 18.1696 20.7683 18.5249 20.7683H20.6465C21.0019 20.7683 21.2911 20.4792 21.2911 20.1238V19.3827C21.5968 19.3325 21.8311 19.0671 21.8311 18.7474V17.2383C22.1086 16.1907 22.5273 15.5372 23.1041 14.6388C23.2075 14.4781 23.3103 14.317 23.4124 14.1555C23.8668 13.4352 24.1069 12.6022 24.1069 11.747C24.1069 9.25397 22.0787 7.22578 19.5857 7.22578H19.5858ZM20.5411 20.0185H18.6304V19.3921H20.5411V20.0185ZM21.0812 18.6421H18.0903V17.5632H21.0812V18.6421ZM18.543 12.5125H18.2484C18.086 12.5125 17.9539 12.3804 17.9539 12.218C17.9539 12.0555 18.086 11.9235 18.2484 11.9235C18.4109 11.9235 18.543 12.0555 18.543 12.218V12.5125ZM19.293 16.8132V13.2625H19.8786V16.8132H19.293ZM22.7781 13.7555C22.6771 13.9153 22.5754 14.0747 22.473 14.2337C21.9225 15.0913 21.4783 15.7833 21.1713 16.8132H20.6286V13.2624H20.9231C21.4991 13.2624 21.9676 12.7938 21.9676 12.2179C21.9676 11.642 21.4991 11.1734 20.9231 11.1734C20.3471 11.1734 19.8786 11.642 19.8786 12.2179V12.5124H19.293V12.2179C19.293 11.642 18.8244 11.1734 18.2484 11.1734C17.6724 11.1734 17.2039 11.642 17.2039 12.2179C17.2039 12.7938 17.6725 13.2624 18.2484 13.2624H18.543V16.8132H18.0003C17.6932 15.7832 17.2489 15.0911 16.6984 14.2335C16.601 14.0817 16.4993 13.9234 16.3934 13.7555C16.0147 13.1551 15.8146 12.4605 15.8146 11.747C15.8146 9.6676 17.5063 7.97585 19.5858 7.97585C21.6653 7.97585 23.3569 9.6676 23.3569 11.747C23.3569 12.4605 23.1568 13.155 22.7781 13.7555H22.7781ZM20.6286 12.5125V12.218C20.6286 12.0555 20.7606 11.9235 20.9231 11.9235C21.0855 11.9235 21.2176 12.0555 21.2176 12.218C21.2176 12.3804 21.0855 12.5125 20.9231 12.5125H20.6286ZM19.1303 6.40472V5.48453C19.1303 5.38508 19.1698 5.28969 19.2401 5.21937C19.3104 5.14904 19.4058 5.10953 19.5053 5.10953C19.6047 5.10953 19.7001 5.14904 19.7704 5.21937C19.8407 5.28969 19.8803 5.38508 19.8803 5.48453V6.40472C19.8803 6.50418 19.8407 6.59956 19.7704 6.66989C19.7001 6.74021 19.6047 6.77972 19.5053 6.77972C19.4058 6.77972 19.3104 6.74021 19.2401 6.66989C19.1698 6.59956 19.1303 6.50418 19.1303 6.40472ZM16.06 6.55135C16.0111 6.46526 15.9981 6.36331 16.0241 6.26775C16.05 6.17218 16.1127 6.09076 16.1985 6.04124C16.2843 5.99173 16.3861 5.97815 16.4818 6.00346C16.5776 6.02877 16.6594 6.09092 16.7095 6.17635L17.1696 6.97322C17.2186 7.05931 17.2315 7.16125 17.2055 7.25682C17.1796 7.35239 17.1169 7.43381 17.0311 7.48332C16.9454 7.53284 16.8435 7.54642 16.7478 7.52111C16.652 7.4958 16.5702 7.43365 16.5201 7.34822L16.06 6.55135ZM13.7973 8.49797C13.8471 8.41187 13.929 8.34905 14.025 8.32331C14.1211 8.29757 14.2234 8.31103 14.3096 8.36072L15.1064 8.82078C15.1494 8.84523 15.1872 8.87793 15.2175 8.91702C15.2478 8.9561 15.27 9.0008 15.283 9.04852C15.296 9.09625 15.2993 9.14607 15.293 9.19511C15.2866 9.24415 15.2706 9.29145 15.2459 9.33428C15.2211 9.37711 15.1882 9.41463 15.1489 9.44467C15.1096 9.47471 15.0648 9.49668 15.0169 9.50932C14.9691 9.52196 14.9193 9.52502 14.8703 9.51832C14.8213 9.51162 14.7741 9.4953 14.7314 9.47028L13.9346 9.01022C13.8484 8.96049 13.7856 8.87858 13.7599 8.78252C13.7341 8.68646 13.7476 8.5841 13.7973 8.49797ZM12.9483 11.8275C12.9483 11.728 12.9878 11.6326 13.0581 11.5623C13.1285 11.492 13.2239 11.4525 13.3233 11.4525H14.2435C14.343 11.4525 14.4383 11.492 14.5087 11.5623C14.579 11.6326 14.6185 11.728 14.6185 11.8275C14.6185 11.9269 14.579 12.0223 14.5087 12.0926C14.4383 12.163 14.343 12.2025 14.2435 12.2025H13.3233C13.2239 12.2025 13.1285 12.163 13.0581 12.0926C12.9878 12.0223 12.9483 11.9269 12.9483 11.8275ZM15.3243 14.3003C15.374 14.3864 15.3875 14.4888 15.3617 14.5848C15.336 14.6809 15.2731 14.7628 15.187 14.8125L14.3901 15.2726C14.3475 15.2972 14.3004 15.3132 14.2516 15.3197C14.2027 15.3261 14.1531 15.3229 14.1056 15.3101C14.058 15.2974 14.0134 15.2754 13.9743 15.2454C13.9353 15.2154 13.9025 15.178 13.8779 15.1353C13.8282 15.0492 13.8147 14.9469 13.8404 14.8508C13.8662 14.7547 13.929 14.6728 14.0151 14.6231L14.812 14.163C14.8981 14.1134 15.0005 14.0999 15.0965 14.1256C15.1926 14.1514 15.2745 14.2142 15.3243 14.3003ZM21.8624 6.89266L22.3225 6.09578C22.3469 6.05279 22.3797 6.01506 22.4187 5.98476C22.4578 5.95446 22.5025 5.93219 22.5502 5.91923C22.598 5.90627 22.6478 5.90288 22.6968 5.90926C22.7459 5.91563 22.7932 5.93164 22.836 5.95637C22.8788 5.9811 22.9163 6.01406 22.9464 6.05334C22.9764 6.09263 22.9984 6.13747 23.011 6.18528C23.0237 6.23309 23.0267 6.28293 23.02 6.33193C23.0133 6.38093 22.997 6.42812 22.972 6.47078L22.5119 7.26766C22.4873 7.31032 22.4546 7.34772 22.4155 7.37771C22.3764 7.4077 22.3318 7.4297 22.2843 7.44245C22.2367 7.45519 22.1871 7.45844 22.1382 7.452C22.0894 7.44556 22.0423 7.42955 21.9997 7.40491C21.9136 7.35518 21.8507 7.27327 21.825 7.17721C21.7992 7.08114 21.8127 6.97879 21.8624 6.89266ZM23.8473 9.1936C23.7976 9.10747 23.7841 9.00511 23.8099 8.90905C23.8356 8.81298 23.8984 8.73108 23.9846 8.68135L24.7814 8.22128C24.8675 8.17234 24.9695 8.15943 25.065 8.18538C25.1606 8.21132 25.242 8.27401 25.2915 8.35977C25.3411 8.44553 25.3546 8.54739 25.3293 8.64313C25.304 8.73886 25.2419 8.8207 25.1564 8.87078L24.3596 9.33085C24.3169 9.35549 24.2698 9.37149 24.221 9.37793C24.1722 9.38438 24.1226 9.38113 24.075 9.36838C24.0274 9.35564 23.9828 9.33364 23.9438 9.30365C23.9047 9.27366 23.8719 9.23626 23.8473 9.1936ZM24.9281 11.2914H25.8483C25.9477 11.2914 26.0431 11.3309 26.1134 11.4012C26.1837 11.4716 26.2233 11.567 26.2233 11.6664C26.2233 11.7659 26.1837 11.8612 26.1134 11.9316C26.0431 12.0019 25.9477 12.0414 25.8483 12.0414H24.9281C24.8286 12.0414 24.7332 12.0019 24.6629 11.9316C24.5926 11.8612 24.5531 11.7659 24.5531 11.6664C24.5531 11.567 24.5926 11.4716 24.6629 11.4012C24.7332 11.3309 24.8286 11.2914 24.9281 11.2914ZM25.3743 14.9959C25.3496 15.0386 25.3169 15.076 25.2778 15.106C25.2387 15.136 25.1941 15.1579 25.1466 15.1707C25.099 15.1834 25.0494 15.1867 25.0006 15.1802C24.9517 15.1738 24.9046 15.1578 24.862 15.1332L24.0651 14.6731C24.0221 14.6487 23.9844 14.6159 23.9541 14.5769C23.9238 14.5378 23.9015 14.4931 23.8886 14.4454C23.8756 14.3976 23.8722 14.3478 23.8786 14.2988C23.885 14.2497 23.901 14.2024 23.9257 14.1596C23.9504 14.1168 23.9834 14.0793 24.0227 14.0492C24.062 14.0192 24.1068 13.9972 24.1546 13.9846C24.2024 13.9719 24.2523 13.9689 24.3013 13.9756C24.3503 13.9823 24.3975 13.9986 24.4401 14.0236L25.237 14.4837C25.3231 14.5334 25.386 14.6153 25.4117 14.7114C25.4375 14.8074 25.424 14.9098 25.3743 14.9959Z" fill="white"/>
</g>
<defs>
<clipPath id="clip0_133_332">
<rect width="32" height="32" fill="white"/>
</clipPath>
</defs>
</svg>
