<svg width="32" height="32" viewBox="0 0 32 32" fill="none" xmlns="http://www.w3.org/2000/svg">
<path d="M21.4939 11.05C21.7189 11.7 21.8314 12.3812 21.8314 13.075C21.8314 13.35 21.6127 13.5688 21.3377 13.5688C21.0627 13.5688 20.8439 13.35 20.8439 13.075C20.8439 12.4937 20.7502 11.9187 20.5627 11.375C20.0439 9.86875 18.8814 8.69375 17.3752 8.15625C17.1189 8.0625 16.9814 7.78125 17.0752 7.525C17.1689 7.26875 17.4502 7.13125 17.7064 7.225C19.4939 7.8625 20.8752 9.25625 21.4939 11.05ZM23.7377 13.5375C23.6189 15.7375 22.6314 17.7563 20.9564 19.2125C19.6627 20.3375 18.9002 21.95 18.8189 23.6812C20.4314 23.5875 21.3002 25.6187 20.1314 26.7062C21.2689 27.7562 20.4814 29.75 18.9127 29.7313H18.3877C18.4377 30.925 17.4814 31.9375 16.2814 31.9375H12.5502C11.3502 31.9438 10.3939 30.925 10.4439 29.7313H9.91895C8.3502 29.75 7.5627 27.7562 8.7002 26.7062C7.7002 25.8125 8.18145 24.0312 9.48145 23.7437C9.2252 23.4688 9.01895 23.1437 8.88145 22.7812C6.5252 22.9562 4.7377 20.5312 5.5127 18.3375C2.54395 16.9937 2.54395 12.6375 5.5127 11.2937C4.7377 9.10625 6.5252 6.68125 8.88145 6.85C10.0064 3.86875 14.4127 4.63125 14.4502 7.8375V21.7938C14.4502 22.5188 14.1814 23.175 13.7377 23.6812H15.1252V6.0875C15.1127 5.45625 15.7002 4.90625 16.3314 4.975C20.6127 5.28125 24.0502 9.25 23.7377 13.5375ZM10.6189 20.2375C10.7189 20.4937 10.5877 20.775 10.3314 20.875C10.2002 20.925 10.0877 20.9937 10.0002 21.0875C9.6252 21.4625 9.7252 22.0812 9.7377 22.1562C10.2064 24.3813 13.4314 24.075 13.4752 21.8V7.84375C13.4627 5.825 10.7064 5.24375 9.88145 7.06875C10.5439 7.2 12.5064 8.875 11.1002 9.1875C10.6252 9.175 10.5314 8.55 10.1502 8.3375C8.3002 6.86875 5.6627 8.88125 6.46895 11.0188C7.4002 10.8813 8.36895 11.2625 8.96895 11.9812C9.14395 12.1875 9.11895 12.5 8.90645 12.675C8.7002 12.85 8.3877 12.825 8.2127 12.6125C8.08145 12.4563 7.79395 12.175 7.3377 12.0437C6.89395 11.9125 6.50645 11.9938 6.31895 12.05C3.76895 12.8 3.5627 16.425 5.9877 17.4688C6.31895 16.9375 8.26895 15.45 8.6127 16.4875C8.68145 16.75 8.51895 17.0187 8.25645 17.0875C5.4502 17.7812 5.8377 21.725 8.73145 21.8C8.74395 21.3875 8.85645 20.8313 9.3002 20.3875C9.61895 20.0563 10.3564 19.625 10.6189 20.2375ZM17.4064 29.7313H11.4377C11.3877 30.3813 11.9002 30.95 12.5564 30.95H16.2877C16.9439 30.9563 17.4502 30.3813 17.4064 29.7313ZM19.6877 27.975C19.6877 27.55 19.3439 27.2 18.9127 27.2H9.93145C9.50644 27.2 9.15645 27.5438 9.15645 27.975C9.15645 28.4 9.5002 28.75 9.93145 28.75H18.9189C19.3377 28.7437 19.6877 28.4 19.6877 27.975ZM9.93145 24.6688C8.91269 24.6938 8.91269 26.1875 9.93145 26.2125H18.9189C19.3439 26.2125 19.6939 25.8687 19.6939 25.4375C19.6939 25.0125 19.3502 24.6625 18.9189 24.6625H9.93145V24.6688ZM16.2439 5.95625C16.1564 5.9625 16.1189 5.99375 16.1064 6.0875V23.6812H17.8189C17.9064 21.6625 18.8002 19.775 20.3064 18.4688C25.0627 14.4 22.4502 6.4625 16.2439 5.95625ZM22.5939 6.86875L24.8752 4.5875C25.3252 4.125 24.6439 3.4375 24.1752 3.8875L21.8939 6.16875C21.4439 6.6375 22.1314 7.31875 22.5939 6.86875ZM28.2189 12.6562H24.9939C24.3439 12.6687 24.3439 13.6313 24.9939 13.6438H28.2189C28.8689 13.6313 28.8689 12.6687 28.2189 12.6562ZM22.5939 19.425C22.1314 18.975 21.4439 19.6562 21.8939 20.125L24.1752 22.4062C24.6439 22.8563 25.3252 22.175 24.8752 21.7062L22.5939 19.425ZM16.1127 3.775V0.55C16.1002 -0.1 15.1377 -0.1 15.1252 0.55V3.775C15.1377 4.425 16.1002 4.425 16.1127 3.775Z" fill="white"/>
</svg>
