<svg width="33" height="32" viewBox="0 0 33 32" fill="none" xmlns="http://www.w3.org/2000/svg">
<g clip-path="url(#clip0_133_357)">
<path d="M1.12875 31.9067C1.476 31.9067 1.7575 31.6252 1.7575 31.2779C1.7575 30.9307 1.476 30.6492 1.12875 30.6492C0.781502 30.6492 0.5 30.9307 0.5 31.2779C0.5 31.6252 0.781502 31.9067 1.12875 31.9067Z" fill="white"/>
<path d="M17.188 15.9593C17.5346 15.9593 17.8156 15.6784 17.8156 15.3318C17.8156 14.9853 17.5346 14.7043 17.188 14.7043C16.8415 14.7043 16.5605 14.9853 16.5605 15.3318C16.5605 15.6784 16.8415 15.9593 17.188 15.9593Z" fill="white"/>
<path d="M25.4051 7.37698C24.9006 6.87248 24.23 6.59473 23.5166 6.59473C22.8032 6.59473 22.1325 6.8726 21.6281 7.37698C20.5868 8.41835 20.5868 10.1127 21.6281 11.154C22.1488 11.6747 22.8326 11.935 23.5166 11.935C24.2004 11.935 24.8845 11.6746 25.4051 11.154C26.4464 10.1127 26.4464 8.41829 25.4051 7.37698ZM24.5178 10.2666C23.9657 10.8186 23.0674 10.8186 22.5155 10.2666C21.9634 9.71461 21.9634 8.81636 22.5155 8.26429C22.6466 8.1324 22.8026 8.02784 22.9745 7.95666C23.1463 7.88548 23.3306 7.84909 23.5166 7.8496C23.7026 7.84909 23.8868 7.88548 24.0587 7.95666C24.2305 8.02784 24.3865 8.1324 24.5177 8.26429C25.0698 8.81636 25.0698 9.71461 24.5178 10.2666ZM8.33818 25.7156C8.02793 25.5611 7.6513 25.6875 7.4968 25.9976L6.74942 27.4986C6.42442 28.1511 5.7708 28.5875 5.04342 28.6373L4.17417 28.6968C4.02723 28.7066 3.9306 28.6334 3.88592 28.5887C3.84123 28.544 3.76785 28.4472 3.77785 28.3004L3.83735 27.4312C3.88717 26.7039 4.32354 26.0502 4.97604 25.7252L6.47692 24.9778C6.78717 24.8233 6.91342 24.4466 6.75892 24.1364C6.60448 23.8263 6.2278 23.6999 5.91755 23.8544L4.41667 24.6018C3.36717 25.1245 2.66541 26.1757 2.58529 27.3455L2.52579 28.2146C2.50988 28.4465 2.54383 28.679 2.62536 28.8966C2.70688 29.1142 2.83409 29.3118 2.99842 29.4761C3.16271 29.6404 3.36031 29.7676 3.5779 29.8492C3.79549 29.9307 4.02803 29.9647 4.25986 29.9488L5.12911 29.8893C6.29886 29.8092 7.35011 29.1075 7.87274 28.0579L8.62011 26.557C8.77461 26.2468 8.64836 25.8701 8.33818 25.7156Z" fill="white"/>
<path d="M32.0667 0.511266C31.921 0.367719 31.7466 0.256556 31.555 0.185052C31.3633 0.113548 31.1588 0.0833137 30.9546 0.0963276L30.3704 0.133578C25.1317 0.468016 20.229 2.99671 16.9194 7.07134L15.5442 8.76441L11.9452 8.65872C11.9391 8.65854 11.933 8.65846 11.9268 8.65847C9.07259 8.65847 6.38915 9.76997 4.37083 11.7882L0.684701 15.4744C0.598906 15.5602 0.539835 15.6691 0.514645 15.7878C0.489455 15.9065 0.499225 16.03 0.542773 16.1432C0.586321 16.2565 0.661778 16.3547 0.760004 16.426C0.85823 16.4972 0.975011 16.5385 1.0962 16.5447L8.89897 16.9456L8.58084 17.3373C8.50245 17.4338 8.45449 17.5515 8.44308 17.6753C8.43166 17.7991 8.45729 17.9235 8.51672 18.0327C8.63889 18.2572 8.76693 18.4785 8.90072 18.6963L7.05034 20.893C6.97289 20.985 6.92349 21.0973 6.90801 21.2165C6.89253 21.3358 6.91163 21.457 6.96303 21.5657C7.36721 22.4197 7.90365 23.1871 8.55765 23.8465C9.22753 24.522 10.0108 25.0744 10.8857 25.4884C10.9926 25.539 11.1117 25.5584 11.2291 25.5442C11.3466 25.5301 11.4576 25.4831 11.5495 25.4086C11.9481 25.0852 12.4077 24.7016 12.8522 24.3307C13.169 24.0664 13.4931 23.7959 13.796 23.5466C13.977 23.6557 14.1602 23.7608 14.3457 23.8619C14.4377 23.912 14.5408 23.9383 14.6455 23.9382C14.7821 23.9382 14.9179 23.8937 15.0302 23.8065L15.4579 23.4746L15.8605 31.3103C15.8688 31.4709 15.9384 31.6222 16.0549 31.733C16.1715 31.8438 16.3262 31.9056 16.487 31.9056C16.6504 31.9056 16.8109 31.8417 16.9308 31.7218L20.617 28.0356C22.6353 26.0173 23.7467 23.3339 23.7467 20.4796V17.0424L25.2009 15.9139C29.559 12.532 32.2132 7.4324 32.483 1.92252L32.4979 1.61714C32.5078 1.41285 32.4746 1.20876 32.4003 1.0182C32.326 0.827636 32.2123 0.654897 32.0667 0.511266ZM2.56995 15.3639L5.25821 12.6757C7.03728 10.8966 9.40216 9.91585 11.9178 9.91341L14.5481 9.99066L9.87872 15.7394L2.56995 15.3639ZM12.0482 23.3672C11.7206 23.6404 11.3848 23.9207 11.0732 24.177C10.4704 23.8506 9.92516 23.4432 9.44866 22.9627C8.98715 22.4974 8.59434 21.9676 8.27759 21.384L9.63234 19.7757C10.0425 20.326 10.4911 20.8465 10.9747 21.3335L10.9758 21.3346L10.9762 21.335L10.9768 21.3355C11.5129 21.8749 12.0906 22.3715 12.7043 22.8206C12.488 23.0002 12.2663 23.1852 12.0482 23.3672ZM22.492 20.4796C22.492 22.9986 21.5111 25.3669 19.7297 27.1482L17.0415 29.8364L16.6664 22.5369L22.4919 18.0163V20.4796H22.492ZM31.2297 1.86121C30.9779 7.00478 28.5001 11.7654 24.4317 14.9225L14.5905 22.5593C13.7744 22.0824 13.0137 21.5194 12.3175 20.8814L15.6354 17.5635C15.8804 17.3185 15.8804 16.9212 15.6354 16.6761C15.3903 16.431 14.993 16.431 14.7479 16.6761L11.4332 19.9909C10.8237 19.3162 10.284 18.5821 9.82441 17.7969L17.8935 7.86253C20.9831 4.05884 25.5598 1.69821 30.4503 1.38608L31.0345 1.34883C31.0623 1.347 31.0902 1.35109 31.1163 1.36083C31.1424 1.37057 31.1661 1.38574 31.1859 1.40533C31.2095 1.42852 31.2484 1.47896 31.2447 1.55589L31.2297 1.86121Z" fill="white"/>
</g>
<defs>
<clipPath id="clip0_133_357">
<rect width="32" height="32" fill="white" transform="translate(0.5)"/>
</clipPath>
</defs>
</svg>
