<svg width="32" height="32" viewBox="0 0 32 32" fill="none" xmlns="http://www.w3.org/2000/svg">
<g clip-path="url(#clip0_128_133)">
<path d="M4.7403 10.4291H10.4361C10.4181 10.5517 10.4042 10.6749 10.3944 10.7984V10.7985C10.3856 10.9162 10.4012 11.0344 10.44 11.1458C10.4789 11.2572 10.5403 11.3595 10.6204 11.4461C10.7008 11.5324 10.7982 11.6013 10.9063 11.6484C11.0145 11.6954 11.1312 11.7198 11.2492 11.7198H20.7508C20.9891 11.7198 21.2184 11.62 21.3798 11.446C21.5412 11.272 21.6235 11.0359 21.6056 10.7984C21.5959 10.6749 21.582 10.5517 21.564 10.4291H27.2597C27.4859 10.4291 27.7036 10.3344 27.8569 10.1692C27.9329 10.0869 27.9912 9.98982 28.0281 9.88403C28.065 9.77824 28.0798 9.66599 28.0715 9.55425C27.9252 7.60325 26.6496 5.97044 24.9194 5.28062C25.5881 4.74262 26.0171 3.91838 26.0171 2.99531C26.0172 1.37812 24.7017 0.0625 23.0846 0.0625C21.4674 0.0625 20.1518 1.37812 20.1518 2.99525C20.1518 3.91806 20.5806 4.74219 21.2491 5.28019C20.4941 5.58048 19.8232 6.05932 19.2938 6.67569C18.8804 6.37466 18.428 6.13123 17.9491 5.95206C18.7491 5.35581 19.2682 4.40269 19.2682 3.3305C19.2681 1.5285 17.8021 0.0625 16.0001 0.0625C14.1981 0.0625 12.7321 1.5285 12.7321 3.3305C12.7321 4.40269 13.2512 5.35581 14.0512 5.95206C13.5723 6.13125 13.1199 6.37469 12.7065 6.67569C12.1771 6.05932 11.5062 5.58048 10.7512 5.28019C11.4196 4.74219 11.8485 3.91806 11.8485 2.99525C11.8484 1.37812 10.5328 0.0625 8.91568 0.0625C7.29855 0.0625 5.98299 1.37812 5.98299 2.99525C5.98299 3.91825 6.41205 4.74256 7.08068 5.28056C5.35043 5.97038 4.07493 7.60319 3.92861 9.55406C3.92027 9.66579 3.935 9.77804 3.97189 9.88383C4.00878 9.98962 4.06704 10.0867 4.14305 10.169C4.21942 10.251 4.31186 10.3164 4.41461 10.3612C4.51736 10.406 4.62823 10.4291 4.7403 10.4291ZM21.1518 2.99525C21.1518 1.92956 22.0188 1.0625 23.0846 1.0625C24.1503 1.0625 25.0173 1.92956 25.0173 2.99525C25.0173 4.06075 24.1506 4.92763 23.0852 4.928H23.0838C22.0184 4.92756 21.1518 4.06075 21.1518 2.99525ZM23.0838 5.928H23.0852C25.0992 5.92831 26.8051 7.45044 27.0544 9.42912H21.3263C21.0574 8.63575 20.6157 7.92256 20.0478 7.33244C20.8066 6.44669 21.9134 5.92819 23.0838 5.928ZM13.7321 3.3305C13.7321 2.07987 14.7495 1.0625 16.0001 1.0625C17.2507 1.0625 18.2681 2.07987 18.2681 3.3305C18.2681 4.58106 17.2507 5.59844 16.0001 5.59844C14.7495 5.59844 13.7321 4.581 13.7321 3.3305ZM20.5945 10.7198H11.4057C11.6584 8.39644 13.6472 6.59844 16.0001 6.59844C18.353 6.59844 20.3418 8.39637 20.5945 10.7198ZM6.98299 2.99525C6.98299 1.92956 7.84999 1.0625 8.91574 1.0625C9.98149 1.0625 10.8485 1.92956 10.8485 2.99525C10.8485 4.06069 9.98186 4.92756 8.91649 4.928H8.91511C7.84961 4.92769 6.98299 4.06075 6.98299 2.99525ZM8.91511 5.928H8.91649C10.0869 5.92819 11.1937 6.44669 11.9526 7.33244C11.3847 7.92256 10.943 8.63575 10.6741 9.42912H4.94593C5.19518 7.45044 6.90105 5.92831 8.91511 5.928ZM31.5217 23.8562L29.3693 13.0516C29.3146 12.7769 29.1556 12.5395 28.9217 12.3833C28.6879 12.2272 28.4079 12.1713 28.1329 12.226L25.3631 12.7778C25.0884 12.8326 24.851 12.9915 24.6948 13.2254C24.5386 13.4593 24.4827 13.7394 24.5375 14.0142L24.5619 14.1365C22.9072 14.6831 20.8969 14.836 18.3967 12.7733C17.2482 11.8258 15.7514 11.7948 14.6721 12.6959L13.5549 13.6288H7.46655C7.3938 13.2137 7.07468 12.8649 6.63724 12.7778L3.86743 12.226C3.59268 12.1712 3.31243 12.2271 3.07861 12.3833C2.84474 12.5395 2.68574 12.7769 2.63105 13.0516L0.478489 23.8561C0.423739 24.1309 0.479614 24.4111 0.635802 24.645C0.791927 24.8789 1.0293 25.0378 1.30405 25.0926L4.07386 25.6444C4.20922 25.6716 4.34864 25.6717 4.48404 25.6447C4.61944 25.6177 4.74816 25.5642 4.86274 25.4871C5.09661 25.3309 5.25561 25.0936 5.3103 24.8188L5.31874 24.7766L11.8719 31.3296C12.2779 31.7356 12.8112 31.9386 13.3445 31.9385C13.8778 31.9385 14.4111 31.7355 14.8171 31.3296C15.0911 31.0556 15.2791 30.7177 15.3675 30.3489L16.2645 31.2458C17.0766 32.0578 18.3978 32.0576 19.2097 31.2458C19.4803 30.9758 19.6709 30.6361 19.7604 30.2645C20.1481 30.6338 20.6559 30.8366 21.1961 30.8365C21.7536 30.8365 22.2766 30.6205 22.6687 30.2284C23.1162 29.7808 23.3171 29.1786 23.2713 28.5922C23.3252 28.5963 23.3796 28.5984 23.4342 28.5984C23.9917 28.5984 24.5147 28.3824 24.9069 27.9902C25.4544 27.4427 25.6426 26.6256 25.4198 25.8988L26.6584 24.6602L26.69 24.8188C26.7447 25.0936 26.9037 25.3309 27.1376 25.4871C27.2521 25.5641 27.3808 25.6177 27.5162 25.6447C27.6516 25.6717 27.791 25.6716 27.9264 25.6444L30.6962 25.0926C30.9709 25.0378 31.2083 24.8789 31.3645 24.645C31.5206 24.4111 31.5765 24.1309 31.5217 23.8562ZM4.30749 24.6554C4.30198 24.6592 4.29576 24.6619 4.28921 24.6633C4.28266 24.6647 4.27589 24.6648 4.2693 24.6636L1.49955 24.1118C1.48305 24.1085 1.47299 24.0979 1.46743 24.0896C1.46186 24.0813 1.45593 24.068 1.45924 24.0516L3.61168 13.2469C3.61307 13.2404 3.61574 13.2342 3.61953 13.2287C3.62333 13.2232 3.62818 13.2185 3.6338 13.2149C3.63926 13.211 3.64546 13.2083 3.65202 13.2069C3.65857 13.2055 3.66535 13.2054 3.67193 13.2067L6.44168 13.7586C6.45483 13.7615 6.4664 13.7694 6.4739 13.7807C6.4814 13.7919 6.48432 13.8055 6.48205 13.8188L4.32961 24.6234C4.32824 24.63 4.32557 24.6362 4.32177 24.6417C4.31798 24.6472 4.31312 24.6518 4.30749 24.6554ZM24.1997 27.2829C23.9963 27.4862 23.7244 27.5982 23.4341 27.5982C23.1437 27.5982 22.8719 27.4863 22.6686 27.2831L17.9564 22.5708C17.91 22.5239 17.8549 22.4866 17.7941 22.4611C17.7333 22.4356 17.6681 22.4224 17.6022 22.4222C17.5363 22.422 17.471 22.4348 17.41 22.46C17.3491 22.4851 17.2937 22.522 17.2471 22.5686C17.2005 22.6152 17.1636 22.6706 17.1384 22.7315C17.1133 22.7925 17.1005 22.8578 17.1007 22.9237C17.1009 22.9896 17.1141 23.0548 17.1396 23.1156C17.1651 23.1764 17.2023 23.2315 17.2492 23.2779L21.9615 27.9901C22.3836 28.4122 22.3836 29.0991 21.9616 29.5211C21.7582 29.7244 21.4863 29.8363 21.1959 29.8363C20.9056 29.8363 20.6337 29.7244 20.4305 29.5212L15.4512 24.5419C15.3573 24.4491 15.2304 24.3972 15.0983 24.3976C14.9662 24.398 14.8397 24.4507 14.7463 24.544C14.6529 24.6374 14.6002 24.764 14.5998 24.8961C14.5994 25.0282 14.6513 25.155 14.7441 25.249L18.5026 29.0074L18.5045 29.0094C18.9247 29.4316 18.924 30.1169 18.5026 30.5384C18.0804 30.9604 17.3936 30.9606 16.9716 30.5385L12.9462 26.5132C12.8523 26.4204 12.7254 26.3685 12.5933 26.3689C12.4612 26.3693 12.3347 26.4219 12.2413 26.5153C12.1479 26.6087 12.0952 26.7352 12.0948 26.8673C12.0944 26.9994 12.1463 27.1263 12.2391 27.2202L14.1101 29.0912L14.1104 29.0916C14.3135 29.2948 14.4254 29.5665 14.4254 29.8568C14.4254 30.1471 14.3134 30.419 14.1101 30.6223C13.6881 31.0444 13.0012 31.0444 12.5791 30.6223L5.55368 23.5972L7.3403 14.6288H12.357L10.9579 15.7969C10.3367 16.3155 10.07 17.0231 10.226 17.7381L11.3526 22.9007C11.3669 22.966 11.394 23.0277 11.4325 23.0823C11.471 23.1369 11.5201 23.1832 11.5768 23.2185C11.6335 23.2538 11.6966 23.2774 11.7626 23.2879C11.8286 23.2984 11.896 23.2956 11.9608 23.2796C13.3176 22.9452 14.2251 22.291 14.7349 21.2794C15.1752 20.406 15.2624 19.4136 15.3549 18.3629C15.3667 18.2296 15.3784 18.0956 15.3911 17.9613C15.392 17.9546 15.393 17.9492 15.394 17.9449C15.5727 17.8834 16.3969 18.0626 17.6357 19.1882L24.4184 26.0698C24.6015 26.4764 24.5161 26.9666 24.1997 27.2829ZM24.8356 25.0685L18.3384 18.4766C18.3321 18.4702 18.3256 18.464 18.319 18.4579C17.0167 17.2714 15.7887 16.7309 15.0343 17.0124C14.6766 17.1459 14.4445 17.4504 14.3975 17.8482C14.397 17.8521 14.3965 17.8561 14.3962 17.8601C14.3831 17.999 14.3709 18.1376 14.3587 18.2753C14.1955 20.1309 14.0742 21.5106 12.2152 22.163L11.2031 17.525C11.1019 17.0614 11.4076 16.7243 11.5988 16.5646L15.3129 13.4636C16.0112 12.8806 16.9947 12.9132 17.7602 13.5447C20.5801 15.8712 22.9421 15.6997 24.7584 15.1239L26.4233 23.4809L24.8356 25.0685ZM30.5328 24.0896C30.5292 24.0953 30.5245 24.1002 30.519 24.104C30.5134 24.1078 30.5072 24.1105 30.5006 24.1118L27.7309 24.6636C27.7144 24.6669 27.7011 24.661 27.6927 24.6554C27.6844 24.6499 27.6739 24.6398 27.6706 24.6234L25.5181 13.8188C25.5148 13.8024 25.5207 13.789 25.5263 13.7808C25.5319 13.7725 25.5419 13.7619 25.5584 13.7586L28.3282 13.2067C28.3313 13.2061 28.3344 13.2058 28.3376 13.2058C28.3497 13.2058 28.3597 13.2105 28.3664 13.2149C28.3747 13.2205 28.3852 13.2306 28.3885 13.247L30.5409 24.0517C30.5422 24.0582 30.5421 24.065 30.5407 24.0715C30.5393 24.078 30.5366 24.0842 30.5328 24.0896Z" fill="#71717A"/>
</g>
<defs>
<clipPath id="clip0_128_133">
<rect width="32" height="32" fill="white"/>
</clipPath>
</defs>
</svg>
