<svg width="32" height="32" viewBox="0 0 32 32" fill="none" xmlns="http://www.w3.org/2000/svg">
<path d="M21.2112 19.3599H17.6455L18.3884 16.8914C18.6156 16.1533 18.5441 15.3555 18.1894 14.6694C17.8346 13.9834 17.2249 13.464 16.4912 13.2228C16.2805 13.1534 16.0577 13.1282 15.8368 13.1488C15.6159 13.1694 15.4017 13.2355 15.2075 13.3428C15.0133 13.4501 14.8434 13.5963 14.7083 13.7723C14.5733 13.9483 14.476 14.1503 14.4226 14.3657L14.3084 14.8457C13.8774 16.5753 12.9846 18.1553 11.7255 19.4171L11.0741 20.0571C10.9085 19.8486 10.6984 19.6798 10.4591 19.5631C10.2198 19.4464 9.95744 19.3848 9.69122 19.3828H8.85693C8.38802 19.3828 7.93798 19.5675 7.60428 19.8969C7.27057 20.2263 7.08009 20.6739 7.07408 21.1428V28.5028C7.07408 28.9756 7.26191 29.4291 7.59626 29.7635C7.93061 30.0978 8.38409 30.2857 8.85693 30.2857H9.69122C9.99811 30.285 10.2996 30.2045 10.566 30.0523C10.8325 29.9 11.0548 29.6811 11.2112 29.4171L11.3712 29.4971C12.4041 30.0129 13.5424 30.2828 14.6969 30.2857H18.7998C19.4781 30.2889 20.1465 30.1236 20.745 29.8044C21.3435 29.4852 21.8532 29.0222 22.2284 28.4571C23.0268 27.2632 23.4524 25.859 23.4512 24.4228V21.5771C23.4512 21.284 23.3931 20.9938 23.2803 20.7233C23.1674 20.4528 23.0021 20.2074 22.7938 20.0012C22.5855 19.795 22.3383 19.6322 22.0667 19.5221C21.7951 19.412 21.5043 19.3569 21.2112 19.3599ZM10.2855 28.5028C10.2855 28.6725 10.2181 28.8353 10.0981 28.9554C9.97803 29.0754 9.81524 29.1428 9.6455 29.1428H8.85693C8.68719 29.1428 8.52441 29.0754 8.40438 28.9554C8.28436 28.8353 8.21693 28.6725 8.21693 28.5028V21.1428C8.21693 20.9731 8.28436 20.8103 8.40438 20.6903C8.52441 20.5702 8.68719 20.5028 8.85693 20.5028H9.69122C9.85291 20.5144 10.0042 20.5869 10.1145 20.7057C10.2248 20.8245 10.2859 20.9807 10.2855 21.1428V28.5028ZM22.2855 24.4228C22.2903 25.6424 21.9322 26.8358 21.2569 27.8514C20.9867 28.2553 20.6212 28.5865 20.1927 28.8157C19.7642 29.045 19.2858 29.1651 18.7998 29.1657H14.6969C13.7212 29.1647 12.7589 28.9378 11.8855 28.5028L11.4284 28.2742V21.2571L12.4798 20.2057C13.8865 18.7991 14.8858 17.0377 15.3712 15.1085L15.4855 14.6399C15.5194 14.5146 15.6016 14.4078 15.7141 14.3428C15.7718 14.3176 15.834 14.3046 15.8969 14.3046C15.9599 14.3046 16.0221 14.3176 16.0798 14.3428C16.305 14.4177 16.5133 14.5363 16.6926 14.6917C16.872 14.8472 17.0189 15.0364 17.1251 15.2487C17.2312 15.461 17.2945 15.6922 17.3112 15.9289C17.328 16.1657 17.2979 16.4034 17.2226 16.6285L16.2626 19.8399C16.2378 19.9251 16.2331 20.0149 16.249 20.1022C16.2649 20.1894 16.3008 20.2718 16.3541 20.3428C16.406 20.4151 16.4748 20.4738 16.5544 20.5136C16.634 20.5534 16.7222 20.5732 16.8112 20.5714H21.1426C21.2837 20.5714 21.4234 20.5992 21.5538 20.6532C21.6841 20.7071 21.8025 20.7863 21.9023 20.886C22.002 20.9858 22.0812 21.1042 22.1352 21.2346C22.1891 21.3649 22.2169 21.5046 22.2169 21.6457L22.2855 24.4228ZM12.5712 8.3428L12.2055 10.4571C12.1615 10.6911 12.1855 10.9328 12.2746 11.1535C12.3637 11.3743 12.5143 11.5649 12.7084 11.7028C12.9232 11.863 13.1833 11.951 13.4512 11.9542C13.6581 11.951 13.8614 11.9001 14.0455 11.8057L15.9998 10.7999L17.9084 11.8057C18.1182 11.9165 18.3552 11.9656 18.5918 11.9474C18.8284 11.9292 19.0551 11.8444 19.2455 11.7028C19.4376 11.5658 19.5869 11.3771 19.6759 11.1586C19.7649 10.9401 19.79 10.7008 19.7484 10.4685L19.4284 8.3428L20.9255 6.85709C21.0984 6.69356 21.2213 6.48432 21.28 6.25368C21.3387 6.02305 21.3307 5.7805 21.2569 5.55423C21.1831 5.3282 21.0477 5.12722 20.8661 4.9738C20.6844 4.82039 20.4636 4.72061 20.2284 4.68566L18.0912 4.37709L17.1426 2.4228C17.0359 2.21124 16.8726 2.03345 16.6708 1.90923C16.469 1.78501 16.2367 1.71924 15.9998 1.71924C15.7628 1.71924 15.5305 1.78501 15.3288 1.90923C15.127 2.03345 14.9636 2.21124 14.8569 2.4228L13.9084 4.35423L11.7712 4.6628C11.536 4.69775 11.3152 4.79753 11.1335 4.95094C10.9518 5.10436 10.8165 5.30535 10.7426 5.53137C10.6642 5.76078 10.6537 6.00798 10.7125 6.2432C10.7713 6.47841 10.8969 6.69161 11.0741 6.85709L12.5712 8.3428ZM11.8855 5.79423L14.3198 5.43995C14.4298 5.44706 14.5394 5.42158 14.6349 5.36669C14.7305 5.31181 14.8077 5.22995 14.8569 5.13137L15.9998 2.92566C16.0098 2.90378 16.0259 2.88523 16.0462 2.87223C16.0664 2.85923 16.09 2.85232 16.1141 2.85232C16.1381 2.85232 16.1617 2.85923 16.182 2.87223C16.2022 2.88523 16.2183 2.90378 16.2284 2.92566L17.3712 5.13137C17.4123 5.21483 17.4735 5.28674 17.5493 5.34061C17.6251 5.39448 17.7132 5.42862 17.8055 5.43995L20.2398 5.79423C20.2635 5.79906 20.2855 5.81006 20.3035 5.82611C20.3216 5.84217 20.3351 5.86271 20.3426 5.88566C20.3537 5.90477 20.3595 5.92645 20.3595 5.94852C20.3595 5.97058 20.3537 5.99226 20.3426 6.01137L18.5826 7.72566C18.5161 7.79218 18.4659 7.87329 18.4362 7.96256C18.4064 8.05182 18.3979 8.1468 18.4112 8.23995L18.8341 10.6514C18.8418 10.6757 18.8403 10.702 18.8297 10.7252C18.8192 10.7485 18.8004 10.767 18.7769 10.7771C18.7572 10.7919 18.7331 10.7999 18.7084 10.7999C18.6836 10.7999 18.6596 10.7919 18.6398 10.7771L16.4684 9.63423C16.3881 9.58918 16.2976 9.56552 16.2055 9.56552C16.1134 9.56552 16.0229 9.58918 15.9426 9.63423L13.7598 10.7771C13.7418 10.791 13.7197 10.7985 13.6969 10.7985C13.6742 10.7985 13.6521 10.791 13.6341 10.7771C13.6107 10.767 13.5918 10.7485 13.5813 10.7252C13.5707 10.702 13.5692 10.6757 13.5769 10.6514L13.9998 8.23995C14.0131 8.1468 14.0046 8.05182 13.9748 7.96256C13.9451 7.87329 13.8949 7.79218 13.8284 7.72566L12.0684 6.01137C12.0573 5.99226 12.0515 5.97058 12.0515 5.94852C12.0515 5.92645 12.0573 5.90477 12.0684 5.88566C12.0387 5.88734 12.0093 5.87934 11.9845 5.86285C11.9598 5.84636 11.9411 5.82228 11.9312 5.79423H11.8855ZM8.38836 15.1428C8.5586 15.1459 8.72737 15.1109 8.88236 15.0405C9.03735 14.97 9.17462 14.8657 9.28416 14.7354C9.3937 14.605 9.47273 14.4519 9.51547 14.287C9.55822 14.1222 9.5636 13.95 9.53122 13.7828L9.22265 12.0457L10.5026 10.7999C10.6639 10.6519 10.7793 10.4608 10.8351 10.2491C10.8908 10.0374 10.8846 9.81421 10.8172 9.60596C10.7498 9.39772 10.624 9.21321 10.4548 9.07438C10.2856 8.93554 10.08 8.84823 9.86265 8.8228L8.11408 8.57137L7.3255 6.9828C7.22029 6.80002 7.06875 6.64819 6.88617 6.54262C6.70359 6.43705 6.49641 6.38147 6.2855 6.38147C6.0746 6.38147 5.86742 6.43705 5.68484 6.54262C5.50226 6.64819 5.35072 6.80002 5.2455 6.9828L4.45693 8.57137L2.70836 8.8228C2.49096 8.84823 2.28543 8.93554 2.11621 9.07438C1.94699 9.21321 1.8212 9.39772 1.75379 9.60596C1.68638 9.81421 1.68019 10.0374 1.73596 10.2491C1.79172 10.4608 1.90709 10.6519 2.06836 10.7999L3.33693 12.0457L3.02836 13.7828C2.98877 13.9982 3.01188 14.2204 3.09495 14.423C3.17802 14.6256 3.31755 14.8001 3.49693 14.9257C3.67214 15.0537 3.88018 15.1293 4.09673 15.1434C4.31329 15.1576 4.5294 15.1098 4.71979 15.0057L6.2855 14.1828L7.85122 15.0057C8.0163 15.0948 8.20077 15.1419 8.38836 15.1428ZM6.2855 12.9714C6.19339 12.9708 6.10275 12.9945 6.02265 13.0399L4.15979 13.9771L4.57122 11.9428C4.57758 11.845 4.5601 11.7471 4.52029 11.6575C4.48048 11.5679 4.41952 11.4893 4.34265 11.4285L2.86836 9.95423L4.9255 9.65709C5.01645 9.64599 5.10305 9.61181 5.17707 9.5578C5.25108 9.50379 5.31005 9.43175 5.34836 9.34852L6.29693 7.48566L7.22265 9.34852C7.26096 9.43175 7.31993 9.50379 7.39394 9.5578C7.46796 9.61181 7.55455 9.64599 7.6455 9.65709L9.70265 9.98852L8.22836 11.4285C8.1618 11.495 8.11166 11.5761 8.0819 11.6654C8.05215 11.7547 8.0436 11.8497 8.05693 11.9428L8.38836 13.9999L6.54836 13.0399C6.46826 12.9945 6.37762 12.9708 6.2855 12.9714ZM30.2284 9.61137C30.1631 9.40456 30.0403 9.22059 29.8743 9.08095C29.7084 8.94132 29.5062 8.85178 29.2912 8.8228L27.5427 8.57137L26.7541 6.9828C26.6489 6.80002 26.4973 6.64819 26.3147 6.54262C26.1322 6.43705 25.925 6.38147 25.7141 6.38147C25.5032 6.38147 25.296 6.43705 25.1134 6.54262C24.9308 6.64819 24.7793 6.80002 24.6741 6.9828L23.8855 8.57137L22.1369 8.8228C21.9195 8.84823 21.714 8.93554 21.5448 9.07438C21.3756 9.21321 21.2498 9.39772 21.1824 9.60596C21.115 9.81421 21.1088 10.0374 21.1645 10.2491C21.2203 10.4608 21.3357 10.6519 21.4969 10.7999L22.7655 12.0457L22.4569 13.7828C22.4173 13.9982 22.4405 14.2204 22.5235 14.423C22.6066 14.6256 22.7461 14.8001 22.9255 14.9257C23.1007 15.0537 23.3088 15.1293 23.5253 15.1434C23.7419 15.1576 23.958 15.1098 24.1484 15.0057L25.7141 14.1828L27.2798 15.0057C27.4449 15.0948 27.6293 15.1419 27.8169 15.1428C27.9872 15.1459 28.1559 15.1109 28.3109 15.0405C28.4659 14.97 28.6032 14.8657 28.7127 14.7354C28.8223 14.605 28.9013 14.4519 28.944 14.287C28.9868 14.1222 28.9922 13.95 28.9598 13.7828L28.6512 12.0457L29.9198 10.7999C30.079 10.6517 30.1926 10.4612 30.2473 10.2506C30.3019 10.0401 30.2954 9.81832 30.2284 9.61137ZM27.6569 11.4285C27.5904 11.495 27.5402 11.5761 27.5105 11.6654C27.4807 11.7547 27.4722 11.8497 27.4855 11.9428L27.8169 13.9999L25.9769 13.0399C25.8967 12.9949 25.8061 12.9712 25.7141 12.9712C25.622 12.9712 25.5315 12.9949 25.4512 13.0399L23.5884 13.9771L23.9998 11.9428C24.0062 11.845 23.9887 11.7471 23.9489 11.6575C23.909 11.5679 23.8481 11.4893 23.7712 11.4285L22.2969 9.95423L24.3541 9.65709C24.445 9.64599 24.5316 9.61181 24.6056 9.5578C24.6797 9.50379 24.7386 9.43175 24.7769 9.34852L25.7255 7.48566L26.6512 9.34852C26.6895 9.43175 26.7485 9.50379 26.8225 9.5578C26.8965 9.61181 26.9831 9.64599 27.0741 9.65709L29.1312 9.98852L27.6569 11.4285Z" fill="#F97316"/>
</svg>
