<svg width="32" height="32" viewBox="0 0 32 32" fill="none" xmlns="http://www.w3.org/2000/svg">
<g clip-path="url(#clip0_116_71)">
<path d="M15.9999 13.1097C17.7722 13.1097 19.2088 11.673 19.2088 9.9008C19.2088 8.12857 17.7722 6.69189 15.9999 6.69189C14.2277 6.69189 12.791 8.12857 12.791 9.9008C12.791 11.673 14.2277 13.1097 15.9999 13.1097Z" stroke="#0EA5E9" stroke-width="0.937509" stroke-miterlimit="10" stroke-linecap="round" stroke-linejoin="round"/>
<path d="M20.1587 6.06243C21.7033 6.06243 22.9555 4.81024 22.9555 3.26559C22.9555 1.72094 21.7033 0.46875 20.1587 0.46875C18.614 0.46875 17.3618 1.72094 17.3618 3.26559C17.3618 4.81024 18.614 6.06243 20.1587 6.06243Z" stroke="#0EA5E9" stroke-width="0.937509" stroke-miterlimit="10" stroke-linecap="round" stroke-linejoin="round"/>
<path d="M11.8798 6.06243C13.4245 6.06243 14.6767 4.81024 14.6767 3.26559C14.6767 1.72094 13.4245 0.46875 11.8798 0.46875C10.3352 0.46875 9.08301 1.72094 9.08301 3.26559C9.08301 4.81024 10.3352 6.06243 11.8798 6.06243Z" stroke="#0EA5E9" stroke-width="0.937509" stroke-miterlimit="10" stroke-linecap="round" stroke-linejoin="round"/>
<path d="M7.73292 12.1362C9.30591 12.1362 10.5811 10.8611 10.5811 9.28809C10.5811 7.7151 9.30591 6.43994 7.73292 6.43994C6.15993 6.43994 4.88477 7.7151 4.88477 9.28809C4.88477 10.8611 6.15993 12.1362 7.73292 12.1362Z" stroke="#0EA5E9" stroke-width="0.937509" stroke-miterlimit="10" stroke-linecap="round" stroke-linejoin="round"/>
<path d="M24.2098 12.1364C22.2006 12.1633 20.546 13.6104 20.1326 15.5033C20.5517 16.2255 20.7721 17.0458 20.7715 17.8807V20.0353C20.8137 20.0416 20.8564 20.0459 20.9002 20.0459H27.6341C28.1135 20.0459 28.5022 19.6573 28.5022 19.1779V16.371C28.5022 14.0226 26.565 12.1048 24.2098 12.1364ZM11.2287 17.9434C11.2282 17.0899 11.4528 16.2514 11.8799 15.5124C11.4764 13.5731 9.73604 12.1088 7.67565 12.1364C5.35006 12.1676 3.49805 14.1008 3.49805 16.4266V19.1779C3.49805 19.6573 3.88668 20.0459 4.36606 20.0459H11.0999C11.1438 20.0459 11.1866 20.0416 11.2287 20.0354V17.9434Z" stroke="#0EA5E9" stroke-width="0.937509" stroke-miterlimit="10" stroke-linecap="round" stroke-linejoin="round"/>
<path d="M10.5811 9.2883C10.5811 10.8613 9.30595 12.1365 7.73293 12.1365C7.72899 12.1365 7.72512 12.1362 7.72112 12.1361V12.1368C9.76151 12.1313 11.4793 13.5875 11.8798 15.5124L11.8791 15.5136C12.6942 14.1003 14.1969 13.1331 15.9353 13.1098C15.9564 13.1095 15.9775 13.1098 15.9986 13.1098C14.227 13.109 12.791 11.6727 12.791 9.90093C12.791 8.65117 13.506 7.56903 14.5487 7.03915C13.8117 6.41927 12.8591 6.04845 11.8234 6.06239C10.8875 6.07495 10.03 6.40158 9.34351 6.93946C10.0908 7.4529 10.5811 8.31323 10.5811 9.2883ZM19.2089 9.90099C19.2089 11.6728 17.773 13.1091 16.0014 13.1098C17.7613 13.1104 19.3065 14.0763 20.1331 15.5043L20.1326 15.5034C20.5459 13.6105 22.2005 12.1634 24.2097 12.1365C24.2458 12.136 24.2815 12.1373 24.3173 12.1378V12.1351C24.3006 12.1355 24.284 12.1364 24.2671 12.1364C22.6941 12.1364 21.4189 10.8613 21.4189 9.28823C21.4189 8.3021 21.9202 7.43322 22.6817 6.92196C21.9667 6.37302 21.0709 6.04939 20.1023 6.06239C19.1012 6.07583 18.1897 6.44821 17.4813 7.05459C18.5077 7.58997 19.2089 8.66329 19.2089 9.90099ZM19.315 28.0032C19.7246 27.6039 19.4986 26.9082 18.9325 26.826L17.6929 26.6458C17.5822 26.6298 17.477 26.587 17.3865 26.5212C17.296 26.4555 17.2228 26.3687 17.1733 26.2683L16.6189 25.1451C16.3657 24.6321 15.6343 24.6321 15.3811 25.1451L14.8267 26.2683C14.7772 26.3687 14.704 26.4555 14.6135 26.5212C14.523 26.587 14.4178 26.6298 14.3071 26.6458L13.0674 26.826C12.5014 26.9082 12.2753 27.6039 12.6849 28.0032L13.5819 28.8775C13.6621 28.9556 13.722 29.052 13.7566 29.1584C13.7911 29.2649 13.7993 29.3781 13.7804 29.4884L13.5687 30.7229C13.472 31.2868 14.0637 31.7167 14.5701 31.4505L15.6788 30.8676C15.7778 30.8156 15.888 30.7884 15.9999 30.7884C16.1118 30.7884 16.222 30.8156 16.3211 30.8676L17.4298 31.4505C17.9361 31.7167 18.5279 31.2868 18.4312 30.7229L18.2194 29.4884C18.2005 29.3781 18.2087 29.2648 18.2432 29.1584C18.2778 29.052 18.3378 28.9556 18.4179 28.8775L19.315 28.0032ZM25.9995 26.2676C26.3017 25.973 26.135 25.4598 25.7174 25.3991L24.8029 25.2663C24.7212 25.2544 24.6437 25.2228 24.5769 25.1743C24.5101 25.1258 24.4561 25.0618 24.4196 24.9878L24.0106 24.1591C23.8239 23.7807 23.2843 23.7807 23.0975 24.1591L22.6886 24.9878C22.652 25.0618 22.598 25.1258 22.5313 25.1743C22.4645 25.2228 22.3869 25.2544 22.3052 25.2663L21.3907 25.3991C20.9732 25.4598 20.8064 25.973 21.1086 26.2676L21.7703 26.9126C21.8294 26.9702 21.8736 27.0413 21.8991 27.1198C21.9246 27.1983 21.9306 27.2819 21.9167 27.3632L21.7605 28.274C21.6892 28.6899 22.1257 29.0071 22.4992 28.8107L23.3171 28.3807C23.3901 28.3422 23.4714 28.3222 23.554 28.3222C23.6365 28.3222 23.7178 28.3422 23.7909 28.3807L24.6088 28.8107C24.9823 29.0071 25.4189 28.6899 25.3475 28.274L25.1913 27.3632C25.1774 27.2819 25.1834 27.1983 25.2089 27.1198C25.2345 27.0413 25.2787 26.9702 25.3378 26.9126L25.9995 26.2676ZM31.4031 23.7254C31.654 23.4809 31.5155 23.0548 31.1688 23.0044L30.4096 22.8941C30.3418 22.8842 30.2773 22.858 30.2219 22.8177C30.1664 22.7774 30.1216 22.7243 30.0913 22.6628L29.7517 21.9748C29.5966 21.6606 29.1486 21.6606 28.9936 21.9748L28.654 22.6628C28.6237 22.7243 28.5788 22.7774 28.5234 22.8177C28.4679 22.858 28.4035 22.8842 28.3357 22.8941L27.5764 23.0044C27.2297 23.0547 27.0912 23.4809 27.3422 23.7254L27.8916 24.261C27.9407 24.3088 27.9774 24.3679 27.9986 24.4331C28.0198 24.4983 28.0248 24.5676 28.0132 24.6352L27.8835 25.3914C27.8242 25.7367 28.1868 26.0001 28.4969 25.837L29.176 25.48C29.2367 25.4481 29.3042 25.4315 29.3727 25.4315C29.4413 25.4315 29.5088 25.4481 29.5695 25.48L30.2486 25.837C30.5587 26.0001 30.9212 25.7367 30.862 25.3914L30.7323 24.6352C30.7207 24.5676 30.7257 24.4983 30.7469 24.4331C30.7681 24.3679 30.8048 24.3089 30.8538 24.261L31.4031 23.7254ZM6.00041 26.2676C5.69822 25.973 5.86498 25.4598 6.2826 25.3991L7.19705 25.2663C7.27873 25.2544 7.3563 25.2228 7.42308 25.1743C7.48986 25.1258 7.54384 25.0618 7.58037 24.9878L7.98931 24.1591C8.17606 23.7807 8.71569 23.7807 8.90244 24.1591L9.31138 24.9878C9.34793 25.0618 9.40192 25.1258 9.46871 25.1743C9.53549 25.2228 9.61307 25.2544 9.69476 25.2663L10.6092 25.3991C11.0268 25.4598 11.1935 25.973 10.8914 26.2676L10.2297 26.9126C10.1706 26.9702 10.1264 27.0413 10.1009 27.1198C10.0754 27.1983 10.0693 27.2819 10.0833 27.3632L10.2395 28.274C10.3108 28.6899 9.87426 29.0071 9.5007 28.8107L8.68281 28.3807C8.60976 28.3422 8.52845 28.3222 8.44591 28.3222C8.36336 28.3222 8.28205 28.3422 8.209 28.3807L7.39111 28.8107C7.01761 29.0071 6.58104 28.6899 6.65236 28.274L6.80855 27.3632C6.8225 27.2819 6.81646 27.1983 6.79095 27.1198C6.76544 27.0413 6.72122 26.9702 6.66211 26.9126L6.00041 26.2676ZM0.596861 23.7254C0.345984 23.4809 0.484423 23.0548 0.831114 23.0044L1.59037 22.8941C1.6582 22.8842 1.72262 22.858 1.77807 22.8177C1.83352 22.7774 1.87835 22.7243 1.90869 22.6628L2.24825 21.9748C2.40332 21.6606 2.85138 21.6606 3.00638 21.9748L3.34595 22.6628C3.37629 22.7243 3.42111 22.7774 3.47657 22.8177C3.53202 22.858 3.59644 22.8842 3.66427 22.8941L4.42352 23.0044C4.77028 23.0547 4.90872 23.4809 4.65778 23.7254L4.10833 24.261C4.05925 24.3088 4.02254 24.3679 4.00136 24.4331C3.98018 24.4983 3.97517 24.5676 3.98677 24.6352L4.11646 25.3914C4.17571 25.7367 3.8132 26.0001 3.50308 25.837L2.82395 25.48C2.76328 25.4481 2.69577 25.4315 2.62722 25.4315C2.55868 25.4315 2.49117 25.4481 2.4305 25.48L1.75137 25.837C1.44124 26.0001 1.07874 25.7367 1.13799 25.3914L1.26768 24.6352C1.27926 24.5676 1.27425 24.4983 1.25307 24.4331C1.2319 24.3679 1.19519 24.3089 1.14612 24.261L0.596861 23.7254Z" stroke="#0EA5E9" stroke-width="0.937509" stroke-miterlimit="10" stroke-linecap="round" stroke-linejoin="round"/>
<path d="M17.0937 22.0211H19.7933C20.3335 22.0211 20.7714 21.5832 20.7714 21.0431V17.8807C20.7714 15.2349 18.5889 13.0741 15.9353 13.1097C13.3152 13.1449 11.2285 15.3229 11.2285 17.9432V21.043C11.2285 21.5832 11.6664 22.021 12.2065 22.021H14.9062M26.9212 8.25521C26.5075 7.19301 25.4755 6.43994 24.267 6.43994C22.6939 6.43994 21.4188 7.71508 21.4188 9.28809C21.4188 10.8611 22.6939 12.1362 24.267 12.1362C25.4288 12.1362 26.4274 11.4402 26.8705 10.4427" stroke="#0EA5E9" stroke-width="0.937509" stroke-miterlimit="10" stroke-linecap="round" stroke-linejoin="round"/>
</g>
<defs>
<clipPath id="clip0_116_71">
<rect width="32" height="32" fill="white"/>
</clipPath>
</defs>
</svg>
