<svg width="32" height="32" viewBox="0 0 32 32" fill="none" xmlns="http://www.w3.org/2000/svg">
<path d="M16.0008 1.00165C15.7331 0.993166 15.4666 1.03852 15.2168 1.13501C14.9671 1.23151 14.7393 1.37718 14.5469 1.56339C14.3545 1.74959 14.2015 1.97254 14.0969 2.219C13.9923 2.46547 13.9383 2.73042 13.938 2.99816C13.9378 3.2659 13.9913 3.53096 14.0954 3.77762C14.1995 4.02428 14.3521 4.24752 14.5442 4.43409C14.7362 4.62066 14.9637 4.76676 15.2133 4.86372C15.4629 4.96069 15.7294 5.00655 15.997 4.99857C16.2595 4.99882 16.5196 4.94735 16.7623 4.8471C17.0049 4.74685 17.2255 4.59978 17.4113 4.4143C17.5972 4.22881 17.7446 4.00854 17.8454 3.76605C17.9461 3.52357 17.998 3.26362 17.9983 3.00106C17.9985 2.73849 17.9471 2.47844 17.8468 2.23577C17.7465 1.9931 17.5995 1.77254 17.414 1.58671C17.2285 1.40087 17.0082 1.25338 16.7657 1.15268C16.5233 1.05197 16.2633 1.00189 16.0008 1.00165ZM16.0008 1.99946C16.2659 1.99896 16.5204 2.1038 16.7082 2.29093C16.896 2.47806 17.0018 2.73214 17.0023 2.99728C17.0028 3.26241 16.898 3.51689 16.7109 3.70473C16.5237 3.89256 16.2697 3.99837 16.0045 3.99887C15.7394 3.99937 15.4849 3.89453 15.2971 3.7074C15.1092 3.52027 15.0034 3.26619 15.0029 3.00106C15.0024 2.73592 15.1073 2.48144 15.2944 2.2936C15.4815 2.10577 15.7356 1.99996 16.0008 1.99946ZM12.6369 4.00076L5.94323 7.0868C5.3385 7.35138 5.74291 8.27738 6.36088 7.99391L13.0583 4.90975C13.5251 4.70188 13.4042 3.99131 12.8807 3.95351C12.7965 3.94846 12.7125 3.9635 12.6369 4.00076ZM25.6387 7.99769C26.2567 8.27927 26.6611 7.35516 26.0583 7.08869L19.3627 4.00076C19.2869 3.96399 19.203 3.94708 19.1189 3.95163C18.5973 3.98942 18.4764 4.69999 18.9432 4.90786L25.6387 7.99769ZM14.6892 6.70507C14.4127 6.83786 14.1996 7.07408 14.0958 7.36272C14.0127 7.55926 13.9824 7.67075 13.8785 7.79737C13.7746 7.92399 13.5856 8.08651 13.1509 8.26982C12.7125 8.45502 12.4593 8.48148 12.2892 8.47014C12.121 8.4588 12.0208 8.40778 11.83 8.33218C11.5582 8.21152 11.2516 8.19471 10.9682 8.28494C10.6337 8.39455 10.3068 8.66101 9.94016 9.03141C9.5433 9.43394 9.3033 9.76465 9.20881 10.0689C9.12536 10.3521 9.1489 10.6561 9.27495 10.9231C9.35243 11.1121 9.40346 11.216 9.41858 11.3823C9.43369 11.5486 9.41102 11.8037 9.23338 12.2422C9.05573 12.6806 8.8951 12.879 8.76848 12.9868C8.64376 13.0964 8.53415 13.1304 8.34895 13.2098C8.07174 13.3089 7.84134 13.5076 7.70264 13.7673C7.55523 14.0507 7.49476 14.4476 7.50043 14.9994C7.49665 15.5059 7.54011 15.9216 7.70264 16.2316C7.84163 16.491 8.07192 16.6896 8.34895 16.789C8.53415 16.8684 8.63809 16.9005 8.7647 17.0083C8.88943 17.1179 9.05573 17.3182 9.23338 17.7566C9.40913 18.1856 9.4318 18.4388 9.41858 18.607C9.40535 18.7714 9.3581 18.8716 9.28251 19.0511C9.15924 19.3061 9.12786 19.5959 9.19369 19.8713C9.27227 20.1375 9.40913 20.3828 9.59433 20.5894C9.25416 21.1488 8.98581 21.7422 8.80061 22.3847C8.44238 21.8579 7.96275 21.425 7.40216 21.1224C7.66226 20.8158 7.84455 20.4511 7.93355 20.0591C8.02255 19.667 8.01564 19.2593 7.9134 18.8705C7.81116 18.4817 7.61661 18.1234 7.34627 17.8258C7.07593 17.5283 6.73778 17.3004 6.36054 17.1615C5.9833 17.0226 5.57811 16.9768 5.17938 17.0279C4.78064 17.0791 4.40014 17.2257 4.07017 17.4553C3.74021 17.6849 3.47053 17.9908 3.28403 18.3469C3.09753 18.703 2.99973 19.0989 2.99892 19.5009C2.99703 20.1189 3.22192 20.6839 3.59799 21.1224C2.96142 21.4661 2.43008 21.9762 2.06066 22.5983C1.69123 23.2203 1.49756 23.9309 1.50031 24.6544V25.2402C1.50031 26.4932 2.50946 27.5004 3.74917 27.5004H7.24719C7.7102 27.5004 8.14107 27.3625 8.50013 27.1187V29.0047C8.50013 29.6038 8.68911 30.1915 9.14644 30.5789C9.60378 30.9663 10.2747 31.0873 11.04 30.938L11.074 30.9304L15.997 29.6038L20.9407 30.9342C21.7231 31.0854 22.3751 30.9814 22.8532 30.5789C23.3105 30.1934 23.4995 29.6076 23.4995 29.0104V27.1206C23.8585 27.3644 24.2894 27.4985 24.7524 27.4985H28.2504C29.4902 27.4985 30.4993 26.4932 30.4993 25.2421V24.6544C30.4993 23.1255 29.6583 21.8008 28.4016 21.1205C28.7796 20.6858 29.0026 20.1189 29.0026 19.5009C29.0034 19.0974 28.9067 18.6997 28.7206 18.3417C28.5345 17.9837 28.2646 17.676 27.9339 17.4449C27.6032 17.2137 27.2215 17.066 26.8214 17.0142C26.4212 16.9625 26.0145 17.0083 25.6359 17.1477C25.2573 17.2871 24.918 17.516 24.6469 17.8149C24.3759 18.1138 24.1812 18.4738 24.0794 18.8643C23.9776 19.2547 23.9717 19.6639 24.0622 20.0571C24.1527 20.4503 24.337 20.8158 24.5993 21.1224C24.04 21.4247 23.56 21.8537 23.199 22.3885C23.0158 21.7555 22.7488 21.1499 22.4053 20.5875C22.5906 20.3817 22.7275 20.137 22.8059 19.8713C22.8718 19.5959 22.8404 19.3061 22.7171 19.0511C22.6415 18.8716 22.5943 18.7714 22.581 18.6051C22.5678 18.4388 22.5905 18.1856 22.7662 17.7547C22.9439 17.3182 23.1102 17.1179 23.2368 17.0083C23.3634 16.9005 23.4636 16.8684 23.6526 16.789C23.9296 16.6896 24.1599 16.491 24.2989 16.2316C24.4595 15.9216 24.5049 15.5078 24.5011 14.9994C24.5049 14.4457 24.4444 14.0507 24.2989 13.7673C24.16 13.5077 23.9297 13.309 23.6526 13.2098C23.4636 13.1304 23.3577 13.0964 23.2311 12.9868C23.1045 12.879 22.9439 12.6806 22.7662 12.2422C22.5886 11.8037 22.5659 11.5486 22.581 11.3823C22.5962 11.216 22.6472 11.114 22.7266 10.9231C22.853 10.6562 22.8765 10.3521 22.7927 10.0689C22.6982 9.76654 22.4582 9.43394 22.0613 9.03141C21.6947 8.66101 21.3659 8.39644 21.0314 8.28494C20.661 8.16399 20.3624 8.25848 20.1715 8.33407C19.9807 8.40967 19.8786 8.4588 19.7104 8.47014C19.5403 8.48148 19.2871 8.45502 18.8506 8.26982C18.414 8.08651 18.2269 7.92399 18.123 7.79737C18.0191 7.67075 17.9869 7.55926 17.9038 7.36272C17.8 7.07408 17.5869 6.83786 17.3104 6.70507C16.9872 6.54821 16.5979 6.49908 16.0008 6.49719C15.4017 6.49719 15.0143 6.54821 14.6892 6.70507ZM2.99892 6.99798C2.73648 6.99786 2.47658 7.04943 2.23407 7.14975C1.99156 7.25006 1.77118 7.39717 1.58552 7.58265C1.39985 7.76814 1.25254 7.98838 1.152 8.2308C1.05145 8.47321 0.999636 8.73306 0.999512 8.9955C0.999388 9.25795 1.05096 9.51784 1.15127 9.76036C1.25159 10.0029 1.39869 10.2232 1.58418 10.4089C1.76967 10.5946 1.98991 10.7419 2.23232 10.8424C2.47474 10.943 2.73459 10.9948 2.99703 10.9949C3.52706 10.9952 4.03547 10.7849 4.41044 10.4102C4.7854 10.0356 4.99619 9.52742 4.99644 8.99739C4.99669 8.46737 4.78638 7.95895 4.41177 7.58399C4.03716 7.20903 3.52895 6.99823 2.99892 6.99798ZM29.0007 6.99798C28.4704 6.99748 27.9617 7.20765 27.5863 7.58226C27.211 7.95687 26.9999 8.46523 26.9994 8.9955C26.9989 9.52578 27.2091 10.0345 27.5837 10.4099C27.9583 10.7852 28.4666 10.9963 28.9969 10.9968C29.2595 10.9971 29.5195 10.9456 29.7622 10.8453C30.0049 10.7451 30.2254 10.598 30.4113 10.4125C30.5971 10.227 30.7446 10.0068 30.8453 9.76428C30.946 9.5218 30.998 9.26185 30.9982 8.99928C30.9985 8.73672 30.947 8.47667 30.8467 8.234C30.7465 7.99132 30.5994 7.77077 30.4139 7.58493C30.2284 7.3991 30.0082 7.25161 29.7657 7.1509C29.5232 7.05019 29.2633 6.99823 29.0007 6.99798ZM16.8757 7.60272C16.9438 7.63485 16.9513 7.68965 16.9816 7.75012C17.0383 7.88241 17.1233 8.15265 17.3482 8.42856C17.5731 8.70447 17.917 8.96527 18.4575 9.19393C18.9961 9.42071 19.4251 9.49441 19.7804 9.46984C20.1337 9.44528 20.3945 9.32055 20.5363 9.26575C20.6194 9.23362 20.6629 9.21472 20.7177 9.23362C20.7895 9.2563 20.9709 9.3489 21.3489 9.73253C21.708 10.0973 21.8138 10.2957 21.8365 10.3675C21.8516 10.4261 21.827 10.479 21.7987 10.5433C21.7514 10.6566 21.6154 10.9401 21.5851 11.2935C21.5549 11.6469 21.6191 12.0778 21.8383 12.6164C22.0595 13.1587 22.3089 13.5121 22.5773 13.7446C22.8456 13.9751 23.1215 14.0715 23.2614 14.132C23.3407 14.166 23.3785 14.1698 23.4088 14.2265C23.439 14.2869 23.5089 14.4816 23.5033 14.9994C23.507 15.4851 23.4485 15.6911 23.4088 15.7704C23.3785 15.829 23.3218 15.8404 23.2614 15.8649C23.1196 15.9254 22.8456 16.0218 22.5773 16.2542C22.3089 16.4848 22.0595 16.8401 21.8402 17.3787C21.6248 17.9097 21.5568 18.333 21.5851 18.6826C21.6116 19.0322 21.7268 19.2685 21.7949 19.4348C21.8251 19.5179 21.8535 19.5633 21.8383 19.62C21.8266 19.6563 21.8121 19.6917 21.7949 19.7258C21.0457 18.8189 20.0942 18.1004 19.0169 17.6281C19.6329 16.9232 19.9996 16.0048 19.9996 15.0013C19.9981 13.9412 19.5767 12.9248 18.8276 12.1747C18.0785 11.4245 17.0628 11.0017 16.0026 10.9987C13.7991 10.9987 12.0019 12.7959 12.0019 14.9994C12.0019 16.0048 12.3686 16.9232 12.9846 17.6262C11.9072 18.0984 10.9557 18.8169 10.2066 19.7239C10.1896 19.6904 10.1751 19.6556 10.1632 19.62C10.148 19.5633 10.1783 19.5179 10.2066 19.4348C10.2765 19.2704 10.3899 19.0322 10.4164 18.6826C10.4428 18.333 10.3786 17.9097 10.1632 17.3787C9.94394 16.8382 9.69449 16.4848 9.42614 16.2542C9.15589 16.0218 8.88187 15.9254 8.74203 15.8649C8.67966 15.8404 8.62486 15.829 8.59462 15.7704C8.55305 15.6911 8.49446 15.4851 8.49824 14.9994C8.49446 14.4816 8.5625 14.2869 8.59273 14.2265C8.62486 14.1698 8.66265 14.166 8.74203 14.132C8.88187 14.0715 9.15589 13.9751 9.42424 13.7446C9.69449 13.5121 9.94394 13.1587 10.1632 12.6183C10.3824 12.0778 10.4466 11.6469 10.4164 11.2935C10.3862 10.9401 10.2501 10.6585 10.2028 10.5433C10.1764 10.479 10.1499 10.4261 10.165 10.3675C10.1877 10.2957 10.2936 10.0973 10.6526 9.73253C11.0306 9.3489 11.2139 9.2563 11.2857 9.23362C11.3405 9.21472 11.3821 9.23362 11.4652 9.26575C11.607 9.32244 11.8696 9.44528 12.2212 9.46984C12.5764 9.49441 13.0054 9.42071 13.544 9.19393C14.0845 8.96527 14.4303 8.70258 14.6552 8.42856C14.8782 8.15265 14.9651 7.88241 15.0199 7.74824C15.0521 7.68965 15.0577 7.63485 15.1277 7.60272C15.207 7.56492 15.4716 7.49878 16.0026 7.49878C16.5318 7.49878 16.7945 7.56303 16.8757 7.60272ZM2.99892 7.99958C3.13371 7.99334 3.26837 8.01446 3.39478 8.06165C3.52119 8.10885 3.63674 8.18115 3.73446 8.27419C3.83219 8.36723 3.91006 8.4791 3.9634 8.60304C4.01674 8.72699 4.04444 8.86045 4.04482 8.99538C4.0452 9.13031 4.01827 9.26393 3.96563 9.38817C3.913 9.51242 3.83576 9.62472 3.73856 9.71832C3.64137 9.81191 3.52623 9.88487 3.40009 9.93278C3.27395 9.98069 3.13941 10.0026 3.00459 9.9971C2.74717 9.98665 2.50372 9.87723 2.32502 9.69166C2.14631 9.50609 2.04615 9.25868 2.04542 9.00105C2.04469 8.74342 2.14344 8.49546 2.32109 8.30887C2.49874 8.12228 2.74157 8.01148 2.99892 7.99958ZM29.0007 7.99958C29.2658 7.99958 29.5201 8.1049 29.7076 8.29239C29.8951 8.47987 30.0004 8.73415 30.0004 8.99928C30.0004 9.26442 29.8951 9.5187 29.7076 9.70618C29.5201 9.89366 29.2658 9.99899 29.0007 9.99899C28.7462 9.98333 28.5072 9.87119 28.3325 9.68543C28.1579 9.49967 28.0606 9.25428 28.0606 8.99928C28.0606 8.74429 28.1579 8.4989 28.3325 8.31314C28.5072 8.12738 28.7462 8.01523 29.0007 7.99958ZM3.90036 11.8113C3.82068 11.8065 3.74101 11.8209 3.66801 11.8532C3.595 11.8854 3.53076 11.9347 3.48065 11.9968C3.43054 12.0589 3.396 12.1322 3.37993 12.2103C3.36385 12.2885 3.36669 12.3694 3.38822 12.4463L4.26698 15.7761C4.41816 16.447 5.42921 16.1805 5.23267 15.521L4.35391 12.193C4.32879 12.0894 4.27126 11.9965 4.18968 11.9279C4.10811 11.8592 4.00675 11.8184 3.90036 11.8113ZM28.0993 11.8113C27.9928 11.8181 27.8913 11.8588 27.8096 11.9275C27.728 11.9962 27.6705 12.0893 27.6457 12.193L26.7669 15.521C26.5704 16.1824 27.5796 16.447 27.7345 15.7761L28.6133 12.4463C28.6349 12.3693 28.6377 12.2882 28.6215 12.2098C28.6054 12.1315 28.5707 12.0582 28.5203 11.996C28.47 11.9338 28.4055 11.8846 28.3322 11.8525C28.259 11.8203 28.1791 11.8062 28.0993 11.8113ZM16.0008 11.9984C16.7967 11.9984 17.56 12.3146 18.1228 12.8774C18.6856 13.4402 19.0018 14.2035 19.0018 14.9994C19.0018 15.7953 18.6856 16.5586 18.1228 17.1214C17.56 17.6842 16.7967 18.0004 16.0008 18.0004C15.2048 18.0004 14.4415 17.6842 13.8787 17.1214C13.3159 16.5586 12.9997 15.7953 12.9997 14.9994C12.9997 14.2035 13.3159 13.4402 13.8787 12.8774C14.4415 12.3146 15.2048 11.9984 16.0008 11.9984ZM5.49913 17.9985C5.89684 17.9985 6.27825 18.1565 6.55947 18.4377C6.8407 18.7189 6.99869 19.1004 6.99869 19.4981C6.99869 19.8958 6.8407 20.2772 6.55947 20.5584C6.27825 20.8396 5.89684 20.9976 5.49913 20.9976C5.10142 20.9976 4.72 20.8396 4.43878 20.5584C4.15756 20.2772 3.99957 19.8958 3.99957 19.4981C3.99957 19.1004 4.15756 18.7189 4.43878 18.4377C4.72 18.1565 5.10142 17.9985 5.49913 17.9985ZM26.5005 17.9985C26.7019 17.9911 26.9027 18.0244 27.091 18.0963C27.2792 18.1682 27.4511 18.2773 27.5963 18.417C27.7414 18.5568 27.857 18.7244 27.936 18.9098C28.015 19.0952 28.0558 19.2946 28.0561 19.4961C28.0563 19.6976 28.016 19.8972 27.9375 20.0828C27.8589 20.2683 27.7438 20.4362 27.599 20.5764C27.4541 20.7165 27.2826 20.826 27.0945 20.8984C26.9064 20.9708 26.7057 21.0045 26.5043 20.9976C26.1157 20.9843 25.7476 20.8208 25.4772 20.5414C25.2069 20.262 25.0556 19.8886 25.0551 19.4999C25.0546 19.1112 25.205 18.7374 25.4746 18.4573C25.7442 18.1773 26.112 18.0128 26.5005 17.9985ZM12.5008 26.2267V24.4957C12.4857 23.8437 11.5163 23.8437 11.4992 24.4957V26.4837L11.3764 26.5158C10.7282 26.6803 10.9758 27.6497 11.6221 27.4853L19.1813 25.5445C19.3139 25.5088 19.4523 25.4995 19.5885 25.5172C19.7248 25.535 19.8562 25.5794 19.9752 25.6479C20.0943 25.7164 20.1987 25.8077 20.2825 25.9166C20.3663 26.0255 20.4278 26.1498 20.4635 26.2825C20.4993 26.4151 20.5085 26.5535 20.4908 26.6897C20.473 26.8259 20.4286 26.9573 20.3601 27.0764C20.2916 27.1955 20.2003 27.2999 20.0914 27.3837C19.9825 27.4674 19.8582 27.529 19.7255 27.5647L10.8473 29.9534H10.8435C10.2765 30.063 9.9704 29.9628 9.79276 29.8136C9.61323 29.6624 9.50173 29.3997 9.50173 29.0009V24.4994C9.50173 21.6477 11.3197 19.242 13.835 18.3632C14.4804 18.7783 15.2316 18.9989 15.9989 18.9989C16.7662 18.9989 17.5173 18.7783 18.1627 18.3632C19.434 18.8079 20.5351 19.6379 21.3125 20.7378C22.0899 21.8376 22.5049 23.1526 22.4998 24.4994V29.0085C22.4998 29.4016 22.3864 29.6624 22.2087 29.8136C22.0292 29.9647 21.725 30.063 21.1561 29.9534L17.9246 29.0841L19.9845 28.5285C20.3732 28.424 20.7224 28.2073 20.9886 27.9053C21.2547 27.6034 21.4259 27.2297 21.4808 26.8309C21.5357 26.4322 21.4717 26.0261 21.297 25.6635C21.1223 25.3009 20.8445 24.9979 20.4985 24.7924V24.4938C20.4834 23.8418 19.5139 23.8475 19.4988 24.5108C19.3079 24.5033 19.1169 24.5236 18.9318 24.5712L12.5008 26.2267ZM18.0002 21.5003C17.3482 21.5154 17.3482 22.4849 18.0002 22.5H19.4988C20.1508 22.4849 20.1508 21.5135 19.4988 21.4984L18.0002 21.5003ZM4.53155 21.8027C4.83854 21.9315 5.16811 21.9978 5.50102 21.9978C5.83393 21.9978 6.1635 21.9315 6.47049 21.8027C7.06445 22.0062 7.5797 22.3907 7.94377 22.9022C8.30784 23.4138 8.50241 24.0265 8.50013 24.6544V25.2402C8.50163 25.4055 8.47031 25.5695 8.40797 25.7226C8.34563 25.8757 8.25351 26.015 8.13697 26.1322C8.02042 26.2495 7.88176 26.3424 7.72902 26.4057C7.57629 26.4689 7.41251 26.5012 7.24719 26.5007H3.74917C3.58424 26.5005 3.42099 26.4676 3.26881 26.4041C3.11662 26.3405 2.97851 26.2474 2.86241 26.1303C2.74632 26.0132 2.65453 25.8742 2.59234 25.7215C2.53015 25.5687 2.49877 25.4052 2.50001 25.2402V24.6544C2.50001 23.3334 3.34287 22.2033 4.53155 21.8027ZM25.5291 21.8027C25.8362 21.9324 26.1662 21.9992 26.4995 21.9992C26.8329 21.9992 27.1629 21.9324 27.47 21.8027C28.6567 22.2014 29.4996 23.3334 29.4996 24.6544V25.2402C29.4996 25.93 28.9516 26.5007 28.2523 26.5007H24.7524C24.5872 26.5007 24.4237 26.4681 24.2712 26.4046C24.1187 26.3412 23.9802 26.2482 23.8638 26.1311C23.7473 26.0139 23.6552 25.8749 23.5927 25.722C23.5302 25.5691 23.4985 25.4054 23.4995 25.2402V24.6544C23.4995 23.3353 24.3423 22.2033 25.5291 21.8027Z" fill="#F43F5E"/>
</svg>
