<svg width="40" height="40" viewBox="0 0 40 40" fill="none" xmlns="http://www.w3.org/2000/svg">
<path d="M36.8134 33.6605L31.5782 24.5929C31.7795 24.2724 32.0886 24.0243 32.4771 23.8898C33.7191 23.4598 34.731 22.371 35.1839 20.9771C35.6369 19.5832 35.4583 18.1075 34.7061 17.0295C34.2817 16.4213 34.2817 15.6657 34.706 15.0576C35.4581 13.9796 35.6369 12.5038 35.184 11.1099C34.7311 9.71602 33.7192 8.62711 32.4771 8.19703C31.7763 7.95437 31.3321 7.34312 31.318 6.6018C31.2929 5.28766 30.57 3.98875 29.3844 3.12719C28.1987 2.2657 26.7399 1.97945 25.4822 2.36164C24.7726 2.57734 24.0541 2.34383 23.6069 1.75234C22.8142 0.704063 21.4659 0.078125 20.0002 0.078125H20C18.5345 0.078125 17.1861 0.703984 16.3932 1.75242C15.9459 2.34398 15.2273 2.5775 14.518 2.36188C13.2604 1.97961 11.8016 2.26578 10.6158 3.12719C9.43003 3.98867 8.70713 5.2875 8.68198 6.60172C8.66776 7.3432 8.2237 7.95445 7.52307 8.19703C6.28104 8.62695 5.26901 9.71586 4.81612 11.1098C4.36323 12.5037 4.54174 13.9795 5.29385 15.0575C5.71823 15.6657 5.71823 16.4213 5.29393 17.0293C4.54174 18.1073 4.36307 19.583 4.81596 20.9769C5.26885 22.3709 6.28081 23.4598 7.52292 23.8898C7.91143 24.0244 8.22057 24.2725 8.42182 24.5929L3.18667 33.6605C2.98643 34.0073 3.00487 34.4263 3.23487 34.7539C3.46487 35.0815 3.85284 35.2412 4.24721 35.1704L9.50112 34.2281L11.3121 39.2494C11.4481 39.6262 11.7803 39.8823 12.179 39.9177C12.2103 39.9205 12.2414 39.9219 12.2721 39.9219C12.6349 39.9219 12.9654 39.7324 13.1499 39.4127L17.7399 31.4627C18.4069 31.8148 19.1851 32.0088 20 32.0088C20.8149 32.0088 21.5931 31.8148 22.2602 31.4627L26.8501 39.4127C27.0347 39.7324 27.3652 39.9219 27.7279 39.9219C27.7588 39.9219 27.7899 39.9205 27.8211 39.9177C28.2199 39.8823 28.552 39.6262 28.688 39.2493L30.4989 34.2282L35.7529 35.1704C36.1472 35.2409 36.5351 35.0814 36.7652 34.7538C36.9952 34.4263 37.0136 34.0073 36.8134 33.6605ZM12.3179 38.3539L10.4979 33.3078C10.4478 33.169 10.3502 33.0524 10.2224 32.9786C10.0947 32.9049 9.94488 32.8787 9.79963 32.9047L4.51971 33.8516L8.81557 26.4109C9.07698 27.3901 9.71104 28.3023 10.6157 28.9596C11.8015 29.8211 13.2603 30.1073 14.5178 29.7251C15.2274 29.5095 15.946 29.7429 16.3932 30.3343C16.4956 30.4694 16.607 30.5975 16.7267 30.7177L12.3179 38.3539ZM20 30.7588C18.9238 30.7588 17.9482 30.3183 17.3903 29.5805C16.8143 28.8188 15.9455 28.3973 15.0335 28.3973C14.7422 28.3973 14.4463 28.4404 14.1543 28.5291C13.2692 28.798 12.221 28.581 11.3504 27.9484C10.4798 27.3158 9.9494 26.3859 9.93174 25.4612C9.90768 24.2013 9.12268 23.1209 7.93182 22.7087C7.05776 22.406 6.33729 21.6142 6.00479 20.5907C5.67221 19.5671 5.78971 18.5032 6.31901 17.7446C7.04003 16.7113 7.04003 15.3758 6.31893 14.3423C5.78971 13.5836 5.67229 12.5196 6.00487 11.4961C6.33745 10.4726 7.05792 9.68086 7.93198 9.37828C9.12268 8.96609 9.90768 7.88562 9.93174 6.62562C9.94948 5.70086 10.4798 4.77102 11.3505 4.13852C12.2212 3.50586 13.2694 3.28883 14.1545 3.55789C15.3602 3.92422 16.6302 3.51156 17.3903 2.50641C17.9482 1.76859 18.9239 1.32812 20.0001 1.3282C21.0763 1.3282 22.0519 1.76875 22.6097 2.50648C23.3697 3.51164 24.6398 3.92422 25.8456 3.55789C26.7305 3.28898 27.7789 3.50594 28.6496 4.13867C29.5202 4.77125 30.0505 5.70109 30.0682 6.62586C30.0922 7.88562 30.8772 8.96609 32.0681 9.37836C32.9422 9.68102 33.6626 10.4727 33.9952 11.4962C34.3277 12.5198 34.2103 13.5838 33.681 14.3423C32.9599 15.3758 32.9599 16.7113 33.681 17.7447C34.2103 18.5034 34.3277 19.5673 33.9951 20.5909C33.6625 21.6144 32.9421 22.406 32.0681 22.7087C30.8773 23.1209 30.0922 24.2013 30.0682 25.4613C30.0504 26.3861 29.5201 27.3159 28.6494 27.9484C27.7787 28.581 26.7305 28.798 25.8455 28.5291C24.6399 28.1628 23.3697 28.5754 22.6097 29.5805C22.0518 30.3184 21.0762 30.7588 20 30.7588ZM30.2003 32.9047C30.0551 32.8786 29.9053 32.9048 29.7775 32.9786C29.6497 33.0524 29.5521 33.169 29.5021 33.3078L27.6821 38.3538L23.2735 30.7178C23.393 30.5976 23.5044 30.4696 23.6068 30.3345C24.054 29.743 24.7728 29.5098 25.4821 29.7252C26.7397 30.1074 28.1985 29.8213 29.3842 28.9598C30.289 28.3024 30.923 27.3902 31.1844 26.411L35.4803 33.8517L30.2003 32.9047ZM30.4209 16.0434C30.4209 10.2973 25.7461 5.6225 20 5.6225C14.2539 5.6225 9.57917 10.2973 9.57917 16.0434C9.57917 21.7896 14.2539 26.4644 20 26.4644C25.7461 26.4644 30.4209 21.7895 30.4209 16.0434ZM20 25.2144C14.9432 25.2144 10.8292 21.1003 10.8292 16.0434C10.8292 10.9866 14.9432 6.8725 20 6.8725C25.0569 6.8725 29.1709 10.9866 29.1709 16.0434C29.1709 21.1003 25.0568 25.2144 20 25.2144ZM26.5568 13.7305C26.5188 13.6134 26.447 13.5102 26.3506 13.4338C26.2542 13.3574 26.1373 13.3111 26.0147 13.3008L22.099 12.972L20.5762 9.34945C20.5285 9.23601 20.4484 9.13916 20.3459 9.07106C20.2434 9.00296 20.1231 8.96663 20 8.96663C19.877 8.96663 19.7566 9.00296 19.6541 9.07106C19.5517 9.13916 19.4715 9.23601 19.4239 9.34945L17.901 12.972L13.9853 13.3008C13.8626 13.3111 13.7458 13.3573 13.6493 13.4338C13.5529 13.5102 13.4812 13.6134 13.4431 13.7305C13.4051 13.8475 13.4025 13.9731 13.4356 14.0917C13.4687 14.2102 13.536 14.3163 13.6292 14.3967L16.6038 16.9645L15.7065 20.7902C15.6785 20.9099 15.6864 21.0353 15.7294 21.1506C15.7723 21.2659 15.8482 21.366 15.9478 21.4383C16.0473 21.5106 16.1659 21.5519 16.2888 21.5571C16.4117 21.5623 16.5334 21.5311 16.6387 21.4675L20 19.4319L23.3612 21.4674C23.4664 21.5312 23.5882 21.5625 23.7112 21.5574C23.8341 21.5522 23.9528 21.5108 24.0524 21.4384C24.1519 21.3661 24.2279 21.266 24.2708 21.1507C24.3137 21.0353 24.3216 20.9099 24.2935 20.7901L23.3962 16.9644L26.3708 14.3966C26.4639 14.3162 26.5313 14.2101 26.5644 14.0916C26.5975 13.9731 26.5948 13.8475 26.5568 13.7305ZM22.2928 16.2655C22.2064 16.3401 22.1421 16.4369 22.1068 16.5454C22.0716 16.654 22.0667 16.7701 22.0928 16.8813L22.737 19.628L20.3238 18.1665C20.2261 18.1073 20.1142 18.0761 20 18.0761C19.8859 18.0761 19.7739 18.1073 19.6763 18.1665L17.263 19.628L17.9072 16.8813C17.9333 16.7701 17.9284 16.654 17.8931 16.5454C17.8579 16.4369 17.7935 16.3401 17.7071 16.2655L15.5714 14.422L18.3828 14.1859C18.4966 14.1763 18.6056 14.1358 18.6979 14.0687C18.7903 14.0016 18.8625 13.9105 18.9067 13.8052L20 11.2045L21.0933 13.8053C21.1375 13.9106 21.2098 14.0017 21.3021 14.0688C21.3945 14.1359 21.5035 14.1764 21.6172 14.1859L24.4285 14.422L22.2928 16.2655Z" fill="#EC4899"/>
</svg>
