<svg width="40" height="40" viewBox="0 0 40 40" fill="none" xmlns="http://www.w3.org/2000/svg">
<path d="M19.9761 6.42359C12.9825 6.42359 7.2927 12.1134 7.2927 19.107C7.2927 21.3444 7.88341 23.5441 9.00083 25.4684C10.0847 27.3348 11.6379 28.9054 13.4922 30.0103C14.0358 30.3342 14.335 30.8609 14.335 31.4933V34.4145C14.335 35.4654 15.0286 36.3573 15.9819 36.6569V36.711C15.9819 38.4384 17.3872 39.8438 19.1146 39.8438H20.8376C22.565 39.8438 23.9704 38.4385 23.9704 36.711V36.6569C24.9237 36.3573 25.6172 35.4653 25.6172 34.4145V31.4933C25.6172 30.8608 25.9165 30.3341 26.4601 30.0103C28.3145 28.9054 29.8676 27.3348 30.9515 25.4684C32.069 23.5441 32.6597 21.3444 32.6597 19.107C32.6597 12.1133 26.9699 6.42359 19.9761 6.42359ZM20.8377 38.4375H19.1147C18.1807 38.4375 17.418 37.6917 17.3897 36.7644H22.5629C22.5344 37.6917 21.7718 38.4375 20.8377 38.4375ZM23.2673 35.3581H16.6851C16.1647 35.3581 15.7414 34.9348 15.7414 34.4144V33.9142H24.2109V34.4144C24.2109 34.9348 23.7876 35.3581 23.2673 35.3581ZM25.7404 28.8022C24.7685 29.3813 24.211 30.3621 24.211 31.4932V32.5079H15.7414V31.4932C15.7414 30.3621 15.184 29.3813 14.2121 28.8022C10.8115 26.7759 8.69903 23.061 8.69903 19.1069C8.69903 12.8887 13.7579 7.82977 19.9762 7.82977C26.1946 7.82977 31.2536 12.8887 31.2536 19.1069C31.2535 23.061 29.141 26.7759 25.7404 28.8022ZM3.64661 9.58422C3.69277 9.50424 3.75422 9.43414 3.82748 9.37792C3.90073 9.3217 3.98434 9.28047 4.07353 9.25657C4.16273 9.23267 4.25575 9.22658 4.3473 9.23864C4.43885 9.25071 4.52712 9.28069 4.60708 9.32688L7.29778 10.8803C7.43191 10.9577 7.53673 11.0772 7.59597 11.2203C7.65521 11.3634 7.66556 11.522 7.6254 11.6716C7.58525 11.8212 7.49684 11.9533 7.3739 12.0475C7.25097 12.1416 7.10038 12.1926 6.94552 12.1924C6.8223 12.1924 6.70128 12.1599 6.59466 12.0981L3.90396 10.5447C3.82399 10.4985 3.75389 10.4371 3.69768 10.3638C3.64147 10.2906 3.60024 10.2069 3.57634 10.1178C3.55244 10.0286 3.54635 9.93554 3.5584 9.844C3.57046 9.75245 3.60044 9.66418 3.64661 9.58422ZM4.93052 19.7152H1.82349C1.43513 19.7152 1.12036 19.4004 1.12036 19.012C1.12036 18.6237 1.43513 18.3089 1.82349 18.3089H4.93052C5.31888 18.3089 5.63364 18.6237 5.63364 19.012C5.63364 19.4004 5.31888 19.7152 4.93052 19.7152ZM7.55513 26.1834C7.64836 26.3449 7.67363 26.5368 7.62537 26.7169C7.57711 26.897 7.45927 27.0506 7.29778 27.1438L4.60708 28.6973C4.52713 28.7436 4.43886 28.7736 4.3473 28.7857C4.25574 28.7978 4.1627 28.7917 4.0735 28.7678C3.9843 28.7439 3.90068 28.7026 3.82743 28.6464C3.75418 28.5901 3.69274 28.52 3.64661 28.44C3.55338 28.2785 3.52811 28.0866 3.57637 27.9065C3.62463 27.7263 3.74247 27.5728 3.90396 27.4795L6.59466 25.926C6.93114 25.7319 7.36106 25.8471 7.55513 26.1834ZM27.7886 17.1002H27.0336C26.8794 16.5553 26.6618 16.0303 26.3852 15.536L26.9193 15.002C26.9846 14.9367 27.0364 14.8592 27.0718 14.7739C27.1071 14.6885 27.1253 14.5971 27.1253 14.5048C27.1253 14.4124 27.1072 14.321 27.0718 14.2357C27.0365 14.1504 26.9847 14.0729 26.9194 14.0076L25.0758 12.1638C24.944 12.032 24.7651 11.9579 24.5787 11.9579C24.3922 11.9579 24.2134 12.032 24.0815 12.1638L23.5472 12.698C23.053 12.4215 22.528 12.2038 21.983 12.0495V11.2946C21.983 11.1081 21.9089 10.9293 21.7771 10.7974C21.6452 10.6656 21.4664 10.5915 21.2799 10.5915H18.6726C18.4861 10.5915 18.3073 10.6656 18.1754 10.7974C18.0436 10.9293 17.9695 11.1081 17.9695 11.2946V12.0495C17.4245 12.2037 16.8994 12.4214 16.4051 12.698L15.8711 12.1639C15.8058 12.0986 15.7283 12.0468 15.6429 12.0115C15.5576 11.9761 15.4662 11.9579 15.3738 11.9579C15.2815 11.9579 15.1901 11.9761 15.1047 12.0115C15.0194 12.0468 14.9419 12.0986 14.8766 12.1639L13.0329 14.0077C12.9676 14.0729 12.9158 14.1505 12.8804 14.2358C12.8451 14.3211 12.8269 14.4125 12.8269 14.5048C12.8269 14.5972 12.8451 14.6886 12.8804 14.7739C12.9158 14.8592 12.9676 14.9367 13.0329 15.002L13.567 15.5361C13.2904 16.0304 13.0727 16.5554 12.9185 17.1004H12.1638C11.9773 17.1004 11.7985 17.1745 11.6666 17.3063C11.5348 17.4382 11.4607 17.617 11.4607 17.8035V20.4109C11.4607 20.5974 11.5348 20.7763 11.6666 20.9081C11.7985 21.04 11.9773 21.1141 12.1638 21.1141H12.9186C13.0728 21.6591 13.2904 22.1841 13.567 22.6784L13.0329 23.2124C12.901 23.3443 12.8269 23.5232 12.8269 23.7096C12.8269 23.8961 12.901 24.075 13.0329 24.2069L14.8766 26.0506C15.0085 26.1825 15.1873 26.2565 15.3738 26.2565C15.5603 26.2565 15.7391 26.1824 15.871 26.0505L16.405 25.5165C16.8994 25.7931 17.4244 26.0107 17.9694 26.1649V26.9198C17.9694 27.1062 18.0435 27.2851 18.1754 27.417C18.3072 27.5488 18.4861 27.6229 18.6725 27.6229H21.2798C21.4663 27.6229 21.6451 27.5488 21.777 27.417C21.9089 27.2851 21.9829 27.1062 21.9829 26.9198V26.1648C22.5279 26.0106 23.0529 25.793 23.5472 25.5164L24.0815 26.0505C24.1468 26.1158 24.2243 26.1676 24.3096 26.2029C24.3949 26.2383 24.4863 26.2565 24.5787 26.2565C24.671 26.2564 24.7624 26.2383 24.8477 26.2029C24.933 26.1676 25.0105 26.1158 25.0758 26.0505L26.9194 24.2068C26.9847 24.1415 27.0365 24.064 27.0718 23.9787C27.1072 23.8934 27.1254 23.8019 27.1254 23.7096C27.1254 23.6173 27.1072 23.5258 27.0718 23.4405C27.0365 23.3552 26.9847 23.2777 26.9194 23.2124L26.3853 22.6783C26.6618 22.184 26.8794 21.659 27.0337 21.1141H27.7886C27.9751 21.1141 28.154 21.04 28.2858 20.9081C28.4177 20.7763 28.4918 20.5974 28.4918 20.4109V17.8035C28.4918 17.7112 28.4736 17.6197 28.4383 17.5344C28.403 17.4491 28.3512 17.3715 28.2859 17.3062C28.2206 17.2409 28.1431 17.1891 28.0578 17.1538C27.9724 17.1184 27.881 17.1002 27.7886 17.1002ZM27.0855 19.7077H26.4804C26.3178 19.7077 26.1602 19.764 26.0344 19.8672C25.9087 19.9703 25.8226 20.1138 25.7908 20.2733C25.6403 21.0311 25.3416 21.7517 24.9119 22.3938C24.8217 22.529 24.7811 22.6913 24.7971 22.8531C24.8131 23.0149 24.8846 23.1661 24.9996 23.2811L25.4279 23.7095L24.5786 24.5588L24.1502 24.1305C24.0353 24.0155 23.884 23.9439 23.7222 23.9279C23.5603 23.9119 23.398 23.9526 23.2628 24.0429C22.6207 24.4726 21.9001 24.7712 21.1424 24.9217C20.9829 24.9535 20.8394 25.0396 20.7363 25.1653C20.6331 25.2911 20.5768 25.4486 20.5768 25.6112V26.2164H19.3758V25.6112C19.3758 25.4486 19.3194 25.291 19.2162 25.1653C19.113 25.0395 18.9695 24.9535 18.81 24.9217C18.0522 24.7712 17.3316 24.4726 16.6896 24.0429C16.5543 23.9526 16.392 23.912 16.2301 23.9279C16.0683 23.9439 15.917 24.0155 15.8021 24.1305L15.3739 24.5588L14.5245 23.7095L14.9528 23.2811C15.0677 23.1661 15.1393 23.0149 15.1553 22.853C15.1712 22.6912 15.1306 22.5289 15.0404 22.3937C14.6107 21.7516 14.312 21.031 14.1615 20.2733C14.1297 20.1138 14.0436 19.9703 13.9179 19.8672C13.7922 19.764 13.6346 19.7077 13.472 19.7077H12.867V18.5065H13.472C13.6346 18.5065 13.7922 18.4501 13.918 18.3469C14.0437 18.2438 14.1298 18.1002 14.1615 17.9407C14.312 17.183 14.6107 16.4624 15.0404 15.8205C15.1306 15.6852 15.1712 15.5229 15.1553 15.3611C15.1393 15.1992 15.0677 15.048 14.9528 14.933L14.5245 14.5047L15.3739 13.6553L15.8021 14.0836C15.9171 14.1986 16.0683 14.2701 16.2302 14.2861C16.392 14.3021 16.5543 14.2615 16.6896 14.1712C17.3317 13.7415 18.0524 13.4429 18.8102 13.2923C18.9697 13.2605 19.1132 13.1744 19.2163 13.0487C19.3194 12.923 19.3758 12.7654 19.3758 12.6028V11.9977H20.5768V12.6028C20.5768 12.7654 20.6331 12.923 20.7363 13.0487C20.8394 13.1745 20.9829 13.2605 21.1424 13.2923C21.9001 13.4429 22.6207 13.7416 23.2628 14.1712C23.398 14.2615 23.5604 14.3021 23.7222 14.2862C23.884 14.2702 24.0353 14.1986 24.1502 14.0836L24.5786 13.6552L25.4279 14.5046L24.9995 14.933C24.8845 15.048 24.8129 15.1993 24.7969 15.3611C24.781 15.523 24.8216 15.6854 24.9119 15.8206C25.3416 16.4626 25.6403 17.1832 25.7908 17.9409C25.8227 18.1004 25.9088 18.2439 26.0345 18.347C26.1602 18.4501 26.3178 18.5065 26.4804 18.5065H27.0855V19.7077ZM19.976 14.3415C17.3483 14.3415 15.2105 16.4794 15.2105 19.1071C15.2105 21.7348 17.3483 23.8727 19.976 23.8727C22.6038 23.8727 24.7416 21.7348 24.7416 19.1071C24.7416 16.4794 22.6038 14.3415 19.976 14.3415ZM19.976 22.4664C18.1237 22.4664 16.6168 20.9595 16.6168 19.1071C16.6168 17.2548 18.1237 15.7477 19.976 15.7477C21.8283 15.7477 23.3354 17.2548 23.3354 19.1071C23.3354 20.9595 21.8283 22.4664 19.976 22.4664ZM32.3974 11.8408C32.3042 11.6793 32.2789 11.4874 32.3272 11.3073C32.3754 11.1271 32.4932 10.9736 32.6547 10.8803L35.3453 9.32688C35.5068 9.23364 35.6987 9.20837 35.8788 9.25663C36.0589 9.30489 36.2125 9.42273 36.3058 9.58422C36.399 9.74571 36.4243 9.93763 36.376 10.1177C36.3277 10.2979 36.2099 10.4514 36.0484 10.5447L33.3579 12.0981C33.2779 12.1443 33.1896 12.1743 33.0981 12.1864C33.0065 12.1984 32.9135 12.1923 32.8243 12.1684C32.7351 12.1445 32.6515 12.1033 32.5783 12.0471C32.505 11.9909 32.4435 11.9208 32.3974 11.8408ZM38.8795 19.0248C38.8795 19.2113 38.8054 19.3902 38.6736 19.522C38.5417 19.6539 38.3629 19.728 38.1764 19.728H35.0693C34.681 19.728 34.3662 19.4132 34.3662 19.0248C34.3662 18.6365 34.681 18.3217 35.0693 18.3217H38.1764C38.3629 18.3217 38.5417 18.3958 38.6736 18.5277C38.8054 18.6595 38.8795 18.8384 38.8795 19.0248ZM36.3058 28.44C36.2596 28.52 36.1982 28.5901 36.1249 28.6464C36.0517 28.7026 35.9681 28.7439 35.8789 28.7678C35.7897 28.7917 35.6966 28.7978 35.6051 28.7857C35.5135 28.7736 35.4252 28.7436 35.3453 28.6973L32.6547 27.1438C32.4932 27.0506 32.3754 26.897 32.3272 26.7169C32.2789 26.5368 32.3042 26.3449 32.3974 26.1834C32.4435 26.1034 32.505 26.0333 32.5783 25.9771C32.6515 25.9208 32.7351 25.8796 32.8243 25.8557C32.9135 25.8318 33.0065 25.8257 33.0981 25.8378C33.1896 25.8498 33.2779 25.8798 33.3579 25.926L36.0484 27.4795C36.2099 27.5728 36.3277 27.7263 36.376 27.9065C36.4243 28.0866 36.399 28.2785 36.3058 28.44ZM19.273 3.96633V0.859375C19.273 0.471016 19.5878 0.15625 19.9761 0.15625C20.3645 0.15625 20.6793 0.471016 20.6793 0.859375V3.96633C20.6793 4.15281 20.6052 4.33165 20.4733 4.46351C20.3415 4.59537 20.1626 4.66945 19.9761 4.66945C19.7897 4.66945 19.6108 4.59537 19.479 4.46351C19.3471 4.33165 19.273 4.15281 19.273 3.96633ZM10.2909 3.64297C10.1977 3.48148 10.1724 3.28956 10.2207 3.10944C10.2689 2.92932 10.3868 2.77574 10.5483 2.6825C10.8844 2.48828 11.3145 2.60359 11.5087 2.93977L13.0624 5.63039C13.1556 5.79188 13.1809 5.9838 13.1326 6.16392C13.0844 6.34404 12.9665 6.49762 12.805 6.59086C12.7251 6.63705 12.6368 6.66703 12.5453 6.6791C12.4537 6.69117 12.3607 6.68509 12.2715 6.6612C12.1823 6.63731 12.0987 6.59608 12.0255 6.53987C11.9522 6.48366 11.8907 6.41356 11.8446 6.33359L10.2909 3.64297ZM26.8903 5.63055L28.4436 2.93992C28.4893 2.85898 28.5505 2.7879 28.6238 2.73078C28.6971 2.67365 28.781 2.63163 28.8707 2.60713C28.9603 2.58262 29.0539 2.57613 29.1461 2.58803C29.2382 2.59993 29.3271 2.62997 29.4076 2.67643C29.4881 2.72289 29.5585 2.78485 29.6149 2.85871C29.6713 2.93257 29.7125 3.01688 29.7361 3.10675C29.7597 3.19663 29.7653 3.2903 29.7525 3.38234C29.7396 3.47437 29.7087 3.56296 29.6615 3.64297L28.1081 6.33359C28.0619 6.41358 28.0005 6.48368 27.9272 6.53991C27.854 6.59614 27.7704 6.63738 27.6812 6.66129C27.592 6.68519 27.499 6.69129 27.4074 6.67923C27.3159 6.66718 27.2276 6.6372 27.1476 6.59102C26.9861 6.49777 26.8683 6.3442 26.82 6.16408C26.7718 5.98396 26.797 5.79204 26.8903 5.63055Z" fill="#6366F1"/>
</svg>
