<svg width="40" height="40" viewBox="0 0 40 40" fill="none" xmlns="http://www.w3.org/2000/svg">
<path d="M12.6425 5.2H19.1879C19.339 5.2 19.4839 5.13998 19.5907 5.03314C19.6976 4.9263 19.7576 4.7814 19.7576 4.6303C19.7576 4.47921 19.6976 4.33431 19.5907 4.22747C19.4839 4.12063 19.339 4.06061 19.1879 4.06061H12.6425C12.4914 4.06061 12.3465 4.12063 12.2396 4.22747C12.1328 4.33431 12.0728 4.47921 12.0728 4.6303C12.0728 4.7814 12.1328 4.9263 12.2396 5.03314C12.3465 5.13998 12.4914 5.2 12.6425 5.2ZM12.6425 35.9212H19.1879C19.339 35.9212 19.4839 35.8612 19.5907 35.7544C19.6976 35.6475 19.7576 35.5026 19.7576 35.3515C19.7576 35.2004 19.6976 35.0555 19.5907 34.9487C19.4839 34.8418 19.339 34.7818 19.1879 34.7818H12.6425C12.4914 34.7818 12.3465 34.8418 12.2396 34.9487C12.1328 35.0555 12.0728 35.2004 12.0728 35.3515C12.0728 35.5026 12.1328 35.6475 12.2396 35.7544C12.3465 35.8612 12.4914 35.9212 12.6425 35.9212ZM31.9212 28.8606C31.7239 28.4371 31.4483 28.0547 31.1091 27.7333C29.6122 26.303 27.2303 26.3576 25.8061 27.8485C25.4643 28.2039 25.1966 28.6238 25.0187 29.0837C24.8408 29.5436 24.7561 30.0343 24.7697 30.5273C24.7808 31.0208 24.8893 31.5072 25.089 31.9586C25.2887 32.41 25.5757 32.8175 25.9334 33.1576C26.3239 33.5306 26.7902 33.8152 27.3005 33.992C27.8109 34.1687 28.3533 34.2335 28.8909 34.1818C29.5879 34.1152 30.2485 33.8606 30.8 33.4303L30.8728 33.3758C31.5609 32.8272 32.0314 32.0516 32.2 31.1879C32.3031 30.6849 32.297 30.1758 32.1879 29.6667C32.1334 29.3879 32.0425 29.1152 31.9212 28.8606ZM31.0849 30.9636C30.9687 31.5813 30.6248 32.1329 30.1212 32.5091C29.7394 32.8061 29.2788 32.9879 28.7879 33.0364C28.4132 33.0723 28.0352 33.027 27.6796 32.9036C27.324 32.7802 26.9992 32.5815 26.7273 32.3212C26.2243 31.8364 25.9334 31.1879 25.9152 30.4909C25.897 29.7939 26.1515 29.1333 26.6303 28.6303C26.8729 28.3765 27.1645 28.1747 27.4875 28.0372C27.8105 27.8996 28.1581 27.8292 28.5091 27.8303C28.9596 27.8304 29.4026 27.9464 29.7953 28.1671C30.188 28.3879 30.5173 28.706 30.7515 29.0909C30.8 29.1697 30.8485 29.2545 30.8849 29.3394C30.9697 29.5212 31.0303 29.7091 31.0728 29.903C31.1515 30.2606 31.1515 30.6121 31.0849 30.9636Z" fill="#22C55E"/>
<path d="M37.0182 28.7879C37.0151 28.6536 36.9647 28.5248 36.8761 28.4239C36.7874 28.3231 36.6661 28.2567 36.5334 28.2364L35.3576 28.0545C35.2788 27.8242 35.1879 27.6 35.0849 27.3818C35.0243 27.2545 34.9637 27.1333 34.9031 27.0182L35.5515 26.0364C35.6259 25.9252 35.6587 25.7914 35.6443 25.6584C35.6299 25.5254 35.5692 25.4018 35.4728 25.3091L33.3334 23.2667C33.2365 23.1733 33.1098 23.1172 32.9756 23.1084C32.8413 23.0995 32.7083 23.1384 32.6 23.2182L31.6485 23.9151C31.3109 23.751 30.9602 23.6152 30.6 23.5091L30.3637 22.3394C30.3379 22.2107 30.2682 22.0949 30.1665 22.012C30.0648 21.9291 29.9373 21.8841 29.8061 21.8848H28.9212V4.82424C28.9212 2.79393 27.2667 1.14545 25.2364 1.14545H6.59397C4.56366 1.14545 2.90912 2.79393 2.90912 4.82424V35.1636C2.90912 37.1818 4.5576 38.8364 6.59397 38.8606H30.0546C30.3152 38.8606 30.5394 38.6848 30.6061 38.4364L30.9031 37.3091C31.2667 37.1879 31.6243 37.0303 31.9637 36.8424L32.9576 37.5091C33.1879 37.6606 33.497 37.6303 33.6909 37.4303L35.7334 35.297C35.8267 35.2001 35.8828 35.0734 35.8917 34.9392C35.9005 34.8049 35.8616 34.6719 35.7818 34.5636L35.0728 33.6061C35.2364 33.2667 35.3697 32.9151 35.4728 32.5636L36.6303 32.3333C36.9031 32.2788 37.097 32.0364 37.0909 31.7576L37.0182 28.7879ZM26.8485 21.8848C26.5637 21.8848 26.3273 22.0909 26.2849 22.3758L26.1031 23.6C25.7515 23.7212 25.4122 23.8727 25.0788 24.0485L24.0909 23.3879C23.9786 23.3138 23.8439 23.2811 23.7101 23.2955C23.5763 23.3099 23.4517 23.3704 23.3576 23.4667L21.3212 25.6C21.2279 25.6968 21.1718 25.8236 21.1629 25.9578C21.1541 26.092 21.193 26.225 21.2728 26.3333L21.9758 27.2848C21.8182 27.6182 21.6788 27.9697 21.5697 28.3333L20.4121 28.5636C20.1394 28.6182 19.9455 28.8606 19.9515 29.1394L20.0182 31.8545H4.05457V8.1212H27.7818V21.8909H26.8485V21.8848ZM6.59397 2.28484H25.2364C26.6364 2.28484 27.7758 3.42423 27.7758 4.81817V6.96969H4.05457V4.82424C4.05457 3.42424 5.19397 2.28484 6.59397 2.28484ZM4.05457 35.1576V33H21.7576C21.8728 33.297 21.994 33.5818 22.1455 33.8545L21.4909 34.8424C21.3394 35.0727 21.3697 35.3818 21.5697 35.5697L23.7091 37.6121C23.7455 37.6485 23.7879 37.6667 23.8303 37.6909H6.59397C6.57579 37.6909 6.5576 37.703 6.53942 37.703C5.16366 37.6606 4.05457 36.5333 4.05457 35.1576ZM25.3212 37.7151C25.2909 37.7091 25.2667 37.697 25.2364 37.697H24.3818C24.4061 37.6848 24.4243 37.6788 24.4485 37.6667L24.5818 37.5697C24.6061 37.5576 24.6243 37.5455 24.6485 37.5273L25.4 36.9697C25.7334 37.1273 26.0728 37.2606 26.4182 37.3697L26.4606 37.7151H25.3212ZM34.897 31.497C34.7892 31.519 34.6899 31.5711 34.6105 31.6472C34.5311 31.7234 34.4749 31.8205 34.4485 31.9273C34.3334 32.4182 34.1455 32.9091 33.8909 33.3818C33.8408 33.4767 33.8182 33.5838 33.8257 33.6909C33.8332 33.798 33.8705 33.9009 33.9334 33.9879L34.5637 34.8424L33.1879 36.2848L32.3031 35.6909C32.2121 35.6297 32.1054 35.5961 31.9958 35.5939C31.8861 35.5918 31.7782 35.6212 31.6849 35.6788C31.2303 35.9576 30.7576 36.1636 30.2667 36.3091C30.0728 36.3636 29.9212 36.5212 29.8728 36.7151L29.6122 37.7212H27.6061L27.5031 36.8606C27.4884 36.7452 27.4396 36.6368 27.363 36.5494C27.2863 36.4619 27.1852 36.3993 27.0728 36.3697C26.5697 36.2485 26.0788 36.0606 25.6182 35.8061C25.5231 35.753 25.4145 35.7288 25.3058 35.7363C25.1972 35.7439 25.093 35.7828 25.0061 35.8485L24.1576 36.4727L22.7091 35.0848L23.297 34.2C23.4182 34.0121 23.4243 33.7758 23.3091 33.5879C23.0383 33.1445 22.8264 32.6678 22.6788 32.1697C22.6182 31.9576 22.4364 31.8 22.2182 31.7697L21.1637 31.6061L21.1152 29.6061L22.1515 29.4C22.3697 29.3576 22.5394 29.1939 22.594 28.9758C22.7273 28.4545 22.9152 27.9636 23.1576 27.5212C23.2667 27.3273 23.2485 27.0848 23.1152 26.903L22.4849 26.0545L23.8606 24.6121L24.7455 25.2061C24.9334 25.3273 25.1697 25.3333 25.3576 25.2182C25.8 24.9515 26.2788 24.7394 26.7818 24.5939C26.994 24.5333 27.1515 24.3515 27.1879 24.1273L27.3394 23.0303H29.3334L29.5455 24.0788C29.5879 24.2909 29.7637 24.4667 29.9758 24.5212L30.0728 24.5515C30.5455 24.6788 31 24.8545 31.4243 25.0909C31.6182 25.2 31.8606 25.1818 32.0364 25.0485L32.8849 24.4242L34.3334 25.8061L33.7515 26.6848C33.6303 26.8727 33.6243 27.1151 33.7455 27.303C34.0164 27.7455 34.2264 28.2226 34.3697 28.7212C34.4303 28.9333 34.6122 29.0909 34.8303 29.1273L35.8849 29.2909L35.9334 31.2909L34.897 31.497Z" fill="#22C55E"/>
<path d="M17.8182 9.94543C17.6849 9.94543 17.5697 9.98785 17.4788 10.0606C17.3879 10.1333 17.3212 10.2242 17.2849 10.3333L13.3152 21.7272C13.2909 21.8 13.2788 21.8666 13.2788 21.9272C13.2788 22.0848 13.3273 22.2121 13.4364 22.3272C13.5394 22.4363 13.6788 22.4909 13.8425 22.4909C13.9758 22.4909 14.0909 22.4545 14.1879 22.3818C14.2779 22.3118 14.3453 22.217 14.3819 22.1091L18.3455 10.7151C18.388 10.615 18.3997 10.5044 18.3792 10.3976C18.3587 10.2908 18.3069 10.1924 18.2303 10.1151C18.177 10.06 18.1129 10.0165 18.042 9.98731C17.9711 9.95811 17.8949 9.94385 17.8182 9.94543ZM23.4606 15.3757L19.1758 13.4485C19.0719 13.4079 18.9586 13.3978 18.8491 13.4193C18.7396 13.4407 18.6385 13.4929 18.5576 13.5697C18.4641 13.6609 18.4065 13.7827 18.3953 13.9129C18.3842 14.0431 18.4203 14.173 18.497 14.2788C18.5637 14.3757 18.6546 14.4424 18.7576 14.4848L22.3637 16.0909L18.7576 17.6969C18.6546 17.7394 18.5637 17.8121 18.497 17.903C18.4206 18.01 18.3847 18.1407 18.3958 18.2717C18.4069 18.4027 18.4643 18.5255 18.5576 18.6182C18.6606 18.7212 18.8 18.7757 18.9576 18.7757C19.0364 18.7757 19.1091 18.7636 19.1819 18.7333L23.4728 16.806C23.6122 16.7394 23.7212 16.6485 23.8061 16.5333C23.8909 16.4182 23.9334 16.2848 23.9334 16.1333V16.0485C23.9334 15.8969 23.8909 15.7636 23.8061 15.6485C23.7152 15.5333 23.6061 15.4424 23.4606 15.3757ZM8.36973 16.8121L12.6546 18.7333H12.6667C12.7394 18.7636 12.8061 18.7757 12.8849 18.7757C13.0425 18.7757 13.1697 18.7272 13.2788 18.6182C13.3879 18.5091 13.4425 18.3757 13.4425 18.2182C13.4425 18.1091 13.4061 17.9939 13.3394 17.9091C13.2667 17.8121 13.1819 17.7454 13.0788 17.6969L9.4667 16.0909L13.0728 14.4909C13.1794 14.4487 13.2704 14.3746 13.3334 14.2788C13.4061 14.1818 13.4364 14.0788 13.4364 13.9636C13.4392 13.89 13.4261 13.8167 13.3978 13.7487C13.3696 13.6807 13.3269 13.6196 13.2728 13.5697C13.1152 13.4121 12.9031 13.3576 12.6546 13.4485L8.36973 15.3757C8.23034 15.4424 8.12124 15.5333 8.0364 15.6485C7.95155 15.7697 7.90912 15.8969 7.90912 16.0485V16.1333C7.90912 16.2788 7.95155 16.4121 8.0364 16.5333C8.11518 16.6485 8.23034 16.7394 8.36973 16.8121ZM17.7697 25.0242H6.82427C6.67318 25.0242 6.52828 25.0842 6.42144 25.1911C6.3146 25.2979 6.25458 25.4428 6.25458 25.5939C6.25458 25.745 6.3146 25.8899 6.42144 25.9968C6.52828 26.1036 6.67318 26.1636 6.82427 26.1636H17.7697C17.9208 26.1636 18.0657 26.1036 18.1726 25.9968C18.2794 25.8899 18.3394 25.745 18.3394 25.5939C18.3394 25.4428 18.2794 25.2979 18.1726 25.1911C18.0657 25.0842 17.9208 25.0242 17.7697 25.0242ZM13.4364 28.103H6.83034C6.67924 28.103 6.53434 28.163 6.4275 28.2699C6.32066 28.3767 6.26064 28.5216 6.26064 28.6727C6.26064 28.8238 6.32066 28.9687 6.4275 29.0755C6.53434 29.1824 6.67924 29.2424 6.83034 29.2424H13.4364C13.5875 29.2424 13.7324 29.1824 13.8392 29.0755C13.9461 28.9687 14.0061 28.8238 14.0061 28.6727C14.0061 28.5216 13.9461 28.3767 13.8392 28.2699C13.7324 28.163 13.5875 28.103 13.4364 28.103Z" fill="#22C55E"/>
</svg>
