<svg width="40" height="40" viewBox="0 0 40 40" fill="none" xmlns="http://www.w3.org/2000/svg">
<g clip-path="url(#clip0_335_3642)">
<path d="M20 40C22.1539 40 23.9062 38.2477 23.9062 36.0937V35.2341C25.6869 34.8709 27.0312 33.2928 27.0312 31.4062V27.6969C27.0312 25.9833 27.7664 24.133 28.8195 23.1977C31.655 20.6787 33.2809 17.0645 33.2809 13.2816C33.2809 5.42297 26.4761 -0.800159 18.4875 0.0839035C12.634 0.732107 7.78591 5.36015 6.88411 11.1575C6.18192 15.669 7.77982 20.1627 11.1578 23.1775C12.2242 24.1291 12.9687 25.9873 12.9687 27.6969V31.4062C12.9687 33.2928 14.3127 34.8709 16.0937 35.2341V36.0937C16.0937 38.2519 17.8418 40 20 40ZM20 38.4375C18.7054 38.4375 17.6562 37.3883 17.6562 36.0937V35.3125H22.3437V36.0937C22.3437 37.3862 21.2922 38.4375 20 38.4375ZM12.1982 22.0117C9.21716 19.3512 7.80786 15.3833 8.42802 11.3977C9.21935 6.3107 13.5223 2.20578 18.659 1.63695C25.827 0.843513 31.7184 6.46242 31.7184 13.2815C31.7184 16.6184 30.2835 19.8068 27.7817 22.0294C26.3736 23.2803 25.6509 25.3314 25.4989 27.0312H23.9059V14.8441C23.9059 14.7219 23.8733 14.5944 23.8235 14.4946L20.6985 8.24461C20.6336 8.11488 20.5338 8.00578 20.4104 7.92954C20.2869 7.8533 20.1447 7.81292 19.9997 7.81292C19.8546 7.81292 19.7124 7.8533 19.589 7.92954C19.4655 8.00578 19.3658 8.11488 19.3008 8.24461L16.1761 14.4946C16.1229 14.6035 16.0946 14.7229 16.0934 14.8441V27.0312H14.5001C14.3469 25.3338 13.6179 23.2785 12.1982 22.0117ZM20.7812 27.0312V21.0937C20.7812 20.6625 20.4312 20.3125 20 20.3125C19.5685 20.3125 19.2187 20.6625 19.2187 21.0937V27.0312H17.6562V15.6253H22.3437V27.0312H20.7812ZM18.139 14.0628L20 10.3409L21.8609 14.0628H18.139ZM14.6655 32.1875H16.875C17.3062 32.1875 17.6562 31.8377 17.6562 31.4062C17.6562 30.975 17.3062 30.625 16.875 30.625H14.5312V28.5937H25.4687V30.625H23.125C22.6935 30.625 22.3437 30.975 22.3437 31.4062C22.3437 31.8377 22.6935 32.1869 23.125 32.1869H25.3341C25.0115 33.0961 24.1433 33.75 23.125 33.75H16.875C15.8562 33.75 14.9881 33.0969 14.6655 32.1875Z" fill="#F43F5E"/>
<path d="M20 17.1878C19.5688 17.1878 19.2188 17.5375 19.2188 17.969C19.2188 18.4003 19.5688 18.75 20 18.75C20.4312 18.75 20.7812 18.4002 20.7812 17.969C20.7812 17.5375 20.4312 17.1878 20 17.1878ZM0 13.2815C0 13.7128 0.349766 14.0628 0.78125 14.0628H4.375C4.80648 14.0628 5.15625 13.7128 5.15625 13.2815C5.15625 12.85 4.80648 12.5003 4.375 12.5003H0.78125C0.349766 12.5003 0 12.85 0 13.2815ZM39.2184 12.5003H35.6247C35.1934 12.5003 34.8434 12.85 34.8434 13.2815C34.8434 13.7128 35.1934 14.0628 35.6247 14.0628H39.2184C39.65 14.0628 39.9997 13.7128 39.9997 13.2815C39.9997 12.85 39.65 12.5003 39.2184 12.5003ZM3.085 23.0468C3.30172 23.4218 3.77992 23.5479 4.15219 23.3328L6.85852 21.7703C7.23234 21.5545 7.36023 21.0769 7.14445 20.7031C6.92875 20.3296 6.45109 20.2014 6.07727 20.4172L3.37102 21.9797C2.99742 22.1957 2.86922 22.6733 3.085 23.0468ZM36.9147 3.51591C36.6989 3.1424 36.2209 3.01419 35.8475 3.22997L33.1412 4.79247C32.7673 5.00818 32.6395 5.48583 32.8552 5.85966C33.0716 6.23443 33.5498 6.36075 33.9224 6.1456L36.6287 4.5831C37.0023 4.36732 37.1305 3.88943 36.9146 3.51591H36.9147ZM6.85859 4.79247L4.15219 3.22997C3.77875 3.01419 3.30078 3.1424 3.085 3.51591C2.86922 3.88943 2.9975 4.36732 3.37094 4.5831L6.07727 6.1456C6.45016 6.36075 6.92844 6.23411 7.14445 5.85966C7.36023 5.48583 7.23242 5.00818 6.85859 4.79247ZM36.9147 23.0468C37.1305 22.6733 37.0022 22.1957 36.6287 21.9797L33.9224 20.4172C33.5486 20.2017 33.071 20.3296 32.8552 20.7031C32.6395 21.0769 32.7673 21.5545 33.1412 21.7703L35.8474 23.3328C36.2204 23.5483 36.6983 23.4213 36.9146 23.0468H36.9147Z" fill="#F43F5E"/>
</g>
<defs>
<clipPath id="clip0_335_3642">
<rect width="40" height="40" fill="white"/>
</clipPath>
</defs>
</svg>
