<svg width="40" height="40" viewBox="0 0 40 40" fill="none" xmlns="http://www.w3.org/2000/svg">
<path d="M24.6319 29.172H8.51993C7.9778 29.1751 7.45092 28.9927 7.02673 28.6551C6.60255 28.3175 6.30657 27.845 6.18793 27.316L5.22393 23.104C5.20415 23.0163 5.20433 22.9253 5.22446 22.8377C5.24458 22.7501 5.28414 22.6681 5.34021 22.5978C5.39627 22.5275 5.46741 22.4708 5.54837 22.4317C5.62933 22.3926 5.71803 22.3722 5.80793 22.372H15.5719C15.7001 22.373 15.827 22.3468 15.9442 22.2951C16.0614 22.2434 16.1663 22.1673 16.2519 22.072C16.3352 21.9817 16.3982 21.8747 16.4368 21.7582C16.4754 21.6416 16.4888 21.5181 16.4759 21.396L15.5999 12.928C15.5903 12.8449 15.599 12.7607 15.6252 12.6812C15.6515 12.6018 15.6947 12.529 15.7519 12.468C15.8075 12.4051 15.8759 12.3547 15.9524 12.3202C16.029 12.2858 16.112 12.268 16.1959 12.268H28.7999C28.8921 12.2679 28.983 12.289 29.0657 12.3298C29.1483 12.3705 29.2205 12.4297 29.2766 12.5028C29.3327 12.5759 29.3712 12.6609 29.3891 12.7513C29.407 12.8417 29.4039 12.935 29.3799 13.024L25.1999 28.724C25.1669 28.8503 25.0935 28.9624 24.991 29.0432C24.8885 29.1241 24.7625 29.1693 24.6319 29.172ZM6.55993 23.572L7.35993 27.048C7.42194 27.3104 7.57051 27.5443 7.78168 27.7119C7.99285 27.8795 8.25431 27.9711 8.52393 27.972H24.1719L28.0239 13.468H16.8639L17.6639 21.272C17.6939 21.5605 17.6628 21.8522 17.5725 22.1279C17.4822 22.4036 17.3348 22.6571 17.1399 22.872C16.9417 23.0925 16.6993 23.2688 16.4285 23.3894C16.1576 23.51 15.8644 23.5722 15.5679 23.572H6.55993Z" fill="#0EA5E9"/>
<path d="M24.6322 29.172C24.5796 29.1713 24.5273 29.1646 24.4762 29.152C24.3982 29.1317 24.3251 29.096 24.2613 29.0468C24.1974 28.9977 24.1441 28.9362 24.1046 28.866C24.065 28.7959 24.04 28.7184 24.031 28.6384C24.022 28.5583 24.0292 28.4772 24.0522 28.4L28.9442 10C29.0748 9.5125 29.3629 9.08183 29.7637 8.77508C30.1645 8.46834 30.6555 8.30272 31.1602 8.30402H32.7322C32.8913 8.30402 33.0439 8.36724 33.1565 8.47976C33.269 8.59228 33.3322 8.74489 33.3322 8.90402C33.3322 9.06315 33.269 9.21577 33.1565 9.32829C33.0439 9.44081 32.8913 9.50402 32.7322 9.50402H31.1602C30.9207 9.50253 30.6873 9.58012 30.4964 9.72477C30.3055 9.86941 30.1676 10.073 30.1042 10.304L25.2002 28.724C25.1666 28.85 25.0931 28.9617 24.9907 29.0425C24.8883 29.1232 24.7625 29.1687 24.6322 29.172Z" fill="#0EA5E9"/>
<path d="M26.8 21.004H16.976C16.8309 20.9989 16.6926 20.9414 16.5867 20.8421C16.4807 20.7428 16.4144 20.6085 16.4 20.464L15.6 12.928C15.5904 12.8449 15.599 12.7607 15.6253 12.6812C15.6515 12.6018 15.6948 12.529 15.752 12.468C15.8076 12.4051 15.8759 12.3547 15.9525 12.3202C16.029 12.2858 16.112 12.268 16.196 12.268H28.8C28.8921 12.2679 28.9831 12.289 29.0657 12.3298C29.1484 12.3705 29.2206 12.4297 29.2767 12.5028C29.3328 12.5759 29.3713 12.6609 29.3892 12.7513C29.4071 12.8417 29.4039 12.935 29.38 13.024L27.38 20.56C27.345 20.6872 27.2694 20.7994 27.1647 20.8796C27.06 20.9598 26.9319 21.0035 26.8 21.004ZM17.516 19.804H26.34L28.024 13.468H16.864L17.516 19.804Z" fill="#0EA5E9"/>
<path d="M19.448 29.172H12.624C12.4739 29.1725 12.3291 29.1163 12.2186 29.0147C12.1082 28.9132 12.0401 28.7736 12.028 28.624L11.528 23.024C11.5203 22.9416 11.5298 22.8585 11.556 22.78C11.5821 22.7015 11.6244 22.6293 11.68 22.568C11.7366 22.5066 11.8052 22.4575 11.8816 22.4238C11.958 22.3901 12.0405 22.3724 12.124 22.372H15.572C15.7001 22.3731 15.827 22.3468 15.9442 22.2951C16.0615 22.2434 16.1664 22.1673 16.252 22.072C16.3352 21.9817 16.3982 21.8747 16.4369 21.7582C16.4755 21.6416 16.4888 21.5181 16.476 21.396L15.6 12.928C15.5904 12.8449 15.599 12.7607 15.6253 12.6812C15.6515 12.6018 15.6948 12.529 15.752 12.468C15.8076 12.4051 15.8759 12.3547 15.9525 12.3202C16.029 12.2858 16.112 12.268 16.196 12.268H21.068C21.1519 12.268 21.2349 12.2858 21.3115 12.3202C21.388 12.3547 21.4564 12.4051 21.512 12.468C21.5692 12.529 21.6124 12.6018 21.6387 12.6812C21.6649 12.7607 21.6736 12.8449 21.664 12.928L20.064 28.632C20.0489 28.7833 19.9768 28.9232 19.8625 29.0235C19.7481 29.1237 19.6 29.1768 19.448 29.172ZM13.172 27.972H18.908L20.4 13.468H16.864L17.664 21.272C17.694 21.5605 17.6628 21.8522 17.5725 22.1279C17.4823 22.4036 17.3349 22.6571 17.14 22.872C16.9418 23.0925 16.6994 23.2688 16.4285 23.3894C16.1577 23.51 15.8645 23.5722 15.568 23.572H12.8L13.172 27.972Z" fill="#0EA5E9"/>
<path d="M24.848 33.556H6.79995C6.64082 33.556 6.48821 33.4928 6.37569 33.3803C6.26317 33.2677 6.19995 33.1151 6.19995 32.956C6.19995 32.7969 6.26317 32.6443 6.37569 32.5317C6.48821 32.4192 6.64082 32.356 6.79995 32.356H24.848C25.2723 32.356 25.6793 32.1874 25.9793 31.8874C26.2794 31.5873 26.448 31.1803 26.448 30.756C26.448 30.3316 26.2794 29.9247 25.9793 29.6246C25.6793 29.3246 25.2723 29.156 24.848 29.156H10.848C10.6888 29.156 10.5362 29.0928 10.4237 28.9803C10.3112 28.8677 10.248 28.7151 10.248 28.556C10.248 28.3969 10.3112 28.2443 10.4237 28.1317C10.5362 28.0192 10.6888 27.956 10.848 27.956H24.848C25.5906 27.956 26.3027 28.251 26.8279 28.7761C27.353 29.3012 27.648 30.0134 27.648 30.756C27.648 31.4986 27.353 32.2108 26.8279 32.7359C26.3027 33.261 25.5906 33.556 24.848 33.556Z" fill="#0EA5E9"/>
<path d="M21.116 38.8C20.4789 38.7968 19.8572 38.6048 19.3293 38.2482C18.8015 37.8915 18.3913 37.3863 18.1506 36.7965C17.91 36.2067 17.8497 35.5588 17.9774 34.9347C18.105 34.3106 18.4149 33.7384 18.8679 33.2905C19.3209 32.8426 19.8965 32.539 20.522 32.4184C21.1475 32.2977 21.7947 32.3652 22.3818 32.6125C22.9689 32.8597 23.4694 33.2755 23.8201 33.8073C24.1708 34.3391 24.3559 34.963 24.352 35.6C24.3435 36.4523 23.9987 37.2668 23.3927 37.8661C22.7866 38.4655 21.9683 38.8011 21.116 38.8ZM21.116 33.56C20.7163 33.5632 20.3265 33.6849 19.9961 33.9096C19.6656 34.1344 19.4092 34.4522 19.2594 34.8227C19.1095 35.1932 19.073 35.5999 19.1544 35.9912C19.2357 36.3825 19.4314 36.7409 19.7165 37.021C20.0016 37.3011 20.3634 37.4903 20.7561 37.5647C21.1488 37.639 21.5548 37.5953 21.9226 37.4388C22.2904 37.2824 22.6035 37.0204 22.8224 36.686C23.0412 36.3515 23.1559 35.9597 23.152 35.56C23.1446 35.0253 22.9267 34.515 22.5456 34.1398C22.1644 33.7647 21.6508 33.5549 21.116 33.556V33.56ZM11.176 38.8C10.5389 38.7968 9.91718 38.6048 9.38935 38.2482C8.86151 37.8915 8.45131 37.3863 8.21065 36.7965C7.96999 36.2067 7.90968 35.5588 8.03735 34.9347C8.16503 34.3106 8.47495 33.7384 8.92791 33.2905C9.38086 32.8426 9.9565 32.539 10.582 32.4184C11.2075 32.2977 11.8547 32.3652 12.4418 32.6125C13.0289 32.8597 13.5294 33.2755 13.8801 33.8073C14.2308 34.3391 14.4159 34.963 14.412 35.6C14.4035 36.4523 14.0587 37.2668 13.4527 37.8661C12.8466 38.4655 12.0283 38.8011 11.176 38.8ZM11.176 33.56C10.7763 33.5632 10.3865 33.6849 10.0561 33.9096C9.72557 34.1344 9.46919 34.4522 9.31936 34.8227C9.16953 35.1932 9.13299 35.5999 9.21437 35.9912C9.29574 36.3825 9.49137 36.7409 9.7765 37.021C10.0616 37.3011 10.4234 37.4903 10.8161 37.5647C11.2088 37.639 11.6148 37.5953 11.9826 37.4388C12.3504 37.2824 12.6635 37.0204 12.8824 36.686C13.1012 36.3515 13.2159 35.9597 13.212 35.56C13.2056 35.0249 12.9881 34.514 12.6067 34.1387C12.2253 33.7633 11.7111 33.5539 11.176 33.556V33.56ZM37.488 11.2H34.62C34.3096 11.213 33.9998 11.163 33.7092 11.0531C33.4186 10.9433 33.1533 10.7758 32.9291 10.5608C32.7049 10.3457 32.5265 10.0876 32.4047 9.80184C32.2828 9.5161 32.22 9.20866 32.22 8.89801C32.22 8.58737 32.2828 8.27993 32.4047 7.99418C32.5265 7.70844 32.7049 7.45029 32.9291 7.23525C33.1533 7.02022 33.4186 6.85274 33.7092 6.74288C33.9998 6.63303 34.3096 6.58307 34.62 6.59601H37.488C37.7983 6.58307 38.1081 6.63303 38.3987 6.74288C38.6893 6.85274 38.9546 7.02022 39.1788 7.23525C39.403 7.45029 39.5814 7.70844 39.7033 7.99418C39.8251 8.27993 39.8879 8.58737 39.8879 8.89801C39.8879 9.20866 39.8251 9.5161 39.7033 9.80184C39.5814 10.0876 39.403 10.3457 39.1788 10.5608C38.9546 10.7758 38.6893 10.9433 38.3987 11.0531C38.1081 11.163 37.7983 11.213 37.488 11.2ZM34.62 7.79601C34.4697 7.78695 34.3191 7.80874 34.1775 7.86002C34.0359 7.9113 33.9064 7.99101 33.7967 8.09423C33.6871 8.19745 33.5998 8.322 33.54 8.46023C33.4803 8.59846 33.4495 8.74744 33.4495 8.89801C33.4495 9.04859 33.4803 9.19757 33.54 9.3358C33.5998 9.47403 33.6871 9.59858 33.7967 9.7018C33.9064 9.80502 34.0359 9.88472 34.1775 9.93601C34.3191 9.98729 34.4697 10.0091 34.62 10H37.488C37.6383 10.0091 37.7888 9.98729 37.9304 9.93601C38.072 9.88472 38.2015 9.80502 38.3112 9.7018C38.4208 9.59858 38.5082 9.47403 38.5679 9.3358C38.6276 9.19757 38.6584 9.04859 38.6584 8.89801C38.6584 8.74744 38.6276 8.59846 38.5679 8.46023C38.5082 8.322 38.4208 8.19745 38.3112 8.09423C38.2015 7.99101 38.072 7.9113 37.9304 7.86002C37.7888 7.80874 37.6383 7.78695 37.488 7.79601H34.62ZM15.572 23.572H2.30796C2.01155 23.5717 1.71851 23.5093 1.44774 23.3887C1.17697 23.2681 0.93449 23.0921 0.735956 22.872C0.54129 22.657 0.394037 22.4034 0.303761 22.1278C0.213485 21.8521 0.182206 21.5605 0.211956 21.272L1.55596 8.24801C1.60958 7.73036 1.85387 7.25116 2.24128 6.90367C2.6287 6.55618 3.13154 6.36524 3.65196 6.36801H14.228C14.7478 6.36514 15.2501 6.55552 15.6374 6.90219C16.0247 7.24886 16.2694 7.72708 16.324 8.24401L17.668 21.268C17.6977 21.5565 17.6664 21.8481 17.5762 22.1238C17.4859 22.3994 17.3386 22.653 17.144 22.868C16.9461 23.0892 16.7038 23.2662 16.433 23.3875C16.1621 23.5089 15.8687 23.5717 15.572 23.572ZM3.65196 7.57201C3.42893 7.56964 3.21297 7.65017 3.04594 7.79798C2.87892 7.94579 2.77273 8.15035 2.74796 8.37201L1.40396 21.392C1.39032 21.5142 1.40327 21.6378 1.44194 21.7545C1.48061 21.8712 1.54406 21.9782 1.62796 22.068C1.71369 22.1635 1.81852 22.2399 1.93566 22.2923C2.0528 22.3446 2.17964 22.3718 2.30796 22.372H15.572C15.7001 22.3731 15.827 22.3468 15.9442 22.2951C16.0614 22.2434 16.1663 22.1674 16.252 22.072C16.3352 21.9817 16.3982 21.8747 16.4368 21.7582C16.4755 21.6416 16.4888 21.5181 16.476 21.396L15.132 8.36801C15.1072 8.14635 15.001 7.94179 14.834 7.79398C14.6669 7.64617 14.451 7.56564 14.228 7.56801L3.65196 7.57201Z" fill="#0EA5E9"/>
<path d="M12.56 10.8C12.4008 10.8 12.2482 10.7368 12.1357 10.6243C12.0232 10.5117 11.96 10.3591 11.96 10.2V5.384C11.96 4.58305 11.6418 3.8149 11.0754 3.24854C10.5091 2.68218 9.74092 2.364 8.93997 2.364C8.13902 2.364 7.37087 2.68218 6.80451 3.24854C6.23815 3.8149 5.91997 4.58305 5.91997 5.384V10.216C5.91997 10.3751 5.85676 10.5277 5.74423 10.6403C5.63171 10.7528 5.4791 10.816 5.31997 10.816C5.16084 10.816 5.00823 10.7528 4.89571 10.6403C4.78318 10.5277 4.71997 10.3751 4.71997 10.216V5.384C4.71997 4.26479 5.16458 3.19141 5.95598 2.40001C6.74738 1.60861 7.82076 1.164 8.93997 1.164C10.0592 1.164 11.1326 1.60861 11.924 2.40001C12.7154 3.19141 13.16 4.26479 13.16 5.384V10.216C13.1558 10.3723 13.0908 10.5209 12.9787 10.63C12.8666 10.739 12.7164 10.8001 12.56 10.8ZM6.28397 19.292C6.16538 19.2919 6.04948 19.2567 5.9509 19.1907C5.85233 19.1248 5.77551 19.0311 5.73014 18.9215C5.68477 18.812 5.67289 18.6914 5.696 18.5751C5.71911 18.4588 5.77617 18.3519 5.85997 18.268L11.148 13.008C11.2604 12.895 11.4132 12.8313 11.5726 12.831C11.732 12.8306 11.885 12.8935 11.998 13.006C12.111 13.1185 12.1746 13.2712 12.175 13.4306C12.1754 13.59 12.1124 13.743 12 13.856L6.70797 19.116C6.59483 19.2275 6.44279 19.2906 6.28397 19.292ZM6.93997 15.84C6.47703 15.8358 6.03448 15.6489 5.70862 15.3201C5.38276 14.9912 5.19995 14.547 5.19997 14.084C5.19886 13.8533 5.24395 13.6248 5.33257 13.4118C5.42119 13.1989 5.55155 13.0058 5.71597 12.844C6.04719 12.515 6.49511 12.3303 6.96197 12.3303C7.42884 12.3303 7.87675 12.515 8.20797 12.844C8.45336 13.0901 8.62023 13.4034 8.68745 13.7443C8.75467 14.0852 8.71923 14.4385 8.58561 14.7592C8.45198 15.08 8.22619 15.3539 7.93681 15.5463C7.64743 15.7387 7.30747 15.8409 6.95997 15.84H6.93997ZM6.93997 13.532C6.86576 13.5315 6.79218 13.5457 6.72351 13.5738C6.65484 13.602 6.59245 13.6435 6.53997 13.696C6.48766 13.7484 6.44651 13.8109 6.41901 13.8796C6.39151 13.9484 6.37823 14.022 6.37997 14.096C6.37899 14.1703 6.393 14.244 6.42118 14.3127C6.44936 14.3815 6.49113 14.4438 6.54397 14.496C6.59639 14.5487 6.65871 14.5906 6.72736 14.6191C6.79601 14.6477 6.86962 14.6624 6.94397 14.6624C7.01832 14.6624 7.09194 14.6477 7.16058 14.6191C7.22923 14.5906 7.29156 14.5487 7.34397 14.496C7.39735 14.444 7.43974 14.3818 7.4686 14.3131C7.49746 14.2443 7.51221 14.1705 7.51197 14.096C7.51342 14.0217 7.49962 13.9478 7.47141 13.879C7.4432 13.8102 7.40119 13.7479 7.34797 13.696C7.29455 13.6426 7.23086 13.6005 7.16074 13.5723C7.09062 13.5441 7.01553 13.5304 6.93997 13.532ZM10.912 19.796C10.6807 19.7965 10.4516 19.7514 10.2378 19.6631C10.0241 19.5748 9.82982 19.4452 9.66629 19.2817C9.50275 19.1181 9.37313 18.9239 9.28487 18.7101C9.19661 18.4964 9.15144 18.2673 9.15197 18.036C9.15228 17.8061 9.19803 17.5786 9.28659 17.3665C9.37514 17.1544 9.50475 16.9619 9.66797 16.8C9.99919 16.471 10.4471 16.2863 10.914 16.2863C11.3808 16.2863 11.8288 16.471 12.16 16.8C12.4048 17.0466 12.5711 17.3601 12.638 17.7011C12.7049 18.042 12.6694 18.3952 12.536 18.716C12.4025 19.0368 12.1771 19.311 11.8881 19.5039C11.5991 19.6968 11.2594 19.7998 10.912 19.8V19.796ZM10.912 17.484C10.8376 17.4825 10.7638 17.4964 10.695 17.5246C10.6262 17.5528 10.5639 17.5948 10.512 17.648C10.4584 17.6996 10.4161 17.7619 10.3879 17.8307C10.3596 17.8996 10.346 17.9736 10.348 18.048C10.347 18.1223 10.361 18.196 10.3892 18.2647C10.4174 18.3335 10.4591 18.3958 10.512 18.448C10.6184 18.5535 10.7621 18.6127 10.912 18.6127C11.0618 18.6127 11.2056 18.5535 11.312 18.448C11.3662 18.3964 11.4094 18.3344 11.4389 18.2656C11.4684 18.1969 11.4836 18.1228 11.4836 18.048C11.4836 17.9732 11.4684 17.8991 11.4389 17.8304C11.4094 17.7616 11.3662 17.6996 11.312 17.648C11.2599 17.595 11.1976 17.5531 11.1288 17.5249C11.0601 17.4967 10.9863 17.4828 10.912 17.484Z" fill="#0EA5E9"/>
</svg>
