<svg width="40" height="40" viewBox="0 0 40 40" fill="none" xmlns="http://www.w3.org/2000/svg">
<g clip-path="url(#clip0_336_3758)">
<path d="M12.4853 17.7495V16.5754C9.35599 16.5754 6.81015 14.0295 6.81015 10.9002C6.81015 7.7709 9.35599 5.22507 12.4853 5.22507V4.0509C8.70855 4.0509 5.63599 7.12347 5.63599 10.9002C5.63599 14.677 8.70855 17.7495 12.4853 17.7495Z" fill="#F59E0B"/>
<path d="M17.4951 17.7495V16.5754C14.3658 16.5754 11.8199 14.0295 11.8199 10.9002C11.8199 7.7709 14.3658 5.22507 17.4951 5.22507V4.0509C13.7183 4.0509 10.6458 7.12347 10.6458 10.9002C10.6458 14.677 13.7183 17.7495 17.4951 17.7495Z" fill="#F59E0B"/>
<path d="M22.5048 17.7495V16.5754C19.3755 16.5754 16.8297 14.0295 16.8297 10.9002C16.8297 7.7709 19.3755 5.22507 22.5048 5.22507V4.0509C18.7281 4.0509 15.6555 7.12347 15.6555 10.9002C15.6555 14.677 18.7281 17.7495 22.5048 17.7495Z" fill="#F59E0B"/>
<path d="M27.5147 17.7495C31.2914 17.7495 34.364 14.677 34.364 10.9002C34.364 7.12347 31.2914 4.0509 27.5147 4.0509C23.7379 4.0509 20.6654 7.12347 20.6654 10.9002C20.6654 14.677 23.7379 17.7495 27.5147 17.7495ZM27.5147 5.22507C30.644 5.22507 33.1898 7.7709 33.1898 10.9002C33.1898 14.0295 30.644 16.5754 27.5147 16.5754C24.3854 16.5754 21.8395 14.0295 21.8395 10.9002C21.8395 7.7709 24.3854 5.22507 27.5147 5.22507ZM0 34.0313H3.7182V32.8572H1.17417V31.5264H7.51468V32.8572H4.97065V34.0313H8.68885V30.3523H0V34.0313ZM0 29.0215H8.68885V25.3425H0V29.0215ZM1.17417 26.5167H7.51468V27.8474H1.17417V26.5167ZM40 29.0215V25.3425H30.6067V24.294L31.8591 23.0416V19.0803H28.18V23.0416L29.4325 24.294V25.3425H10.0196V29.0215H28.1409V27.8474H11.1937V26.5167H29.4325V30.3523H10.0196V34.0313H29.4325V35.9491H30.6067V34.0313H40V30.3523H30.6067V29.0215H40ZM29.3542 20.2544H30.6849V22.5553L30.0196 23.2207L29.3542 22.5553V20.2544ZM11.1937 32.8572V31.5264H29.4325V32.8572H11.1937ZM38.8258 31.5264V32.8572H30.6067V31.5264H38.8258ZM38.8258 26.5167V27.8474H30.6067V26.5167H38.8258Z" fill="#F59E0B"/>
<path d="M19.3738 20.9589H20.6262V22.1331H19.3738V20.9589ZM16.8689 20.9589H18.1213V22.1331H16.8689V20.9589ZM21.8787 20.9589H23.1311V22.1331H21.8787V20.9589ZM25.636 10.3131H26.8885V11.4873H25.636V10.3131ZM28.1409 10.3131H29.3934V11.4873H28.1409V10.3131Z" fill="#F59E0B"/>
</g>
<defs>
<clipPath id="clip0_336_3758">
<rect width="40" height="40" fill="white"/>
</clipPath>
</defs>
</svg>
