<svg width="24" height="25" viewBox="0 0 24 25" fill="none" xmlns="http://www.w3.org/2000/svg">
<path d="M22.9048 2.66316C22.8887 2.51766 22.8235 2.38199 22.72 2.27848C22.6164 2.17497 22.4808 2.10978 22.3353 2.09365C17.2347 1.52715 12.8869 3.56748 9.34021 7.21833C8.32529 8.2632 7.4449 9.36913 6.69346 10.4365C5.42167 10.3848 4.01161 10.9601 3.01189 11.9599L1.18873 13.783C1.08841 13.8834 1.02401 14.014 1.00551 14.1547C0.987002 14.2954 1.01543 14.4383 1.08637 14.5611C1.15735 14.684 1.26688 14.78 1.39798 14.8343C1.52907 14.8886 1.67441 14.8981 1.81147 14.8614C2.23442 14.7478 2.92179 14.6157 3.58209 14.585C3.82345 14.5737 4.02402 14.5773 4.1907 14.59C3.78838 15.3638 3.48 16.012 3.37782 16.1743C3.30002 16.298 3.26654 16.4444 3.28285 16.5896C3.29917 16.7348 3.36432 16.8701 3.46762 16.9735L4.52251 18.0283C2.98723 20.1222 2.96188 21.1946 2.96725 21.3465C2.97851 21.6683 3.22944 21.9697 3.64504 21.9697C4.0049 21.9697 5.03697 21.817 6.91583 20.4217L8.0255 21.5313C8.12958 21.6354 8.26611 21.7006 8.41242 21.7164C8.55873 21.7321 8.70602 21.6973 8.82983 21.6178C9.00338 21.5061 9.61349 21.2107 10.3451 20.8284C10.3572 21.3737 10.2832 22.1745 10.1225 23.26C10.0313 23.8756 10.7797 24.2462 11.2159 23.8102L13.0391 21.987C13.9792 21.0469 14.5244 19.6506 14.4841 18.3407C15.6085 17.555 16.7782 16.6282 17.8704 15.5572C21.4865 12.011 23.4641 7.69601 22.9048 2.66316ZM21.6718 3.32643C21.7747 4.71621 21.6649 6.06333 21.3451 7.367C20.5511 7.11692 19.7748 6.62562 19.0737 5.92471C18.3701 5.22088 17.8778 4.44142 17.6287 3.64448C18.9318 3.32943 20.2799 3.2227 21.6718 3.32643ZM3.498 13.297L3.92331 12.8714C4.43777 12.3571 5.1068 11.9867 5.77212 11.8202C5.44884 12.3339 5.1385 12.8557 4.84142 13.385C4.41929 13.2919 3.94999 13.2746 3.498 13.297ZM4.71771 16.4006C4.85723 16.1253 5.02589 15.7802 5.3356 15.1951L6.18402 16.0437C5.86833 16.3825 5.58332 16.7042 5.3265 17.0092L4.71771 16.4006ZM7.86973 16.154C8.33938 15.6846 8.7897 15.5988 9.34915 15.5867C9.33686 16.1319 9.24946 16.5975 8.78132 17.0656C6.78026 19.0666 5.40861 19.9603 4.58833 20.3591C4.99301 19.5231 5.889 18.1348 7.86973 16.154ZM8.59466 20.2775L7.92998 19.6127C8.23347 19.3549 8.55423 19.069 8.89261 18.7521L9.79581 19.6553C9.20194 19.9724 8.95418 20.0917 8.59466 20.2775ZM12.1273 21.0754L11.6114 21.5916C11.6532 20.9664 11.6387 20.5108 11.5797 20.1593C12.0962 19.8688 12.6058 19.566 13.1079 19.2513C12.9541 19.9328 12.6086 20.5944 12.1273 21.0754ZM10.9692 19.0058L9.81356 17.8499C10.6688 16.909 10.6368 16.0023 10.6368 14.943C10.6368 14.587 10.3483 14.2985 9.99231 14.2985C9.00274 14.2985 8.05033 14.2454 7.08538 15.1219L5.98177 14.0183C8.9953 8.73401 12.4787 5.38846 16.3923 4.01079C16.7021 5.01334 17.3053 5.97928 18.1623 6.83634C19.0153 7.68948 19.9767 8.29104 20.9749 8.60205C19.5891 12.4943 16.2445 15.9754 10.9692 19.0058Z" fill="white"/>
<path d="M17.2522 7.7477C15.9955 6.49116 13.9508 6.49116 12.6943 7.7477C11.4378 9.00437 11.4378 11.0491 12.6943 12.3056C13.9508 13.5621 15.9955 13.5622 17.2522 12.3056C18.5087 11.0491 18.5087 9.00437 17.2522 7.7477H17.2522ZM16.3406 11.394C15.5867 12.148 14.3597 12.148 13.6059 11.394C12.8519 10.64 12.8519 9.41322 13.6059 8.65924C14.3597 7.90548 15.5865 7.90531 16.3406 8.65924C17.0946 9.41322 17.0946 10.64 16.3406 11.394Z" fill="white"/>
</svg>
