<svg width="24" height="25" viewBox="0 0 24 25" fill="none" xmlns="http://www.w3.org/2000/svg">
<path d="M22.1808 7.35722L12.1844 3.069C12.0783 3.02348 11.964 3 11.8486 3C11.7331 3 11.6188 3.02348 11.5127 3.069L1.51635 7.35722C1.36302 7.42297 1.23238 7.5323 1.14065 7.67165C1.04892 7.81099 1.00014 7.97421 1.00036 8.14104C1.00065 8.30786 1.04988 8.47094 1.14195 8.61006C1.23403 8.74919 1.36489 8.85824 1.51834 8.92371L11.5147 13.1835C11.6203 13.2284 11.7339 13.2516 11.8487 13.2516C11.9623 13.2516 12.0762 13.2289 12.1824 13.1835L22.1788 8.92366C22.3323 8.85832 22.4633 8.7493 22.5553 8.61015C22.6474 8.471 22.6966 8.30786 22.6967 8.14099C22.6969 7.97417 22.6482 7.81097 22.5564 7.67163C22.4647 7.5323 22.3341 7.42297 22.1808 7.35722ZM11.8487 11.4739L4.01942 8.1376L11.8487 4.77889L19.678 8.1376L11.8487 11.4739ZM22.628 16.3239C22.4426 15.8914 21.9408 15.6911 21.5094 15.8769L11.8487 20.0211L2.18799 15.8769C1.75489 15.6906 1.25479 15.8917 1.06935 16.3239C0.883608 16.7561 1.08384 17.2571 1.51635 17.4425L11.5127 21.731C11.6189 21.7765 11.7332 21.8 11.8487 21.8C11.9642 21.8 12.0785 21.7765 12.1847 21.731L22.1811 17.4425C22.6133 17.257 22.8135 16.7561 22.628 16.3239Z" fill="white"/>
<path d="M22.6286 12.0658C22.4437 11.6333 21.9434 11.4319 21.5108 11.6163L11.8484 15.7338L2.18629 11.6163C1.7532 11.4317 1.25284 11.6333 1.0685 12.0658C0.883906 12.4989 1.08524 12.9993 1.51804 13.1836L11.5144 17.4434C11.62 17.4883 11.7336 17.5115 11.8484 17.5115C11.9632 17.5115 12.0768 17.4883 12.1824 17.4434L22.1788 13.1835C22.6116 12.9992 22.8129 12.4988 22.6286 12.0658Z" fill="white"/>
</svg>
