<svg width="24" height="24" viewBox="0 0 24 24" fill="none" xmlns="http://www.w3.org/2000/svg">
<path fill-rule="evenodd" clip-rule="evenodd" d="M10.6535 2.64996C10.2214 2.64996 9.79362 2.73506 9.39445 2.9004C8.99529 3.06574 8.6326 3.30808 8.3271 3.61358C8.02159 3.91909 7.77925 4.28178 7.61391 4.68094C7.44857 5.08011 7.36347 5.50793 7.36347 5.93998C7.36347 6.37203 7.44857 6.79985 7.61391 7.19902C7.77925 7.59818 8.02159 7.96087 8.3271 8.26638C8.6326 8.57188 8.99529 8.81422 9.39445 8.97956C9.79362 9.1449 10.2214 9.23 10.6535 9.23C11.5261 9.23 12.3629 8.88337 12.9799 8.26638C13.5969 7.64938 13.9435 6.81255 13.9435 5.93998C13.9435 5.06741 13.5969 4.23058 12.9799 3.61358C12.3629 2.99659 11.5261 2.64996 10.6535 2.64996ZM5.71461 5.93998C5.71461 5.29125 5.84239 4.64888 6.09064 4.04953C6.3389 3.45019 6.70278 2.90561 7.1615 2.44689C7.62022 1.98817 8.1648 1.62429 8.76414 1.37603C9.36349 1.12778 10.0059 1 10.6546 1C11.3033 1 11.9457 1.12778 12.545 1.37603C13.1444 1.62429 13.689 1.98817 14.1477 2.44689C14.6064 2.90561 14.9703 3.45019 15.2185 4.04953C15.4668 4.64888 15.5946 5.29125 15.5946 5.93998C15.5946 7.25015 15.0741 8.50665 14.1477 9.43307C13.2213 10.3595 11.9648 10.88 10.6546 10.88C9.34443 10.88 8.08792 10.3595 7.1615 9.43307C6.23507 8.50665 5.71461 7.25015 5.71461 5.93998ZM16.5735 12.9765C15.4632 12.9765 14.3984 13.4176 13.6132 14.2027C12.8281 14.9878 12.387 16.0527 12.387 17.163C12.387 18.2733 12.8281 19.3382 13.6132 20.1233C14.3984 20.9084 15.4632 21.3495 16.5735 21.3495C17.6839 21.3495 18.7487 20.9084 19.5338 20.1233C20.319 19.3382 20.76 18.2733 20.76 17.163C20.76 16.0527 20.319 14.9878 19.5338 14.2027C18.7487 13.4176 17.6839 12.9765 16.5735 12.9765ZM13.2384 12.3715C14.0744 11.7903 15.0479 11.4378 16.0622 11.3492C17.0766 11.2606 18.0964 11.4389 19.0206 11.8664C19.9447 12.2938 20.7409 12.9556 21.3301 13.786C21.9193 14.6164 22.2811 15.5865 22.3794 16.5999C22.4777 17.6133 22.3092 18.6349 21.8906 19.563C21.472 20.4912 20.8179 21.2937 19.9932 21.8909C19.1685 22.488 18.2019 22.859 17.1895 22.9671C16.177 23.0751 15.1539 22.9164 14.2218 22.5067H4.97103C4.58092 22.5068 4.1946 22.4301 3.83415 22.2809C3.47369 22.1317 3.14616 21.913 2.87026 21.6372C2.59436 21.3614 2.3755 21.0339 2.22618 20.6735C2.07686 20.3132 2 19.9269 2 19.5368C2 17.6107 2.7651 15.7636 4.127 14.4017C5.48889 13.0398 7.33602 12.2747 9.26202 12.2747H12.0472C12.4519 12.2747 12.8501 12.3077 13.2384 12.3715ZM11.7172 13.9247H9.26092C7.7727 13.9247 6.34542 14.5158 5.29298 15.568C4.24055 16.6203 3.64915 18.0474 3.64886 19.5357C3.64886 19.8857 3.78793 20.2215 4.03547 20.469C4.28301 20.7166 4.61875 20.8556 4.96883 20.8556H12.0527C11.1995 19.8143 10.7341 18.5092 10.736 17.163C10.736 15.964 11.0968 14.8509 11.715 13.9247H11.7172ZM19.0518 15.5185C19.2163 15.6627 19.3168 15.8663 19.3312 16.0845C19.3456 16.3027 19.2728 16.5178 19.1288 16.6823L17.1345 18.9593C17.0101 19.1015 16.8576 19.2165 16.6867 19.2971C16.5158 19.3778 16.3301 19.4223 16.1412 19.428C15.9523 19.4337 15.7643 19.4004 15.5889 19.3301C15.4134 19.2599 15.2544 19.1542 15.1216 19.0198L14.0524 17.9363C13.9763 17.8592 13.9161 17.7678 13.8753 17.6674C13.8345 17.567 13.8138 17.4595 13.8146 17.3512C13.8153 17.2428 13.8373 17.1356 13.8795 17.0358C13.9216 16.9359 13.983 16.8453 14.0601 16.7692C14.1372 16.6931 14.2286 16.6329 14.329 16.5921C14.4294 16.5513 14.5369 16.5306 14.6452 16.5314C14.7536 16.5321 14.8608 16.5541 14.9606 16.5963C15.0605 16.6384 15.1511 16.6998 15.2272 16.7769L16.0885 17.6492L17.888 15.5955C18.0322 15.4311 18.2357 15.3306 18.454 15.3161C18.6722 15.3017 18.8872 15.3745 19.0518 15.5185Z" fill="white"/>
</svg>
