<svg width="25" height="24" viewBox="0 0 25 24" fill="none" xmlns="http://www.w3.org/2000/svg">
<path d="M12.7976 0.192383L1.68689 4.10251L3.44245 18.6594L12.8094 23.8076L22.2245 18.5899L23.9795 4.03332L12.7976 0.192383Z" fill="#B3B3B3"/>
<path d="M22.8714 4.87461L12.7719 1.43042V22.5776L21.2358 17.8933L22.8714 4.87461Z" fill="#A6120D"/>
<path d="M2.93396 4.9368L4.43883 17.9557L12.7721 22.5777V1.43018L2.93396 4.9368Z" fill="#DD1B16"/>
<path d="M15.5514 12.6881L12.7714 13.9882H9.84111L8.46355 17.4334L5.90173 17.481L12.7714 2.19824L15.5514 12.6881ZM15.2825 12.0336L12.7897 7.09837L10.7449 11.9486H12.7712L15.2825 12.0336Z" fill="#F2F2F2"/>
<path d="M12.7719 2.19824L12.7902 7.09837L15.1105 11.9524H12.7769L12.7719 13.9851L15.9985 13.9882L17.5064 17.4814L19.9578 17.5267L12.7719 2.19824Z" fill="#B3B3B3"/>
</svg>
