<svg width="41" height="25" viewBox="0 0 41 25" fill="none" xmlns="http://www.w3.org/2000/svg">
<g clip-path="url(#clip0_2042_1956)">
<path d="M11.5992 9.05712C11.5992 9.55923 11.6536 9.96627 11.7485 10.2648C11.8691 10.6006 12.0141 10.9271 12.1826 11.2416C12.2505 11.3502 12.2775 11.4587 12.2775 11.5538C12.2775 11.6893 12.1962 11.8251 12.0198 11.9608L11.1651 12.5306C11.043 12.6121 10.9209 12.6527 10.8122 12.6527C10.6766 12.6527 10.5409 12.5849 10.4052 12.4627C10.2222 12.2664 10.0586 12.0529 9.91681 11.8251C9.78108 11.5946 9.64534 11.3365 9.49617 11.0246C8.43774 12.2727 7.10806 12.8969 5.50713 12.897C4.36749 12.897 3.45835 12.5713 2.79345 11.9201C2.12872 11.2687 1.78955 10.4004 1.78955 9.31498C1.78955 8.16174 2.19659 7.22554 3.02426 6.51999C3.85178 5.81445 4.95092 5.46167 6.34841 5.46167C6.8097 5.46167 7.2846 5.50233 7.78656 5.57019C8.28867 5.63806 8.80422 5.74658 9.34699 5.86871V4.87825C9.34699 3.84698 9.12979 3.12798 8.70915 2.70734C8.27506 2.2867 7.5423 2.0831 6.49758 2.0831C6.02268 2.0831 5.53434 2.13752 5.03223 2.25965C4.53011 2.38178 4.04177 2.53095 3.56687 2.72095C3.34983 2.81586 3.18704 2.87012 3.09197 2.89733C2.99689 2.92454 2.92918 2.93799 2.87492 2.93799C2.68493 2.93799 2.59002 2.80226 2.59002 2.51735V1.85246C2.59002 1.63541 2.61723 1.47263 2.68493 1.37772C2.7528 1.28264 2.87492 1.18772 3.06492 1.09281C3.53976 0.848447 4.10958 0.644903 4.77437 0.482174C5.43942 0.305787 6.14497 0.224476 6.89117 0.224476C8.50587 0.224476 9.68632 0.590695 10.4461 1.32345C11.1923 2.05605 11.5723 3.16864 11.5723 4.66121V9.05712H11.5992ZM6.09055 11.1195C6.5384 11.1195 6.9997 11.0382 7.48804 10.8753C7.97655 10.7125 8.41079 10.414 8.77701 10.0069C8.99422 9.74922 9.157 9.46432 9.23831 9.13859C9.31978 8.81303 9.37404 8.41944 9.37404 7.95814V7.38833C8.96256 7.28824 8.5458 7.21124 8.12572 7.15768C7.70271 7.104 7.27676 7.07679 6.85036 7.07621C5.94121 7.07621 5.27648 7.25259 4.82879 7.61897C4.3811 7.98535 4.1639 8.50091 4.1639 9.17925C4.1639 9.81693 4.32668 10.2918 4.66585 10.6176C4.99157 10.9567 5.46647 11.1195 6.09055 11.1195ZM16.9857 12.5849C16.7415 12.5849 16.5787 12.5442 16.4702 12.4491C16.3617 12.3678 16.2666 12.1778 16.1853 11.9201L12.9969 1.43198C12.9152 1.16051 12.8746 0.984125 12.8746 0.889209C12.8746 0.672167 12.9831 0.54988 13.2003 0.54988H14.5299C14.7876 0.54988 14.9642 0.590695 15.0591 0.685612C15.1676 0.767083 15.2491 0.957075 15.3304 1.21477L17.6098 10.1969L19.7265 1.21477C19.7943 0.94347 19.8758 0.767083 19.9842 0.685612C20.0928 0.604301 20.2828 0.55004 20.5271 0.55004H21.6125C21.8702 0.55004 22.0467 0.590695 22.1551 0.685612C22.2638 0.767083 22.3587 0.957075 22.4129 1.21477L24.5568 10.3054L26.9039 1.21477C26.9852 0.94347 27.0803 0.767083 27.1752 0.685612C27.2837 0.604301 27.4601 0.55004 27.7044 0.55004H28.9661C29.1833 0.55004 29.3055 0.658561 29.3055 0.889209C29.3055 0.957075 29.2919 1.02494 29.2783 1.10625C29.2647 1.18756 29.2376 1.29624 29.1833 1.44558L25.9133 11.9336C25.832 12.205 25.737 12.3814 25.6284 12.4627C25.5199 12.5442 25.3435 12.5985 25.113 12.5985H23.9462C23.6883 12.5985 23.5119 12.5578 23.4032 12.4627C23.2947 12.3678 23.1998 12.1914 23.1455 11.9201L21.0423 3.16864L18.9529 11.9064C18.8852 12.1778 18.8037 12.3542 18.6952 12.4491C18.5867 12.5442 18.3967 12.5849 18.1526 12.5849H16.9857ZM34.4207 12.9512C33.7152 12.9512 33.0096 12.8698 32.3313 12.707C31.6528 12.5442 31.1238 12.3677 30.771 12.1644C30.5538 12.0421 30.4045 11.9065 30.3504 11.7844C30.2976 11.6646 30.2699 11.5353 30.2689 11.4044V10.7125C30.2689 10.4276 30.3774 10.2918 30.581 10.2918C30.6641 10.2921 30.7466 10.3059 30.8253 10.3326C30.9066 10.3599 31.0287 10.414 31.1644 10.4682C31.6436 10.6791 32.1439 10.8383 32.6568 10.9431C33.1883 11.0509 33.7292 11.1054 34.2715 11.1059C35.1263 11.1059 35.7911 10.9567 36.2524 10.6582C36.7137 10.3597 36.958 9.92561 36.958 9.36924C36.958 8.98942 36.8359 8.6773 36.5916 8.41944C36.3474 8.16158 35.8861 7.93109 35.2213 7.71389L33.2539 7.10342C32.2634 6.7913 31.5308 6.33 31.083 5.71937C30.6353 5.12234 30.4046 4.45761 30.4046 3.75206C30.4046 3.18224 30.5267 2.68018 30.771 2.24589C31.0151 1.8118 31.3408 1.43198 31.7478 1.13346C32.1549 0.821343 32.6162 0.590695 33.1589 0.427913C33.7015 0.265131 34.2714 0.197266 34.8684 0.197266C35.1669 0.197266 35.479 0.210871 35.7775 0.251526C36.0897 0.292182 36.3746 0.346442 36.6595 0.400703C36.9308 0.468569 37.1886 0.536435 37.4329 0.617906C37.677 0.699217 37.867 0.780581 38.0027 0.861999C38.1927 0.97068 38.3283 1.0792 38.4097 1.20133C38.4912 1.30985 38.5319 1.45908 38.5319 1.64902V2.2867C38.5319 2.57161 38.4233 2.72095 38.2197 2.72095C38.1112 2.72095 37.9348 2.66653 37.7044 2.558C36.9307 2.20523 36.0623 2.02884 35.0992 2.02884C34.3258 2.02884 33.7152 2.15097 33.2945 2.40883C32.874 2.66653 32.6568 3.06012 32.6568 3.61633C32.6568 3.99631 32.7926 4.32188 33.0639 4.57974C33.3352 4.83759 33.8373 5.09529 34.5564 5.32594L36.4831 5.93657C37.4599 6.24869 38.1655 6.68278 38.5861 7.23899C39.0068 7.7952 39.2104 8.43304 39.2104 9.13859C39.2104 9.72201 39.0881 10.2512 38.8574 10.7125C38.6133 11.1738 38.2876 11.5808 37.867 11.9065C37.4463 12.2457 36.9444 12.4899 36.361 12.6663C35.7503 12.8563 35.1126 12.9512 34.4207 12.9512Z" fill="#252F3E"/>
<path d="M36.9863 19.5455C32.5225 22.8426 26.0368 24.5929 20.4605 24.5929C12.6452 24.5929 5.60344 21.7028 0.284772 16.8997C-0.135868 16.5199 0.243957 16.0043 0.745908 16.3027C6.49882 19.6406 13.595 21.6622 20.9354 21.6622C25.8876 21.6622 31.3284 20.6311 36.3351 18.5144C37.0814 18.1751 37.719 19.0029 36.9863 19.5455ZM38.8452 17.4289C38.2754 16.6963 35.0732 17.0761 33.6215 17.2525C33.1872 17.3069 33.1194 16.9269 33.513 16.642C36.0637 14.8509 40.2563 15.3667 40.7447 15.9635C41.2332 16.5742 40.6089 20.7666 38.221 22.7748C37.8548 23.0869 37.502 22.9241 37.6648 22.5171C38.2074 21.1737 39.415 18.148 38.8452 17.4289Z" fill="#FF9900"/>
</g>
<defs>
<clipPath id="clip0_2042_1956">
<rect width="40.9756" height="24.4893" fill="white" transform="translate(0.012207 0.183594)"/>
</clipPath>
</defs>
</svg>
