<svg width="24" height="24" viewBox="0 0 24 24" fill="none" xmlns="http://www.w3.org/2000/svg">
<path d="M10.6023 3H13.576V16.6268C12.3068 16.8883 11.0147 17.0228 9.71877 17.028C6.08727 17.0243 4.19727 15.402 4.19727 12.2865C4.19727 9.2865 6.20202 7.3365 9.30927 7.3365C9.74503 7.32848 10.1799 7.37893 10.6023 7.4865V3ZM10.6023 9.8565C10.2789 9.74997 9.93986 9.69925 9.59952 9.7065C8.09952 9.7065 7.22727 10.6238 7.22727 12.231C7.22727 13.7963 8.05752 14.6603 9.58077 14.6603C9.92267 14.6612 10.2642 14.6361 10.6023 14.5853V9.86025V9.8565Z" fill="#44B78B"/>
<path d="M18.2997 7.54439V14.3694C18.2997 16.7191 18.1234 17.8486 17.6074 18.8229C17.0806 19.8133 16.2196 20.5848 15.1774 21.0001L12.4189 19.7004C13.4214 19.3577 14.2609 18.6551 14.7747 17.7286C15.1992 16.8879 15.3334 15.9136 15.3334 13.3509V7.54439H18.2997ZM15.3304 3.01514H18.3034V6.03614H15.3304V3.01514Z" fill="#44B78B"/>
</svg>
