<svg width="24" height="24" viewBox="0 0 24 24" fill="none" xmlns="http://www.w3.org/2000/svg">
<g clip-path="url(#clip0_2042_1887)">
<path d="M23.6233 5.41994C23.6319 5.45185 23.6364 5.48476 23.6364 5.51785V10.6604C23.6364 10.7948 23.5646 10.9188 23.4479 10.9857L19.1318 13.4708V18.3963C19.1318 18.4622 19.1145 18.5269 19.0816 18.584C19.0487 18.6411 19.0014 18.6886 18.9444 18.7217L9.93456 23.9083C9.91392 23.9199 9.89147 23.9274 9.86892 23.9355C9.86047 23.9382 9.85256 23.9434 9.84365 23.9458C9.78066 23.9623 9.71445 23.9623 9.65147 23.9458C9.6411 23.943 9.63174 23.9373 9.62192 23.9336C9.60128 23.926 9.57974 23.9195 9.5601 23.9083L0.552102 18.7216C0.494873 18.6887 0.447319 18.6413 0.414234 18.5842C0.381148 18.5271 0.3637 18.4623 0.363647 18.3963L0.363647 2.96867C0.363647 2.93485 0.368375 2.90203 0.376738 2.87021C0.379557 2.85939 0.386102 2.84958 0.38992 2.83876C0.39692 2.81912 0.403557 2.79894 0.413829 2.78067C0.420829 2.76848 0.431102 2.75867 0.439557 2.74739C0.450375 2.73239 0.460193 2.71694 0.472829 2.70376C0.483647 2.69303 0.497738 2.68503 0.50992 2.67567C0.523557 2.66439 0.535647 2.65221 0.551102 2.6433H0.551557L5.05574 0.0500305C5.11279 0.0172503 5.17744 0 5.24324 0C5.30904 0 5.37369 0.0172503 5.43074 0.0500305L9.93492 2.6433H9.93583C9.95083 2.65276 9.96356 2.66439 9.9771 2.67521C9.98928 2.68458 10.0029 2.69303 10.0136 2.70339C10.0268 2.71694 10.0362 2.73248 10.0474 2.74739C10.0554 2.75867 10.0662 2.76848 10.0727 2.78067C10.0835 2.79939 10.0896 2.81912 10.0971 2.83885C10.1008 2.84958 10.1074 2.85939 10.1102 2.87067C10.1188 2.90258 10.1233 2.93558 10.1234 2.96867V12.6045L13.8766 10.4433V5.51739C13.8766 5.48467 13.8814 5.4513 13.8898 5.41994C13.8931 5.40867 13.8992 5.39885 13.9029 5.38812C13.9105 5.36839 13.917 5.34812 13.9273 5.32994C13.9343 5.31776 13.9446 5.30794 13.9526 5.29667C13.9638 5.28167 13.9732 5.26621 13.9863 5.25303C13.9972 5.2423 14.0107 5.2343 14.0229 5.22494C14.037 5.21367 14.0492 5.20148 14.0642 5.19258H14.0646L18.5693 2.5993C18.6263 2.56643 18.691 2.54913 18.7568 2.54913C18.8226 2.54913 18.8873 2.56643 18.9443 2.5993L23.4485 5.19258C23.4644 5.20194 23.4766 5.21367 23.4906 5.22439C23.5023 5.23385 23.5159 5.2423 23.5267 5.25258C23.5398 5.26621 23.5492 5.28167 23.5604 5.29667C23.5689 5.30794 23.5792 5.31776 23.5858 5.32994C23.5966 5.34812 23.6026 5.36839 23.6101 5.38812C23.6144 5.39885 23.6205 5.40867 23.6233 5.41994ZM22.8856 10.4434V6.16703L21.3093 7.07439L19.1317 8.32821V12.6046L22.886 10.4434H22.8856ZM18.3814 18.1793V13.8999L16.2394 15.1233L10.1229 18.6142V22.9337L18.3814 18.1793ZM1.11447 3.61776V18.1793L9.37201 22.9333V18.6147L5.05819 16.1732L5.05683 16.1723L5.05501 16.1714C5.04047 16.1629 5.02819 16.1508 5.01465 16.1405C5.00283 16.131 4.98928 16.1236 4.97901 16.1132L4.9781 16.1118C4.96592 16.1001 4.95747 16.0856 4.94719 16.0725C4.93774 16.0598 4.92656 16.049 4.91901 16.0359L4.91856 16.0345C4.9101 16.0205 4.90492 16.0036 4.89883 15.9877C4.89274 15.9736 4.88483 15.9604 4.88101 15.9455V15.945C4.87638 15.9272 4.87547 15.9084 4.87356 15.8901C4.87174 15.8761 4.86792 15.862 4.86792 15.8479V5.77903L2.69074 4.52467L1.11447 3.6183V3.61776ZM5.24374 0.808394L1.49083 2.96867L5.24283 5.12885L8.99519 2.96812L5.24283 0.808394H5.24374ZM7.19537 14.29L9.37247 13.0368V3.61776L7.79638 4.52521L5.61865 5.77894V15.1978L7.19537 14.29ZM18.7567 3.35767L15.0044 5.51785L18.7567 7.67812L22.5086 5.51739L18.7567 3.35767ZM18.3813 8.32821L16.2037 7.07439L14.6276 6.16703V10.4434L16.8046 11.6968L18.3814 12.6046L18.3813 8.32821ZM9.74701 17.9651L15.2509 14.8229L18.0022 13.2528L14.2526 11.0939L9.93538 13.5794L6.00065 15.8447L9.74701 17.9651Z" fill="#FF2D20"/>
</g>
<defs>
<clipPath id="clip0_2042_1887">
<rect width="23.2727" height="24" fill="white" transform="translate(0.363647)"/>
</clipPath>
</defs>
</svg>
