<svg width="25" height="25" viewBox="0 0 25 25" fill="none" xmlns="http://www.w3.org/2000/svg">
<g clip-path="url(#clip0_2042_1918)">
<path d="M18.875 0.0917969H6.125C3.0184 0.0917969 0.5 2.6102 0.5 5.7168V18.4668C0.5 21.5734 3.0184 24.0918 6.125 24.0918H18.875C21.9816 24.0918 24.5 21.5734 24.5 18.4668V5.7168C24.5 2.6102 21.9816 0.0917969 18.875 0.0917969Z" fill="#023430"/>
<path d="M16.5475 10.1785C15.5596 5.82086 13.5009 4.6608 12.9757 3.84077C12.759 3.47957 12.5671 3.10405 12.4015 2.7168C12.3737 3.10398 12.3227 3.34773 11.9936 3.64136C11.333 4.23039 8.52705 6.51695 8.29089 11.4682C8.07086 16.0846 11.6846 18.9311 12.162 19.2254C12.5291 19.4061 12.9762 19.2293 13.1944 19.0634C14.9364 17.8679 17.3165 14.6806 16.5493 10.1785" fill="#10AA50"/>
<path d="M12.5512 16.7671C12.4602 17.9097 12.3951 18.5737 12.1641 19.2266C12.1641 19.2266 12.3157 20.3144 12.4222 21.4667H12.7989C12.8889 20.6553 13.0262 19.8498 13.2099 19.0543C12.7222 18.8143 12.5699 17.7697 12.5512 16.7671Z" fill="#B8C4C2"/>
<path d="M13.2086 19.0552C12.7157 18.8274 12.5731 17.7608 12.5512 16.7673C12.673 15.1283 12.7085 13.484 12.6577 11.8412C12.6318 10.9793 12.6698 3.85763 12.4453 2.81494C12.5988 3.16814 12.7758 3.51065 12.9751 3.84019C13.5003 4.66088 15.5597 5.82094 16.5469 10.1785C17.3159 14.673 14.9487 17.8519 13.2086 19.0552Z" fill="#12924F"/>
</g>
<defs>
<clipPath id="clip0_2042_1918">
<rect width="24" height="24" fill="white" transform="translate(0.5 0.0917969)"/>
</clipPath>
</defs>
</svg>
