<svg width="36" height="25" viewBox="0 0 36 25" fill="none" xmlns="http://www.w3.org/2000/svg">
<g clip-path="url(#clip0_2042_1935)">
<path d="M10.8151 15.9581L11.8933 19.4565C12.1355 20.2508 12.2366 20.8053 12.1961 21.1214C12.7858 19.542 13.1978 17.8209 13.4322 15.9581H14.7287C14.1712 18.9909 13.436 21.1946 12.5233 22.5694C11.8122 23.6288 11.0332 24.1585 10.1849 24.1585C9.95875 24.1585 9.67991 24.0902 9.34903 23.9545V23.2235C9.5107 23.2472 9.70035 23.2598 9.91849 23.2598C10.3142 23.2597 10.6333 23.1502 10.8758 22.9312C11.1664 22.6645 11.3118 22.3648 11.3118 22.0325C11.3118 21.8056 11.1984 21.3401 10.9726 20.6358L9.4703 15.9581H10.8151ZM2.56312 13.8079L4.53799 19.8333H4.55018L6.53717 13.8079H8.16058C8.51606 16.7961 8.72602 19.5302 8.79046 22.0085H7.42177C7.37355 19.6918 7.24032 17.5133 7.02209 15.4727H7.01017L4.92596 22.0085H3.88365L1.81205 15.4727H1.79986C1.64626 17.4324 1.54934 19.611 1.5091 22.0085H0.260986C0.341644 19.0926 0.543496 16.3593 0.866542 13.8079H2.56312Z" fill="#00758F"/>
<path d="M24.6868 13.6861C26.8111 13.6861 27.8733 15.0433 27.8733 17.7563C27.8733 19.2306 27.5539 20.3442 26.9156 21.0966C26.8006 21.234 26.6734 21.3528 26.5396 21.4628L28.0429 22.2062L28.0414 22.2061L27.5077 23.1278L25.5499 21.9855C25.2253 22.0816 24.8685 22.1297 24.4793 22.1297C23.4362 22.1297 22.657 21.8257 22.1419 21.2184C21.5765 20.5467 21.2939 19.4892 21.2939 18.0478C21.2939 16.5818 21.6128 15.4724 22.2513 14.7191C22.8328 14.0301 23.6448 13.6861 24.6868 13.6861ZM18.1815 13.698C18.9408 13.698 19.6311 13.9011 20.253 14.306L19.9371 15.0098C19.405 14.7836 18.8804 14.6701 18.3631 14.6701C17.9433 14.6701 17.6198 14.7711 17.3943 14.9744C17.1676 15.1759 17.0274 15.4352 17.0274 15.7513C17.0274 16.2371 17.3734 16.6583 18.0124 17.0142C18.2217 17.1286 18.4303 17.2444 18.6382 17.3614L18.6858 17.3882L18.7097 17.4017L18.7575 17.4285L18.7813 17.4419L18.829 17.4688C19.3127 17.7415 19.7678 18.0018 19.7678 18.0018C20.4067 18.4553 20.7251 18.9388 20.7251 19.7352C20.7251 20.4307 20.4703 21.0016 19.9622 21.4484C19.4538 21.8931 18.7708 22.1161 17.9154 22.1161C17.1154 22.1161 16.3401 21.8594 15.5891 21.3504L15.9404 20.6459C16.5867 20.9699 17.1716 21.1317 17.6967 21.1317C18.1893 21.1317 18.5748 21.0217 18.8537 20.8046C19.1321 20.5858 19.2989 20.2807 19.2989 19.8938C19.2989 19.4069 18.9602 18.9907 18.3388 18.6415C18.1443 18.534 17.9504 18.4255 17.7571 18.316L17.7095 18.2891C17.622 18.2397 17.534 18.1896 17.4477 18.1406L17.4009 18.114C16.9814 17.8754 16.6186 17.6669 16.6186 17.6669C15.9975 17.2125 15.686 16.725 15.686 15.9218C15.686 15.2575 15.9183 14.7205 16.3821 14.312C16.8471 13.9026 17.4469 13.698 18.1815 13.698ZM30.3699 13.8077V20.9995H32.9502V22.0083H29.0612V13.8078L30.3699 13.8077ZM34.3841 21.0027V21.1731H34.1004V22.0074H33.8835V21.1731H33.5888V21.0027H34.3841ZM34.9079 21.0027L35.1803 21.6876L35.4305 21.0027H35.738V22.0074H35.5336V21.2428L35.2488 22.0074H35.1014L34.8161 21.2428H34.8052V22.0074H34.6118V21.0027H34.9079ZM24.5532 14.6946C23.3013 14.6946 22.6751 15.7278 22.6751 17.7927C22.6751 18.9756 22.841 19.8333 23.1723 20.3679C23.4791 20.8626 23.9597 21.1095 24.614 21.1095C25.8659 21.1095 26.4921 20.0683 26.4921 17.9869C26.4921 16.8206 26.3261 15.9702 25.9953 15.4353C25.6881 14.9417 25.2077 14.6946 24.5533 14.6946" fill="#F29111"/>
<path d="M21.2725 0.508134C21.6877 -0.512282 23.1398 0.260479 23.7033 0.616925C23.8414 0.706105 23.9998 0.894514 24.1581 0.964154C24.4051 0.973855 24.652 0.993188 24.8994 1.00351C25.3635 1.11258 25.7983 1.20169 26.164 1.40999C27.8637 2.41093 28.9701 3.43093 29.9883 5.11573C30.2059 5.4726 30.3146 5.85877 30.4924 6.24494C30.7391 6.82056 31.0162 7.4248 31.3026 7.9691C31.4307 8.22715 31.5299 8.51409 31.7079 8.73202C31.7774 8.83167 31.9748 8.86105 32.0928 8.92057C32.4191 9.08944 32.8143 9.21763 33.1212 9.41581C33.6941 9.77309 34.2481 10.1988 34.7518 10.6347C34.9395 10.8029 35.0674 11.0411 35.2463 11.219V11.3088C35.0875 11.3576 34.9293 11.4074 34.771 11.4474C34.4251 11.5363 34.1188 11.5162 33.7833 11.6051C33.5759 11.6652 33.3185 11.7446 33.1011 11.7647L33.1212 11.785C33.2491 12.1505 33.9412 12.4477 34.2577 12.6664C34.6422 12.9438 34.9984 13.2803 35.2851 13.6668C35.3841 13.7654 35.4832 13.8551 35.5817 13.9534C35.6506 14.0531 35.67 14.182 35.7397 14.2708V14.3009C35.6625 14.2736 35.607 14.2217 35.5544 14.1673L35.523 14.1346C35.4916 14.102 35.46 14.07 35.4238 14.0436C35.2057 13.8946 34.9891 13.7164 34.771 13.5779C34.396 13.3399 33.961 13.2018 33.5759 12.9629C33.3582 12.8243 33.1507 12.6664 32.9431 12.5077C32.755 12.3686 32.5478 12.1016 32.4296 11.9034C32.36 11.7939 32.3504 11.6652 32.2709 11.586C32.2851 11.4537 32.4063 11.4144 32.5286 11.3821L32.5567 11.3747C32.5989 11.3638 32.6402 11.3528 32.6762 11.3384C33.19 11.1202 33.8025 11.0411 34.5934 11.0609C34.5636 10.8623 34.0694 10.6149 33.9116 10.496C33.5949 10.2677 33.2596 10.0295 32.9237 9.8218C32.7457 9.71301 32.4389 9.6336 32.2417 9.54469C31.9748 9.43563 31.3818 9.32663 31.2339 9.11889C30.9827 8.79141 30.8023 8.4008 30.6271 8.00624L30.5794 7.89856L30.5316 7.79095C30.3245 7.3158 30.0673 6.82042 29.8598 6.33391C29.7513 6.09658 29.7015 5.88829 29.5826 5.66066C28.8615 4.26384 27.7942 3.09437 26.5001 2.27193C26.0748 2.00432 25.6007 1.75666 25.0772 1.58835C24.7806 1.49875 24.4245 1.5483 24.1085 1.47956H23.9005C23.723 1.42953 23.5747 1.24133 23.4362 1.1421C23.1303 0.934358 22.8239 0.79487 22.458 0.646651C22.3298 0.587198 21.9637 0.448749 21.836 0.557748C21.7568 0.577635 21.7167 0.607501 21.6972 0.686911C21.6185 0.805403 21.6877 0.983903 21.7367 1.09318C21.8852 1.40985 22.0925 1.59805 22.2807 1.86566C22.4481 2.10299 22.656 2.3706 22.7747 2.62865C23.0309 3.18335 23.1501 3.79791 23.3874 4.35254C23.4754 4.56111 23.6146 4.79844 23.7428 4.98657C23.8514 5.1359 24.0488 5.24386 24.1085 5.43289C24.2275 5.63107 23.9303 6.28499 23.8615 6.49266C23.604 7.30527 23.6539 8.43482 23.9504 9.13919L23.9662 9.17633L23.982 9.21396C24.0902 9.47194 24.2061 9.74973 24.4938 9.82187C24.5137 9.80219 24.4938 9.81252 24.5331 9.80219C24.6028 9.25699 24.6224 8.73195 24.8103 8.30538C24.9189 8.03867 25.1357 7.85012 25.2843 7.6324C25.3834 7.69172 25.3834 7.87056 25.4425 7.98892C25.5711 8.29589 25.7092 8.63245 25.8677 8.94032C26.1931 9.57435 26.5593 10.1891 26.9741 10.7437C27.1131 10.9418 27.3102 11.1599 27.488 11.3383C27.5672 11.4074 27.6559 11.4473 27.7154 11.5362H27.7348V11.5661C27.4384 11.4568 27.2505 11.1502 27.014 10.9711C26.5689 10.6345 26.0358 10.1291 25.729 9.64413C25.6007 9.36571 25.4619 9.09886 25.3236 8.82183V8.8018C25.2645 8.88093 25.2843 8.95951 25.2548 9.07925C25.1264 9.57435 25.2252 10.1392 24.7806 10.3172C24.2765 10.5258 23.9006 9.98069 23.7428 9.73297C23.2386 8.91073 23.1005 7.52361 23.456 6.4039C23.535 6.15604 23.5458 5.85877 23.6837 5.66087C23.6539 5.48195 23.516 5.43303 23.4362 5.32341C23.2979 5.13604 23.1795 4.91776 23.0712 4.70967C22.8632 4.3032 22.7151 3.81752 22.5572 3.3816C22.4878 3.20358 22.4679 3.02487 22.3987 2.85635C22.2806 2.59913 22.063 2.34108 21.8951 2.11352C21.6677 1.78646 21.0055 1.15256 21.2725 0.508134ZM24.5135 2.44939C24.5399 2.47586 24.5717 2.499 24.6047 2.5218L24.6445 2.5491C24.6975 2.58583 24.7488 2.62449 24.7803 2.67716C24.8302 2.74687 24.8395 2.81568 24.8992 2.88552C24.8992 3.12368 24.8302 3.28202 24.6908 3.38069C24.6908 3.38069 24.6814 3.39109 24.6716 3.40079C24.5926 3.24204 24.5234 3.08412 24.4438 2.92551C24.3458 2.78706 24.2073 2.67723 24.1275 2.51903H24.1083V2.49914C24.2275 2.46969 24.3458 2.44939 24.5135 2.44939Z" fill="#00758F"/>
</g>
<defs>
<clipPath id="clip0_2042_1935">
<rect width="35.4783" height="24.1834" fill="white" transform="translate(0.260864)"/>
</clipPath>
</defs>
</svg>
