<svg width="24" height="25" viewBox="0 0 24 25" fill="none" xmlns="http://www.w3.org/2000/svg">
<g clip-path="url(#clip0_2042_1976)">
<path d="M18.375 0.428223H5.625C2.5184 0.428223 0 2.94662 0 6.05322V18.8032C0 21.9098 2.5184 24.4282 5.625 24.4282H18.375C21.4816 24.4282 24 21.9098 24 18.8032V6.05322C24 2.94662 21.4816 0.428223 18.375 0.428223Z" fill="#242938"/>
<path d="M16.1988 9.56L16.1919 9.55709C16.1881 9.55559 16.1842 9.55419 16.1807 9.55072C16.1751 9.54471 16.1709 9.53747 16.1685 9.52959C16.1661 9.5217 16.1656 9.51337 16.167 9.50525L16.545 7.19422L18.3177 8.96731L16.4741 9.75172C16.469 9.75386 16.4635 9.75486 16.458 9.75462H16.4507C16.447 9.75234 16.4437 9.74956 16.4408 9.74637C16.3722 9.67004 16.2901 9.60688 16.1988 9.56ZM18.77 9.41919L20.6654 11.3145C21.0591 11.7087 21.2561 11.9052 21.328 12.1332C21.3387 12.1669 21.3475 12.2007 21.3544 12.2353L16.8247 10.317L16.8174 10.314C16.7993 10.3067 16.7782 10.2984 16.7782 10.2798C16.7782 10.2612 16.7998 10.2524 16.8179 10.2451L16.8237 10.2427L18.77 9.41919ZM21.2771 12.8437C21.1793 13.0275 20.9887 13.2183 20.6659 13.5415L18.5289 15.6779L15.7651 15.1024L15.7504 15.0995C15.7259 15.0956 15.7 15.0912 15.7 15.0691C15.6895 14.9551 15.6556 14.8445 15.6005 14.7441C15.5454 14.6438 15.4702 14.5559 15.3797 14.4858C15.3684 14.4746 15.3714 14.4569 15.3748 14.4408C15.3748 14.4384 15.3748 14.4359 15.3758 14.434L15.8956 11.2427L15.8976 11.2319C15.9006 11.2075 15.9049 11.1792 15.9269 11.1792C16.0383 11.1653 16.1459 11.1294 16.2433 11.0736C16.3406 11.0178 16.426 10.9431 16.4942 10.8539C16.4986 10.8491 16.5015 10.8436 16.5074 10.8407C16.5231 10.8334 16.5416 10.8407 16.5577 10.8476L21.2767 12.8437H21.2771ZM18.0375 16.1694L14.5235 19.6834L15.125 15.9866L15.1259 15.9816C15.1264 15.9768 15.1274 15.972 15.1289 15.9674C15.1338 15.9557 15.1464 15.9508 15.1587 15.946L15.1645 15.9435C15.2962 15.8873 15.4127 15.8007 15.5045 15.6907C15.5162 15.677 15.5303 15.6638 15.5484 15.6613C15.5531 15.6606 15.5579 15.6606 15.5626 15.6613L18.0369 16.1699L18.0375 16.1694ZM13.7797 20.4272L13.3836 20.8233L9.0045 14.4945L8.99962 14.4877C8.99287 14.4784 8.98556 14.4691 8.98697 14.4583C8.98744 14.4506 8.99231 14.4437 8.99775 14.4378L9.00262 14.4315C9.01575 14.4119 9.027 14.3923 9.03928 14.3713L9.04903 14.3542L9.05053 14.3528C9.05737 14.3411 9.06366 14.3298 9.07547 14.3234C9.08578 14.3186 9.09984 14.3205 9.11109 14.323L13.9626 15.3235C13.9762 15.3255 13.989 15.3311 13.9998 15.3396C14.0062 15.346 14.0076 15.3528 14.0091 15.3606C14.0429 15.4886 14.1058 15.6071 14.193 15.7068C14.2802 15.8065 14.3893 15.8847 14.5118 15.9352C14.5254 15.942 14.5195 15.9572 14.5132 15.9733C14.5101 15.9804 14.5077 15.9877 14.5058 15.9954C14.4447 16.367 13.9206 19.5641 13.7797 20.4272ZM12.9523 21.2541C12.6604 21.5431 12.4882 21.6961 12.2936 21.7578C12.1017 21.8185 11.8958 21.8185 11.7038 21.7578C11.476 21.6854 11.279 21.4888 10.8853 21.0947L6.48769 16.6971L7.63631 14.9156C7.64122 14.9067 7.64789 14.8988 7.65591 14.8926C7.66809 14.8838 7.68572 14.8877 7.70044 14.8926C7.96406 14.9722 8.24709 14.9578 8.50134 14.852C8.51456 14.8471 8.52778 14.8437 8.53809 14.853C8.54316 14.8577 8.54772 14.8629 8.55178 14.8687L12.9523 21.2546V21.2541ZM6.06366 16.2731L5.05491 15.2643L7.04709 14.4144C7.05215 14.4121 7.05766 14.4109 7.06322 14.411C7.07981 14.411 7.08966 14.4276 7.09847 14.4428C7.11847 14.4735 7.13966 14.5035 7.16203 14.5327L7.16831 14.5406C7.17422 14.5488 7.17028 14.5572 7.16447 14.565L6.06412 16.2731H6.06366ZM4.60837 14.8178L3.33206 13.5415C3.11503 13.3243 2.95753 13.1669 2.84794 13.0315L6.72872 13.8364L6.74344 13.8388C6.76734 13.8427 6.79378 13.8471 6.79378 13.8696C6.79378 13.8941 6.76491 13.9053 6.74044 13.9146L6.72919 13.9195L4.60837 14.8178ZM2.625 12.3752C2.62941 12.293 2.64421 12.2117 2.66906 12.1332C2.74134 11.9052 2.93794 11.7087 3.33206 11.3145L4.96537 9.68131C5.71742 10.7727 6.47148 11.8627 7.22756 12.9513C7.24069 12.9688 7.25541 12.9884 7.24022 13.0031C7.16887 13.0818 7.09744 13.1679 7.04709 13.2613C7.04163 13.2733 7.03321 13.2838 7.02262 13.2916C7.01625 13.2956 7.0095 13.2941 7.002 13.2926H7.00106L2.625 12.3747V12.3752ZM5.40253 9.24416L7.59862 7.04797C7.80506 7.13844 8.55619 7.45578 9.228 7.73947C9.73659 7.95462 10.2002 8.15019 10.3459 8.21384C10.3606 8.21966 10.3738 8.22556 10.3801 8.24019C10.384 8.249 10.3821 8.26025 10.3801 8.26953C10.3454 8.42806 10.3507 8.59271 10.3953 8.74872C10.4399 8.90473 10.5226 9.04723 10.6358 9.16344C10.6506 9.17816 10.6358 9.19906 10.6232 9.21725L10.6163 9.22756L8.3865 12.6813C8.38162 12.6911 8.37437 12.6995 8.36541 12.7058C8.35369 12.7131 8.33709 12.7097 8.32341 12.7062C8.23663 12.6836 8.14747 12.6715 8.05781 12.6701C7.97766 12.6701 7.89056 12.6848 7.80262 12.7009H7.80206C7.79231 12.7024 7.7835 12.7043 7.77572 12.6985C7.76707 12.6914 7.75963 12.683 7.75369 12.6735L5.40253 9.24416ZM8.04225 6.60444L10.8853 3.76137C11.279 3.36772 11.476 3.17075 11.7038 3.09875C11.8958 3.03805 12.1017 3.03805 12.2936 3.09875C12.5215 3.17066 12.7186 3.36781 13.1122 3.76137L13.7284 4.3775L11.7063 7.50912C11.7013 7.51823 11.6945 7.52621 11.6863 7.53256C11.674 7.541 11.657 7.53753 11.6422 7.53256C11.4828 7.4842 11.314 7.47539 11.1504 7.50692C10.9868 7.53845 10.8334 7.60935 10.7033 7.7135C10.6901 7.72719 10.6706 7.71941 10.6539 7.71209C10.3899 7.59716 8.33606 6.72922 8.04225 6.60444ZM14.1578 4.80687L16.0247 6.67391L15.5749 9.46025V9.46756C15.5744 9.47392 15.573 9.48019 15.5709 9.48622C15.5661 9.49597 15.5562 9.49794 15.5465 9.50084C15.4503 9.52991 15.3597 9.57504 15.2785 9.63434C15.2751 9.63689 15.2718 9.63968 15.2687 9.64269C15.2633 9.6485 15.258 9.65394 15.2492 9.65487C15.242 9.65511 15.2348 9.65396 15.2281 9.6515L12.3831 8.44269L12.3777 8.44016C12.3596 8.43284 12.3382 8.42403 12.3382 8.40547C12.3213 8.24694 12.2696 8.09411 12.1866 7.958C12.1729 7.9355 12.1577 7.91206 12.1694 7.88909L14.1578 4.80687ZM12.2349 9.01531L14.9019 10.1449C14.9167 10.1517 14.9328 10.158 14.9392 10.1732C14.9417 10.1823 14.9417 10.192 14.9392 10.2011C14.93 10.2433 14.9251 10.2864 14.9244 10.3297V10.4045C14.9244 10.4232 14.9054 10.4309 14.8878 10.4382L14.8824 10.4402C14.4599 10.6207 8.95078 12.9699 8.94244 12.9699C8.93409 12.9699 8.92537 12.9699 8.91703 12.9615C8.90241 12.9469 8.91703 12.9264 8.93016 12.9077C8.93253 12.9045 8.93484 12.9013 8.93709 12.898L11.1288 9.50422L11.1327 9.49841C11.1455 9.47778 11.1601 9.45491 11.1835 9.45491L11.2056 9.45828C11.2554 9.46512 11.2995 9.4715 11.3439 9.4715C11.6765 9.4715 11.9845 9.30969 12.1703 9.03284C12.1749 9.02553 12.1805 9.01895 12.187 9.01334C12.2002 9.0035 12.2197 9.00856 12.2349 9.01531ZM9.18056 13.5067L15.1856 10.9458C15.1856 10.9458 15.1944 10.9458 15.2027 10.9541C15.2355 10.9869 15.2633 11.0088 15.2902 11.0293L15.3035 11.0377C15.3157 11.0445 15.3279 11.0524 15.3289 11.0651C15.3289 11.0699 15.3289 11.0729 15.3279 11.0773L14.8134 14.2373L14.8115 14.2499C14.8081 14.2744 14.8046 14.3023 14.7817 14.3023C14.6445 14.3115 14.5116 14.354 14.3946 14.4262C14.2776 14.4983 14.18 14.598 14.1103 14.7165L14.1078 14.7204C14.1009 14.7316 14.0947 14.7424 14.0834 14.7483C14.0731 14.7532 14.0599 14.7512 14.0492 14.7488L9.26034 13.7609C9.25547 13.76 9.18591 13.5072 9.18056 13.5067Z" fill="url(#paint0_radial_2042_1976)"/>
</g>
<defs>
<radialGradient id="paint0_radial_2042_1976" cx="0" cy="0" r="1" gradientUnits="userSpaceOnUse" gradientTransform="translate(2.01101 12.1716) rotate(90) scale(18.7294 21.6237)">
<stop stop-color="#20C6B7"/>
<stop offset="1" stop-color="#4D9ABF"/>
</radialGradient>
<clipPath id="clip0_2042_1976">
<rect width="24" height="24" fill="white" transform="translate(0 0.428223)"/>
</clipPath>
</defs>
</svg>
