<svg width="25" height="24" viewBox="0 0 25 24" fill="none" xmlns="http://www.w3.org/2000/svg">
<g clip-path="url(#clip0_2042_1880)">
<path d="M13.0542 0.154499C12.8819 0.0558216 12.6869 0.00390625 12.4884 0.00390625C12.2899 0.00390625 12.0949 0.0558216 11.9226 0.154499L2.58137 5.57981C2.22605 5.78081 2.02637 6.16012 2.02637 6.56231V17.4351C2.02637 17.8369 2.24818 18.2164 2.58099 18.4176L11.9222 23.8427C12.0945 23.9414 12.2896 23.9933 12.4881 23.9933C12.6867 23.9933 12.8817 23.9414 13.054 23.8427L22.3952 18.4174C22.7504 18.2164 22.9499 17.8369 22.9499 17.4349V6.56231C22.9499 6.16031 22.7281 5.781 22.3952 5.57981L13.0542 0.154499Z" fill="url(#paint0_linear_2042_1880)"/>
<path d="M22.4179 5.58009L13.0324 0.154775C12.9403 0.107741 12.8436 0.0703551 12.7438 0.0432129L2.22656 18.1497C2.31369 18.2565 2.41884 18.3473 2.53725 18.4178L11.9229 23.843C12.1892 23.9991 12.4997 24.044 12.7882 23.9545L22.662 5.78109C22.5972 5.69619 22.5136 5.6274 22.4179 5.58009Z" fill="url(#paint1_linear_2042_1880)"/>
<path d="M22.4184 18.4172C22.6847 18.261 22.8843 17.9931 22.973 17.7029L12.6999 0.0202985C12.4337 -0.0243265 12.1451 -0.00201398 11.9012 0.154361L2.58203 5.55736L12.6332 23.9989C12.7663 23.9764 12.9219 23.9318 13.055 23.8649L22.4184 18.4172Z" fill="url(#paint2_linear_2042_1880)"/>
</g>
<defs>
<linearGradient id="paint0_linear_2042_1880" x1="16.2925" y1="4.19466" x2="7.76148" y2="21.4897" gradientUnits="userSpaceOnUse">
<stop stop-color="#3F873F"/>
<stop offset="0.33" stop-color="#3F8B3D"/>
<stop offset="0.637" stop-color="#3E9638"/>
<stop offset="0.934" stop-color="#3DA92E"/>
<stop offset="1" stop-color="#3DAE2B"/>
</linearGradient>
<linearGradient id="paint1_linear_2042_1880" x1="11.0692" y1="13.2687" x2="34.8715" y2="-4.20963" gradientUnits="userSpaceOnUse">
<stop offset="0.138" stop-color="#3F873F"/>
<stop offset="0.402" stop-color="#52A044"/>
<stop offset="0.713" stop-color="#64B749"/>
<stop offset="0.908" stop-color="#6ABF4B"/>
</linearGradient>
<linearGradient id="paint2_linear_2042_1880" x1="1.68497" y1="11.9952" x2="23.3" y2="11.9952" gradientUnits="userSpaceOnUse">
<stop offset="0.092" stop-color="#6ABF4B"/>
<stop offset="0.287" stop-color="#64B749"/>
<stop offset="0.598" stop-color="#52A044"/>
<stop offset="0.862" stop-color="#3F873F"/>
</linearGradient>
<clipPath id="clip0_2042_1880">
<rect width="24" height="24" fill="white" transform="translate(0.5)"/>
</clipPath>
</defs>
</svg>
