<svg width="24" height="25" viewBox="0 0 24 25" fill="none" xmlns="http://www.w3.org/2000/svg">
<g clip-path="url(#clip0_2042_1927)">
<path d="M17.5883 17.3626C17.7355 16.1376 17.6914 15.9578 18.6038 16.1564L18.8354 16.1766C19.537 16.2085 20.4548 16.0638 20.994 15.8133C22.1549 15.2746 22.843 14.3755 21.6987 14.6116C19.0879 15.1503 18.9085 14.2662 18.9085 14.2662C21.6653 10.1759 22.8177 4.98345 21.8228 3.71239C19.1097 0.245704 14.4134 1.88502 14.3348 1.92739L14.3097 1.93208C13.7938 1.82502 13.2165 1.76108 12.568 1.75058C11.3865 1.73108 10.4901 2.06033 9.81004 2.57595C9.81004 2.57595 1.43197 -0.875734 1.82179 6.91677C1.90466 8.57445 4.19779 19.4601 6.93304 16.1721C7.93279 14.9699 8.89879 13.9533 8.89879 13.9533C9.37841 14.2718 9.95291 14.4346 10.5552 14.3761L10.6018 14.3363C10.5872 14.4856 10.5936 14.6316 10.6204 14.8045C9.91597 15.5918 10.123 15.73 8.71429 16.0199C7.28891 16.3135 8.12629 16.8365 8.67285 16.9731C9.33566 17.1389 10.8688 17.3736 11.905 15.9235L11.8637 16.0889C12.1401 16.3101 12.1215 17.6783 12.1605 18.6558C12.1997 19.6334 12.2652 20.5456 12.4645 21.0835C12.6638 21.6215 12.8989 23.0065 14.7503 22.6098C16.2975 22.279 17.4805 21.8018 17.5883 17.3626Z" fill="black"/>
<path d="M14.1485 23.5774C13.3297 23.5774 12.7965 23.2607 12.4727 22.9549C11.9838 22.4936 11.79 21.8994 11.6741 21.5445L11.624 21.3964C11.3908 20.7668 11.3117 19.8602 11.2648 18.6928C11.2577 18.5175 11.2528 18.3369 11.2473 18.1455C11.2434 18.0054 11.2385 17.8298 11.2314 17.646C10.9364 17.7867 10.6233 17.8856 10.301 17.94C9.72372 18.0386 9.10309 18.0068 8.45603 17.8449C7.99947 17.7308 7.52509 17.4941 7.25472 17.1287C6.46666 17.8189 5.71497 17.7253 5.30547 17.5886C4.58303 17.3477 3.93653 16.6706 3.32884 15.5192C2.89591 14.6989 2.47722 13.6301 2.08422 12.3424C1.39984 10.0999 0.965031 7.73795 0.926406 6.96245C0.804906 4.53526 1.45834 2.79938 2.86816 1.80357C5.09209 0.232696 8.46166 1.15651 9.69016 1.57595C10.5155 1.07851 11.4866 0.836446 12.5838 0.853884C13.1732 0.863446 13.7343 0.915196 14.2556 1.0082C14.7993 0.837196 15.8733 0.591759 17.1028 0.607134C19.368 0.634134 21.245 1.51688 22.5307 3.15995C23.4483 4.3322 22.9946 6.79388 22.6427 8.15701C22.1473 10.0744 21.2793 12.1136 20.2132 13.8889C20.5027 13.8909 20.9222 13.8563 21.5184 13.7331C22.6948 13.4903 23.0388 14.121 23.1322 14.4034C23.5063 15.5363 21.8803 16.3924 21.3731 16.6279C20.7232 16.9296 19.6637 17.1133 18.7959 17.0736L18.758 17.0711L18.53 17.0511L18.5075 17.2412L18.4858 17.427C18.4275 19.6768 18.1061 21.1016 17.4448 22.0431C16.7516 23.0301 15.7882 23.3066 14.9396 23.4885C14.6501 23.5504 14.387 23.5774 14.1485 23.5774ZM12.4254 15.3891C12.954 15.8121 13.0003 16.608 13.0417 18.0954C13.047 18.2811 13.0518 18.4568 13.0584 18.6208C13.0783 19.1177 13.125 20.2811 13.3072 20.7728C13.3329 20.8423 13.356 20.9128 13.3803 20.9876C13.5834 21.6094 13.6852 21.9212 14.5633 21.7335C15.3003 21.5754 15.6793 21.4337 15.9759 21.0114C16.407 20.3976 16.6481 19.1627 16.6923 17.3411L17.5892 17.3629L16.6985 17.256L16.7248 17.0336C16.8101 16.3005 16.8716 15.771 17.3615 15.4208C17.7547 15.1399 18.2027 15.1671 18.5595 15.2314C18.1674 14.9351 18.059 14.5877 18.0302 14.4452L17.9553 14.0768L18.1655 13.7649C19.3762 11.9687 20.3745 9.76107 20.9047 7.70795C21.4496 5.59838 21.2835 4.47807 21.1173 4.2662C18.9182 1.45613 15.1046 2.61638 14.7063 2.74801L14.639 2.78438L14.3015 2.8472L14.1287 2.81138C13.652 2.71238 13.1225 2.65763 12.555 2.64845C11.6632 2.63345 10.9438 2.8442 10.3539 3.29176L9.94459 3.60207L9.46966 3.40651C8.45491 2.99157 5.47441 2.15738 3.90166 3.27132C3.02866 3.8897 2.63097 5.10132 2.71947 6.87263C2.74872 7.45745 3.14603 9.67126 3.80153 11.8183C4.70734 14.7855 5.53047 15.7712 5.87416 15.8858C5.93416 15.906 6.08978 15.7851 6.24466 15.5991C6.89043 14.825 7.5591 14.0703 8.24978 13.3359L8.76916 12.7894L9.39709 13.2066C9.65022 13.3748 9.92941 13.4702 10.2161 13.4882L11.7137 12.2109L11.4967 14.4249C11.4918 14.4746 11.4894 14.5423 11.5089 14.6679L11.5742 15.0876L11.291 15.4041L11.2584 15.4408L12.0812 15.8205L12.4254 15.3891Z" fill="black"/>
<path d="M21.6992 14.6119C19.0883 15.1506 18.9088 14.2665 18.9088 14.2665C21.6656 10.176 22.818 4.98338 21.8235 3.71269C19.1104 0.246189 14.4137 1.8855 14.3353 1.92806L14.31 1.93256C13.7942 1.8255 13.2169 1.76175 12.568 1.75125C11.3865 1.73194 10.4905 2.061 9.8104 2.57663C9.8104 2.57663 1.43215 -0.874873 1.82177 6.91744C1.90465 8.57531 4.19777 19.461 6.93302 16.173C7.93277 14.9708 8.89859 13.9541 8.89859 13.9541C9.3784 14.2727 9.95271 14.4354 10.5548 14.3769L10.6016 14.3372C10.587 14.4864 10.5938 14.6325 10.6204 14.8054C9.91577 15.5927 10.1228 15.7309 8.71409 16.0208C7.28871 16.3144 8.12609 16.8373 8.67284 16.974C9.33546 17.1398 10.8688 17.3745 11.9048 15.9244L11.8633 16.0898C12.1395 16.311 12.3334 17.5283 12.301 18.6317C12.2685 19.7351 12.2466 20.4928 12.4643 21.0846C12.6818 21.6763 12.8985 23.0076 14.7503 22.6108C16.2975 22.2793 17.0993 21.42 17.211 19.9868C17.2901 18.9677 17.4692 19.1184 17.4806 18.2074L17.6245 17.7761C17.7902 16.3948 17.6507 15.9493 18.6041 16.1565L18.8357 16.1768C19.5373 16.2086 20.4555 16.0639 20.9946 15.8134C22.1552 15.2751 22.8435 14.3758 21.6992 14.6119Z" fill="#336791"/>
<path d="M14.2417 23.0243C12.6982 23.0243 12.2092 21.802 12.0092 21.3022C11.7163 20.5696 11.6531 17.7267 11.7184 15.3953C11.7193 15.356 11.7281 15.3173 11.7441 15.2814C11.7601 15.2454 11.783 15.213 11.8116 15.186C11.8402 15.159 11.8739 15.1379 11.9106 15.124C11.9474 15.11 11.9866 15.1035 12.0259 15.1047C12.0651 15.1058 12.1038 15.1146 12.1397 15.1306C12.1755 15.1466 12.2079 15.1696 12.2349 15.1981C12.2619 15.2267 12.283 15.2603 12.297 15.297C12.311 15.3337 12.3176 15.3728 12.3165 15.412C12.2413 18.101 12.348 20.5377 12.5647 21.08C12.903 21.9254 13.416 22.6649 14.8663 22.3542C16.2431 22.0589 16.7587 21.5369 16.9884 20.2055C17.1647 19.1838 17.5132 16.2772 17.5562 15.7036C17.5591 15.6644 17.5696 15.6262 17.5873 15.5911C17.605 15.556 17.6294 15.5247 17.6592 15.4991C17.689 15.4734 17.7235 15.4539 17.7609 15.4416C17.7982 15.4294 17.8376 15.4246 17.8768 15.4276C17.9559 15.4336 18.0294 15.4707 18.0811 15.5308C18.1329 15.5909 18.1586 15.6691 18.1528 15.7482C18.108 16.3454 17.7611 19.2464 17.5781 20.3073C17.307 21.8798 16.6059 22.5931 14.9917 22.9392C14.7174 22.9979 14.4682 23.0242 14.2417 23.0243ZM5.8725 17.0542C5.73758 17.0537 5.60361 17.0316 5.47575 16.9885C4.47318 16.654 3.51825 15.0213 2.63737 12.1351C1.96687 9.93816 1.542 7.64503 1.50468 6.89972C1.39425 4.69022 1.96312 3.12703 3.19593 2.25385C5.63475 0.525847 9.73743 2.17135 9.91087 2.24222C9.98435 2.27223 10.0429 2.3302 10.0736 2.40338C10.1044 2.47655 10.1048 2.55894 10.0747 2.63241C10.0447 2.70588 9.98677 2.76442 9.91359 2.79516C9.84042 2.82589 9.75803 2.8263 9.68456 2.79628C9.645 2.78016 5.71087 1.20403 3.54056 2.74285C2.48643 3.49022 2.0025 4.87885 2.10206 6.86991C2.13337 7.49785 2.53031 9.73585 3.20943 11.9603C3.99581 14.537 4.89075 16.1628 5.66493 16.421C5.78643 16.4615 6.15618 16.5847 6.68475 15.949C7.30112 15.2087 7.94062 14.488 8.60231 13.7879C8.65767 13.7327 8.73246 13.7013 8.81065 13.7005C8.88884 13.6998 8.96423 13.7296 9.02069 13.7837C9.07715 13.8378 9.11019 13.9119 9.11273 13.99C9.11528 14.0682 9.08713 14.1442 9.03431 14.2019C9.02531 14.2113 8.1255 15.152 7.14487 16.3317C6.68043 16.8903 6.23531 17.0542 5.8725 17.0542ZM18.8904 14.5332C18.8362 14.5332 18.783 14.5183 18.7365 14.4904C18.6901 14.4624 18.6521 14.4223 18.6266 14.3744C18.6011 14.3265 18.5892 14.2726 18.592 14.2185C18.5948 14.1643 18.6123 14.1119 18.6426 14.0669C21.4294 9.9316 22.4076 4.93491 21.5698 3.86428C20.5153 2.51691 19.0264 1.81322 17.1441 1.77253C15.7504 1.74253 14.6426 2.09841 14.4615 2.16047L14.4159 2.17903C14.2339 2.23622 14.0942 2.13647 14.0415 2.01985C14.0115 1.95303 14.0069 1.87753 14.0287 1.80758C14.0505 1.73764 14.0971 1.67809 14.1598 1.64016C14.1684 1.6351 14.1958 1.62347 14.2402 1.60716C14.5479 1.49447 15.6726 1.15697 17.0655 1.17291C19.1482 1.19503 20.8687 1.9981 22.0406 3.49566C22.5951 4.20422 22.5964 5.8366 22.0442 7.97447C21.4813 10.1542 20.4221 12.4966 19.1385 14.4014C19.0811 14.4871 18.9866 14.5332 18.8904 14.5332ZM19.0329 16.4476C18.5571 16.4476 18.1305 16.3805 17.8751 16.2275C17.6126 16.0702 17.5626 15.8564 17.556 15.743C17.4844 14.4848 18.1785 14.2658 18.5325 14.1659C18.4832 14.0913 18.4131 14.0035 18.3405 13.913C18.1341 13.655 17.8513 13.3017 17.6334 12.7733C17.5993 12.6908 17.4924 12.499 17.3687 12.2768C16.6976 11.0735 15.3013 8.56941 16.1983 7.2871C16.6134 6.69366 17.4401 6.46003 18.6581 6.59035C18.2998 5.49872 16.5936 2.08397 12.5449 2.0176C11.3272 1.99735 10.3286 2.37178 9.57825 3.12947C7.89825 4.82616 7.959 7.8961 7.95993 7.92685C7.96097 7.96612 7.95426 8.00521 7.94018 8.04189C7.92611 8.07857 7.90495 8.11212 7.87791 8.14062C7.85087 8.16912 7.81848 8.19202 7.78259 8.20801C7.74671 8.22399 7.70802 8.23275 7.66875 8.23378C7.62947 8.23482 7.59038 8.22811 7.5537 8.21403C7.51702 8.19996 7.48347 8.1788 7.45497 8.15176C7.42647 8.12472 7.40357 8.09233 7.38759 8.05644C7.3716 8.02056 7.36284 7.98187 7.36181 7.9426C7.35806 7.80628 7.29543 4.58466 9.15318 2.70835C10.0226 1.83028 11.1671 1.39678 12.5548 1.41947C15.1449 1.46203 16.8122 2.77885 17.7546 3.87591C18.7819 5.0716 19.2855 6.39047 19.3269 6.83072C19.3579 7.1581 19.1229 7.22353 19.0755 7.23328L18.9675 7.23572C17.7722 7.04428 17.0053 7.17722 16.6882 7.63022C16.0059 8.60541 17.3269 10.9741 17.8909 11.9857C18.0349 12.2437 18.1387 12.4302 18.1864 12.5453C18.3716 12.9946 18.6133 13.2965 18.8074 13.5391C18.9782 13.7525 19.1261 13.9375 19.179 14.1547C19.2036 14.1978 19.5521 14.7134 21.6204 14.2865C22.1389 14.1796 22.4497 14.2709 22.5448 14.5583C22.7317 15.1237 21.6829 15.7831 21.1022 16.0527C20.5819 16.2946 19.7514 16.4476 19.0329 16.4476ZM18.1524 15.6937C18.2181 15.7598 18.5464 15.874 19.2262 15.8448C19.8307 15.8189 20.4682 15.6875 20.8507 15.5099C21.3399 15.2827 21.6666 15.0286 21.8357 14.8552L21.7419 14.8724C20.4195 15.1454 19.4841 15.109 18.9617 14.7642C18.9266 14.7411 18.8927 14.716 18.8604 14.689C18.8038 14.7113 18.7515 14.726 18.7142 14.7365C18.4179 14.8195 18.1116 14.9056 18.1524 15.6937ZM9.60956 17.3652C9.28106 17.3652 8.93531 17.3204 8.58225 17.2321C8.21643 17.1406 7.59975 16.8652 7.60912 16.4127C7.61981 15.9052 8.358 15.7529 8.63587 15.6957C9.63975 15.4889 9.70518 15.406 10.0189 15.0076C10.1104 14.8915 10.2242 14.747 10.3794 14.5737C10.6099 14.3157 10.8617 14.185 11.1279 14.185C11.3134 14.185 11.4654 14.2478 11.5659 14.2897C11.8862 14.4224 12.1534 14.7434 12.2632 15.1272C12.3624 15.4735 12.315 15.8069 12.1301 16.0658C11.5232 16.9158 10.6515 17.3652 9.60956 17.3652ZM8.25543 16.4384C8.34562 16.5082 8.52637 16.6013 8.72756 16.6516C9.03337 16.7281 9.33 16.7669 9.60975 16.7669C10.4621 16.7669 11.1465 16.414 11.6436 15.718C11.7472 15.5729 11.7161 15.3886 11.6884 15.2917C11.6302 15.0886 11.4859 14.9039 11.3372 14.8422C11.2566 14.8088 11.1896 14.7833 11.1281 14.7833C11.0951 14.7833 10.9946 14.7833 10.8255 14.9725C10.7088 15.1038 10.5966 15.239 10.4891 15.3779C10.0984 15.874 9.91931 16.0424 8.75681 16.2818C8.47312 16.34 8.32762 16.3992 8.25543 16.4384ZM10.5559 15.0584C10.4845 15.0583 10.4154 15.0326 10.3613 14.9861C10.3071 14.9395 10.2714 14.8751 10.2606 14.8045C10.2531 14.7549 10.248 14.7049 10.2456 14.6547C9.48356 14.6405 8.74837 14.3135 8.19018 13.7311C7.48443 12.9948 7.16325 11.9746 7.30912 10.9323C7.46756 9.80035 7.40831 8.80116 7.37643 8.26435C7.36762 8.1151 7.36125 8.00728 7.36162 7.93266C7.36218 7.83797 7.36406 7.58691 8.20331 7.16147C8.50181 7.01016 9.10031 6.74616 9.75412 6.67847C10.8373 6.56653 11.5513 7.04897 11.7651 8.0371C12.342 10.7048 11.8108 11.8848 11.4229 12.7465C11.3507 12.907 11.2824 13.0585 11.2279 13.2053L11.1797 13.3347C10.9747 13.8843 10.7976 14.359 10.8519 14.7136C10.8579 14.7524 10.8562 14.7921 10.8468 14.8302C10.8375 14.8684 10.8207 14.9043 10.7974 14.936C10.7742 14.9677 10.7449 14.9944 10.7113 15.0148C10.6777 15.0352 10.6405 15.0487 10.6016 15.0547L10.5559 15.0584ZM7.96181 8.01553L7.97343 8.2291C8.00643 8.78672 8.06793 9.82435 7.90143 11.0153C7.78125 11.875 8.04375 12.7141 8.622 13.3171C9.07893 13.7937 9.68025 14.0568 10.2982 14.0568H10.311C10.3802 13.7652 10.4951 13.4573 10.6189 13.1257L10.6667 12.997C10.7284 12.8313 10.8006 12.6708 10.8771 12.5009C11.2504 11.6714 11.7152 10.6388 11.1799 8.16366C11.0739 7.67335 10.8169 7.38966 10.3944 7.2961C9.52668 7.10447 8.2335 7.75716 7.96181 8.01553ZM9.76743 7.8886C9.75243 7.99435 9.96112 8.27672 10.2334 8.31441C10.5051 8.35247 10.7376 8.1316 10.7524 8.02585C10.7672 7.9201 10.5587 7.80347 10.2864 7.7656C10.0142 7.72772 9.78187 7.78285 9.76743 7.8886ZM10.2958 8.41847L10.2195 8.41322C10.0507 8.38978 9.88012 8.28347 9.76331 8.1286C9.72225 8.07422 9.65531 7.96885 9.66862 7.87472C9.68756 7.73672 9.85593 7.65403 10.1186 7.65403C10.1773 7.65403 10.2384 7.65835 10.2999 7.66697C10.4436 7.68685 10.5769 7.72828 10.6753 7.78322C10.8459 7.87847 10.8585 7.98478 10.8508 8.03972C10.8298 8.19216 10.5874 8.41847 10.2958 8.41847ZM9.86662 7.90622C9.87506 7.97147 10.0367 8.18672 10.2471 8.21578L10.296 8.21916C10.4902 8.21916 10.6354 8.06635 10.6524 8.01628C10.6344 7.98216 10.5096 7.89741 10.2727 7.86441C10.2217 7.8572 10.1703 7.85351 10.1188 7.85335C9.96656 7.85335 9.88575 7.88766 9.86662 7.90622ZM18.0426 7.67278C18.0574 7.77853 17.8489 8.06091 17.5768 8.09878C17.3049 8.13666 17.0722 7.91597 17.0572 7.81022C17.043 7.70447 17.2515 7.58766 17.5234 7.54997C17.7952 7.51191 18.0276 7.56722 18.0426 7.67278ZM17.514 8.15278C17.2522 8.15278 17.0263 7.94916 17.0077 7.81697C16.9862 7.65835 17.2474 7.53778 17.5162 7.50047C17.5755 7.49222 17.6342 7.4881 17.6906 7.4881C17.9227 7.4881 18.0765 7.55616 18.0919 7.66603C18.1018 7.7371 18.0472 7.84678 17.9533 7.94578C17.8912 8.01085 17.7609 8.12353 17.5834 8.1481L17.514 8.15278ZM17.6908 7.58785C17.6388 7.58785 17.5853 7.59166 17.5303 7.59928C17.2601 7.63697 17.0989 7.74535 17.1067 7.80347C17.1157 7.86741 17.2882 8.05322 17.5142 8.05322L17.5699 8.04928C17.7174 8.02885 17.8282 7.93247 17.8811 7.87697C17.9642 7.78978 17.9972 7.70766 17.9932 7.67972C17.988 7.6426 17.8882 7.58785 17.6908 7.58785ZM18.4342 13.7459C18.38 13.7459 18.3269 13.7312 18.2804 13.7034C18.2339 13.6755 18.1959 13.6355 18.1703 13.5877C18.1448 13.5398 18.1328 13.486 18.1356 13.4318C18.1383 13.3777 18.1558 13.3253 18.186 13.2803C18.8231 12.3288 18.7065 11.3585 18.5938 10.42C18.5456 10.0203 18.4961 9.60685 18.5089 9.2101C18.522 8.80191 18.5739 8.46516 18.624 8.13947C18.6834 7.7536 18.7397 7.3891 18.7164 6.95635C18.7143 6.91712 18.7199 6.87787 18.733 6.84082C18.7461 6.80377 18.7663 6.76965 18.7925 6.74042C18.8188 6.71119 18.8505 6.68741 18.8859 6.67044C18.9213 6.65347 18.9598 6.64365 18.999 6.64153C19.0382 6.63942 19.0775 6.64505 19.1145 6.6581C19.1516 6.67115 19.1857 6.69138 19.2149 6.71762C19.274 6.77061 19.3095 6.84488 19.3138 6.9241C19.3404 7.41872 19.2769 7.83122 19.2154 8.23041C19.1679 8.53847 19.1188 8.85703 19.107 9.22922C19.0956 9.5806 19.1404 9.95372 19.1878 10.3486C19.3078 11.3465 19.4437 12.4775 18.6832 13.6132C18.6558 13.654 18.6187 13.6875 18.5753 13.7106C18.5319 13.7338 18.4835 13.7459 18.4342 13.7459Z" fill="white"/>
</g>
<defs>
<clipPath id="clip0_2042_1927">
<rect width="24" height="24" fill="white" transform="translate(0 0.0917969)"/>
</clipPath>
</defs>
</svg>
