<svg width="28" height="24" viewBox="0 0 28 24" fill="none" xmlns="http://www.w3.org/2000/svg">
<g clip-path="url(#clip0_2042_1330)">
<path d="M22.849 7.77093C22.5623 7.67256 22.273 7.58141 21.9817 7.49756C22.0306 7.29756 22.0757 7.09998 22.1157 6.90588C22.7723 3.7184 22.343 1.15051 20.8768 0.305034C19.471 -0.505492 17.172 0.339666 14.8501 2.3604C14.6213 2.5599 14.3975 2.76516 14.179 2.97598C14.0328 2.8358 13.884 2.69834 13.7326 2.56367C11.2991 0.403034 8.85998 -0.507597 7.39535 0.340297C5.99083 1.15335 5.57493 3.56735 6.16609 6.58819C6.22491 6.88737 6.29131 7.18501 6.36525 7.48082C6.01998 7.57893 5.68683 7.68335 5.36798 7.79451C2.51493 8.78924 0.692932 10.3481 0.692932 11.965C0.692932 13.635 2.64893 15.3101 5.62051 16.3258C5.86143 16.4078 6.10435 16.4837 6.34904 16.5537C6.26959 16.8723 6.19904 17.193 6.13746 17.5156C5.57388 20.484 6.01398 22.8409 7.41472 23.6488C8.86146 24.4831 11.2897 23.6257 13.654 21.5588C13.8457 21.3908 14.0332 21.218 14.2163 21.0406C14.4529 21.2689 14.6958 21.4905 14.9447 21.7052C17.235 23.676 19.4969 24.4718 20.8963 23.6617C22.3417 22.8249 22.8115 20.2929 22.2016 17.2124C22.1535 16.9711 22.0996 16.7309 22.04 16.4922C22.2105 16.4417 22.3779 16.3897 22.541 16.3356C25.6303 15.3121 27.6403 13.6573 27.6403 11.965C27.6403 10.3422 25.7595 8.77282 22.849 7.77093ZM22.179 15.2429C22.0315 15.2916 21.8807 15.3388 21.7264 15.3845C21.3854 14.3048 20.9251 13.1568 20.3619 11.9706C20.8994 10.8127 21.3419 9.67935 21.6734 8.60672C21.949 8.68651 22.2165 8.77061 22.4744 8.85935C24.9681 9.71788 26.4891 10.987 26.4891 11.965C26.4891 13.0067 24.8464 14.359 22.179 15.2429ZM21.0723 17.436C21.342 18.7981 21.3804 20.0297 21.2018 20.9925C21.0414 21.8577 20.7186 22.4344 20.3195 22.6655C19.4703 23.157 17.6542 22.5181 15.6956 20.8326C15.464 20.633 15.2381 20.4269 15.018 20.2147C15.7774 19.3843 16.5362 18.4189 17.2768 17.3467C18.5796 17.2311 19.8103 17.0421 20.9264 16.7841C20.9815 17.006 21.0301 17.2233 21.0723 17.436ZM9.87988 22.5805C9.0502 22.8735 8.38935 22.8819 7.98988 22.6516C7.13988 22.1614 6.78651 20.2688 7.26851 17.7303C7.32581 17.4303 7.39142 17.132 7.46525 16.8357C8.56904 17.0799 9.79083 17.2555 11.0966 17.3614C11.8423 18.4105 12.623 19.3748 13.4099 20.2192C13.2427 20.381 13.0715 20.5387 12.8965 20.6921C11.8509 21.606 10.8032 22.2544 9.87988 22.5805ZM5.99293 15.2365C4.67893 14.7874 3.59377 14.2037 2.84998 13.5667C2.18156 12.9944 1.8442 12.4261 1.8442 11.965C1.8442 10.9838 3.30704 9.73219 5.74693 8.88156C6.04304 8.7784 6.35293 8.68103 6.67451 8.58967C7.01177 9.68651 7.45409 10.8334 7.98788 11.993C7.44714 13.1699 6.99851 14.335 6.65798 15.4448C6.43463 15.3808 6.21288 15.3114 5.99293 15.2365ZM7.29588 6.36703C6.78946 3.77893 7.12577 1.82661 7.9722 1.33661C8.87367 0.814718 10.8671 1.55882 12.9683 3.42451C13.1053 3.54644 13.2401 3.67084 13.3726 3.79767C12.5897 4.6384 11.8161 5.59556 11.077 6.63851C9.80967 6.75598 8.59651 6.94461 7.48114 7.19735C7.41241 6.92222 7.35063 6.64529 7.29588 6.36703ZM18.9198 9.23746C18.6563 8.7824 18.3831 8.33307 18.1003 7.88977C18.9601 7.99851 19.7839 8.14282 20.5575 8.31924C20.3252 9.06367 20.0358 9.84188 19.695 10.6398C19.446 10.1672 19.1875 9.69968 18.9198 9.23746ZM14.1796 4.62051C14.7105 5.19577 15.2423 5.83798 15.7654 6.53482C14.7043 6.48471 13.6415 6.4845 12.5804 6.53419C13.104 5.84377 13.6403 5.2024 14.1796 4.62051ZM9.40893 9.24524C9.14454 9.70375 8.89089 10.1684 8.64819 10.6387C8.31304 9.84367 8.0262 9.06188 7.79199 8.30693C8.56083 8.13493 9.38072 7.9943 10.235 7.88756C9.9491 8.33357 9.67365 8.78632 9.40893 9.24524ZM10.2596 16.1243C9.37693 16.0258 8.54472 15.8924 7.77609 15.725C8.01398 14.9566 8.30714 14.1582 8.64956 13.3461C8.89322 13.8168 9.14793 14.2817 9.41346 14.7404C9.68651 15.212 9.96925 15.6739 10.2596 16.1243ZM14.2114 19.3906C13.6657 18.802 13.1215 18.1507 12.59 17.4503C13.106 17.4705 13.632 17.4808 14.1666 17.4808C14.7159 17.4808 15.2588 17.4685 15.7932 17.4447C15.2685 18.1578 14.7387 18.81 14.2114 19.3906ZM19.7059 13.3046C20.0661 14.1257 20.3697 14.9199 20.6107 15.6751C19.8295 15.8535 18.9859 15.997 18.097 16.1037C18.3819 15.6522 18.6577 15.195 18.9243 14.7325C19.1954 14.2624 19.456 13.7863 19.7059 13.3046ZM17.9271 14.1574C17.5189 14.8664 17.0878 15.5621 16.6344 16.2431C15.8131 16.3013 14.99 16.3302 14.1666 16.3298C13.328 16.3298 12.5123 16.3037 11.7268 16.2527C11.2616 15.5732 10.8222 14.8764 10.4097 14.1637C9.99902 13.4547 9.61559 12.7305 9.25998 11.9924C9.61469 11.2542 9.99707 10.5295 10.4063 9.82009L10.4062 9.82019C10.8152 9.11051 11.2511 8.41665 11.7128 7.74009C12.5142 7.67946 13.336 7.64788 14.1665 7.64788C15.0008 7.64788 15.8238 7.67977 16.6249 7.74082C17.082 8.41637 17.5151 9.10785 17.9234 9.81398C18.3339 10.5219 18.7213 11.243 19.085 11.9761C18.725 12.7167 18.3388 13.4442 17.9271 14.1574ZM20.3019 1.30219C21.2042 1.82261 21.5551 3.92124 20.9882 6.67335C20.9518 6.84907 20.9115 7.02767 20.8671 7.20914C19.749 6.95103 18.535 6.75914 17.264 6.63988C16.5236 5.58545 15.7563 4.62682 14.9861 3.79693C15.188 3.60236 15.3946 3.41283 15.6059 3.22851C17.5954 1.49724 19.4547 0.813666 20.3019 1.30219ZM14.1666 9.55872C15.4956 9.55872 16.5729 10.6361 16.5729 11.965C16.5729 13.294 15.4956 14.3714 14.1666 14.3714C12.8377 14.3714 11.7603 13.294 11.7603 11.965C11.7603 10.6361 12.8377 9.55872 14.1666 9.55872Z" fill="#00D8FF"/>
</g>
<defs>
<clipPath id="clip0_2042_1330">
<rect width="26.9474" height="24" fill="white" transform="translate(0.692993)"/>
</clipPath>
</defs>
</svg>
