<svg width="22" height="25" viewBox="0 0 22 25" fill="none" xmlns="http://www.w3.org/2000/svg">
<g clip-path="url(#clip0_2042_1942)">
<path d="M18.6481 5.03959C18.6314 4.91792 18.5248 4.85059 18.4367 4.84317C17.7872 4.79437 17.1377 4.74595 16.4881 4.69792C16.4881 4.69792 15.1959 3.41501 15.0541 3.27301C14.9121 3.13109 14.635 3.17426 14.5274 3.20592C14.5116 3.21059 14.2451 3.29284 13.8042 3.42926C13.3726 2.18709 12.6107 1.04559 11.2705 1.04559C11.2335 1.04559 11.1954 1.04709 11.1573 1.04926C10.7761 0.545172 10.304 0.326172 9.89614 0.326172C6.77406 0.326172 5.28248 4.22909 4.81481 6.21242C3.60165 6.58834 2.73981 6.85559 2.62973 6.89017C1.95256 7.10259 1.93115 7.12392 1.84223 7.76201C1.77531 8.24509 0.003479 21.9475 0.003479 21.9475L13.81 24.5343L21.2908 22.916C21.2908 22.916 18.6646 5.16126 18.6481 5.03959ZM13.0411 3.66526L11.8729 4.02684C11.8733 3.94451 11.8737 3.86351 11.8737 3.77492C11.8737 3.00292 11.7666 2.38134 11.5946 1.88859C12.2852 1.97526 12.7451 2.76101 13.0411 3.66526ZM10.738 2.04167C10.93 2.52276 11.0548 3.21317 11.0548 4.14484C11.0548 4.19251 11.0544 4.23609 11.054 4.28017C10.2942 4.51551 9.46865 4.77101 8.64123 5.02734C9.10581 3.23434 9.97665 2.36834 10.738 2.04167ZM9.8104 1.16359C9.94514 1.16359 10.0809 1.20934 10.2108 1.29876C9.21023 1.76959 8.13773 2.95542 7.68481 5.32351L5.77765 5.91417C6.30815 4.10792 7.56789 1.16359 9.8104 1.16359Z" fill="#95BF46"/>
<path d="M18.4368 4.84339C17.7873 4.79459 17.1378 4.74617 16.4882 4.69814C16.4882 4.69814 15.196 3.41522 15.0541 3.27322C15.0011 3.22039 14.9295 3.19331 14.8546 3.18164L13.8107 24.5344L21.2909 22.9162C21.2909 22.9162 18.6647 5.16147 18.6482 5.03981C18.6315 4.91814 18.5249 4.85081 18.4368 4.84339Z" fill="#5E8E3E"/>
<path d="M11.2703 8.97673L10.3479 11.7206C10.3479 11.7206 9.53972 11.2892 8.54905 11.2892C7.09672 11.2892 7.02364 12.2007 7.02364 12.4303C7.02364 13.6835 10.2903 14.1637 10.2903 17.099C10.2903 19.4084 8.82555 20.8955 6.85055 20.8955C4.48055 20.8955 3.26855 19.4205 3.26855 19.4205L3.90314 17.3238C3.90314 17.3238 5.14897 18.3934 6.20022 18.3934C6.88714 18.3934 7.16655 17.8526 7.16655 17.4574C7.16655 15.8227 4.48655 15.7498 4.48655 13.0637C4.48655 10.803 6.10922 8.61523 9.38472 8.61523C10.6468 8.61523 11.2703 8.97673 11.2703 8.97673Z" fill="white"/>
</g>
<defs>
<clipPath id="clip0_2042_1942">
<rect width="21.3333" height="24.3333" fill="white" transform="translate(0 0.26123)"/>
</clipPath>
</defs>
</svg>
