<svg width="25" height="25" viewBox="0 0 25 25" fill="none" xmlns="http://www.w3.org/2000/svg">
<g clip-path="url(#clip0_2042_1910)">
<path d="M0.833374 8.41183C0.833374 4.4897 0.833374 2.52864 2.05184 1.31027C3.27031 0.0918906 5.23119 0.0917969 9.15341 0.0917969H16.5134C20.4355 0.0917969 22.3964 0.0917969 23.615 1.31027C24.8334 2.52864 24.8334 4.48961 24.8334 8.41183V15.7719C24.8334 19.6939 24.8334 21.6549 23.6149 22.8734C22.3964 24.0918 20.4356 24.0918 16.5133 24.0918H9.1535C5.23137 24.0918 3.27031 24.0918 2.05194 22.8733C0.833562 21.6549 0.833374 19.694 0.833374 15.7718V8.41183Z" fill="#4945FF"/>
<path d="M17.3939 7.37158H9.31384V11.4916H13.4339V15.6116H17.5538V7.53161C17.5538 7.44321 17.4822 7.37158 17.3939 7.37158Z" fill="white"/>
<path d="M13.2728 11.4919H13.4329V11.652H13.2728V11.4919Z" fill="white"/>
<path d="M9.31402 11.4916H13.274C13.3624 11.4916 13.434 11.5632 13.434 11.6516V15.6116H9.47405C9.45304 15.6116 9.43223 15.6074 9.41281 15.5994C9.3934 15.5914 9.37576 15.5796 9.36089 15.5647C9.34603 15.5499 9.33424 15.5323 9.3262 15.5128C9.31816 15.4934 9.31402 15.4726 9.31402 15.4516V11.4916ZM13.434 15.6116H17.554L13.5705 19.595C13.5202 19.6454 13.434 19.6097 13.434 19.5386V15.6116ZM9.31402 11.4916H5.38711C5.31586 11.4916 5.28024 11.4054 5.33058 11.355L9.31402 7.37158V11.4916Z" fill="#9593FF"/>
</g>
<defs>
<clipPath id="clip0_2042_1910">
<rect width="24" height="24" fill="white" transform="translate(0.833374 0.0917969)"/>
</clipPath>
</defs>
</svg>
