<svg width="25" height="25" viewBox="0 0 25 25" fill="none" xmlns="http://www.w3.org/2000/svg">
<g clip-path="url(#clip0_2042_1949)">
<path d="M22.1396 17.1344H2.52712C1.30837 17.1344 0.333374 16.1594 0.333374 14.9406V7.44063C0.333374 6.24063 1.30837 5.26562 2.52712 5.26562H22.1584C23.3584 5.26562 24.3521 6.24063 24.3521 7.45938V14.9594C24.3334 16.1594 23.3584 17.1344 22.1396 17.1344Z" fill="#7F54B3"/>
<path d="M2.92068 14.8087C2.92068 14.8087 3.44568 17.0212 4.51443 15.5399C5.58318 14.0587 6.61443 11.7337 6.61443 11.7337C6.61443 11.7337 6.68943 11.1524 6.98943 12.4274C7.28943 13.7024 8.58318 15.4274 8.58318 15.4274C8.58318 15.4274 9.76443 16.9087 10.2519 15.3524C10.0644 13.2899 10.7769 9.53995 11.5082 7.73995C11.8082 6.1462 10.1394 6.5962 9.98943 6.9712C9.83943 7.3462 8.80818 9.7462 8.73318 12.2587C8.73318 12.2587 7.85193 9.8587 7.77693 8.9962C7.70193 8.11495 6.78318 7.88995 6.25818 8.7337C5.73318 9.57745 4.13943 12.8399 4.13943 12.8399L3.10818 7.51495C3.10818 7.51495 2.07693 6.1462 1.47693 7.81495C1.47693 7.81495 2.54568 14.3587 2.92068 14.8087ZM16.6457 8.9962C15.0519 6.3337 12.6894 8.3587 12.6894 8.3587C12.6894 8.3587 10.8894 10.4399 11.6957 13.2712C12.9894 16.0649 14.8082 14.8274 15.2957 14.6024C15.8019 14.3587 17.9394 11.9212 16.6457 8.9962ZM15.4269 11.3399C15.4269 12.4462 14.5082 13.4774 13.7582 13.2524C13.3457 13.0087 13.0832 12.3524 13.0832 11.2274C13.4582 9.4087 14.2832 9.16495 14.7144 9.20245C15.5207 9.6337 15.4832 10.5899 15.4269 11.3399ZM22.6269 8.9962C21.0332 6.3337 18.6707 8.3587 18.6707 8.3587C18.6707 8.3587 16.8707 10.4399 17.6769 13.2712C18.9707 16.0649 20.7894 14.8274 21.2769 14.6024C21.7644 14.3587 23.9207 11.9212 22.6269 8.9962ZM21.4082 11.3399C21.4082 12.4462 20.4894 13.4774 19.7394 13.2524C19.3269 13.0087 19.0644 12.3524 19.0644 11.2274C19.4394 9.4087 20.2644 9.16495 20.6957 9.20245C21.4832 9.6337 21.4457 10.5899 21.4082 11.3399Z" fill="white"/>
<path d="M11.8265 17.134L16.0078 19.5902L15.1265 17.134L12.7265 16.459L11.8265 17.134Z" fill="#7F54B3"/>
</g>
<defs>
<clipPath id="clip0_2042_1949">
<rect width="24" height="24" fill="white" transform="translate(0.333374 0.427734)"/>
</clipPath>
</defs>
</svg>
