<svg width="25" height="25" viewBox="0 0 25 25" fill="none" xmlns="http://www.w3.org/2000/svg">
<path d="M12.1667 2.0918C6.65669 2.0918 2.16669 6.5818 2.16669 12.0918C2.16669 17.6018 6.65669 22.0918 12.1667 22.0918C17.6767 22.0918 22.1667 17.6018 22.1667 12.0918C22.1667 6.5818 17.6767 2.0918 12.1667 2.0918ZM3.17669 12.0918C3.17669 10.7918 3.45669 9.5518 3.95669 8.4318L8.24669 20.1818C5.24669 18.7218 3.17669 15.6518 3.17669 12.0918ZM12.1667 21.0818C11.2867 21.0818 10.4367 20.9518 9.62669 20.7118L12.3267 12.8718L15.0867 20.4418C15.1067 20.4818 15.1267 20.5318 15.1467 20.5618C14.2167 20.9018 13.2167 21.0818 12.1667 21.0818ZM13.4067 7.8718C13.9467 7.8418 14.4367 7.7818 14.4367 7.7818C14.9167 7.7218 14.8667 7.0118 14.3767 7.0418C14.3767 7.0418 12.9167 7.1518 11.9767 7.1518C11.0967 7.1518 9.60669 7.0418 9.60669 7.0418C9.12669 7.0218 9.06669 7.7618 9.55669 7.7918C9.55669 7.7918 10.0167 7.8518 10.4967 7.8818L11.8967 11.7218L9.92669 17.6218L6.65669 7.8718C7.19669 7.8518 7.68669 7.7918 7.68669 7.7918C8.16669 7.7318 8.11669 7.0218 7.62669 7.0518C7.62669 7.0518 6.16669 7.1618 5.22669 7.1618C5.05669 7.1618 4.85669 7.1618 4.64669 7.1518C6.26669 4.7118 9.02669 3.1018 12.1667 3.1018C14.5067 3.1018 16.6367 3.9918 18.2367 5.4618C18.1967 5.4618 18.1567 5.4518 18.1167 5.4518C17.2367 5.4518 16.6067 6.2218 16.6067 7.0518C16.6067 7.7918 17.0367 8.4218 17.4867 9.1618C17.8267 9.7618 18.2267 10.5318 18.2267 11.6418C18.2267 12.4118 17.9267 13.3018 17.5467 14.5518L16.6467 17.5518L13.4067 7.8718ZM20.0567 7.7818C21.1794 9.83754 21.4554 12.2503 20.826 14.5065C20.1966 16.7627 18.7114 18.6841 16.6867 19.8618L19.4367 11.9218C19.9467 10.6418 20.1167 9.6118 20.1167 8.7018C20.1167 8.3718 20.0967 8.0618 20.0567 7.7818Z" fill="#3B82F6"/>
</svg>
